G04 #@! TF.GenerationSoftware,KiCad,Pcbnew,(5.1.6-0)*
G04 #@! TF.CreationDate,2020-12-03T20:50:06+01:00*
G04 #@! TF.ProjectId,ESP32_TFT,45535033-325f-4544-9654-2e6b69636164,rev?*
G04 #@! TF.SameCoordinates,Original*
G04 #@! TF.FileFunction,Soldermask,Top*
G04 #@! TF.FilePolarity,Negative*
%FSLAX46Y46*%
G04 Gerber Fmt 4.6, Leading zero omitted, Abs format (unit mm)*
G04 Created by KiCad (PCBNEW (5.1.6-0)) date 2020-12-03 20:50:06*
%MOMM*%
%LPD*%
G01*
G04 APERTURE LIST*
%ADD10C,1.000000*%
%ADD11R,1.350000X2.600000*%
%ADD12R,1.250000X0.400000*%
%ADD13C,0.750000*%
%ADD14O,1.700000X1.100000*%
%ADD15O,2.200000X1.100000*%
%ADD16C,0.100000*%
%ADD17R,3.100000X3.100000*%
%ADD18R,1.100000X1.600000*%
%ADD19R,1.000000X0.900000*%
%ADD20R,1.100000X3.250000*%
%ADD21C,0.900000*%
%ADD22C,5.100000*%
%ADD23R,2.300000X1.900000*%
%ADD24R,1.400000X0.400000*%
%ADD25R,2.100000X1.150000*%
%ADD26R,5.100000X5.100000*%
%ADD27R,1.000000X2.100000*%
%ADD28R,2.100000X1.000000*%
%ADD29R,2.600000X1.900000*%
%ADD30R,3.450000X3.450000*%
%ADD31R,0.750000X1.160000*%
%ADD32C,1.100000*%
%ADD33R,0.800000X1.400000*%
%ADD34R,1.300000X1.500000*%
%ADD35R,1.300000X2.100000*%
G04 APERTURE END LIST*
D10*
X126730000Y-91580000D03*
X119930000Y-91580000D03*
D11*
X125830000Y-88830000D03*
X123330000Y-88830000D03*
X120830000Y-88830000D03*
D12*
X130930000Y-75150000D03*
X130930000Y-75950000D03*
X130930000Y-80750000D03*
X130930000Y-81550000D03*
X130930000Y-81850000D03*
X130930000Y-81050000D03*
X130930000Y-80250000D03*
X130930000Y-79750000D03*
X130930000Y-79250000D03*
X130930000Y-78750000D03*
X130930000Y-78250000D03*
X130930000Y-77750000D03*
X130930000Y-77250000D03*
X130930000Y-76750000D03*
X130930000Y-76250000D03*
X130930000Y-75450000D03*
D13*
X131995000Y-81390000D03*
X131995000Y-75610000D03*
D14*
X135675000Y-74180000D03*
X135675000Y-82820000D03*
D15*
X131495000Y-74180000D03*
X131495000Y-82820000D03*
G36*
G01*
X108775000Y-50621250D02*
X108775000Y-50058750D01*
G75*
G02*
X109018750Y-49815000I243750J0D01*
G01*
X109506250Y-49815000D01*
G75*
G02*
X109750000Y-50058750I0J-243750D01*
G01*
X109750000Y-50621250D01*
G75*
G02*
X109506250Y-50865000I-243750J0D01*
G01*
X109018750Y-50865000D01*
G75*
G02*
X108775000Y-50621250I0J243750D01*
G01*
G37*
G36*
G01*
X110350000Y-50621250D02*
X110350000Y-50058750D01*
G75*
G02*
X110593750Y-49815000I243750J0D01*
G01*
X111081250Y-49815000D01*
G75*
G02*
X111325000Y-50058750I0J-243750D01*
G01*
X111325000Y-50621250D01*
G75*
G02*
X111081250Y-50865000I-243750J0D01*
G01*
X110593750Y-50865000D01*
G75*
G02*
X110350000Y-50621250I0J243750D01*
G01*
G37*
D16*
G36*
X101100602Y-90343889D02*
G01*
X101100602Y-90325466D01*
X101100843Y-90320565D01*
X101105653Y-90271734D01*
X101106373Y-90266881D01*
X101115945Y-90218756D01*
X101117137Y-90213995D01*
X101131381Y-90167040D01*
X101133034Y-90162421D01*
X101151811Y-90117088D01*
X101153909Y-90112651D01*
X101177040Y-90069378D01*
X101179562Y-90065171D01*
X101206822Y-90024372D01*
X101209746Y-90020430D01*
X101240874Y-89982501D01*
X101244169Y-89978866D01*
X101278866Y-89944169D01*
X101282501Y-89940874D01*
X101320430Y-89909746D01*
X101324372Y-89906822D01*
X101365171Y-89879562D01*
X101369378Y-89877040D01*
X101412651Y-89853909D01*
X101417088Y-89851811D01*
X101462421Y-89833034D01*
X101467040Y-89831381D01*
X101513995Y-89817137D01*
X101518756Y-89815945D01*
X101566881Y-89806373D01*
X101571734Y-89805653D01*
X101620565Y-89800843D01*
X101625466Y-89800602D01*
X101643889Y-89800602D01*
X101650000Y-89800000D01*
X102150000Y-89800000D01*
X102156111Y-89800602D01*
X102174534Y-89800602D01*
X102179435Y-89800843D01*
X102228266Y-89805653D01*
X102233119Y-89806373D01*
X102281244Y-89815945D01*
X102286005Y-89817137D01*
X102332960Y-89831381D01*
X102337579Y-89833034D01*
X102382912Y-89851811D01*
X102387349Y-89853909D01*
X102430622Y-89877040D01*
X102434829Y-89879562D01*
X102475628Y-89906822D01*
X102479570Y-89909746D01*
X102517499Y-89940874D01*
X102521134Y-89944169D01*
X102555831Y-89978866D01*
X102559126Y-89982501D01*
X102590254Y-90020430D01*
X102593178Y-90024372D01*
X102620438Y-90065171D01*
X102622960Y-90069378D01*
X102646091Y-90112651D01*
X102648189Y-90117088D01*
X102666966Y-90162421D01*
X102668619Y-90167040D01*
X102682863Y-90213995D01*
X102684055Y-90218756D01*
X102693627Y-90266881D01*
X102694347Y-90271734D01*
X102699157Y-90320565D01*
X102699398Y-90325466D01*
X102699398Y-90343889D01*
X102700000Y-90350000D01*
X102700000Y-90850000D01*
X102699039Y-90859755D01*
X102696194Y-90869134D01*
X102691573Y-90877779D01*
X102685355Y-90885355D01*
X102677779Y-90891573D01*
X102669134Y-90896194D01*
X102659755Y-90899039D01*
X102650000Y-90900000D01*
X101150000Y-90900000D01*
X101140245Y-90899039D01*
X101130866Y-90896194D01*
X101122221Y-90891573D01*
X101114645Y-90885355D01*
X101108427Y-90877779D01*
X101103806Y-90869134D01*
X101100961Y-90859755D01*
X101100000Y-90850000D01*
X101100000Y-90350000D01*
X101100602Y-90343889D01*
G37*
G36*
X101100961Y-91140245D02*
G01*
X101103806Y-91130866D01*
X101108427Y-91122221D01*
X101114645Y-91114645D01*
X101122221Y-91108427D01*
X101130866Y-91103806D01*
X101140245Y-91100961D01*
X101150000Y-91100000D01*
X102650000Y-91100000D01*
X102659755Y-91100961D01*
X102669134Y-91103806D01*
X102677779Y-91108427D01*
X102685355Y-91114645D01*
X102691573Y-91122221D01*
X102696194Y-91130866D01*
X102699039Y-91140245D01*
X102700000Y-91150000D01*
X102700000Y-91650000D01*
X102699398Y-91656111D01*
X102699398Y-91674534D01*
X102699157Y-91679435D01*
X102694347Y-91728266D01*
X102693627Y-91733119D01*
X102684055Y-91781244D01*
X102682863Y-91786005D01*
X102668619Y-91832960D01*
X102666966Y-91837579D01*
X102648189Y-91882912D01*
X102646091Y-91887349D01*
X102622960Y-91930622D01*
X102620438Y-91934829D01*
X102593178Y-91975628D01*
X102590254Y-91979570D01*
X102559126Y-92017499D01*
X102555831Y-92021134D01*
X102521134Y-92055831D01*
X102517499Y-92059126D01*
X102479570Y-92090254D01*
X102475628Y-92093178D01*
X102434829Y-92120438D01*
X102430622Y-92122960D01*
X102387349Y-92146091D01*
X102382912Y-92148189D01*
X102337579Y-92166966D01*
X102332960Y-92168619D01*
X102286005Y-92182863D01*
X102281244Y-92184055D01*
X102233119Y-92193627D01*
X102228266Y-92194347D01*
X102179435Y-92199157D01*
X102174534Y-92199398D01*
X102156111Y-92199398D01*
X102150000Y-92200000D01*
X101650000Y-92200000D01*
X101643889Y-92199398D01*
X101625466Y-92199398D01*
X101620565Y-92199157D01*
X101571734Y-92194347D01*
X101566881Y-92193627D01*
X101518756Y-92184055D01*
X101513995Y-92182863D01*
X101467040Y-92168619D01*
X101462421Y-92166966D01*
X101417088Y-92148189D01*
X101412651Y-92146091D01*
X101369378Y-92122960D01*
X101365171Y-92120438D01*
X101324372Y-92093178D01*
X101320430Y-92090254D01*
X101282501Y-92059126D01*
X101278866Y-92055831D01*
X101244169Y-92021134D01*
X101240874Y-92017499D01*
X101209746Y-91979570D01*
X101206822Y-91975628D01*
X101179562Y-91934829D01*
X101177040Y-91930622D01*
X101153909Y-91887349D01*
X101151811Y-91882912D01*
X101133034Y-91837579D01*
X101131381Y-91832960D01*
X101117137Y-91786005D01*
X101115945Y-91781244D01*
X101106373Y-91733119D01*
X101105653Y-91728266D01*
X101100843Y-91679435D01*
X101100602Y-91674534D01*
X101100602Y-91656111D01*
X101100000Y-91650000D01*
X101100000Y-91150000D01*
X101100961Y-91140245D01*
G37*
G36*
X136256111Y-85300602D02*
G01*
X136274534Y-85300602D01*
X136279435Y-85300843D01*
X136328266Y-85305653D01*
X136333119Y-85306373D01*
X136381244Y-85315945D01*
X136386005Y-85317137D01*
X136432960Y-85331381D01*
X136437579Y-85333034D01*
X136482912Y-85351811D01*
X136487349Y-85353909D01*
X136530622Y-85377040D01*
X136534829Y-85379562D01*
X136575628Y-85406822D01*
X136579570Y-85409746D01*
X136617499Y-85440874D01*
X136621134Y-85444169D01*
X136655831Y-85478866D01*
X136659126Y-85482501D01*
X136690254Y-85520430D01*
X136693178Y-85524372D01*
X136720438Y-85565171D01*
X136722960Y-85569378D01*
X136746091Y-85612651D01*
X136748189Y-85617088D01*
X136766966Y-85662421D01*
X136768619Y-85667040D01*
X136782863Y-85713995D01*
X136784055Y-85718756D01*
X136793627Y-85766881D01*
X136794347Y-85771734D01*
X136799157Y-85820565D01*
X136799398Y-85825466D01*
X136799398Y-85843889D01*
X136800000Y-85850000D01*
X136800000Y-86350000D01*
X136799398Y-86356111D01*
X136799398Y-86374534D01*
X136799157Y-86379435D01*
X136794347Y-86428266D01*
X136793627Y-86433119D01*
X136784055Y-86481244D01*
X136782863Y-86486005D01*
X136768619Y-86532960D01*
X136766966Y-86537579D01*
X136748189Y-86582912D01*
X136746091Y-86587349D01*
X136722960Y-86630622D01*
X136720438Y-86634829D01*
X136693178Y-86675628D01*
X136690254Y-86679570D01*
X136659126Y-86717499D01*
X136655831Y-86721134D01*
X136621134Y-86755831D01*
X136617499Y-86759126D01*
X136579570Y-86790254D01*
X136575628Y-86793178D01*
X136534829Y-86820438D01*
X136530622Y-86822960D01*
X136487349Y-86846091D01*
X136482912Y-86848189D01*
X136437579Y-86866966D01*
X136432960Y-86868619D01*
X136386005Y-86882863D01*
X136381244Y-86884055D01*
X136333119Y-86893627D01*
X136328266Y-86894347D01*
X136279435Y-86899157D01*
X136274534Y-86899398D01*
X136256111Y-86899398D01*
X136250000Y-86900000D01*
X135750000Y-86900000D01*
X135740245Y-86899039D01*
X135730866Y-86896194D01*
X135722221Y-86891573D01*
X135714645Y-86885355D01*
X135708427Y-86877779D01*
X135703806Y-86869134D01*
X135700961Y-86859755D01*
X135700000Y-86850000D01*
X135700000Y-85350000D01*
X135700961Y-85340245D01*
X135703806Y-85330866D01*
X135708427Y-85322221D01*
X135714645Y-85314645D01*
X135722221Y-85308427D01*
X135730866Y-85303806D01*
X135740245Y-85300961D01*
X135750000Y-85300000D01*
X136250000Y-85300000D01*
X136256111Y-85300602D01*
G37*
G36*
X135459755Y-85300961D02*
G01*
X135469134Y-85303806D01*
X135477779Y-85308427D01*
X135485355Y-85314645D01*
X135491573Y-85322221D01*
X135496194Y-85330866D01*
X135499039Y-85340245D01*
X135500000Y-85350000D01*
X135500000Y-86850000D01*
X135499039Y-86859755D01*
X135496194Y-86869134D01*
X135491573Y-86877779D01*
X135485355Y-86885355D01*
X135477779Y-86891573D01*
X135469134Y-86896194D01*
X135459755Y-86899039D01*
X135450000Y-86900000D01*
X134950000Y-86900000D01*
X134943889Y-86899398D01*
X134925466Y-86899398D01*
X134920565Y-86899157D01*
X134871734Y-86894347D01*
X134866881Y-86893627D01*
X134818756Y-86884055D01*
X134813995Y-86882863D01*
X134767040Y-86868619D01*
X134762421Y-86866966D01*
X134717088Y-86848189D01*
X134712651Y-86846091D01*
X134669378Y-86822960D01*
X134665171Y-86820438D01*
X134624372Y-86793178D01*
X134620430Y-86790254D01*
X134582501Y-86759126D01*
X134578866Y-86755831D01*
X134544169Y-86721134D01*
X134540874Y-86717499D01*
X134509746Y-86679570D01*
X134506822Y-86675628D01*
X134479562Y-86634829D01*
X134477040Y-86630622D01*
X134453909Y-86587349D01*
X134451811Y-86582912D01*
X134433034Y-86537579D01*
X134431381Y-86532960D01*
X134417137Y-86486005D01*
X134415945Y-86481244D01*
X134406373Y-86433119D01*
X134405653Y-86428266D01*
X134400843Y-86379435D01*
X134400602Y-86374534D01*
X134400602Y-86356111D01*
X134400000Y-86350000D01*
X134400000Y-85850000D01*
X134400602Y-85843889D01*
X134400602Y-85825466D01*
X134400843Y-85820565D01*
X134405653Y-85771734D01*
X134406373Y-85766881D01*
X134415945Y-85718756D01*
X134417137Y-85713995D01*
X134431381Y-85667040D01*
X134433034Y-85662421D01*
X134451811Y-85617088D01*
X134453909Y-85612651D01*
X134477040Y-85569378D01*
X134479562Y-85565171D01*
X134506822Y-85524372D01*
X134509746Y-85520430D01*
X134540874Y-85482501D01*
X134544169Y-85478866D01*
X134578866Y-85444169D01*
X134582501Y-85440874D01*
X134620430Y-85409746D01*
X134624372Y-85406822D01*
X134665171Y-85379562D01*
X134669378Y-85377040D01*
X134712651Y-85353909D01*
X134717088Y-85351811D01*
X134762421Y-85333034D01*
X134767040Y-85331381D01*
X134813995Y-85317137D01*
X134818756Y-85315945D01*
X134866881Y-85306373D01*
X134871734Y-85305653D01*
X134920565Y-85300843D01*
X134925466Y-85300602D01*
X134943889Y-85300602D01*
X134950000Y-85300000D01*
X135450000Y-85300000D01*
X135459755Y-85300961D01*
G37*
G36*
G01*
X130318750Y-71000000D02*
X130881250Y-71000000D01*
G75*
G02*
X131125000Y-71243750I0J-243750D01*
G01*
X131125000Y-71731250D01*
G75*
G02*
X130881250Y-71975000I-243750J0D01*
G01*
X130318750Y-71975000D01*
G75*
G02*
X130075000Y-71731250I0J243750D01*
G01*
X130075000Y-71243750D01*
G75*
G02*
X130318750Y-71000000I243750J0D01*
G01*
G37*
G36*
G01*
X130318750Y-69425000D02*
X130881250Y-69425000D01*
G75*
G02*
X131125000Y-69668750I0J-243750D01*
G01*
X131125000Y-70156250D01*
G75*
G02*
X130881250Y-70400000I-243750J0D01*
G01*
X130318750Y-70400000D01*
G75*
G02*
X130075000Y-70156250I0J243750D01*
G01*
X130075000Y-69668750D01*
G75*
G02*
X130318750Y-69425000I243750J0D01*
G01*
G37*
G36*
G01*
X128618750Y-71000000D02*
X129181250Y-71000000D01*
G75*
G02*
X129425000Y-71243750I0J-243750D01*
G01*
X129425000Y-71731250D01*
G75*
G02*
X129181250Y-71975000I-243750J0D01*
G01*
X128618750Y-71975000D01*
G75*
G02*
X128375000Y-71731250I0J243750D01*
G01*
X128375000Y-71243750D01*
G75*
G02*
X128618750Y-71000000I243750J0D01*
G01*
G37*
G36*
G01*
X128618750Y-69425000D02*
X129181250Y-69425000D01*
G75*
G02*
X129425000Y-69668750I0J-243750D01*
G01*
X129425000Y-70156250D01*
G75*
G02*
X129181250Y-70400000I-243750J0D01*
G01*
X128618750Y-70400000D01*
G75*
G02*
X128375000Y-70156250I0J243750D01*
G01*
X128375000Y-69668750D01*
G75*
G02*
X128618750Y-69425000I243750J0D01*
G01*
G37*
G36*
G01*
X129980000Y-86471250D02*
X129980000Y-85508750D01*
G75*
G02*
X130248750Y-85240000I268750J0D01*
G01*
X130786250Y-85240000D01*
G75*
G02*
X131055000Y-85508750I0J-268750D01*
G01*
X131055000Y-86471250D01*
G75*
G02*
X130786250Y-86740000I-268750J0D01*
G01*
X130248750Y-86740000D01*
G75*
G02*
X129980000Y-86471250I0J268750D01*
G01*
G37*
G36*
G01*
X128105000Y-86471250D02*
X128105000Y-85508750D01*
G75*
G02*
X128373750Y-85240000I268750J0D01*
G01*
X128911250Y-85240000D01*
G75*
G02*
X129180000Y-85508750I0J-268750D01*
G01*
X129180000Y-86471250D01*
G75*
G02*
X128911250Y-86740000I-268750J0D01*
G01*
X128373750Y-86740000D01*
G75*
G02*
X128105000Y-86471250I0J268750D01*
G01*
G37*
G36*
G01*
X129890000Y-88201250D02*
X129890000Y-87638750D01*
G75*
G02*
X130133750Y-87395000I243750J0D01*
G01*
X130621250Y-87395000D01*
G75*
G02*
X130865000Y-87638750I0J-243750D01*
G01*
X130865000Y-88201250D01*
G75*
G02*
X130621250Y-88445000I-243750J0D01*
G01*
X130133750Y-88445000D01*
G75*
G02*
X129890000Y-88201250I0J243750D01*
G01*
G37*
G36*
G01*
X128315000Y-88201250D02*
X128315000Y-87638750D01*
G75*
G02*
X128558750Y-87395000I243750J0D01*
G01*
X129046250Y-87395000D01*
G75*
G02*
X129290000Y-87638750I0J-243750D01*
G01*
X129290000Y-88201250D01*
G75*
G02*
X129046250Y-88445000I-243750J0D01*
G01*
X128558750Y-88445000D01*
G75*
G02*
X128315000Y-88201250I0J243750D01*
G01*
G37*
D17*
X84550000Y-45650000D03*
X67550000Y-45650000D03*
D18*
X81300000Y-68650000D03*
D16*
G36*
X82606111Y-67850602D02*
G01*
X82624534Y-67850602D01*
X82629435Y-67850843D01*
X82678266Y-67855653D01*
X82683119Y-67856373D01*
X82731244Y-67865945D01*
X82736005Y-67867137D01*
X82782960Y-67881381D01*
X82787579Y-67883034D01*
X82832912Y-67901811D01*
X82837349Y-67903909D01*
X82880622Y-67927040D01*
X82884829Y-67929562D01*
X82925628Y-67956822D01*
X82929570Y-67959746D01*
X82967499Y-67990874D01*
X82971134Y-67994169D01*
X83005831Y-68028866D01*
X83009126Y-68032501D01*
X83040254Y-68070430D01*
X83043178Y-68074372D01*
X83070438Y-68115171D01*
X83072960Y-68119378D01*
X83096091Y-68162651D01*
X83098189Y-68167088D01*
X83116966Y-68212421D01*
X83118619Y-68217040D01*
X83132863Y-68263995D01*
X83134055Y-68268756D01*
X83143627Y-68316881D01*
X83144347Y-68321734D01*
X83149157Y-68370565D01*
X83149398Y-68375466D01*
X83149398Y-68393889D01*
X83150000Y-68400000D01*
X83150000Y-68900000D01*
X83149398Y-68906111D01*
X83149398Y-68924534D01*
X83149157Y-68929435D01*
X83144347Y-68978266D01*
X83143627Y-68983119D01*
X83134055Y-69031244D01*
X83132863Y-69036005D01*
X83118619Y-69082960D01*
X83116966Y-69087579D01*
X83098189Y-69132912D01*
X83096091Y-69137349D01*
X83072960Y-69180622D01*
X83070438Y-69184829D01*
X83043178Y-69225628D01*
X83040254Y-69229570D01*
X83009126Y-69267499D01*
X83005831Y-69271134D01*
X82971134Y-69305831D01*
X82967499Y-69309126D01*
X82929570Y-69340254D01*
X82925628Y-69343178D01*
X82884829Y-69370438D01*
X82880622Y-69372960D01*
X82837349Y-69396091D01*
X82832912Y-69398189D01*
X82787579Y-69416966D01*
X82782960Y-69418619D01*
X82736005Y-69432863D01*
X82731244Y-69434055D01*
X82683119Y-69443627D01*
X82678266Y-69444347D01*
X82629435Y-69449157D01*
X82624534Y-69449398D01*
X82606111Y-69449398D01*
X82600000Y-69450000D01*
X82050000Y-69450000D01*
X82040245Y-69449039D01*
X82030866Y-69446194D01*
X82022221Y-69441573D01*
X82014645Y-69435355D01*
X82008427Y-69427779D01*
X82003806Y-69419134D01*
X82000961Y-69409755D01*
X82000000Y-69400000D01*
X82000000Y-67900000D01*
X82000961Y-67890245D01*
X82003806Y-67880866D01*
X82008427Y-67872221D01*
X82014645Y-67864645D01*
X82022221Y-67858427D01*
X82030866Y-67853806D01*
X82040245Y-67850961D01*
X82050000Y-67850000D01*
X82600000Y-67850000D01*
X82606111Y-67850602D01*
G37*
G36*
X80559755Y-67850961D02*
G01*
X80569134Y-67853806D01*
X80577779Y-67858427D01*
X80585355Y-67864645D01*
X80591573Y-67872221D01*
X80596194Y-67880866D01*
X80599039Y-67890245D01*
X80600000Y-67900000D01*
X80600000Y-69400000D01*
X80599039Y-69409755D01*
X80596194Y-69419134D01*
X80591573Y-69427779D01*
X80585355Y-69435355D01*
X80577779Y-69441573D01*
X80569134Y-69446194D01*
X80559755Y-69449039D01*
X80550000Y-69450000D01*
X80000000Y-69450000D01*
X79993889Y-69449398D01*
X79975466Y-69449398D01*
X79970565Y-69449157D01*
X79921734Y-69444347D01*
X79916881Y-69443627D01*
X79868756Y-69434055D01*
X79863995Y-69432863D01*
X79817040Y-69418619D01*
X79812421Y-69416966D01*
X79767088Y-69398189D01*
X79762651Y-69396091D01*
X79719378Y-69372960D01*
X79715171Y-69370438D01*
X79674372Y-69343178D01*
X79670430Y-69340254D01*
X79632501Y-69309126D01*
X79628866Y-69305831D01*
X79594169Y-69271134D01*
X79590874Y-69267499D01*
X79559746Y-69229570D01*
X79556822Y-69225628D01*
X79529562Y-69184829D01*
X79527040Y-69180622D01*
X79503909Y-69137349D01*
X79501811Y-69132912D01*
X79483034Y-69087579D01*
X79481381Y-69082960D01*
X79467137Y-69036005D01*
X79465945Y-69031244D01*
X79456373Y-68983119D01*
X79455653Y-68978266D01*
X79450843Y-68929435D01*
X79450602Y-68924534D01*
X79450602Y-68906111D01*
X79450000Y-68900000D01*
X79450000Y-68400000D01*
X79450602Y-68393889D01*
X79450602Y-68375466D01*
X79450843Y-68370565D01*
X79455653Y-68321734D01*
X79456373Y-68316881D01*
X79465945Y-68268756D01*
X79467137Y-68263995D01*
X79481381Y-68217040D01*
X79483034Y-68212421D01*
X79501811Y-68167088D01*
X79503909Y-68162651D01*
X79527040Y-68119378D01*
X79529562Y-68115171D01*
X79556822Y-68074372D01*
X79559746Y-68070430D01*
X79590874Y-68032501D01*
X79594169Y-68028866D01*
X79628866Y-67994169D01*
X79632501Y-67990874D01*
X79670430Y-67959746D01*
X79674372Y-67956822D01*
X79715171Y-67929562D01*
X79719378Y-67927040D01*
X79762651Y-67903909D01*
X79767088Y-67901811D01*
X79812421Y-67883034D01*
X79817040Y-67881381D01*
X79863995Y-67867137D01*
X79868756Y-67865945D01*
X79916881Y-67856373D01*
X79921734Y-67855653D01*
X79970565Y-67850843D01*
X79975466Y-67850602D01*
X79993889Y-67850602D01*
X80000000Y-67850000D01*
X80550000Y-67850000D01*
X80559755Y-67850961D01*
G37*
G36*
G01*
X58900000Y-61718750D02*
X58900000Y-62281250D01*
G75*
G02*
X58656250Y-62525000I-243750J0D01*
G01*
X58168750Y-62525000D01*
G75*
G02*
X57925000Y-62281250I0J243750D01*
G01*
X57925000Y-61718750D01*
G75*
G02*
X58168750Y-61475000I243750J0D01*
G01*
X58656250Y-61475000D01*
G75*
G02*
X58900000Y-61718750I0J-243750D01*
G01*
G37*
G36*
G01*
X60475000Y-61718750D02*
X60475000Y-62281250D01*
G75*
G02*
X60231250Y-62525000I-243750J0D01*
G01*
X59743750Y-62525000D01*
G75*
G02*
X59500000Y-62281250I0J243750D01*
G01*
X59500000Y-61718750D01*
G75*
G02*
X59743750Y-61475000I243750J0D01*
G01*
X60231250Y-61475000D01*
G75*
G02*
X60475000Y-61718750I0J-243750D01*
G01*
G37*
G36*
G01*
X130950000Y-91581250D02*
X130950000Y-91018750D01*
G75*
G02*
X131193750Y-90775000I243750J0D01*
G01*
X131681250Y-90775000D01*
G75*
G02*
X131925000Y-91018750I0J-243750D01*
G01*
X131925000Y-91581250D01*
G75*
G02*
X131681250Y-91825000I-243750J0D01*
G01*
X131193750Y-91825000D01*
G75*
G02*
X130950000Y-91581250I0J243750D01*
G01*
G37*
G36*
G01*
X129375000Y-91581250D02*
X129375000Y-91018750D01*
G75*
G02*
X129618750Y-90775000I243750J0D01*
G01*
X130106250Y-90775000D01*
G75*
G02*
X130350000Y-91018750I0J-243750D01*
G01*
X130350000Y-91581250D01*
G75*
G02*
X130106250Y-91825000I-243750J0D01*
G01*
X129618750Y-91825000D01*
G75*
G02*
X129375000Y-91581250I0J243750D01*
G01*
G37*
G36*
G01*
X83650000Y-75731250D02*
X83650000Y-75168750D01*
G75*
G02*
X83893750Y-74925000I243750J0D01*
G01*
X84381250Y-74925000D01*
G75*
G02*
X84625000Y-75168750I0J-243750D01*
G01*
X84625000Y-75731250D01*
G75*
G02*
X84381250Y-75975000I-243750J0D01*
G01*
X83893750Y-75975000D01*
G75*
G02*
X83650000Y-75731250I0J243750D01*
G01*
G37*
G36*
G01*
X82075000Y-75731250D02*
X82075000Y-75168750D01*
G75*
G02*
X82318750Y-74925000I243750J0D01*
G01*
X82806250Y-74925000D01*
G75*
G02*
X83050000Y-75168750I0J-243750D01*
G01*
X83050000Y-75731250D01*
G75*
G02*
X82806250Y-75975000I-243750J0D01*
G01*
X82318750Y-75975000D01*
G75*
G02*
X82075000Y-75731250I0J243750D01*
G01*
G37*
G36*
G01*
X83650000Y-74231250D02*
X83650000Y-73668750D01*
G75*
G02*
X83893750Y-73425000I243750J0D01*
G01*
X84381250Y-73425000D01*
G75*
G02*
X84625000Y-73668750I0J-243750D01*
G01*
X84625000Y-74231250D01*
G75*
G02*
X84381250Y-74475000I-243750J0D01*
G01*
X83893750Y-74475000D01*
G75*
G02*
X83650000Y-74231250I0J243750D01*
G01*
G37*
G36*
G01*
X82075000Y-74231250D02*
X82075000Y-73668750D01*
G75*
G02*
X82318750Y-73425000I243750J0D01*
G01*
X82806250Y-73425000D01*
G75*
G02*
X83050000Y-73668750I0J-243750D01*
G01*
X83050000Y-74231250D01*
G75*
G02*
X82806250Y-74475000I-243750J0D01*
G01*
X82318750Y-74475000D01*
G75*
G02*
X82075000Y-74231250I0J243750D01*
G01*
G37*
G36*
G01*
X83650000Y-72731250D02*
X83650000Y-72168750D01*
G75*
G02*
X83893750Y-71925000I243750J0D01*
G01*
X84381250Y-71925000D01*
G75*
G02*
X84625000Y-72168750I0J-243750D01*
G01*
X84625000Y-72731250D01*
G75*
G02*
X84381250Y-72975000I-243750J0D01*
G01*
X83893750Y-72975000D01*
G75*
G02*
X83650000Y-72731250I0J243750D01*
G01*
G37*
G36*
G01*
X82075000Y-72731250D02*
X82075000Y-72168750D01*
G75*
G02*
X82318750Y-71925000I243750J0D01*
G01*
X82806250Y-71925000D01*
G75*
G02*
X83050000Y-72168750I0J-243750D01*
G01*
X83050000Y-72731250D01*
G75*
G02*
X82806250Y-72975000I-243750J0D01*
G01*
X82318750Y-72975000D01*
G75*
G02*
X82075000Y-72731250I0J243750D01*
G01*
G37*
G36*
G01*
X79450000Y-70818750D02*
X79450000Y-71381250D01*
G75*
G02*
X79206250Y-71625000I-243750J0D01*
G01*
X78718750Y-71625000D01*
G75*
G02*
X78475000Y-71381250I0J243750D01*
G01*
X78475000Y-70818750D01*
G75*
G02*
X78718750Y-70575000I243750J0D01*
G01*
X79206250Y-70575000D01*
G75*
G02*
X79450000Y-70818750I0J-243750D01*
G01*
G37*
G36*
G01*
X81025000Y-70818750D02*
X81025000Y-71381250D01*
G75*
G02*
X80781250Y-71625000I-243750J0D01*
G01*
X80293750Y-71625000D01*
G75*
G02*
X80050000Y-71381250I0J243750D01*
G01*
X80050000Y-70818750D01*
G75*
G02*
X80293750Y-70575000I243750J0D01*
G01*
X80781250Y-70575000D01*
G75*
G02*
X81025000Y-70818750I0J-243750D01*
G01*
G37*
G36*
G01*
X48100000Y-62331250D02*
X48100000Y-61768750D01*
G75*
G02*
X48343750Y-61525000I243750J0D01*
G01*
X48831250Y-61525000D01*
G75*
G02*
X49075000Y-61768750I0J-243750D01*
G01*
X49075000Y-62331250D01*
G75*
G02*
X48831250Y-62575000I-243750J0D01*
G01*
X48343750Y-62575000D01*
G75*
G02*
X48100000Y-62331250I0J243750D01*
G01*
G37*
G36*
G01*
X46525000Y-62331250D02*
X46525000Y-61768750D01*
G75*
G02*
X46768750Y-61525000I243750J0D01*
G01*
X47256250Y-61525000D01*
G75*
G02*
X47500000Y-61768750I0J-243750D01*
G01*
X47500000Y-62331250D01*
G75*
G02*
X47256250Y-62575000I-243750J0D01*
G01*
X46768750Y-62575000D01*
G75*
G02*
X46525000Y-62331250I0J243750D01*
G01*
G37*
G36*
G01*
X53900000Y-61718750D02*
X53900000Y-62281250D01*
G75*
G02*
X53656250Y-62525000I-243750J0D01*
G01*
X53168750Y-62525000D01*
G75*
G02*
X52925000Y-62281250I0J243750D01*
G01*
X52925000Y-61718750D01*
G75*
G02*
X53168750Y-61475000I243750J0D01*
G01*
X53656250Y-61475000D01*
G75*
G02*
X53900000Y-61718750I0J-243750D01*
G01*
G37*
G36*
G01*
X55475000Y-61718750D02*
X55475000Y-62281250D01*
G75*
G02*
X55231250Y-62525000I-243750J0D01*
G01*
X54743750Y-62525000D01*
G75*
G02*
X54500000Y-62281250I0J243750D01*
G01*
X54500000Y-61718750D01*
G75*
G02*
X54743750Y-61475000I243750J0D01*
G01*
X55231250Y-61475000D01*
G75*
G02*
X55475000Y-61718750I0J-243750D01*
G01*
G37*
D19*
X80800000Y-73950000D03*
X78800000Y-74900000D03*
X78800000Y-73000000D03*
D20*
X62620000Y-40475000D03*
X62620000Y-45525000D03*
X60080000Y-40475000D03*
X60080000Y-45525000D03*
X57540000Y-40475000D03*
X57540000Y-45525000D03*
X55000000Y-40475000D03*
X55000000Y-45525000D03*
X52460000Y-40475000D03*
X52460000Y-45525000D03*
X49920000Y-40475000D03*
X49920000Y-45525000D03*
X47380000Y-40475000D03*
X47380000Y-45525000D03*
G36*
G01*
X131000000Y-93281250D02*
X131000000Y-92718750D01*
G75*
G02*
X131243750Y-92475000I243750J0D01*
G01*
X131731250Y-92475000D01*
G75*
G02*
X131975000Y-92718750I0J-243750D01*
G01*
X131975000Y-93281250D01*
G75*
G02*
X131731250Y-93525000I-243750J0D01*
G01*
X131243750Y-93525000D01*
G75*
G02*
X131000000Y-93281250I0J243750D01*
G01*
G37*
G36*
G01*
X129425000Y-93281250D02*
X129425000Y-92718750D01*
G75*
G02*
X129668750Y-92475000I243750J0D01*
G01*
X130156250Y-92475000D01*
G75*
G02*
X130400000Y-92718750I0J-243750D01*
G01*
X130400000Y-93281250D01*
G75*
G02*
X130156250Y-93525000I-243750J0D01*
G01*
X129668750Y-93525000D01*
G75*
G02*
X129425000Y-93281250I0J243750D01*
G01*
G37*
D21*
X42825825Y-38674175D03*
X41500000Y-38125000D03*
X40174175Y-38674175D03*
X39625000Y-40000000D03*
X40174175Y-41325825D03*
X41500000Y-41875000D03*
X42825825Y-41325825D03*
X43375000Y-40000000D03*
D22*
X41500000Y-40000000D03*
D21*
X42825825Y-89674175D03*
X41500000Y-89125000D03*
X40174175Y-89674175D03*
X39625000Y-91000000D03*
X40174175Y-92325825D03*
X41500000Y-92875000D03*
X42825825Y-92325825D03*
X43375000Y-91000000D03*
D22*
X41500000Y-91000000D03*
D21*
X136825825Y-38674175D03*
X135500000Y-38125000D03*
X134174175Y-38674175D03*
X133625000Y-40000000D03*
X134174175Y-41325825D03*
X135500000Y-41875000D03*
X136825825Y-41325825D03*
X137375000Y-40000000D03*
D22*
X135500000Y-40000000D03*
D21*
X136825825Y-89674175D03*
X135500000Y-89125000D03*
X134174175Y-89674175D03*
X133625000Y-91000000D03*
X134174175Y-92325825D03*
X135500000Y-92875000D03*
X136825825Y-92325825D03*
X137375000Y-91000000D03*
D22*
X135500000Y-91000000D03*
G36*
G01*
X112030000Y-84145000D02*
X112030000Y-89195000D01*
G75*
G02*
X111755000Y-89470000I-275000J0D01*
G01*
X111205000Y-89470000D01*
G75*
G02*
X110930000Y-89195000I0J275000D01*
G01*
X110930000Y-84145000D01*
G75*
G02*
X111205000Y-83870000I275000J0D01*
G01*
X111755000Y-83870000D01*
G75*
G02*
X112030000Y-84145000I0J-275000D01*
G01*
G37*
G36*
G01*
X110030000Y-84145001D02*
X110030000Y-89194999D01*
G75*
G02*
X109755000Y-89469999I-275000J0D01*
G01*
X109205000Y-89469999D01*
G75*
G02*
X108930000Y-89194999I0J275000D01*
G01*
X108930000Y-84145001D01*
G75*
G02*
X109205000Y-83870001I275000J0D01*
G01*
X109755000Y-83870001D01*
G75*
G02*
X110030000Y-84145001I0J-275000D01*
G01*
G37*
G36*
G01*
X114730000Y-87635625D02*
X114730000Y-90204375D01*
G75*
G02*
X114464375Y-90470000I-265625J0D01*
G01*
X113295625Y-90470000D01*
G75*
G02*
X113030000Y-90204375I0J265625D01*
G01*
X113030000Y-87635625D01*
G75*
G02*
X113295625Y-87370000I265625J0D01*
G01*
X114464375Y-87370000D01*
G75*
G02*
X114730000Y-87635625I0J-265625D01*
G01*
G37*
G36*
G01*
X107930000Y-87635625D02*
X107930000Y-90204375D01*
G75*
G02*
X107664375Y-90470000I-265625J0D01*
G01*
X106495625Y-90470000D01*
G75*
G02*
X106230000Y-90204375I0J265625D01*
G01*
X106230000Y-87635625D01*
G75*
G02*
X106495625Y-87370000I265625J0D01*
G01*
X107664375Y-87370000D01*
G75*
G02*
X107930000Y-87635625I0J-265625D01*
G01*
G37*
G36*
G01*
X119130000Y-78628750D02*
X119130000Y-79191250D01*
G75*
G02*
X118886250Y-79435000I-243750J0D01*
G01*
X118398750Y-79435000D01*
G75*
G02*
X118155000Y-79191250I0J243750D01*
G01*
X118155000Y-78628750D01*
G75*
G02*
X118398750Y-78385000I243750J0D01*
G01*
X118886250Y-78385000D01*
G75*
G02*
X119130000Y-78628750I0J-243750D01*
G01*
G37*
G36*
G01*
X120705000Y-78628750D02*
X120705000Y-79191250D01*
G75*
G02*
X120461250Y-79435000I-243750J0D01*
G01*
X119973750Y-79435000D01*
G75*
G02*
X119730000Y-79191250I0J243750D01*
G01*
X119730000Y-78628750D01*
G75*
G02*
X119973750Y-78385000I243750J0D01*
G01*
X120461250Y-78385000D01*
G75*
G02*
X120705000Y-78628750I0J-243750D01*
G01*
G37*
D23*
X90200000Y-53860000D03*
X90200000Y-77160000D03*
D24*
X86950000Y-75260000D03*
X86950000Y-74760000D03*
X86950000Y-74260000D03*
X86950000Y-73760000D03*
X86950000Y-73260000D03*
X86950000Y-72760000D03*
X86950000Y-72260000D03*
X86950000Y-71760000D03*
X86950000Y-71260000D03*
X86950000Y-70760000D03*
X86950000Y-70260000D03*
X86950000Y-69760000D03*
X86950000Y-69260000D03*
X86950000Y-68760000D03*
X86950000Y-68260000D03*
X86950000Y-67760000D03*
X86950000Y-67260000D03*
X86950000Y-66760000D03*
X86950000Y-66260000D03*
X86950000Y-65760000D03*
X86950000Y-65260000D03*
X86950000Y-64760000D03*
X86950000Y-64260000D03*
X86950000Y-63760000D03*
X86950000Y-63260000D03*
X86950000Y-62760000D03*
X86950000Y-62260000D03*
X86950000Y-61760000D03*
X86950000Y-61260000D03*
X86950000Y-60760000D03*
X86950000Y-60260000D03*
X86950000Y-59760000D03*
X86950000Y-59260000D03*
X86950000Y-58760000D03*
X86950000Y-58260000D03*
X86950000Y-57760000D03*
X86950000Y-57260000D03*
X86950000Y-56760000D03*
X86950000Y-56260000D03*
X86950000Y-55760000D03*
D25*
X41900000Y-53275000D03*
X41900000Y-57725000D03*
X41930000Y-49000000D03*
X41930000Y-44550000D03*
D26*
X53675000Y-74930000D03*
D27*
X46175000Y-82430000D03*
X47445000Y-82430000D03*
X48715000Y-82430000D03*
X49985000Y-82430000D03*
X51255000Y-82430000D03*
X52525000Y-82430000D03*
X53795000Y-82430000D03*
X55065000Y-82430000D03*
X56335000Y-82430000D03*
X57605000Y-82430000D03*
X58875000Y-82430000D03*
X60145000Y-82430000D03*
X61415000Y-82430000D03*
X62685000Y-82430000D03*
D28*
X63685000Y-79645000D03*
X63685000Y-78375000D03*
X63685000Y-77105000D03*
X63685000Y-75835000D03*
X63685000Y-74565000D03*
X63685000Y-73295000D03*
X63685000Y-72025000D03*
X63685000Y-70755000D03*
X63685000Y-69485000D03*
X63685000Y-68215000D03*
D27*
X62685000Y-65430000D03*
X61415000Y-65430000D03*
X60145000Y-65430000D03*
X58875000Y-65430000D03*
X57605000Y-65430000D03*
X56335000Y-65430000D03*
X55065000Y-65430000D03*
X53795000Y-65430000D03*
X52525000Y-65430000D03*
X51255000Y-65430000D03*
X49985000Y-65430000D03*
X48715000Y-65430000D03*
X47445000Y-65430000D03*
X46175000Y-65430000D03*
G36*
G01*
X125218750Y-74925000D02*
X125781250Y-74925000D01*
G75*
G02*
X126025000Y-75168750I0J-243750D01*
G01*
X126025000Y-75656250D01*
G75*
G02*
X125781250Y-75900000I-243750J0D01*
G01*
X125218750Y-75900000D01*
G75*
G02*
X124975000Y-75656250I0J243750D01*
G01*
X124975000Y-75168750D01*
G75*
G02*
X125218750Y-74925000I243750J0D01*
G01*
G37*
G36*
G01*
X125218750Y-76500000D02*
X125781250Y-76500000D01*
G75*
G02*
X126025000Y-76743750I0J-243750D01*
G01*
X126025000Y-77231250D01*
G75*
G02*
X125781250Y-77475000I-243750J0D01*
G01*
X125218750Y-77475000D01*
G75*
G02*
X124975000Y-77231250I0J243750D01*
G01*
X124975000Y-76743750D01*
G75*
G02*
X125218750Y-76500000I243750J0D01*
G01*
G37*
G36*
G01*
X118330000Y-84136482D02*
X118330000Y-83223518D01*
G75*
G02*
X118598518Y-82955000I268518J0D01*
G01*
X119561482Y-82955000D01*
G75*
G02*
X119830000Y-83223518I0J-268518D01*
G01*
X119830000Y-84136482D01*
G75*
G02*
X119561482Y-84405000I-268518J0D01*
G01*
X118598518Y-84405000D01*
G75*
G02*
X118330000Y-84136482I0J268518D01*
G01*
G37*
G36*
G01*
X115630000Y-84136482D02*
X115630000Y-83223518D01*
G75*
G02*
X115898518Y-82955000I268518J0D01*
G01*
X116861482Y-82955000D01*
G75*
G02*
X117130000Y-83223518I0J-268518D01*
G01*
X117130000Y-84136482D01*
G75*
G02*
X116861482Y-84405000I-268518J0D01*
G01*
X115898518Y-84405000D01*
G75*
G02*
X115630000Y-84136482I0J268518D01*
G01*
G37*
G36*
G01*
X111990000Y-75113518D02*
X111990000Y-76026482D01*
G75*
G02*
X111721482Y-76295000I-268518J0D01*
G01*
X110758518Y-76295000D01*
G75*
G02*
X110490000Y-76026482I0J268518D01*
G01*
X110490000Y-75113518D01*
G75*
G02*
X110758518Y-74845000I268518J0D01*
G01*
X111721482Y-74845000D01*
G75*
G02*
X111990000Y-75113518I0J-268518D01*
G01*
G37*
G36*
G01*
X109290000Y-75113518D02*
X109290000Y-76026482D01*
G75*
G02*
X109021482Y-76295000I-268518J0D01*
G01*
X108058518Y-76295000D01*
G75*
G02*
X107790000Y-76026482I0J268518D01*
G01*
X107790000Y-75113518D01*
G75*
G02*
X108058518Y-74845000I268518J0D01*
G01*
X109021482Y-74845000D01*
G75*
G02*
X109290000Y-75113518I0J-268518D01*
G01*
G37*
G36*
G01*
X47018750Y-85125000D02*
X47581250Y-85125000D01*
G75*
G02*
X47825000Y-85368750I0J-243750D01*
G01*
X47825000Y-85856250D01*
G75*
G02*
X47581250Y-86100000I-243750J0D01*
G01*
X47018750Y-86100000D01*
G75*
G02*
X46775000Y-85856250I0J243750D01*
G01*
X46775000Y-85368750D01*
G75*
G02*
X47018750Y-85125000I243750J0D01*
G01*
G37*
G36*
G01*
X47018750Y-86700000D02*
X47581250Y-86700000D01*
G75*
G02*
X47825000Y-86943750I0J-243750D01*
G01*
X47825000Y-87431250D01*
G75*
G02*
X47581250Y-87675000I-243750J0D01*
G01*
X47018750Y-87675000D01*
G75*
G02*
X46775000Y-87431250I0J243750D01*
G01*
X46775000Y-86943750D01*
G75*
G02*
X47018750Y-86700000I243750J0D01*
G01*
G37*
G36*
G01*
X111235000Y-73228750D02*
X111235000Y-73791250D01*
G75*
G02*
X110991250Y-74035000I-243750J0D01*
G01*
X110503750Y-74035000D01*
G75*
G02*
X110260000Y-73791250I0J243750D01*
G01*
X110260000Y-73228750D01*
G75*
G02*
X110503750Y-72985000I243750J0D01*
G01*
X110991250Y-72985000D01*
G75*
G02*
X111235000Y-73228750I0J-243750D01*
G01*
G37*
G36*
G01*
X109660000Y-73228750D02*
X109660000Y-73791250D01*
G75*
G02*
X109416250Y-74035000I-243750J0D01*
G01*
X108928750Y-74035000D01*
G75*
G02*
X108685000Y-73791250I0J243750D01*
G01*
X108685000Y-73228750D01*
G75*
G02*
X108928750Y-72985000I243750J0D01*
G01*
X109416250Y-72985000D01*
G75*
G02*
X109660000Y-73228750I0J-243750D01*
G01*
G37*
G36*
G01*
X50518750Y-85125000D02*
X51081250Y-85125000D01*
G75*
G02*
X51325000Y-85368750I0J-243750D01*
G01*
X51325000Y-85856250D01*
G75*
G02*
X51081250Y-86100000I-243750J0D01*
G01*
X50518750Y-86100000D01*
G75*
G02*
X50275000Y-85856250I0J243750D01*
G01*
X50275000Y-85368750D01*
G75*
G02*
X50518750Y-85125000I243750J0D01*
G01*
G37*
G36*
G01*
X50518750Y-86700000D02*
X51081250Y-86700000D01*
G75*
G02*
X51325000Y-86943750I0J-243750D01*
G01*
X51325000Y-87431250D01*
G75*
G02*
X51081250Y-87675000I-243750J0D01*
G01*
X50518750Y-87675000D01*
G75*
G02*
X50275000Y-87431250I0J243750D01*
G01*
X50275000Y-86943750D01*
G75*
G02*
X50518750Y-86700000I243750J0D01*
G01*
G37*
G36*
G01*
X109500000Y-81638750D02*
X109500000Y-82201250D01*
G75*
G02*
X109256250Y-82445000I-243750J0D01*
G01*
X108768750Y-82445000D01*
G75*
G02*
X108525000Y-82201250I0J243750D01*
G01*
X108525000Y-81638750D01*
G75*
G02*
X108768750Y-81395000I243750J0D01*
G01*
X109256250Y-81395000D01*
G75*
G02*
X109500000Y-81638750I0J-243750D01*
G01*
G37*
G36*
G01*
X111075000Y-81638750D02*
X111075000Y-82201250D01*
G75*
G02*
X110831250Y-82445000I-243750J0D01*
G01*
X110343750Y-82445000D01*
G75*
G02*
X110100000Y-82201250I0J243750D01*
G01*
X110100000Y-81638750D01*
G75*
G02*
X110343750Y-81395000I243750J0D01*
G01*
X110831250Y-81395000D01*
G75*
G02*
X111075000Y-81638750I0J-243750D01*
G01*
G37*
D29*
X121850000Y-81630000D03*
X125850000Y-81630000D03*
G36*
G01*
X109395000Y-93241250D02*
X109395000Y-92678750D01*
G75*
G02*
X109638750Y-92435000I243750J0D01*
G01*
X110126250Y-92435000D01*
G75*
G02*
X110370000Y-92678750I0J-243750D01*
G01*
X110370000Y-93241250D01*
G75*
G02*
X110126250Y-93485000I-243750J0D01*
G01*
X109638750Y-93485000D01*
G75*
G02*
X109395000Y-93241250I0J243750D01*
G01*
G37*
G36*
G01*
X110970000Y-93241250D02*
X110970000Y-92678750D01*
G75*
G02*
X111213750Y-92435000I243750J0D01*
G01*
X111701250Y-92435000D01*
G75*
G02*
X111945000Y-92678750I0J-243750D01*
G01*
X111945000Y-93241250D01*
G75*
G02*
X111701250Y-93485000I-243750J0D01*
G01*
X111213750Y-93485000D01*
G75*
G02*
X110970000Y-93241250I0J243750D01*
G01*
G37*
D23*
X112580000Y-54920000D03*
X112580000Y-61220000D03*
D24*
X109330000Y-59320000D03*
X109330000Y-58820000D03*
X109330000Y-58320000D03*
X109330000Y-57820000D03*
X109330000Y-57320000D03*
X109330000Y-56820000D03*
D19*
X99600000Y-81400000D03*
X101600000Y-80450000D03*
X101600000Y-82350000D03*
X97800000Y-82350000D03*
X97800000Y-80450000D03*
X95800000Y-81400000D03*
X118530000Y-87770000D03*
X118530000Y-85870000D03*
X116530000Y-86820000D03*
G36*
G01*
X125218750Y-71525000D02*
X125781250Y-71525000D01*
G75*
G02*
X126025000Y-71768750I0J-243750D01*
G01*
X126025000Y-72256250D01*
G75*
G02*
X125781250Y-72500000I-243750J0D01*
G01*
X125218750Y-72500000D01*
G75*
G02*
X124975000Y-72256250I0J243750D01*
G01*
X124975000Y-71768750D01*
G75*
G02*
X125218750Y-71525000I243750J0D01*
G01*
G37*
G36*
G01*
X125218750Y-73100000D02*
X125781250Y-73100000D01*
G75*
G02*
X126025000Y-73343750I0J-243750D01*
G01*
X126025000Y-73831250D01*
G75*
G02*
X125781250Y-74075000I-243750J0D01*
G01*
X125218750Y-74075000D01*
G75*
G02*
X124975000Y-73831250I0J243750D01*
G01*
X124975000Y-73343750D01*
G75*
G02*
X125218750Y-73100000I243750J0D01*
G01*
G37*
G36*
G01*
X127481250Y-72500000D02*
X126918750Y-72500000D01*
G75*
G02*
X126675000Y-72256250I0J243750D01*
G01*
X126675000Y-71768750D01*
G75*
G02*
X126918750Y-71525000I243750J0D01*
G01*
X127481250Y-71525000D01*
G75*
G02*
X127725000Y-71768750I0J-243750D01*
G01*
X127725000Y-72256250D01*
G75*
G02*
X127481250Y-72500000I-243750J0D01*
G01*
G37*
G36*
G01*
X127481250Y-74075000D02*
X126918750Y-74075000D01*
G75*
G02*
X126675000Y-73831250I0J243750D01*
G01*
X126675000Y-73343750D01*
G75*
G02*
X126918750Y-73100000I243750J0D01*
G01*
X127481250Y-73100000D01*
G75*
G02*
X127725000Y-73343750I0J-243750D01*
G01*
X127725000Y-73831250D01*
G75*
G02*
X127481250Y-74075000I-243750J0D01*
G01*
G37*
G36*
G01*
X115470000Y-72891250D02*
X115470000Y-72328750D01*
G75*
G02*
X115713750Y-72085000I243750J0D01*
G01*
X116201250Y-72085000D01*
G75*
G02*
X116445000Y-72328750I0J-243750D01*
G01*
X116445000Y-72891250D01*
G75*
G02*
X116201250Y-73135000I-243750J0D01*
G01*
X115713750Y-73135000D01*
G75*
G02*
X115470000Y-72891250I0J243750D01*
G01*
G37*
G36*
G01*
X113895000Y-72891250D02*
X113895000Y-72328750D01*
G75*
G02*
X114138750Y-72085000I243750J0D01*
G01*
X114626250Y-72085000D01*
G75*
G02*
X114870000Y-72328750I0J-243750D01*
G01*
X114870000Y-72891250D01*
G75*
G02*
X114626250Y-73135000I-243750J0D01*
G01*
X114138750Y-73135000D01*
G75*
G02*
X113895000Y-72891250I0J243750D01*
G01*
G37*
G36*
G01*
X113895000Y-74591250D02*
X113895000Y-74028750D01*
G75*
G02*
X114138750Y-73785000I243750J0D01*
G01*
X114626250Y-73785000D01*
G75*
G02*
X114870000Y-74028750I0J-243750D01*
G01*
X114870000Y-74591250D01*
G75*
G02*
X114626250Y-74835000I-243750J0D01*
G01*
X114138750Y-74835000D01*
G75*
G02*
X113895000Y-74591250I0J243750D01*
G01*
G37*
G36*
G01*
X115470000Y-74591250D02*
X115470000Y-74028750D01*
G75*
G02*
X115713750Y-73785000I243750J0D01*
G01*
X116201250Y-73785000D01*
G75*
G02*
X116445000Y-74028750I0J-243750D01*
G01*
X116445000Y-74591250D01*
G75*
G02*
X116201250Y-74835000I-243750J0D01*
G01*
X115713750Y-74835000D01*
G75*
G02*
X115470000Y-74591250I0J243750D01*
G01*
G37*
G36*
G01*
X95712500Y-78881250D02*
X95712500Y-78318750D01*
G75*
G02*
X95956250Y-78075000I243750J0D01*
G01*
X96443750Y-78075000D01*
G75*
G02*
X96687500Y-78318750I0J-243750D01*
G01*
X96687500Y-78881250D01*
G75*
G02*
X96443750Y-79125000I-243750J0D01*
G01*
X95956250Y-79125000D01*
G75*
G02*
X95712500Y-78881250I0J243750D01*
G01*
G37*
G36*
G01*
X97287500Y-78881250D02*
X97287500Y-78318750D01*
G75*
G02*
X97531250Y-78075000I243750J0D01*
G01*
X98018750Y-78075000D01*
G75*
G02*
X98262500Y-78318750I0J-243750D01*
G01*
X98262500Y-78881250D01*
G75*
G02*
X98018750Y-79125000I-243750J0D01*
G01*
X97531250Y-79125000D01*
G75*
G02*
X97287500Y-78881250I0J243750D01*
G01*
G37*
G36*
G01*
X101100000Y-78881250D02*
X101100000Y-78318750D01*
G75*
G02*
X101343750Y-78075000I243750J0D01*
G01*
X101831250Y-78075000D01*
G75*
G02*
X102075000Y-78318750I0J-243750D01*
G01*
X102075000Y-78881250D01*
G75*
G02*
X101831250Y-79125000I-243750J0D01*
G01*
X101343750Y-79125000D01*
G75*
G02*
X101100000Y-78881250I0J243750D01*
G01*
G37*
G36*
G01*
X99525000Y-78881250D02*
X99525000Y-78318750D01*
G75*
G02*
X99768750Y-78075000I243750J0D01*
G01*
X100256250Y-78075000D01*
G75*
G02*
X100500000Y-78318750I0J-243750D01*
G01*
X100500000Y-78881250D01*
G75*
G02*
X100256250Y-79125000I-243750J0D01*
G01*
X99768750Y-79125000D01*
G75*
G02*
X99525000Y-78881250I0J243750D01*
G01*
G37*
G36*
G01*
X49331250Y-87675000D02*
X48768750Y-87675000D01*
G75*
G02*
X48525000Y-87431250I0J243750D01*
G01*
X48525000Y-86943750D01*
G75*
G02*
X48768750Y-86700000I243750J0D01*
G01*
X49331250Y-86700000D01*
G75*
G02*
X49575000Y-86943750I0J-243750D01*
G01*
X49575000Y-87431250D01*
G75*
G02*
X49331250Y-87675000I-243750J0D01*
G01*
G37*
G36*
G01*
X49331250Y-86100000D02*
X48768750Y-86100000D01*
G75*
G02*
X48525000Y-85856250I0J243750D01*
G01*
X48525000Y-85368750D01*
G75*
G02*
X48768750Y-85125000I243750J0D01*
G01*
X49331250Y-85125000D01*
G75*
G02*
X49575000Y-85368750I0J-243750D01*
G01*
X49575000Y-85856250D01*
G75*
G02*
X49331250Y-86100000I-243750J0D01*
G01*
G37*
G36*
G01*
X125198750Y-84065000D02*
X125761250Y-84065000D01*
G75*
G02*
X126005000Y-84308750I0J-243750D01*
G01*
X126005000Y-84796250D01*
G75*
G02*
X125761250Y-85040000I-243750J0D01*
G01*
X125198750Y-85040000D01*
G75*
G02*
X124955000Y-84796250I0J243750D01*
G01*
X124955000Y-84308750D01*
G75*
G02*
X125198750Y-84065000I243750J0D01*
G01*
G37*
G36*
G01*
X125198750Y-85640000D02*
X125761250Y-85640000D01*
G75*
G02*
X126005000Y-85883750I0J-243750D01*
G01*
X126005000Y-86371250D01*
G75*
G02*
X125761250Y-86615000I-243750J0D01*
G01*
X125198750Y-86615000D01*
G75*
G02*
X124955000Y-86371250I0J243750D01*
G01*
X124955000Y-85883750D01*
G75*
G02*
X125198750Y-85640000I243750J0D01*
G01*
G37*
G36*
G01*
X63150000Y-61718750D02*
X63150000Y-62281250D01*
G75*
G02*
X62906250Y-62525000I-243750J0D01*
G01*
X62418750Y-62525000D01*
G75*
G02*
X62175000Y-62281250I0J243750D01*
G01*
X62175000Y-61718750D01*
G75*
G02*
X62418750Y-61475000I243750J0D01*
G01*
X62906250Y-61475000D01*
G75*
G02*
X63150000Y-61718750I0J-243750D01*
G01*
G37*
G36*
G01*
X64725000Y-61718750D02*
X64725000Y-62281250D01*
G75*
G02*
X64481250Y-62525000I-243750J0D01*
G01*
X63993750Y-62525000D01*
G75*
G02*
X63750000Y-62281250I0J243750D01*
G01*
X63750000Y-61718750D01*
G75*
G02*
X63993750Y-61475000I243750J0D01*
G01*
X64481250Y-61475000D01*
G75*
G02*
X64725000Y-61718750I0J-243750D01*
G01*
G37*
G36*
G01*
X66518750Y-67787500D02*
X67081250Y-67787500D01*
G75*
G02*
X67325000Y-68031250I0J-243750D01*
G01*
X67325000Y-68518750D01*
G75*
G02*
X67081250Y-68762500I-243750J0D01*
G01*
X66518750Y-68762500D01*
G75*
G02*
X66275000Y-68518750I0J243750D01*
G01*
X66275000Y-68031250D01*
G75*
G02*
X66518750Y-67787500I243750J0D01*
G01*
G37*
G36*
G01*
X66518750Y-66212500D02*
X67081250Y-66212500D01*
G75*
G02*
X67325000Y-66456250I0J-243750D01*
G01*
X67325000Y-66943750D01*
G75*
G02*
X67081250Y-67187500I-243750J0D01*
G01*
X66518750Y-67187500D01*
G75*
G02*
X66275000Y-66943750I0J243750D01*
G01*
X66275000Y-66456250D01*
G75*
G02*
X66518750Y-66212500I243750J0D01*
G01*
G37*
G36*
G01*
X102481250Y-88775000D02*
X101918750Y-88775000D01*
G75*
G02*
X101675000Y-88531250I0J243750D01*
G01*
X101675000Y-88043750D01*
G75*
G02*
X101918750Y-87800000I243750J0D01*
G01*
X102481250Y-87800000D01*
G75*
G02*
X102725000Y-88043750I0J-243750D01*
G01*
X102725000Y-88531250D01*
G75*
G02*
X102481250Y-88775000I-243750J0D01*
G01*
G37*
G36*
G01*
X102481250Y-87200000D02*
X101918750Y-87200000D01*
G75*
G02*
X101675000Y-86956250I0J243750D01*
G01*
X101675000Y-86468750D01*
G75*
G02*
X101918750Y-86225000I243750J0D01*
G01*
X102481250Y-86225000D01*
G75*
G02*
X102725000Y-86468750I0J-243750D01*
G01*
X102725000Y-86956250D01*
G75*
G02*
X102481250Y-87200000I-243750J0D01*
G01*
G37*
G36*
G01*
X54531250Y-87675000D02*
X53968750Y-87675000D01*
G75*
G02*
X53725000Y-87431250I0J243750D01*
G01*
X53725000Y-86943750D01*
G75*
G02*
X53968750Y-86700000I243750J0D01*
G01*
X54531250Y-86700000D01*
G75*
G02*
X54775000Y-86943750I0J-243750D01*
G01*
X54775000Y-87431250D01*
G75*
G02*
X54531250Y-87675000I-243750J0D01*
G01*
G37*
G36*
G01*
X54531250Y-86100000D02*
X53968750Y-86100000D01*
G75*
G02*
X53725000Y-85856250I0J243750D01*
G01*
X53725000Y-85368750D01*
G75*
G02*
X53968750Y-85125000I243750J0D01*
G01*
X54531250Y-85125000D01*
G75*
G02*
X54775000Y-85368750I0J-243750D01*
G01*
X54775000Y-85856250D01*
G75*
G02*
X54531250Y-86100000I-243750J0D01*
G01*
G37*
G36*
G01*
X52268750Y-86700000D02*
X52831250Y-86700000D01*
G75*
G02*
X53075000Y-86943750I0J-243750D01*
G01*
X53075000Y-87431250D01*
G75*
G02*
X52831250Y-87675000I-243750J0D01*
G01*
X52268750Y-87675000D01*
G75*
G02*
X52025000Y-87431250I0J243750D01*
G01*
X52025000Y-86943750D01*
G75*
G02*
X52268750Y-86700000I243750J0D01*
G01*
G37*
G36*
G01*
X52268750Y-85125000D02*
X52831250Y-85125000D01*
G75*
G02*
X53075000Y-85368750I0J-243750D01*
G01*
X53075000Y-85856250D01*
G75*
G02*
X52831250Y-86100000I-243750J0D01*
G01*
X52268750Y-86100000D01*
G75*
G02*
X52025000Y-85856250I0J243750D01*
G01*
X52025000Y-85368750D01*
G75*
G02*
X52268750Y-85125000I243750J0D01*
G01*
G37*
G36*
G01*
X106588750Y-79310000D02*
X107151250Y-79310000D01*
G75*
G02*
X107395000Y-79553750I0J-243750D01*
G01*
X107395000Y-80041250D01*
G75*
G02*
X107151250Y-80285000I-243750J0D01*
G01*
X106588750Y-80285000D01*
G75*
G02*
X106345000Y-80041250I0J243750D01*
G01*
X106345000Y-79553750D01*
G75*
G02*
X106588750Y-79310000I243750J0D01*
G01*
G37*
G36*
G01*
X106588750Y-77735000D02*
X107151250Y-77735000D01*
G75*
G02*
X107395000Y-77978750I0J-243750D01*
G01*
X107395000Y-78466250D01*
G75*
G02*
X107151250Y-78710000I-243750J0D01*
G01*
X106588750Y-78710000D01*
G75*
G02*
X106345000Y-78466250I0J243750D01*
G01*
X106345000Y-77978750D01*
G75*
G02*
X106588750Y-77735000I243750J0D01*
G01*
G37*
G36*
G01*
X119357500Y-76630000D02*
X119182500Y-76630000D01*
G75*
G02*
X119095000Y-76542500I0J87500D01*
G01*
X119095000Y-75817500D01*
G75*
G02*
X119182500Y-75730000I87500J0D01*
G01*
X119357500Y-75730000D01*
G75*
G02*
X119445000Y-75817500I0J-87500D01*
G01*
X119445000Y-76542500D01*
G75*
G02*
X119357500Y-76630000I-87500J0D01*
G01*
G37*
G36*
G01*
X119857500Y-76630000D02*
X119682500Y-76630000D01*
G75*
G02*
X119595000Y-76542500I0J87500D01*
G01*
X119595000Y-75817500D01*
G75*
G02*
X119682500Y-75730000I87500J0D01*
G01*
X119857500Y-75730000D01*
G75*
G02*
X119945000Y-75817500I0J-87500D01*
G01*
X119945000Y-76542500D01*
G75*
G02*
X119857500Y-76630000I-87500J0D01*
G01*
G37*
G36*
G01*
X120357500Y-76630000D02*
X120182500Y-76630000D01*
G75*
G02*
X120095000Y-76542500I0J87500D01*
G01*
X120095000Y-75817500D01*
G75*
G02*
X120182500Y-75730000I87500J0D01*
G01*
X120357500Y-75730000D01*
G75*
G02*
X120445000Y-75817500I0J-87500D01*
G01*
X120445000Y-76542500D01*
G75*
G02*
X120357500Y-76630000I-87500J0D01*
G01*
G37*
G36*
G01*
X120857500Y-76630000D02*
X120682500Y-76630000D01*
G75*
G02*
X120595000Y-76542500I0J87500D01*
G01*
X120595000Y-75817500D01*
G75*
G02*
X120682500Y-75730000I87500J0D01*
G01*
X120857500Y-75730000D01*
G75*
G02*
X120945000Y-75817500I0J-87500D01*
G01*
X120945000Y-76542500D01*
G75*
G02*
X120857500Y-76630000I-87500J0D01*
G01*
G37*
G36*
G01*
X121357500Y-76630000D02*
X121182500Y-76630000D01*
G75*
G02*
X121095000Y-76542500I0J87500D01*
G01*
X121095000Y-75817500D01*
G75*
G02*
X121182500Y-75730000I87500J0D01*
G01*
X121357500Y-75730000D01*
G75*
G02*
X121445000Y-75817500I0J-87500D01*
G01*
X121445000Y-76542500D01*
G75*
G02*
X121357500Y-76630000I-87500J0D01*
G01*
G37*
G36*
G01*
X121857500Y-76630000D02*
X121682500Y-76630000D01*
G75*
G02*
X121595000Y-76542500I0J87500D01*
G01*
X121595000Y-75817500D01*
G75*
G02*
X121682500Y-75730000I87500J0D01*
G01*
X121857500Y-75730000D01*
G75*
G02*
X121945000Y-75817500I0J-87500D01*
G01*
X121945000Y-76542500D01*
G75*
G02*
X121857500Y-76630000I-87500J0D01*
G01*
G37*
G36*
G01*
X122357500Y-76630000D02*
X122182500Y-76630000D01*
G75*
G02*
X122095000Y-76542500I0J87500D01*
G01*
X122095000Y-75817500D01*
G75*
G02*
X122182500Y-75730000I87500J0D01*
G01*
X122357500Y-75730000D01*
G75*
G02*
X122445000Y-75817500I0J-87500D01*
G01*
X122445000Y-76542500D01*
G75*
G02*
X122357500Y-76630000I-87500J0D01*
G01*
G37*
G36*
G01*
X123582500Y-75405000D02*
X122857500Y-75405000D01*
G75*
G02*
X122770000Y-75317500I0J87500D01*
G01*
X122770000Y-75142500D01*
G75*
G02*
X122857500Y-75055000I87500J0D01*
G01*
X123582500Y-75055000D01*
G75*
G02*
X123670000Y-75142500I0J-87500D01*
G01*
X123670000Y-75317500D01*
G75*
G02*
X123582500Y-75405000I-87500J0D01*
G01*
G37*
G36*
G01*
X123582500Y-74905000D02*
X122857500Y-74905000D01*
G75*
G02*
X122770000Y-74817500I0J87500D01*
G01*
X122770000Y-74642500D01*
G75*
G02*
X122857500Y-74555000I87500J0D01*
G01*
X123582500Y-74555000D01*
G75*
G02*
X123670000Y-74642500I0J-87500D01*
G01*
X123670000Y-74817500D01*
G75*
G02*
X123582500Y-74905000I-87500J0D01*
G01*
G37*
G36*
G01*
X123582500Y-74405000D02*
X122857500Y-74405000D01*
G75*
G02*
X122770000Y-74317500I0J87500D01*
G01*
X122770000Y-74142500D01*
G75*
G02*
X122857500Y-74055000I87500J0D01*
G01*
X123582500Y-74055000D01*
G75*
G02*
X123670000Y-74142500I0J-87500D01*
G01*
X123670000Y-74317500D01*
G75*
G02*
X123582500Y-74405000I-87500J0D01*
G01*
G37*
G36*
G01*
X123582500Y-73905000D02*
X122857500Y-73905000D01*
G75*
G02*
X122770000Y-73817500I0J87500D01*
G01*
X122770000Y-73642500D01*
G75*
G02*
X122857500Y-73555000I87500J0D01*
G01*
X123582500Y-73555000D01*
G75*
G02*
X123670000Y-73642500I0J-87500D01*
G01*
X123670000Y-73817500D01*
G75*
G02*
X123582500Y-73905000I-87500J0D01*
G01*
G37*
G36*
G01*
X123582500Y-73405000D02*
X122857500Y-73405000D01*
G75*
G02*
X122770000Y-73317500I0J87500D01*
G01*
X122770000Y-73142500D01*
G75*
G02*
X122857500Y-73055000I87500J0D01*
G01*
X123582500Y-73055000D01*
G75*
G02*
X123670000Y-73142500I0J-87500D01*
G01*
X123670000Y-73317500D01*
G75*
G02*
X123582500Y-73405000I-87500J0D01*
G01*
G37*
G36*
G01*
X123582500Y-72905000D02*
X122857500Y-72905000D01*
G75*
G02*
X122770000Y-72817500I0J87500D01*
G01*
X122770000Y-72642500D01*
G75*
G02*
X122857500Y-72555000I87500J0D01*
G01*
X123582500Y-72555000D01*
G75*
G02*
X123670000Y-72642500I0J-87500D01*
G01*
X123670000Y-72817500D01*
G75*
G02*
X123582500Y-72905000I-87500J0D01*
G01*
G37*
G36*
G01*
X123582500Y-72405000D02*
X122857500Y-72405000D01*
G75*
G02*
X122770000Y-72317500I0J87500D01*
G01*
X122770000Y-72142500D01*
G75*
G02*
X122857500Y-72055000I87500J0D01*
G01*
X123582500Y-72055000D01*
G75*
G02*
X123670000Y-72142500I0J-87500D01*
G01*
X123670000Y-72317500D01*
G75*
G02*
X123582500Y-72405000I-87500J0D01*
G01*
G37*
G36*
G01*
X122357500Y-71730000D02*
X122182500Y-71730000D01*
G75*
G02*
X122095000Y-71642500I0J87500D01*
G01*
X122095000Y-70917500D01*
G75*
G02*
X122182500Y-70830000I87500J0D01*
G01*
X122357500Y-70830000D01*
G75*
G02*
X122445000Y-70917500I0J-87500D01*
G01*
X122445000Y-71642500D01*
G75*
G02*
X122357500Y-71730000I-87500J0D01*
G01*
G37*
G36*
G01*
X121857500Y-71730000D02*
X121682500Y-71730000D01*
G75*
G02*
X121595000Y-71642500I0J87500D01*
G01*
X121595000Y-70917500D01*
G75*
G02*
X121682500Y-70830000I87500J0D01*
G01*
X121857500Y-70830000D01*
G75*
G02*
X121945000Y-70917500I0J-87500D01*
G01*
X121945000Y-71642500D01*
G75*
G02*
X121857500Y-71730000I-87500J0D01*
G01*
G37*
G36*
G01*
X121357500Y-71730000D02*
X121182500Y-71730000D01*
G75*
G02*
X121095000Y-71642500I0J87500D01*
G01*
X121095000Y-70917500D01*
G75*
G02*
X121182500Y-70830000I87500J0D01*
G01*
X121357500Y-70830000D01*
G75*
G02*
X121445000Y-70917500I0J-87500D01*
G01*
X121445000Y-71642500D01*
G75*
G02*
X121357500Y-71730000I-87500J0D01*
G01*
G37*
G36*
G01*
X120857500Y-71730000D02*
X120682500Y-71730000D01*
G75*
G02*
X120595000Y-71642500I0J87500D01*
G01*
X120595000Y-70917500D01*
G75*
G02*
X120682500Y-70830000I87500J0D01*
G01*
X120857500Y-70830000D01*
G75*
G02*
X120945000Y-70917500I0J-87500D01*
G01*
X120945000Y-71642500D01*
G75*
G02*
X120857500Y-71730000I-87500J0D01*
G01*
G37*
G36*
G01*
X120357500Y-71730000D02*
X120182500Y-71730000D01*
G75*
G02*
X120095000Y-71642500I0J87500D01*
G01*
X120095000Y-70917500D01*
G75*
G02*
X120182500Y-70830000I87500J0D01*
G01*
X120357500Y-70830000D01*
G75*
G02*
X120445000Y-70917500I0J-87500D01*
G01*
X120445000Y-71642500D01*
G75*
G02*
X120357500Y-71730000I-87500J0D01*
G01*
G37*
G36*
G01*
X119857500Y-71730000D02*
X119682500Y-71730000D01*
G75*
G02*
X119595000Y-71642500I0J87500D01*
G01*
X119595000Y-70917500D01*
G75*
G02*
X119682500Y-70830000I87500J0D01*
G01*
X119857500Y-70830000D01*
G75*
G02*
X119945000Y-70917500I0J-87500D01*
G01*
X119945000Y-71642500D01*
G75*
G02*
X119857500Y-71730000I-87500J0D01*
G01*
G37*
G36*
G01*
X119357500Y-71730000D02*
X119182500Y-71730000D01*
G75*
G02*
X119095000Y-71642500I0J87500D01*
G01*
X119095000Y-70917500D01*
G75*
G02*
X119182500Y-70830000I87500J0D01*
G01*
X119357500Y-70830000D01*
G75*
G02*
X119445000Y-70917500I0J-87500D01*
G01*
X119445000Y-71642500D01*
G75*
G02*
X119357500Y-71730000I-87500J0D01*
G01*
G37*
G36*
G01*
X118682500Y-72405000D02*
X117957500Y-72405000D01*
G75*
G02*
X117870000Y-72317500I0J87500D01*
G01*
X117870000Y-72142500D01*
G75*
G02*
X117957500Y-72055000I87500J0D01*
G01*
X118682500Y-72055000D01*
G75*
G02*
X118770000Y-72142500I0J-87500D01*
G01*
X118770000Y-72317500D01*
G75*
G02*
X118682500Y-72405000I-87500J0D01*
G01*
G37*
G36*
G01*
X118682500Y-72905000D02*
X117957500Y-72905000D01*
G75*
G02*
X117870000Y-72817500I0J87500D01*
G01*
X117870000Y-72642500D01*
G75*
G02*
X117957500Y-72555000I87500J0D01*
G01*
X118682500Y-72555000D01*
G75*
G02*
X118770000Y-72642500I0J-87500D01*
G01*
X118770000Y-72817500D01*
G75*
G02*
X118682500Y-72905000I-87500J0D01*
G01*
G37*
G36*
G01*
X118682500Y-73405000D02*
X117957500Y-73405000D01*
G75*
G02*
X117870000Y-73317500I0J87500D01*
G01*
X117870000Y-73142500D01*
G75*
G02*
X117957500Y-73055000I87500J0D01*
G01*
X118682500Y-73055000D01*
G75*
G02*
X118770000Y-73142500I0J-87500D01*
G01*
X118770000Y-73317500D01*
G75*
G02*
X118682500Y-73405000I-87500J0D01*
G01*
G37*
G36*
G01*
X118682500Y-73905000D02*
X117957500Y-73905000D01*
G75*
G02*
X117870000Y-73817500I0J87500D01*
G01*
X117870000Y-73642500D01*
G75*
G02*
X117957500Y-73555000I87500J0D01*
G01*
X118682500Y-73555000D01*
G75*
G02*
X118770000Y-73642500I0J-87500D01*
G01*
X118770000Y-73817500D01*
G75*
G02*
X118682500Y-73905000I-87500J0D01*
G01*
G37*
G36*
G01*
X118682500Y-74405000D02*
X117957500Y-74405000D01*
G75*
G02*
X117870000Y-74317500I0J87500D01*
G01*
X117870000Y-74142500D01*
G75*
G02*
X117957500Y-74055000I87500J0D01*
G01*
X118682500Y-74055000D01*
G75*
G02*
X118770000Y-74142500I0J-87500D01*
G01*
X118770000Y-74317500D01*
G75*
G02*
X118682500Y-74405000I-87500J0D01*
G01*
G37*
G36*
G01*
X118682500Y-74905000D02*
X117957500Y-74905000D01*
G75*
G02*
X117870000Y-74817500I0J87500D01*
G01*
X117870000Y-74642500D01*
G75*
G02*
X117957500Y-74555000I87500J0D01*
G01*
X118682500Y-74555000D01*
G75*
G02*
X118770000Y-74642500I0J-87500D01*
G01*
X118770000Y-74817500D01*
G75*
G02*
X118682500Y-74905000I-87500J0D01*
G01*
G37*
G36*
G01*
X118682500Y-75405000D02*
X117957500Y-75405000D01*
G75*
G02*
X117870000Y-75317500I0J87500D01*
G01*
X117870000Y-75142500D01*
G75*
G02*
X117957500Y-75055000I87500J0D01*
G01*
X118682500Y-75055000D01*
G75*
G02*
X118770000Y-75142500I0J-87500D01*
G01*
X118770000Y-75317500D01*
G75*
G02*
X118682500Y-75405000I-87500J0D01*
G01*
G37*
D30*
X120770000Y-73730000D03*
D31*
X113710000Y-78970000D03*
X115610000Y-78970000D03*
X115610000Y-81170000D03*
X114660000Y-81170000D03*
X113710000Y-81170000D03*
X108790000Y-80030000D03*
X109740000Y-80030000D03*
X110690000Y-80030000D03*
X110690000Y-77830000D03*
X108790000Y-77830000D03*
G36*
G01*
X110370000Y-52151250D02*
X110370000Y-51588750D01*
G75*
G02*
X110613750Y-51345000I243750J0D01*
G01*
X111101250Y-51345000D01*
G75*
G02*
X111345000Y-51588750I0J-243750D01*
G01*
X111345000Y-52151250D01*
G75*
G02*
X111101250Y-52395000I-243750J0D01*
G01*
X110613750Y-52395000D01*
G75*
G02*
X110370000Y-52151250I0J243750D01*
G01*
G37*
G36*
G01*
X108795000Y-52151250D02*
X108795000Y-51588750D01*
G75*
G02*
X109038750Y-51345000I243750J0D01*
G01*
X109526250Y-51345000D01*
G75*
G02*
X109770000Y-51588750I0J-243750D01*
G01*
X109770000Y-52151250D01*
G75*
G02*
X109526250Y-52395000I-243750J0D01*
G01*
X109038750Y-52395000D01*
G75*
G02*
X108795000Y-52151250I0J243750D01*
G01*
G37*
G36*
G01*
X113750000Y-43325000D02*
X113750000Y-46375000D01*
G75*
G02*
X113475000Y-46650000I-275000J0D01*
G01*
X112925000Y-46650000D01*
G75*
G02*
X112650000Y-46375000I0J275000D01*
G01*
X112650000Y-43325000D01*
G75*
G02*
X112925000Y-43050000I275000J0D01*
G01*
X113475000Y-43050000D01*
G75*
G02*
X113750000Y-43325000I0J-275000D01*
G01*
G37*
G36*
G01*
X111750000Y-43325000D02*
X111750000Y-46375000D01*
G75*
G02*
X111475000Y-46650000I-275000J0D01*
G01*
X110925000Y-46650000D01*
G75*
G02*
X110650000Y-46375000I0J275000D01*
G01*
X110650000Y-43325000D01*
G75*
G02*
X110925000Y-43050000I275000J0D01*
G01*
X111475000Y-43050000D01*
G75*
G02*
X111750000Y-43325000I0J-275000D01*
G01*
G37*
G36*
G01*
X109750000Y-43325000D02*
X109750000Y-46375000D01*
G75*
G02*
X109475000Y-46650000I-275000J0D01*
G01*
X108925000Y-46650000D01*
G75*
G02*
X108650000Y-46375000I0J275000D01*
G01*
X108650000Y-43325000D01*
G75*
G02*
X108925000Y-43050000I275000J0D01*
G01*
X109475000Y-43050000D01*
G75*
G02*
X109750000Y-43325000I0J-275000D01*
G01*
G37*
G36*
G01*
X107750000Y-43325000D02*
X107750000Y-46375000D01*
G75*
G02*
X107475000Y-46650000I-275000J0D01*
G01*
X106925000Y-46650000D01*
G75*
G02*
X106650000Y-46375000I0J275000D01*
G01*
X106650000Y-43325000D01*
G75*
G02*
X106925000Y-43050000I275000J0D01*
G01*
X107475000Y-43050000D01*
G75*
G02*
X107750000Y-43325000I0J-275000D01*
G01*
G37*
G36*
G01*
X116350000Y-37616667D02*
X116350000Y-40583333D01*
G75*
G02*
X116083333Y-40850000I-266667J0D01*
G01*
X115016667Y-40850000D01*
G75*
G02*
X114750000Y-40583333I0J266667D01*
G01*
X114750000Y-37616667D01*
G75*
G02*
X115016667Y-37350000I266667J0D01*
G01*
X116083333Y-37350000D01*
G75*
G02*
X116350000Y-37616667I0J-266667D01*
G01*
G37*
G36*
G01*
X105650000Y-37616667D02*
X105650000Y-40583333D01*
G75*
G02*
X105383333Y-40850000I-266667J0D01*
G01*
X104316667Y-40850000D01*
G75*
G02*
X104050000Y-40583333I0J266667D01*
G01*
X104050000Y-37616667D01*
G75*
G02*
X104316667Y-37350000I266667J0D01*
G01*
X105383333Y-37350000D01*
G75*
G02*
X105650000Y-37616667I0J-266667D01*
G01*
G37*
D32*
X126070000Y-67670000D03*
X104550000Y-48700000D03*
X104600000Y-83550000D03*
D33*
X70150000Y-78910000D03*
D34*
X69050000Y-79560000D03*
X83730000Y-79560000D03*
D35*
X69050000Y-89260000D03*
X84570000Y-89260000D03*
D32*
X71860000Y-89650000D03*
D33*
X71250000Y-78910000D03*
X72350000Y-78910000D03*
X73450000Y-78910000D03*
X74550000Y-78910000D03*
X75650000Y-78910000D03*
X76750000Y-78910000D03*
X77850000Y-78910000D03*
X78950000Y-78910000D03*
D32*
X79860000Y-89650000D03*
M02*
