G04 #@! TF.GenerationSoftware,KiCad,Pcbnew,(5.1.6-0)*
G04 #@! TF.CreationDate,2020-12-03T20:50:06+01:00*
G04 #@! TF.ProjectId,ESP32_TFT,45535033-325f-4544-9654-2e6b69636164,rev?*
G04 #@! TF.SameCoordinates,Original*
G04 #@! TF.FileFunction,Legend,Top*
G04 #@! TF.FilePolarity,Positive*
%FSLAX46Y46*%
G04 Gerber Fmt 4.6, Leading zero omitted, Abs format (unit mm)*
G04 Created by KiCad (PCBNEW (5.1.6-0)) date 2020-12-03 20:50:06*
%MOMM*%
%LPD*%
G01*
G04 APERTURE LIST*
%ADD10C,0.150000*%
%ADD11C,0.120000*%
%ADD12C,0.250000*%
%ADD13C,0.100000*%
%ADD14C,0.200000*%
G04 APERTURE END LIST*
D10*
X63152380Y-54290476D02*
X63152380Y-54861904D01*
X63152380Y-54576190D02*
X62152380Y-54576190D01*
X62295238Y-54671428D01*
X62390476Y-54766666D01*
X62438095Y-54861904D01*
X62152380Y-53433333D02*
X62152380Y-53623809D01*
X62200000Y-53719047D01*
X62247619Y-53766666D01*
X62390476Y-53861904D01*
X62580952Y-53909523D01*
X62961904Y-53909523D01*
X63057142Y-53861904D01*
X63104761Y-53814285D01*
X63152380Y-53719047D01*
X63152380Y-53528571D01*
X63104761Y-53433333D01*
X63057142Y-53385714D01*
X62961904Y-53338095D01*
X62723809Y-53338095D01*
X62628571Y-53385714D01*
X62580952Y-53433333D01*
X62533333Y-53528571D01*
X62533333Y-53719047D01*
X62580952Y-53814285D01*
X62628571Y-53861904D01*
X62723809Y-53909523D01*
X60752380Y-54340476D02*
X60752380Y-54911904D01*
X60752380Y-54626190D02*
X59752380Y-54626190D01*
X59895238Y-54721428D01*
X59990476Y-54816666D01*
X60038095Y-54911904D01*
X60085714Y-53483333D02*
X60752380Y-53483333D01*
X59704761Y-53721428D02*
X60419047Y-53959523D01*
X60419047Y-53340476D01*
X63102380Y-50640476D02*
X63102380Y-51211904D01*
X63102380Y-50926190D02*
X62102380Y-50926190D01*
X62245238Y-51021428D01*
X62340476Y-51116666D01*
X62388095Y-51211904D01*
X62102380Y-50307142D02*
X62102380Y-49640476D01*
X63102380Y-50069047D01*
X60654761Y-51573809D02*
X60702380Y-51430952D01*
X60702380Y-51192857D01*
X60654761Y-51097619D01*
X60607142Y-51050000D01*
X60511904Y-51002380D01*
X60416666Y-51002380D01*
X60321428Y-51050000D01*
X60273809Y-51097619D01*
X60226190Y-51192857D01*
X60178571Y-51383333D01*
X60130952Y-51478571D01*
X60083333Y-51526190D01*
X59988095Y-51573809D01*
X59892857Y-51573809D01*
X59797619Y-51526190D01*
X59750000Y-51478571D01*
X59702380Y-51383333D01*
X59702380Y-51145238D01*
X59750000Y-51002380D01*
X60702380Y-50573809D02*
X59702380Y-50573809D01*
X59702380Y-50335714D01*
X59750000Y-50192857D01*
X59845238Y-50097619D01*
X59940476Y-50050000D01*
X60130952Y-50002380D01*
X60273809Y-50002380D01*
X60464285Y-50050000D01*
X60559523Y-50097619D01*
X60654761Y-50192857D01*
X60702380Y-50335714D01*
X60702380Y-50573809D01*
X60702380Y-49573809D02*
X59702380Y-49573809D01*
D11*
X61450000Y-48500000D02*
X61450000Y-56120000D01*
X63850000Y-48500000D02*
X63850000Y-56120000D01*
X61360000Y-48500000D02*
X63850000Y-48500000D01*
X59010000Y-48500000D02*
X61550000Y-48500000D01*
D12*
X66990476Y-91414285D02*
X66457142Y-91414285D01*
X66228571Y-90576190D02*
X66990476Y-90576190D01*
X66990476Y-92176190D01*
X66228571Y-92176190D01*
X65619047Y-90652380D02*
X65390476Y-90576190D01*
X65009523Y-90576190D01*
X64857142Y-90652380D01*
X64780952Y-90728571D01*
X64704761Y-90880952D01*
X64704761Y-91033333D01*
X64780952Y-91185714D01*
X64857142Y-91261904D01*
X65009523Y-91338095D01*
X65314285Y-91414285D01*
X65466666Y-91490476D01*
X65542857Y-91566666D01*
X65619047Y-91719047D01*
X65619047Y-91871428D01*
X65542857Y-92023809D01*
X65466666Y-92100000D01*
X65314285Y-92176190D01*
X64933333Y-92176190D01*
X64704761Y-92100000D01*
X64019047Y-90576190D02*
X64019047Y-92176190D01*
X63409523Y-92176190D01*
X63257142Y-92100000D01*
X63180952Y-92023809D01*
X63104761Y-91871428D01*
X63104761Y-91642857D01*
X63180952Y-91490476D01*
X63257142Y-91414285D01*
X63409523Y-91338095D01*
X64019047Y-91338095D01*
X62571428Y-92176190D02*
X61580952Y-92176190D01*
X62114285Y-91566666D01*
X61885714Y-91566666D01*
X61733333Y-91490476D01*
X61657142Y-91414285D01*
X61580952Y-91261904D01*
X61580952Y-90880952D01*
X61657142Y-90728571D01*
X61733333Y-90652380D01*
X61885714Y-90576190D01*
X62342857Y-90576190D01*
X62495238Y-90652380D01*
X62571428Y-90728571D01*
X60971428Y-92023809D02*
X60895238Y-92100000D01*
X60742857Y-92176190D01*
X60361904Y-92176190D01*
X60209523Y-92100000D01*
X60133333Y-92023809D01*
X60057142Y-91871428D01*
X60057142Y-91719047D01*
X60133333Y-91490476D01*
X61047619Y-90576190D01*
X60057142Y-90576190D01*
X58380952Y-92176190D02*
X57466666Y-92176190D01*
X57923809Y-90576190D02*
X57923809Y-92176190D01*
X56704761Y-90576190D02*
X56857142Y-90652380D01*
X56933333Y-90728571D01*
X57009523Y-90880952D01*
X57009523Y-91338095D01*
X56933333Y-91490476D01*
X56857142Y-91566666D01*
X56704761Y-91642857D01*
X56476190Y-91642857D01*
X56323809Y-91566666D01*
X56247619Y-91490476D01*
X56171428Y-91338095D01*
X56171428Y-90880952D01*
X56247619Y-90728571D01*
X56323809Y-90652380D01*
X56476190Y-90576190D01*
X56704761Y-90576190D01*
X54800000Y-91642857D02*
X54800000Y-90576190D01*
X55485714Y-91642857D02*
X55485714Y-90804761D01*
X55409523Y-90652380D01*
X55257142Y-90576190D01*
X55028571Y-90576190D01*
X54876190Y-90652380D01*
X54800000Y-90728571D01*
X53352380Y-90652380D02*
X53504761Y-90576190D01*
X53809523Y-90576190D01*
X53961904Y-90652380D01*
X54038095Y-90728571D01*
X54114285Y-90880952D01*
X54114285Y-91338095D01*
X54038095Y-91490476D01*
X53961904Y-91566666D01*
X53809523Y-91642857D01*
X53504761Y-91642857D01*
X53352380Y-91566666D01*
X52666666Y-90576190D02*
X52666666Y-92176190D01*
X51980952Y-90576190D02*
X51980952Y-91414285D01*
X52057142Y-91566666D01*
X52209523Y-91642857D01*
X52438095Y-91642857D01*
X52590476Y-91566666D01*
X52666666Y-91490476D01*
X51219047Y-90576190D02*
X51219047Y-92176190D01*
X50838095Y-92176190D01*
X50609523Y-92100000D01*
X50457142Y-91947619D01*
X50380952Y-91795238D01*
X50304761Y-91490476D01*
X50304761Y-91261904D01*
X50380952Y-90957142D01*
X50457142Y-90804761D01*
X50609523Y-90652380D01*
X50838095Y-90576190D01*
X51219047Y-90576190D01*
X49390476Y-90576190D02*
X49542857Y-90652380D01*
X49619047Y-90728571D01*
X49695238Y-90880952D01*
X49695238Y-91338095D01*
X49619047Y-91490476D01*
X49542857Y-91566666D01*
X49390476Y-91642857D01*
X49161904Y-91642857D01*
X49009523Y-91566666D01*
X48933333Y-91490476D01*
X48857142Y-91338095D01*
X48857142Y-90880952D01*
X48933333Y-90728571D01*
X49009523Y-90652380D01*
X49161904Y-90576190D01*
X49390476Y-90576190D01*
X48323809Y-91642857D02*
X48019047Y-90576190D01*
X47714285Y-91338095D01*
X47409523Y-90576190D01*
X47104761Y-91642857D01*
X46495238Y-91642857D02*
X46495238Y-90576190D01*
X46495238Y-91490476D02*
X46419047Y-91566666D01*
X46266666Y-91642857D01*
X46038095Y-91642857D01*
X45885714Y-91566666D01*
X45809523Y-91414285D01*
X45809523Y-90576190D01*
D10*
X86535714Y-77385714D02*
X87202380Y-77385714D01*
X86154761Y-77623809D02*
X86869047Y-77861904D01*
X86869047Y-77242857D01*
X86202380Y-76671428D02*
X86202380Y-76576190D01*
X86250000Y-76480952D01*
X86297619Y-76433333D01*
X86392857Y-76385714D01*
X86583333Y-76338095D01*
X86821428Y-76338095D01*
X87011904Y-76385714D01*
X87107142Y-76433333D01*
X87154761Y-76480952D01*
X87202380Y-76576190D01*
X87202380Y-76671428D01*
X87154761Y-76766666D01*
X87107142Y-76814285D01*
X87011904Y-76861904D01*
X86821428Y-76909523D01*
X86583333Y-76909523D01*
X86392857Y-76861904D01*
X86297619Y-76814285D01*
X86250000Y-76766666D01*
X86202380Y-76671428D01*
X87102380Y-54254285D02*
X87102380Y-54825714D01*
X87102380Y-54540000D02*
X86102380Y-54540000D01*
X86245238Y-54635238D01*
X86340476Y-54730476D01*
X86388095Y-54825714D01*
X115564285Y-92532857D02*
X115611904Y-92485238D01*
X115754761Y-92437619D01*
X115850000Y-92437619D01*
X115992857Y-92485238D01*
X116088095Y-92580476D01*
X116135714Y-92675714D01*
X116183333Y-92866190D01*
X116183333Y-93009047D01*
X116135714Y-93199523D01*
X116088095Y-93294761D01*
X115992857Y-93390000D01*
X115850000Y-93437619D01*
X115754761Y-93437619D01*
X115611904Y-93390000D01*
X115564285Y-93342380D01*
X115135714Y-92437619D02*
X115135714Y-93437619D01*
X115135714Y-92961428D02*
X114564285Y-92961428D01*
X114564285Y-92437619D02*
X114564285Y-93437619D01*
X113516666Y-92437619D02*
X113850000Y-92913809D01*
X114088095Y-92437619D02*
X114088095Y-93437619D01*
X113707142Y-93437619D01*
X113611904Y-93390000D01*
X113564285Y-93342380D01*
X113516666Y-93247142D01*
X113516666Y-93104285D01*
X113564285Y-93009047D01*
X113611904Y-92961428D01*
X113707142Y-92913809D01*
X114088095Y-92913809D01*
X112564285Y-93390000D02*
X112659523Y-93437619D01*
X112802380Y-93437619D01*
X112945238Y-93390000D01*
X113040476Y-93294761D01*
X113088095Y-93199523D01*
X113135714Y-93009047D01*
X113135714Y-92866190D01*
X113088095Y-92675714D01*
X113040476Y-92580476D01*
X112945238Y-92485238D01*
X112802380Y-92437619D01*
X112707142Y-92437619D01*
X112564285Y-92485238D01*
X112516666Y-92532857D01*
X112516666Y-92866190D01*
X112707142Y-92866190D01*
D13*
G36*
X110850000Y-93370000D02*
G01*
X110460000Y-93000000D01*
X110850000Y-92610000D01*
X110850000Y-93370000D01*
G37*
X110850000Y-93370000D02*
X110460000Y-93000000D01*
X110850000Y-92610000D01*
X110850000Y-93370000D01*
G36*
X124130000Y-82380000D02*
G01*
X123440000Y-81610000D01*
X124130000Y-80800000D01*
X124130000Y-82380000D01*
G37*
X124130000Y-82380000D02*
X123440000Y-81610000D01*
X124130000Y-80800000D01*
X124130000Y-82380000D01*
D11*
X124150000Y-82460000D02*
X124150000Y-80740000D01*
X123430000Y-81640000D02*
X124150000Y-82460000D01*
X124150000Y-80740000D02*
X123410000Y-81610000D01*
X112410000Y-74700000D02*
X112410000Y-76420000D01*
X120210000Y-80010000D02*
X120210000Y-83270000D01*
X115200000Y-82810000D02*
X115200000Y-84530000D01*
D10*
X127536666Y-66438095D02*
X127270000Y-65638095D01*
X127003333Y-66438095D01*
X126470000Y-66057142D02*
X126355714Y-66019047D01*
X126317619Y-65980952D01*
X126279523Y-65904761D01*
X126279523Y-65790476D01*
X126317619Y-65714285D01*
X126355714Y-65676190D01*
X126431904Y-65638095D01*
X126736666Y-65638095D01*
X126736666Y-66438095D01*
X126470000Y-66438095D01*
X126393809Y-66400000D01*
X126355714Y-66361904D01*
X126317619Y-66285714D01*
X126317619Y-66209523D01*
X126355714Y-66133333D01*
X126393809Y-66095238D01*
X126470000Y-66057142D01*
X126736666Y-66057142D01*
X125936666Y-66438095D02*
X125936666Y-65790476D01*
X125898571Y-65714285D01*
X125860476Y-65676190D01*
X125784285Y-65638095D01*
X125631904Y-65638095D01*
X125555714Y-65676190D01*
X125517619Y-65714285D01*
X125479523Y-65790476D01*
X125479523Y-66438095D01*
X125136666Y-65676190D02*
X125022380Y-65638095D01*
X124831904Y-65638095D01*
X124755714Y-65676190D01*
X124717619Y-65714285D01*
X124679523Y-65790476D01*
X124679523Y-65866666D01*
X124717619Y-65942857D01*
X124755714Y-65980952D01*
X124831904Y-66019047D01*
X124984285Y-66057142D01*
X125060476Y-66095238D01*
X125098571Y-66133333D01*
X125136666Y-66209523D01*
X125136666Y-66285714D01*
X125098571Y-66361904D01*
X125060476Y-66400000D01*
X124984285Y-66438095D01*
X124793809Y-66438095D01*
X124679523Y-66400000D01*
X105254285Y-85528095D02*
X104987619Y-84728095D01*
X104720952Y-85528095D01*
X104187619Y-85147142D02*
X104073333Y-85109047D01*
X104035238Y-85070952D01*
X103997142Y-84994761D01*
X103997142Y-84880476D01*
X104035238Y-84804285D01*
X104073333Y-84766190D01*
X104149523Y-84728095D01*
X104454285Y-84728095D01*
X104454285Y-85528095D01*
X104187619Y-85528095D01*
X104111428Y-85490000D01*
X104073333Y-85451904D01*
X104035238Y-85375714D01*
X104035238Y-85299523D01*
X104073333Y-85223333D01*
X104111428Y-85185238D01*
X104187619Y-85147142D01*
X104454285Y-85147142D01*
X103692380Y-84956666D02*
X103311428Y-84956666D01*
X103768571Y-84728095D02*
X103501904Y-85528095D01*
X103235238Y-84728095D01*
X103082857Y-85528095D02*
X102625714Y-85528095D01*
X102854285Y-84728095D02*
X102854285Y-85528095D01*
X91000000Y-41261904D02*
X90952380Y-41357142D01*
X90952380Y-41500000D01*
X91000000Y-41642857D01*
X91095238Y-41738095D01*
X91190476Y-41785714D01*
X91380952Y-41833333D01*
X91523809Y-41833333D01*
X91714285Y-41785714D01*
X91809523Y-41738095D01*
X91904761Y-41642857D01*
X91952380Y-41500000D01*
X91952380Y-41404761D01*
X91904761Y-41261904D01*
X91857142Y-41214285D01*
X91523809Y-41214285D01*
X91523809Y-41404761D01*
X91952380Y-40785714D02*
X90952380Y-40785714D01*
X91952380Y-40214285D01*
X90952380Y-40214285D01*
X91952380Y-39738095D02*
X90952380Y-39738095D01*
X90952380Y-39500000D01*
X91000000Y-39357142D01*
X91095238Y-39261904D01*
X91190476Y-39214285D01*
X91380952Y-39166666D01*
X91523809Y-39166666D01*
X91714285Y-39214285D01*
X91809523Y-39261904D01*
X91904761Y-39357142D01*
X91952380Y-39500000D01*
X91952380Y-39738095D01*
X93952380Y-41738095D02*
X93952380Y-41119047D01*
X94333333Y-41452380D01*
X94333333Y-41309523D01*
X94380952Y-41214285D01*
X94428571Y-41166666D01*
X94523809Y-41119047D01*
X94761904Y-41119047D01*
X94857142Y-41166666D01*
X94904761Y-41214285D01*
X94952380Y-41309523D01*
X94952380Y-41595238D01*
X94904761Y-41690476D01*
X94857142Y-41738095D01*
X93952380Y-40833333D02*
X94952380Y-40500000D01*
X93952380Y-40166666D01*
X93952380Y-39928571D02*
X93952380Y-39309523D01*
X94333333Y-39642857D01*
X94333333Y-39500000D01*
X94380952Y-39404761D01*
X94428571Y-39357142D01*
X94523809Y-39309523D01*
X94761904Y-39309523D01*
X94857142Y-39357142D01*
X94904761Y-39404761D01*
X94952380Y-39500000D01*
X94952380Y-39785714D01*
X94904761Y-39880952D01*
X94857142Y-39928571D01*
X97904761Y-41714285D02*
X97952380Y-41571428D01*
X97952380Y-41333333D01*
X97904761Y-41238095D01*
X97857142Y-41190476D01*
X97761904Y-41142857D01*
X97666666Y-41142857D01*
X97571428Y-41190476D01*
X97523809Y-41238095D01*
X97476190Y-41333333D01*
X97428571Y-41523809D01*
X97380952Y-41619047D01*
X97333333Y-41666666D01*
X97238095Y-41714285D01*
X97142857Y-41714285D01*
X97047619Y-41666666D01*
X97000000Y-41619047D01*
X96952380Y-41523809D01*
X96952380Y-41285714D01*
X97000000Y-41142857D01*
X97952380Y-40714285D02*
X96952380Y-40714285D01*
X96952380Y-40476190D01*
X97000000Y-40333333D01*
X97095238Y-40238095D01*
X97190476Y-40190476D01*
X97380952Y-40142857D01*
X97523809Y-40142857D01*
X97714285Y-40190476D01*
X97809523Y-40238095D01*
X97904761Y-40333333D01*
X97952380Y-40476190D01*
X97952380Y-40714285D01*
X97666666Y-39761904D02*
X97666666Y-39285714D01*
X97952380Y-39857142D02*
X96952380Y-39523809D01*
X97952380Y-39190476D01*
X100904761Y-41690476D02*
X100952380Y-41547619D01*
X100952380Y-41309523D01*
X100904761Y-41214285D01*
X100857142Y-41166666D01*
X100761904Y-41119047D01*
X100666666Y-41119047D01*
X100571428Y-41166666D01*
X100523809Y-41214285D01*
X100476190Y-41309523D01*
X100428571Y-41500000D01*
X100380952Y-41595238D01*
X100333333Y-41642857D01*
X100238095Y-41690476D01*
X100142857Y-41690476D01*
X100047619Y-41642857D01*
X100000000Y-41595238D01*
X99952380Y-41500000D01*
X99952380Y-41261904D01*
X100000000Y-41119047D01*
X100857142Y-40119047D02*
X100904761Y-40166666D01*
X100952380Y-40309523D01*
X100952380Y-40404761D01*
X100904761Y-40547619D01*
X100809523Y-40642857D01*
X100714285Y-40690476D01*
X100523809Y-40738095D01*
X100380952Y-40738095D01*
X100190476Y-40690476D01*
X100095238Y-40642857D01*
X100000000Y-40547619D01*
X99952380Y-40404761D01*
X99952380Y-40309523D01*
X100000000Y-40166666D01*
X100047619Y-40119047D01*
X100952380Y-39214285D02*
X100952380Y-39690476D01*
X99952380Y-39690476D01*
D11*
X90000000Y-42500000D02*
X93000000Y-42500000D01*
X90000000Y-38500000D02*
X90000000Y-42500000D01*
X93000000Y-38500000D02*
X90000000Y-38500000D01*
X102000000Y-38500000D02*
X102000000Y-42500000D01*
X99000000Y-38500000D02*
X99000000Y-42500000D01*
X96000000Y-38500000D02*
X96000000Y-42500000D01*
X102000000Y-38500000D02*
X93000000Y-38500000D01*
X93000000Y-42500000D02*
X102000000Y-42500000D01*
X93000000Y-38500000D02*
X93000000Y-42500000D01*
D10*
X112858095Y-85162857D02*
X114381904Y-85162857D01*
X113620000Y-85924761D02*
X113620000Y-84400952D01*
X106748095Y-85302857D02*
X108271904Y-85302857D01*
D11*
X108302788Y-80880000D02*
G75*
G03*
X108302788Y-80880000I-162788J0D01*
G01*
X113212788Y-82000000D02*
G75*
G03*
X113212788Y-82000000I-162788J0D01*
G01*
X118612788Y-76540000D02*
G75*
G03*
X118612788Y-76540000I-162788J0D01*
G01*
D10*
X105490476Y-50938095D02*
X104995238Y-50938095D01*
X105261904Y-50633333D01*
X105147619Y-50633333D01*
X105071428Y-50595238D01*
X105033333Y-50557142D01*
X104995238Y-50480952D01*
X104995238Y-50290476D01*
X105033333Y-50214285D01*
X105071428Y-50176190D01*
X105147619Y-50138095D01*
X105376190Y-50138095D01*
X105452380Y-50176190D01*
X105490476Y-50214285D01*
X104766666Y-50938095D02*
X104500000Y-50138095D01*
X104233333Y-50938095D01*
X104042857Y-50938095D02*
X103547619Y-50938095D01*
X103814285Y-50633333D01*
X103700000Y-50633333D01*
X103623809Y-50595238D01*
X103585714Y-50557142D01*
X103547619Y-50480952D01*
X103547619Y-50290476D01*
X103585714Y-50214285D01*
X103623809Y-50176190D01*
X103700000Y-50138095D01*
X103928571Y-50138095D01*
X104004761Y-50176190D01*
X104042857Y-50214285D01*
D14*
X48715183Y-47250000D02*
G75*
G03*
X48715183Y-47250000I-205183J0D01*
G01*
X108395183Y-60010000D02*
G75*
G03*
X108395183Y-60010000I-205183J0D01*
G01*
X114485183Y-47290000D02*
G75*
G03*
X114485183Y-47290000I-205183J0D01*
G01*
X131828571Y-38557142D02*
X131828571Y-39757142D01*
X131828571Y-39300000D02*
X131714285Y-39357142D01*
X131485714Y-39357142D01*
X131371428Y-39300000D01*
X131314285Y-39242857D01*
X131257142Y-39128571D01*
X131257142Y-38785714D01*
X131314285Y-38671428D01*
X131371428Y-38614285D01*
X131485714Y-38557142D01*
X131714285Y-38557142D01*
X131828571Y-38614285D01*
X130857142Y-39357142D02*
X130571428Y-38557142D01*
X130285714Y-39357142D02*
X130571428Y-38557142D01*
X130685714Y-38271428D01*
X130742857Y-38214285D01*
X130857142Y-38157142D01*
X128914285Y-38557142D02*
X128914285Y-39757142D01*
X128628571Y-39757142D01*
X128457142Y-39700000D01*
X128342857Y-39585714D01*
X128285714Y-39471428D01*
X128228571Y-39242857D01*
X128228571Y-39071428D01*
X128285714Y-38842857D01*
X128342857Y-38728571D01*
X128457142Y-38614285D01*
X128628571Y-38557142D01*
X128914285Y-38557142D01*
X127200000Y-39357142D02*
X127200000Y-38557142D01*
X127714285Y-39357142D02*
X127714285Y-38728571D01*
X127657142Y-38614285D01*
X127542857Y-38557142D01*
X127371428Y-38557142D01*
X127257142Y-38614285D01*
X127200000Y-38671428D01*
X126685714Y-38614285D02*
X126571428Y-38557142D01*
X126342857Y-38557142D01*
X126228571Y-38614285D01*
X126171428Y-38728571D01*
X126171428Y-38785714D01*
X126228571Y-38900000D01*
X126342857Y-38957142D01*
X126514285Y-38957142D01*
X126628571Y-39014285D01*
X126685714Y-39128571D01*
X126685714Y-39185714D01*
X126628571Y-39300000D01*
X126514285Y-39357142D01*
X126342857Y-39357142D01*
X126228571Y-39300000D01*
X125828571Y-39357142D02*
X125371428Y-39357142D01*
X125657142Y-39757142D02*
X125657142Y-38728571D01*
X125600000Y-38614285D01*
X125485714Y-38557142D01*
X125371428Y-38557142D01*
X124971428Y-38557142D02*
X124971428Y-39357142D01*
X124971428Y-39757142D02*
X125028571Y-39700000D01*
X124971428Y-39642857D01*
X124914285Y-39700000D01*
X124971428Y-39757142D01*
X124971428Y-39642857D01*
X124400000Y-39357142D02*
X124400000Y-38557142D01*
X124400000Y-39242857D02*
X124342857Y-39300000D01*
X124228571Y-39357142D01*
X124057142Y-39357142D01*
X123942857Y-39300000D01*
X123885714Y-39185714D01*
X123885714Y-38557142D01*
X122514285Y-39757142D02*
X122228571Y-38557142D01*
X122000000Y-39414285D01*
X121771428Y-38557142D01*
X121485714Y-39757142D01*
X120514285Y-38557142D02*
X120514285Y-39185714D01*
X120571428Y-39300000D01*
X120685714Y-39357142D01*
X120914285Y-39357142D01*
X121028571Y-39300000D01*
X120514285Y-38614285D02*
X120628571Y-38557142D01*
X120914285Y-38557142D01*
X121028571Y-38614285D01*
X121085714Y-38728571D01*
X121085714Y-38842857D01*
X121028571Y-38957142D01*
X120914285Y-39014285D01*
X120628571Y-39014285D01*
X120514285Y-39071428D01*
X120114285Y-39357142D02*
X119657142Y-39357142D01*
X119942857Y-39757142D02*
X119942857Y-38728571D01*
X119885714Y-38614285D01*
X119771428Y-38557142D01*
X119657142Y-38557142D01*
X119428571Y-39357142D02*
X118971428Y-39357142D01*
X119257142Y-39757142D02*
X119257142Y-38728571D01*
X119200000Y-38614285D01*
X119085714Y-38557142D01*
X118971428Y-38557142D01*
X118628571Y-38614285D02*
X118514285Y-38557142D01*
X118285714Y-38557142D01*
X118171428Y-38614285D01*
X118114285Y-38728571D01*
X118114285Y-38785714D01*
X118171428Y-38900000D01*
X118285714Y-38957142D01*
X118457142Y-38957142D01*
X118571428Y-39014285D01*
X118628571Y-39128571D01*
X118628571Y-39185714D01*
X118571428Y-39300000D01*
X118457142Y-39357142D01*
X118285714Y-39357142D01*
X118171428Y-39300000D01*
X131828571Y-41857142D02*
X131428571Y-40657142D01*
X131028571Y-41857142D01*
X130000000Y-40657142D02*
X130685714Y-40657142D01*
X130342857Y-40657142D02*
X130342857Y-41857142D01*
X130457142Y-41685714D01*
X130571428Y-41571428D01*
X130685714Y-41514285D01*
X129485714Y-40771428D02*
X129428571Y-40714285D01*
X129485714Y-40657142D01*
X129542857Y-40714285D01*
X129485714Y-40771428D01*
X129485714Y-40657142D01*
X128685714Y-41857142D02*
X128571428Y-41857142D01*
X128457142Y-41800000D01*
X128400000Y-41742857D01*
X128342857Y-41628571D01*
X128285714Y-41400000D01*
X128285714Y-41114285D01*
X128342857Y-40885714D01*
X128400000Y-40771428D01*
X128457142Y-40714285D01*
X128571428Y-40657142D01*
X128685714Y-40657142D01*
X128800000Y-40714285D01*
X128857142Y-40771428D01*
X128914285Y-40885714D01*
X128971428Y-41114285D01*
X128971428Y-41400000D01*
X128914285Y-41628571D01*
X128857142Y-41742857D01*
X128800000Y-41800000D01*
X128685714Y-41857142D01*
D10*
X39007619Y-45307619D02*
X39483809Y-44974285D01*
X39007619Y-44736190D02*
X40007619Y-44736190D01*
X40007619Y-45117142D01*
X39960000Y-45212380D01*
X39912380Y-45260000D01*
X39817142Y-45307619D01*
X39674285Y-45307619D01*
X39579047Y-45260000D01*
X39531428Y-45212380D01*
X39483809Y-45117142D01*
X39483809Y-44736190D01*
X39531428Y-45736190D02*
X39531428Y-46069523D01*
X39007619Y-46212380D02*
X39007619Y-45736190D01*
X40007619Y-45736190D01*
X40007619Y-46212380D01*
X39055238Y-46593333D02*
X39007619Y-46736190D01*
X39007619Y-46974285D01*
X39055238Y-47069523D01*
X39102857Y-47117142D01*
X39198095Y-47164761D01*
X39293333Y-47164761D01*
X39388571Y-47117142D01*
X39436190Y-47069523D01*
X39483809Y-46974285D01*
X39531428Y-46783809D01*
X39579047Y-46688571D01*
X39626666Y-46640952D01*
X39721904Y-46593333D01*
X39817142Y-46593333D01*
X39912380Y-46640952D01*
X39960000Y-46688571D01*
X40007619Y-46783809D01*
X40007619Y-47021904D01*
X39960000Y-47164761D01*
X39531428Y-47593333D02*
X39531428Y-47926666D01*
X39007619Y-48069523D02*
X39007619Y-47593333D01*
X40007619Y-47593333D01*
X40007619Y-48069523D01*
X40007619Y-48355238D02*
X40007619Y-48926666D01*
X39007619Y-48640952D02*
X40007619Y-48640952D01*
X39571428Y-54022857D02*
X39523809Y-54165714D01*
X39476190Y-54213333D01*
X39380952Y-54260952D01*
X39238095Y-54260952D01*
X39142857Y-54213333D01*
X39095238Y-54165714D01*
X39047619Y-54070476D01*
X39047619Y-53689523D01*
X40047619Y-53689523D01*
X40047619Y-54022857D01*
X40000000Y-54118095D01*
X39952380Y-54165714D01*
X39857142Y-54213333D01*
X39761904Y-54213333D01*
X39666666Y-54165714D01*
X39619047Y-54118095D01*
X39571428Y-54022857D01*
X39571428Y-53689523D01*
X40047619Y-54880000D02*
X40047619Y-55070476D01*
X40000000Y-55165714D01*
X39904761Y-55260952D01*
X39714285Y-55308571D01*
X39380952Y-55308571D01*
X39190476Y-55260952D01*
X39095238Y-55165714D01*
X39047619Y-55070476D01*
X39047619Y-54880000D01*
X39095238Y-54784761D01*
X39190476Y-54689523D01*
X39380952Y-54641904D01*
X39714285Y-54641904D01*
X39904761Y-54689523D01*
X40000000Y-54784761D01*
X40047619Y-54880000D01*
X40047619Y-55927619D02*
X40047619Y-56118095D01*
X40000000Y-56213333D01*
X39904761Y-56308571D01*
X39714285Y-56356190D01*
X39380952Y-56356190D01*
X39190476Y-56308571D01*
X39095238Y-56213333D01*
X39047619Y-56118095D01*
X39047619Y-55927619D01*
X39095238Y-55832380D01*
X39190476Y-55737142D01*
X39380952Y-55689523D01*
X39714285Y-55689523D01*
X39904761Y-55737142D01*
X40000000Y-55832380D01*
X40047619Y-55927619D01*
X40047619Y-56641904D02*
X40047619Y-57213333D01*
X39047619Y-56927619D02*
X40047619Y-56927619D01*
X55662380Y-54200476D02*
X55662380Y-54771904D01*
X55662380Y-54486190D02*
X54662380Y-54486190D01*
X54805238Y-54581428D01*
X54900476Y-54676666D01*
X54948095Y-54771904D01*
X54757619Y-53819523D02*
X54710000Y-53771904D01*
X54662380Y-53676666D01*
X54662380Y-53438571D01*
X54710000Y-53343333D01*
X54757619Y-53295714D01*
X54852857Y-53248095D01*
X54948095Y-53248095D01*
X55090952Y-53295714D01*
X55662380Y-53867142D01*
X55662380Y-53248095D01*
X47132380Y-54879523D02*
X47132380Y-54260476D01*
X47513333Y-54593809D01*
X47513333Y-54450952D01*
X47560952Y-54355714D01*
X47608571Y-54308095D01*
X47703809Y-54260476D01*
X47941904Y-54260476D01*
X48037142Y-54308095D01*
X48084761Y-54355714D01*
X48132380Y-54450952D01*
X48132380Y-54736666D01*
X48084761Y-54831904D01*
X48037142Y-54879523D01*
X47465714Y-53403333D02*
X48132380Y-53403333D01*
X47084761Y-53641428D02*
X47799047Y-53879523D01*
X47799047Y-53260476D01*
X47132380Y-51179523D02*
X47132380Y-50560476D01*
X47513333Y-50893809D01*
X47513333Y-50750952D01*
X47560952Y-50655714D01*
X47608571Y-50608095D01*
X47703809Y-50560476D01*
X47941904Y-50560476D01*
X48037142Y-50608095D01*
X48084761Y-50655714D01*
X48132380Y-50750952D01*
X48132380Y-51036666D01*
X48084761Y-51131904D01*
X48037142Y-51179523D01*
X47132380Y-50227142D02*
X47132380Y-49608095D01*
X47513333Y-49941428D01*
X47513333Y-49798571D01*
X47560952Y-49703333D01*
X47608571Y-49655714D01*
X47703809Y-49608095D01*
X47941904Y-49608095D01*
X48037142Y-49655714D01*
X48084761Y-49703333D01*
X48132380Y-49798571D01*
X48132380Y-50084285D01*
X48084761Y-50179523D01*
X48037142Y-50227142D01*
X50524761Y-51620476D02*
X50572380Y-51477619D01*
X50572380Y-51239523D01*
X50524761Y-51144285D01*
X50477142Y-51096666D01*
X50381904Y-51049047D01*
X50286666Y-51049047D01*
X50191428Y-51096666D01*
X50143809Y-51144285D01*
X50096190Y-51239523D01*
X50048571Y-51430000D01*
X50000952Y-51525238D01*
X49953333Y-51572857D01*
X49858095Y-51620476D01*
X49762857Y-51620476D01*
X49667619Y-51572857D01*
X49620000Y-51525238D01*
X49572380Y-51430000D01*
X49572380Y-51191904D01*
X49620000Y-51049047D01*
X50477142Y-50049047D02*
X50524761Y-50096666D01*
X50572380Y-50239523D01*
X50572380Y-50334761D01*
X50524761Y-50477619D01*
X50429523Y-50572857D01*
X50334285Y-50620476D01*
X50143809Y-50668095D01*
X50000952Y-50668095D01*
X49810476Y-50620476D01*
X49715238Y-50572857D01*
X49620000Y-50477619D01*
X49572380Y-50334761D01*
X49572380Y-50239523D01*
X49620000Y-50096666D01*
X49667619Y-50049047D01*
X50572380Y-49144285D02*
X50572380Y-49620476D01*
X49572380Y-49620476D01*
X55704761Y-51885714D02*
X55752380Y-51742857D01*
X55752380Y-51504761D01*
X55704761Y-51409523D01*
X55657142Y-51361904D01*
X55561904Y-51314285D01*
X55466666Y-51314285D01*
X55371428Y-51361904D01*
X55323809Y-51409523D01*
X55276190Y-51504761D01*
X55228571Y-51695238D01*
X55180952Y-51790476D01*
X55133333Y-51838095D01*
X55038095Y-51885714D01*
X54942857Y-51885714D01*
X54847619Y-51838095D01*
X54800000Y-51790476D01*
X54752380Y-51695238D01*
X54752380Y-51457142D01*
X54800000Y-51314285D01*
X55657142Y-50314285D02*
X55704761Y-50361904D01*
X55752380Y-50504761D01*
X55752380Y-50600000D01*
X55704761Y-50742857D01*
X55609523Y-50838095D01*
X55514285Y-50885714D01*
X55323809Y-50933333D01*
X55180952Y-50933333D01*
X54990476Y-50885714D01*
X54895238Y-50838095D01*
X54800000Y-50742857D01*
X54752380Y-50600000D01*
X54752380Y-50504761D01*
X54800000Y-50361904D01*
X54847619Y-50314285D01*
X55752380Y-49885714D02*
X54752380Y-49885714D01*
X55752380Y-49314285D02*
X55180952Y-49742857D01*
X54752380Y-49314285D02*
X55323809Y-49885714D01*
X58154761Y-51909523D02*
X58202380Y-51766666D01*
X58202380Y-51528571D01*
X58154761Y-51433333D01*
X58107142Y-51385714D01*
X58011904Y-51338095D01*
X57916666Y-51338095D01*
X57821428Y-51385714D01*
X57773809Y-51433333D01*
X57726190Y-51528571D01*
X57678571Y-51719047D01*
X57630952Y-51814285D01*
X57583333Y-51861904D01*
X57488095Y-51909523D01*
X57392857Y-51909523D01*
X57297619Y-51861904D01*
X57250000Y-51814285D01*
X57202380Y-51719047D01*
X57202380Y-51480952D01*
X57250000Y-51338095D01*
X58202380Y-50909523D02*
X57202380Y-50909523D01*
X57202380Y-50671428D01*
X57250000Y-50528571D01*
X57345238Y-50433333D01*
X57440476Y-50385714D01*
X57630952Y-50338095D01*
X57773809Y-50338095D01*
X57964285Y-50385714D01*
X58059523Y-50433333D01*
X58154761Y-50528571D01*
X58202380Y-50671428D01*
X58202380Y-50909523D01*
X57202380Y-49719047D02*
X57202380Y-49528571D01*
X57250000Y-49433333D01*
X57345238Y-49338095D01*
X57535714Y-49290476D01*
X57869047Y-49290476D01*
X58059523Y-49338095D01*
X58154761Y-49433333D01*
X58202380Y-49528571D01*
X58202380Y-49719047D01*
X58154761Y-49814285D01*
X58059523Y-49909523D01*
X57869047Y-49957142D01*
X57535714Y-49957142D01*
X57345238Y-49909523D01*
X57250000Y-49814285D01*
X57202380Y-49719047D01*
X58222380Y-54260476D02*
X58222380Y-54831904D01*
X58222380Y-54546190D02*
X57222380Y-54546190D01*
X57365238Y-54641428D01*
X57460476Y-54736666D01*
X57508095Y-54831904D01*
X57222380Y-53927142D02*
X57222380Y-53308095D01*
X57603333Y-53641428D01*
X57603333Y-53498571D01*
X57650952Y-53403333D01*
X57698571Y-53355714D01*
X57793809Y-53308095D01*
X58031904Y-53308095D01*
X58127142Y-53355714D01*
X58174761Y-53403333D01*
X58222380Y-53498571D01*
X58222380Y-53784285D01*
X58174761Y-53879523D01*
X58127142Y-53927142D01*
X50544761Y-55404285D02*
X50592380Y-55261428D01*
X50592380Y-55023333D01*
X50544761Y-54928095D01*
X50497142Y-54880476D01*
X50401904Y-54832857D01*
X50306666Y-54832857D01*
X50211428Y-54880476D01*
X50163809Y-54928095D01*
X50116190Y-55023333D01*
X50068571Y-55213809D01*
X50020952Y-55309047D01*
X49973333Y-55356666D01*
X49878095Y-55404285D01*
X49782857Y-55404285D01*
X49687619Y-55356666D01*
X49640000Y-55309047D01*
X49592380Y-55213809D01*
X49592380Y-54975714D01*
X49640000Y-54832857D01*
X50592380Y-54404285D02*
X49592380Y-54404285D01*
X49592380Y-54166190D01*
X49640000Y-54023333D01*
X49735238Y-53928095D01*
X49830476Y-53880476D01*
X50020952Y-53832857D01*
X50163809Y-53832857D01*
X50354285Y-53880476D01*
X50449523Y-53928095D01*
X50544761Y-54023333D01*
X50592380Y-54166190D01*
X50592380Y-54404285D01*
X50306666Y-53451904D02*
X50306666Y-52975714D01*
X50592380Y-53547142D02*
X49592380Y-53213809D01*
X50592380Y-52880476D01*
X52270000Y-54891904D02*
X52222380Y-54987142D01*
X52222380Y-55130000D01*
X52270000Y-55272857D01*
X52365238Y-55368095D01*
X52460476Y-55415714D01*
X52650952Y-55463333D01*
X52793809Y-55463333D01*
X52984285Y-55415714D01*
X53079523Y-55368095D01*
X53174761Y-55272857D01*
X53222380Y-55130000D01*
X53222380Y-55034761D01*
X53174761Y-54891904D01*
X53127142Y-54844285D01*
X52793809Y-54844285D01*
X52793809Y-55034761D01*
X53222380Y-54415714D02*
X52222380Y-54415714D01*
X53222380Y-53844285D01*
X52222380Y-53844285D01*
X53222380Y-53368095D02*
X52222380Y-53368095D01*
X52222380Y-53130000D01*
X52270000Y-52987142D01*
X52365238Y-52891904D01*
X52460476Y-52844285D01*
X52650952Y-52796666D01*
X52793809Y-52796666D01*
X52984285Y-52844285D01*
X53079523Y-52891904D01*
X53174761Y-52987142D01*
X53222380Y-53130000D01*
X53222380Y-53368095D01*
X52202380Y-51678095D02*
X52202380Y-51059047D01*
X52583333Y-51392380D01*
X52583333Y-51249523D01*
X52630952Y-51154285D01*
X52678571Y-51106666D01*
X52773809Y-51059047D01*
X53011904Y-51059047D01*
X53107142Y-51106666D01*
X53154761Y-51154285D01*
X53202380Y-51249523D01*
X53202380Y-51535238D01*
X53154761Y-51630476D01*
X53107142Y-51678095D01*
X52202380Y-50773333D02*
X53202380Y-50440000D01*
X52202380Y-50106666D01*
X52202380Y-49868571D02*
X52202380Y-49249523D01*
X52583333Y-49582857D01*
X52583333Y-49440000D01*
X52630952Y-49344761D01*
X52678571Y-49297142D01*
X52773809Y-49249523D01*
X53011904Y-49249523D01*
X53107142Y-49297142D01*
X53154761Y-49344761D01*
X53202380Y-49440000D01*
X53202380Y-49725714D01*
X53154761Y-49820952D01*
X53107142Y-49868571D01*
D11*
X46320000Y-52280000D02*
X63850000Y-52280000D01*
X46320000Y-48470000D02*
X46320000Y-52280000D01*
X59000000Y-48500000D02*
X59000000Y-56120000D01*
X56460000Y-48500000D02*
X59000000Y-48500000D01*
X56460000Y-56120000D02*
X56460000Y-48500000D01*
X53920000Y-56120000D02*
X56460000Y-56120000D01*
X53920000Y-48500000D02*
X53920000Y-56120000D01*
X51380000Y-48500000D02*
X53920000Y-48500000D01*
X51380000Y-56120000D02*
X51380000Y-48500000D01*
X48840000Y-56120000D02*
X51380000Y-56120000D01*
X48840000Y-48500000D02*
X48840000Y-56120000D01*
X46300000Y-56120000D02*
X46300000Y-48500000D01*
X63850000Y-56120000D02*
X46300000Y-56120000D01*
X46300000Y-48500000D02*
X59000000Y-48500000D01*
D10*
X112840476Y-48145238D02*
X112697619Y-48097619D01*
X112459523Y-48097619D01*
X112364285Y-48145238D01*
X112316666Y-48192857D01*
X112269047Y-48288095D01*
X112269047Y-48383333D01*
X112316666Y-48478571D01*
X112364285Y-48526190D01*
X112459523Y-48573809D01*
X112650000Y-48621428D01*
X112745238Y-48669047D01*
X112792857Y-48716666D01*
X112840476Y-48811904D01*
X112840476Y-48907142D01*
X112792857Y-49002380D01*
X112745238Y-49050000D01*
X112650000Y-49097619D01*
X112411904Y-49097619D01*
X112269047Y-49050000D01*
X111983333Y-49097619D02*
X111411904Y-49097619D01*
X111697619Y-48097619D02*
X111697619Y-49097619D01*
X111078571Y-48621428D02*
X110745238Y-48621428D01*
X110602380Y-48097619D02*
X111078571Y-48097619D01*
X111078571Y-49097619D01*
X110602380Y-49097619D01*
X110173809Y-48097619D02*
X110173809Y-49097619D01*
X109840476Y-48383333D01*
X109507142Y-49097619D01*
X109507142Y-48097619D01*
X109030952Y-48097619D02*
X109030952Y-49097619D01*
X108697619Y-48383333D01*
X108364285Y-49097619D01*
X108364285Y-48097619D01*
X107935714Y-48383333D02*
X107459523Y-48383333D01*
X108030952Y-48097619D02*
X107697619Y-49097619D01*
X107364285Y-48097619D01*
D11*
X126530000Y-89680000D02*
X127930000Y-89680000D01*
X127930000Y-89680000D02*
X127930000Y-93480000D01*
X118730000Y-93480000D02*
X118730000Y-89680000D01*
X118730000Y-89680000D02*
X120130000Y-89680000D01*
X125130000Y-89680000D02*
X124030000Y-89680000D01*
X124030000Y-89680000D02*
X124030000Y-89680000D01*
X122630000Y-89680000D02*
X121530000Y-89680000D01*
X121530000Y-89680000D02*
X121530000Y-89680000D01*
X127930000Y-93480000D02*
X126230000Y-93480000D01*
X126230000Y-93480000D02*
X126230000Y-93780000D01*
X126230000Y-93780000D02*
X125430000Y-93780000D01*
X125430000Y-93780000D02*
X125430000Y-93480000D01*
X125430000Y-93480000D02*
X123730000Y-93480000D01*
X123730000Y-93480000D02*
X123730000Y-93780000D01*
X123730000Y-93780000D02*
X122930000Y-93780000D01*
X122930000Y-93780000D02*
X122930000Y-93480000D01*
X122930000Y-93480000D02*
X121230000Y-93480000D01*
X121230000Y-93480000D02*
X121230000Y-93780000D01*
X121230000Y-93780000D02*
X120430000Y-93780000D01*
X120430000Y-93780000D02*
X120430000Y-93480000D01*
X120430000Y-93480000D02*
X118730000Y-93480000D01*
X118730000Y-93480000D02*
X118730000Y-93480000D01*
X109887221Y-50850000D02*
X110212779Y-50850000D01*
X109887221Y-49830000D02*
X110212779Y-49830000D01*
X102200000Y-92400000D02*
X101600000Y-92400000D01*
X102900000Y-90300000D02*
X102900000Y-91700000D01*
X101600000Y-89600000D02*
X102200000Y-89600000D01*
X100900000Y-91700000D02*
X100900000Y-90300000D01*
X101600000Y-92400000D02*
G75*
G02*
X100900000Y-91700000I0J700000D01*
G01*
X102900000Y-91700000D02*
G75*
G02*
X102200000Y-92400000I-700000J0D01*
G01*
X102200000Y-89600000D02*
G75*
G02*
X102900000Y-90300000I0J-700000D01*
G01*
X100900000Y-90300000D02*
G75*
G02*
X101600000Y-89600000I700000J0D01*
G01*
X134200000Y-86400000D02*
X134200000Y-85800000D01*
X136300000Y-87100000D02*
X134900000Y-87100000D01*
X137000000Y-85800000D02*
X137000000Y-86400000D01*
X134900000Y-85100000D02*
X136300000Y-85100000D01*
X134200000Y-85800000D02*
G75*
G02*
X134900000Y-85100000I700000J0D01*
G01*
X134900000Y-87100000D02*
G75*
G02*
X134200000Y-86400000I0J700000D01*
G01*
X137000000Y-86400000D02*
G75*
G02*
X136300000Y-87100000I-700000J0D01*
G01*
X136300000Y-85100000D02*
G75*
G02*
X137000000Y-85800000I0J-700000D01*
G01*
X130090000Y-70537221D02*
X130090000Y-70862779D01*
X131110000Y-70537221D02*
X131110000Y-70862779D01*
X128390000Y-70537221D02*
X128390000Y-70862779D01*
X129410000Y-70537221D02*
X129410000Y-70862779D01*
X129321422Y-86700000D02*
X129838578Y-86700000D01*
X129321422Y-85280000D02*
X129838578Y-85280000D01*
X129427221Y-88430000D02*
X129752779Y-88430000D01*
X129427221Y-87410000D02*
X129752779Y-87410000D01*
X84050000Y-43650000D02*
X84050000Y-37650000D01*
X68050000Y-43650000D02*
X68050000Y-37650000D01*
X84050000Y-53650000D02*
X68050000Y-53650000D01*
X84050000Y-47650000D02*
X84050000Y-53650000D01*
X68050000Y-37650000D02*
X84050000Y-37650000D01*
X68050000Y-47650000D02*
X68050000Y-53650000D01*
X79900000Y-67650000D02*
X82700000Y-67650000D01*
X83350000Y-68350000D02*
X83350000Y-68950000D01*
X82700000Y-69650000D02*
X79900000Y-69650000D01*
X79250000Y-68950000D02*
X79250000Y-68350000D01*
X79250000Y-68350000D02*
G75*
G02*
X79950000Y-67650000I700000J0D01*
G01*
X79950000Y-69650000D02*
G75*
G02*
X79250000Y-68950000I0J700000D01*
G01*
X83350000Y-68950000D02*
G75*
G02*
X82650000Y-69650000I-700000J0D01*
G01*
X82650000Y-67650000D02*
G75*
G02*
X83350000Y-68350000I0J-700000D01*
G01*
X59362779Y-61490000D02*
X59037221Y-61490000D01*
X59362779Y-62510000D02*
X59037221Y-62510000D01*
X130487221Y-91810000D02*
X130812779Y-91810000D01*
X130487221Y-90790000D02*
X130812779Y-90790000D01*
X83187221Y-75960000D02*
X83512779Y-75960000D01*
X83187221Y-74940000D02*
X83512779Y-74940000D01*
X83187221Y-74460000D02*
X83512779Y-74460000D01*
X83187221Y-73440000D02*
X83512779Y-73440000D01*
X83187221Y-72960000D02*
X83512779Y-72960000D01*
X83187221Y-71940000D02*
X83512779Y-71940000D01*
X79912779Y-70590000D02*
X79587221Y-70590000D01*
X79912779Y-71610000D02*
X79587221Y-71610000D01*
X47637221Y-62560000D02*
X47962779Y-62560000D01*
X47637221Y-61540000D02*
X47962779Y-61540000D01*
X54362779Y-61490000D02*
X54037221Y-61490000D01*
X54362779Y-62510000D02*
X54037221Y-62510000D01*
X80560000Y-75530000D02*
X79100000Y-75530000D01*
X80560000Y-72370000D02*
X78400000Y-72370000D01*
X80560000Y-72370000D02*
X80560000Y-73300000D01*
X80560000Y-75530000D02*
X80560000Y-74600000D01*
X60840000Y-40400000D02*
X61860000Y-40400000D01*
X60840000Y-45600000D02*
X61860000Y-45600000D01*
X58300000Y-40400000D02*
X59320000Y-40400000D01*
X58300000Y-45600000D02*
X59320000Y-45600000D01*
X55760000Y-40400000D02*
X56780000Y-40400000D01*
X55760000Y-45600000D02*
X56780000Y-45600000D01*
X53220000Y-40400000D02*
X54240000Y-40400000D01*
X53220000Y-45600000D02*
X54240000Y-45600000D01*
X50680000Y-40400000D02*
X51700000Y-40400000D01*
X50680000Y-45600000D02*
X51700000Y-45600000D01*
X48140000Y-40400000D02*
X49160000Y-40400000D01*
X48140000Y-45600000D02*
X49160000Y-45600000D01*
X63380000Y-40400000D02*
X63950000Y-40400000D01*
X63380000Y-45600000D02*
X63950000Y-45600000D01*
X46050000Y-40400000D02*
X46620000Y-40400000D01*
X46050000Y-45600000D02*
X46620000Y-45600000D01*
X46620000Y-47040000D02*
X46620000Y-45600000D01*
X63950000Y-45600000D02*
X63950000Y-40400000D01*
X46050000Y-45600000D02*
X46050000Y-40400000D01*
X129215000Y-93735000D02*
X131500000Y-93735000D01*
X129215000Y-92265000D02*
X129215000Y-93735000D01*
X131500000Y-92265000D02*
X129215000Y-92265000D01*
X106395000Y-91530000D02*
X106395000Y-90680000D01*
X114565000Y-91530000D02*
X106395000Y-91530000D01*
X114565000Y-90680000D02*
X114565000Y-91530000D01*
X106395000Y-86310000D02*
X108720000Y-86310000D01*
X106395000Y-87160000D02*
X106395000Y-86310000D01*
X112240000Y-86310000D02*
X112240000Y-83920000D01*
X114565000Y-86310000D02*
X112240000Y-86310000D01*
X114565000Y-87160000D02*
X114565000Y-86310000D01*
X119592779Y-78400000D02*
X119267221Y-78400000D01*
X119592779Y-79420000D02*
X119267221Y-79420000D01*
X87500000Y-75670000D02*
X87500000Y-77160000D01*
X87500000Y-77160000D02*
X88840000Y-77160000D01*
X87500000Y-55350000D02*
X87500000Y-53860000D01*
X87500000Y-53860000D02*
X88840000Y-53860000D01*
X91560000Y-77160000D02*
X93300000Y-77160000D01*
X93300000Y-77160000D02*
X93300000Y-53860000D01*
X93300000Y-53860000D02*
X91560000Y-53860000D01*
X87500000Y-75670000D02*
X86300000Y-75670000D01*
X43100000Y-53600000D02*
X43100000Y-57400000D01*
X40700000Y-57400000D02*
X40700000Y-53600000D01*
X42621110Y-55500000D02*
G75*
G03*
X42621110Y-55500000I-721110J0D01*
G01*
X40730000Y-48675000D02*
X40730000Y-44875000D01*
X43130000Y-44875000D02*
X43130000Y-48675000D01*
X42651110Y-46775000D02*
G75*
G03*
X42651110Y-46775000I-721110J0D01*
G01*
X44985000Y-83050000D02*
X44985000Y-83430000D01*
X38565000Y-83050000D02*
X44985000Y-83050000D01*
X38565000Y-64810000D02*
X44985000Y-64810000D01*
X38565000Y-83050000D02*
X38565000Y-64810000D01*
X64310000Y-64810000D02*
X64310000Y-65810000D01*
X63530000Y-64810000D02*
X64310000Y-64810000D01*
X64310000Y-83050000D02*
X64310000Y-82050000D01*
X63530000Y-83050000D02*
X64310000Y-83050000D01*
X124990000Y-76037221D02*
X124990000Y-76362779D01*
X126010000Y-76037221D02*
X126010000Y-76362779D01*
X119330000Y-82745000D02*
X115420000Y-82745000D01*
X115420000Y-82745000D02*
X115420000Y-84615000D01*
X115420000Y-84615000D02*
X119330000Y-84615000D01*
X112200000Y-74635000D02*
X108290000Y-74635000D01*
X112200000Y-76505000D02*
X112200000Y-74635000D01*
X108290000Y-76505000D02*
X112200000Y-76505000D01*
X46790000Y-86237221D02*
X46790000Y-86562779D01*
X47810000Y-86237221D02*
X47810000Y-86562779D01*
X110122779Y-73000000D02*
X109797221Y-73000000D01*
X110122779Y-74020000D02*
X109797221Y-74020000D01*
X50290000Y-86237221D02*
X50290000Y-86562779D01*
X51310000Y-86237221D02*
X51310000Y-86562779D01*
X109962779Y-82430000D02*
X109637221Y-82430000D01*
X109962779Y-81410000D02*
X109637221Y-81410000D01*
X120450000Y-79980000D02*
X125850000Y-79980000D01*
X120450000Y-83280000D02*
X125850000Y-83280000D01*
X120450000Y-79980000D02*
X120450000Y-83280000D01*
X109185000Y-93695000D02*
X111470000Y-93695000D01*
X109185000Y-92225000D02*
X109185000Y-93695000D01*
X111470000Y-92225000D02*
X109185000Y-92225000D01*
X109880000Y-59730000D02*
X108680000Y-59730000D01*
X115680000Y-54920000D02*
X113940000Y-54920000D01*
X115680000Y-61220000D02*
X115680000Y-54920000D01*
X113940000Y-61220000D02*
X115680000Y-61220000D01*
X109880000Y-54920000D02*
X111220000Y-54920000D01*
X109880000Y-56410000D02*
X109880000Y-54920000D01*
X109880000Y-61220000D02*
X111220000Y-61220000D01*
X109880000Y-59730000D02*
X109880000Y-61220000D01*
X99840000Y-79820000D02*
X99840000Y-80750000D01*
X99840000Y-82980000D02*
X99840000Y-82050000D01*
X99840000Y-82980000D02*
X102000000Y-82980000D01*
X99840000Y-79820000D02*
X101300000Y-79820000D01*
X96040000Y-79820000D02*
X97500000Y-79820000D01*
X96040000Y-82980000D02*
X98200000Y-82980000D01*
X96040000Y-82980000D02*
X96040000Y-82050000D01*
X96040000Y-79820000D02*
X96040000Y-80750000D01*
X116770000Y-85240000D02*
X118230000Y-85240000D01*
X116770000Y-88400000D02*
X118930000Y-88400000D01*
X116770000Y-88400000D02*
X116770000Y-87470000D01*
X116770000Y-85240000D02*
X116770000Y-86170000D01*
X124990000Y-72637221D02*
X124990000Y-72962779D01*
X126010000Y-72637221D02*
X126010000Y-72962779D01*
X126690000Y-72962779D02*
X126690000Y-72637221D01*
X127710000Y-72962779D02*
X127710000Y-72637221D01*
X115007221Y-72100000D02*
X115332779Y-72100000D01*
X115007221Y-73120000D02*
X115332779Y-73120000D01*
X115007221Y-74820000D02*
X115332779Y-74820000D01*
X115007221Y-73800000D02*
X115332779Y-73800000D01*
X96824721Y-79110000D02*
X97150279Y-79110000D01*
X96824721Y-78090000D02*
X97150279Y-78090000D01*
X100637221Y-78090000D02*
X100962779Y-78090000D01*
X100637221Y-79110000D02*
X100962779Y-79110000D01*
X49560000Y-86562779D02*
X49560000Y-86237221D01*
X48540000Y-86562779D02*
X48540000Y-86237221D01*
X124970000Y-85177221D02*
X124970000Y-85502779D01*
X125990000Y-85177221D02*
X125990000Y-85502779D01*
X63612779Y-62510000D02*
X63287221Y-62510000D01*
X63612779Y-61490000D02*
X63287221Y-61490000D01*
X67310000Y-67324721D02*
X67310000Y-67650279D01*
X66290000Y-67324721D02*
X66290000Y-67650279D01*
X102710000Y-87662779D02*
X102710000Y-87337221D01*
X101690000Y-87662779D02*
X101690000Y-87337221D01*
X54760000Y-86562779D02*
X54760000Y-86237221D01*
X53740000Y-86562779D02*
X53740000Y-86237221D01*
X53060000Y-86237221D02*
X53060000Y-86562779D01*
X52040000Y-86237221D02*
X52040000Y-86562779D01*
X107380000Y-78847221D02*
X107380000Y-79172779D01*
X106360000Y-78847221D02*
X106360000Y-79172779D01*
X118160000Y-75615000D02*
X118160000Y-76340000D01*
X123380000Y-71120000D02*
X122655000Y-71120000D01*
X123380000Y-71845000D02*
X123380000Y-71120000D01*
X123380000Y-76340000D02*
X122655000Y-76340000D01*
X123380000Y-75615000D02*
X123380000Y-76340000D01*
X118160000Y-71120000D02*
X118885000Y-71120000D01*
X118160000Y-71845000D02*
X118160000Y-71120000D01*
X116270000Y-80970000D02*
X116270000Y-79170000D01*
X113050000Y-79170000D02*
X113050000Y-81620000D01*
X108130000Y-78030000D02*
X108130000Y-80480000D01*
X111350000Y-79830000D02*
X111350000Y-78030000D01*
X109907221Y-51360000D02*
X110232779Y-51360000D01*
X109907221Y-52380000D02*
X110232779Y-52380000D01*
X114540000Y-37490000D02*
X105860000Y-37490000D01*
X105160000Y-43710000D02*
X106440000Y-43710000D01*
X105160000Y-45310000D02*
X105160000Y-43710000D01*
X104140000Y-45310000D02*
X105160000Y-45310000D01*
X104140000Y-41060000D02*
X104140000Y-45310000D01*
X113960000Y-43710000D02*
X113960000Y-46600000D01*
X115240000Y-43710000D02*
X113960000Y-43710000D01*
X115240000Y-45310000D02*
X115240000Y-43710000D01*
X116260000Y-45310000D02*
X115240000Y-45310000D01*
X116260000Y-41060000D02*
X116260000Y-45310000D01*
X126770000Y-67670000D02*
G75*
G03*
X126770000Y-67670000I-700000J0D01*
G01*
X105250000Y-48700000D02*
G75*
G03*
X105250000Y-48700000I-700000J0D01*
G01*
X105300000Y-83550000D02*
G75*
G03*
X105300000Y-83550000I-700000J0D01*
G01*
X83900000Y-92500000D02*
X83900000Y-88000000D01*
X69400000Y-92500000D02*
X83900000Y-92500000D01*
X69400000Y-90500000D02*
X69400000Y-92500000D01*
X82900000Y-80500000D02*
X82900000Y-79000000D01*
X83900000Y-80500000D02*
X82900000Y-80500000D01*
X83900000Y-80500000D02*
X83900000Y-88000000D01*
X79650000Y-79000000D02*
X82900000Y-79000000D01*
X69400000Y-80500000D02*
X69400000Y-88000000D01*
M02*
