G04 #@! TF.GenerationSoftware,KiCad,Pcbnew,(5.1.6-0)*
G04 #@! TF.CreationDate,2020-12-03T20:50:06+01:00*
G04 #@! TF.ProjectId,ESP32_TFT,45535033-325f-4544-9654-2e6b69636164,rev?*
G04 #@! TF.SameCoordinates,Original*
G04 #@! TF.FileFunction,Paste,Top*
G04 #@! TF.FilePolarity,Positive*
%FSLAX46Y46*%
G04 Gerber Fmt 4.6, Leading zero omitted, Abs format (unit mm)*
G04 Created by KiCad (PCBNEW (5.1.6-0)) date 2020-12-03 20:50:06*
%MOMM*%
%LPD*%
G01*
G04 APERTURE LIST*
%ADD10R,1.250000X2.500000*%
%ADD11R,1.150000X0.300000*%
%ADD12R,3.000000X3.000000*%
%ADD13R,0.900000X0.800000*%
%ADD14R,1.000000X3.150000*%
%ADD15R,2.200000X1.800000*%
%ADD16R,1.300000X0.300000*%
%ADD17R,2.000000X1.050000*%
%ADD18R,5.000000X5.000000*%
%ADD19R,0.900000X2.000000*%
%ADD20R,2.000000X0.900000*%
%ADD21R,2.500000X1.800000*%
%ADD22R,0.650000X1.060000*%
%ADD23R,0.700000X1.300000*%
%ADD24R,1.200000X1.400000*%
%ADD25R,1.200000X2.000000*%
G04 APERTURE END LIST*
D10*
X125830000Y-88830000D03*
X123330000Y-88830000D03*
X120830000Y-88830000D03*
D11*
X130930000Y-75150000D03*
X130930000Y-75950000D03*
X130930000Y-80750000D03*
X130930000Y-81550000D03*
X130930000Y-81850000D03*
X130930000Y-81050000D03*
X130930000Y-80250000D03*
X130930000Y-79750000D03*
X130930000Y-79250000D03*
X130930000Y-78750000D03*
X130930000Y-78250000D03*
X130930000Y-77750000D03*
X130930000Y-77250000D03*
X130930000Y-76750000D03*
X130930000Y-76250000D03*
X130930000Y-75450000D03*
G36*
G01*
X130343750Y-71050000D02*
X130856250Y-71050000D01*
G75*
G02*
X131075000Y-71268750I0J-218750D01*
G01*
X131075000Y-71706250D01*
G75*
G02*
X130856250Y-71925000I-218750J0D01*
G01*
X130343750Y-71925000D01*
G75*
G02*
X130125000Y-71706250I0J218750D01*
G01*
X130125000Y-71268750D01*
G75*
G02*
X130343750Y-71050000I218750J0D01*
G01*
G37*
G36*
G01*
X130343750Y-69475000D02*
X130856250Y-69475000D01*
G75*
G02*
X131075000Y-69693750I0J-218750D01*
G01*
X131075000Y-70131250D01*
G75*
G02*
X130856250Y-70350000I-218750J0D01*
G01*
X130343750Y-70350000D01*
G75*
G02*
X130125000Y-70131250I0J218750D01*
G01*
X130125000Y-69693750D01*
G75*
G02*
X130343750Y-69475000I218750J0D01*
G01*
G37*
G36*
G01*
X128643750Y-71050000D02*
X129156250Y-71050000D01*
G75*
G02*
X129375000Y-71268750I0J-218750D01*
G01*
X129375000Y-71706250D01*
G75*
G02*
X129156250Y-71925000I-218750J0D01*
G01*
X128643750Y-71925000D01*
G75*
G02*
X128425000Y-71706250I0J218750D01*
G01*
X128425000Y-71268750D01*
G75*
G02*
X128643750Y-71050000I218750J0D01*
G01*
G37*
G36*
G01*
X128643750Y-69475000D02*
X129156250Y-69475000D01*
G75*
G02*
X129375000Y-69693750I0J-218750D01*
G01*
X129375000Y-70131250D01*
G75*
G02*
X129156250Y-70350000I-218750J0D01*
G01*
X128643750Y-70350000D01*
G75*
G02*
X128425000Y-70131250I0J218750D01*
G01*
X128425000Y-69693750D01*
G75*
G02*
X128643750Y-69475000I218750J0D01*
G01*
G37*
G36*
G01*
X130030000Y-86446250D02*
X130030000Y-85533750D01*
G75*
G02*
X130273750Y-85290000I243750J0D01*
G01*
X130761250Y-85290000D01*
G75*
G02*
X131005000Y-85533750I0J-243750D01*
G01*
X131005000Y-86446250D01*
G75*
G02*
X130761250Y-86690000I-243750J0D01*
G01*
X130273750Y-86690000D01*
G75*
G02*
X130030000Y-86446250I0J243750D01*
G01*
G37*
G36*
G01*
X128155000Y-86446250D02*
X128155000Y-85533750D01*
G75*
G02*
X128398750Y-85290000I243750J0D01*
G01*
X128886250Y-85290000D01*
G75*
G02*
X129130000Y-85533750I0J-243750D01*
G01*
X129130000Y-86446250D01*
G75*
G02*
X128886250Y-86690000I-243750J0D01*
G01*
X128398750Y-86690000D01*
G75*
G02*
X128155000Y-86446250I0J243750D01*
G01*
G37*
G36*
G01*
X129940000Y-88176250D02*
X129940000Y-87663750D01*
G75*
G02*
X130158750Y-87445000I218750J0D01*
G01*
X130596250Y-87445000D01*
G75*
G02*
X130815000Y-87663750I0J-218750D01*
G01*
X130815000Y-88176250D01*
G75*
G02*
X130596250Y-88395000I-218750J0D01*
G01*
X130158750Y-88395000D01*
G75*
G02*
X129940000Y-88176250I0J218750D01*
G01*
G37*
G36*
G01*
X128365000Y-88176250D02*
X128365000Y-87663750D01*
G75*
G02*
X128583750Y-87445000I218750J0D01*
G01*
X129021250Y-87445000D01*
G75*
G02*
X129240000Y-87663750I0J-218750D01*
G01*
X129240000Y-88176250D01*
G75*
G02*
X129021250Y-88395000I-218750J0D01*
G01*
X128583750Y-88395000D01*
G75*
G02*
X128365000Y-88176250I0J218750D01*
G01*
G37*
D12*
X84550000Y-45650000D03*
X67550000Y-45650000D03*
G36*
G01*
X58850000Y-61743750D02*
X58850000Y-62256250D01*
G75*
G02*
X58631250Y-62475000I-218750J0D01*
G01*
X58193750Y-62475000D01*
G75*
G02*
X57975000Y-62256250I0J218750D01*
G01*
X57975000Y-61743750D01*
G75*
G02*
X58193750Y-61525000I218750J0D01*
G01*
X58631250Y-61525000D01*
G75*
G02*
X58850000Y-61743750I0J-218750D01*
G01*
G37*
G36*
G01*
X60425000Y-61743750D02*
X60425000Y-62256250D01*
G75*
G02*
X60206250Y-62475000I-218750J0D01*
G01*
X59768750Y-62475000D01*
G75*
G02*
X59550000Y-62256250I0J218750D01*
G01*
X59550000Y-61743750D01*
G75*
G02*
X59768750Y-61525000I218750J0D01*
G01*
X60206250Y-61525000D01*
G75*
G02*
X60425000Y-61743750I0J-218750D01*
G01*
G37*
G36*
G01*
X131000000Y-91556250D02*
X131000000Y-91043750D01*
G75*
G02*
X131218750Y-90825000I218750J0D01*
G01*
X131656250Y-90825000D01*
G75*
G02*
X131875000Y-91043750I0J-218750D01*
G01*
X131875000Y-91556250D01*
G75*
G02*
X131656250Y-91775000I-218750J0D01*
G01*
X131218750Y-91775000D01*
G75*
G02*
X131000000Y-91556250I0J218750D01*
G01*
G37*
G36*
G01*
X129425000Y-91556250D02*
X129425000Y-91043750D01*
G75*
G02*
X129643750Y-90825000I218750J0D01*
G01*
X130081250Y-90825000D01*
G75*
G02*
X130300000Y-91043750I0J-218750D01*
G01*
X130300000Y-91556250D01*
G75*
G02*
X130081250Y-91775000I-218750J0D01*
G01*
X129643750Y-91775000D01*
G75*
G02*
X129425000Y-91556250I0J218750D01*
G01*
G37*
G36*
G01*
X83700000Y-75706250D02*
X83700000Y-75193750D01*
G75*
G02*
X83918750Y-74975000I218750J0D01*
G01*
X84356250Y-74975000D01*
G75*
G02*
X84575000Y-75193750I0J-218750D01*
G01*
X84575000Y-75706250D01*
G75*
G02*
X84356250Y-75925000I-218750J0D01*
G01*
X83918750Y-75925000D01*
G75*
G02*
X83700000Y-75706250I0J218750D01*
G01*
G37*
G36*
G01*
X82125000Y-75706250D02*
X82125000Y-75193750D01*
G75*
G02*
X82343750Y-74975000I218750J0D01*
G01*
X82781250Y-74975000D01*
G75*
G02*
X83000000Y-75193750I0J-218750D01*
G01*
X83000000Y-75706250D01*
G75*
G02*
X82781250Y-75925000I-218750J0D01*
G01*
X82343750Y-75925000D01*
G75*
G02*
X82125000Y-75706250I0J218750D01*
G01*
G37*
G36*
G01*
X83700000Y-74206250D02*
X83700000Y-73693750D01*
G75*
G02*
X83918750Y-73475000I218750J0D01*
G01*
X84356250Y-73475000D01*
G75*
G02*
X84575000Y-73693750I0J-218750D01*
G01*
X84575000Y-74206250D01*
G75*
G02*
X84356250Y-74425000I-218750J0D01*
G01*
X83918750Y-74425000D01*
G75*
G02*
X83700000Y-74206250I0J218750D01*
G01*
G37*
G36*
G01*
X82125000Y-74206250D02*
X82125000Y-73693750D01*
G75*
G02*
X82343750Y-73475000I218750J0D01*
G01*
X82781250Y-73475000D01*
G75*
G02*
X83000000Y-73693750I0J-218750D01*
G01*
X83000000Y-74206250D01*
G75*
G02*
X82781250Y-74425000I-218750J0D01*
G01*
X82343750Y-74425000D01*
G75*
G02*
X82125000Y-74206250I0J218750D01*
G01*
G37*
G36*
G01*
X83700000Y-72706250D02*
X83700000Y-72193750D01*
G75*
G02*
X83918750Y-71975000I218750J0D01*
G01*
X84356250Y-71975000D01*
G75*
G02*
X84575000Y-72193750I0J-218750D01*
G01*
X84575000Y-72706250D01*
G75*
G02*
X84356250Y-72925000I-218750J0D01*
G01*
X83918750Y-72925000D01*
G75*
G02*
X83700000Y-72706250I0J218750D01*
G01*
G37*
G36*
G01*
X82125000Y-72706250D02*
X82125000Y-72193750D01*
G75*
G02*
X82343750Y-71975000I218750J0D01*
G01*
X82781250Y-71975000D01*
G75*
G02*
X83000000Y-72193750I0J-218750D01*
G01*
X83000000Y-72706250D01*
G75*
G02*
X82781250Y-72925000I-218750J0D01*
G01*
X82343750Y-72925000D01*
G75*
G02*
X82125000Y-72706250I0J218750D01*
G01*
G37*
G36*
G01*
X79400000Y-70843750D02*
X79400000Y-71356250D01*
G75*
G02*
X79181250Y-71575000I-218750J0D01*
G01*
X78743750Y-71575000D01*
G75*
G02*
X78525000Y-71356250I0J218750D01*
G01*
X78525000Y-70843750D01*
G75*
G02*
X78743750Y-70625000I218750J0D01*
G01*
X79181250Y-70625000D01*
G75*
G02*
X79400000Y-70843750I0J-218750D01*
G01*
G37*
G36*
G01*
X80975000Y-70843750D02*
X80975000Y-71356250D01*
G75*
G02*
X80756250Y-71575000I-218750J0D01*
G01*
X80318750Y-71575000D01*
G75*
G02*
X80100000Y-71356250I0J218750D01*
G01*
X80100000Y-70843750D01*
G75*
G02*
X80318750Y-70625000I218750J0D01*
G01*
X80756250Y-70625000D01*
G75*
G02*
X80975000Y-70843750I0J-218750D01*
G01*
G37*
G36*
G01*
X48150000Y-62306250D02*
X48150000Y-61793750D01*
G75*
G02*
X48368750Y-61575000I218750J0D01*
G01*
X48806250Y-61575000D01*
G75*
G02*
X49025000Y-61793750I0J-218750D01*
G01*
X49025000Y-62306250D01*
G75*
G02*
X48806250Y-62525000I-218750J0D01*
G01*
X48368750Y-62525000D01*
G75*
G02*
X48150000Y-62306250I0J218750D01*
G01*
G37*
G36*
G01*
X46575000Y-62306250D02*
X46575000Y-61793750D01*
G75*
G02*
X46793750Y-61575000I218750J0D01*
G01*
X47231250Y-61575000D01*
G75*
G02*
X47450000Y-61793750I0J-218750D01*
G01*
X47450000Y-62306250D01*
G75*
G02*
X47231250Y-62525000I-218750J0D01*
G01*
X46793750Y-62525000D01*
G75*
G02*
X46575000Y-62306250I0J218750D01*
G01*
G37*
G36*
G01*
X53850000Y-61743750D02*
X53850000Y-62256250D01*
G75*
G02*
X53631250Y-62475000I-218750J0D01*
G01*
X53193750Y-62475000D01*
G75*
G02*
X52975000Y-62256250I0J218750D01*
G01*
X52975000Y-61743750D01*
G75*
G02*
X53193750Y-61525000I218750J0D01*
G01*
X53631250Y-61525000D01*
G75*
G02*
X53850000Y-61743750I0J-218750D01*
G01*
G37*
G36*
G01*
X55425000Y-61743750D02*
X55425000Y-62256250D01*
G75*
G02*
X55206250Y-62475000I-218750J0D01*
G01*
X54768750Y-62475000D01*
G75*
G02*
X54550000Y-62256250I0J218750D01*
G01*
X54550000Y-61743750D01*
G75*
G02*
X54768750Y-61525000I218750J0D01*
G01*
X55206250Y-61525000D01*
G75*
G02*
X55425000Y-61743750I0J-218750D01*
G01*
G37*
D13*
X80800000Y-73950000D03*
X78800000Y-74900000D03*
X78800000Y-73000000D03*
D14*
X62620000Y-40475000D03*
X62620000Y-45525000D03*
X60080000Y-40475000D03*
X60080000Y-45525000D03*
X57540000Y-40475000D03*
X57540000Y-45525000D03*
X55000000Y-40475000D03*
X55000000Y-45525000D03*
X52460000Y-40475000D03*
X52460000Y-45525000D03*
X49920000Y-40475000D03*
X49920000Y-45525000D03*
X47380000Y-40475000D03*
X47380000Y-45525000D03*
G36*
G01*
X131050000Y-93256250D02*
X131050000Y-92743750D01*
G75*
G02*
X131268750Y-92525000I218750J0D01*
G01*
X131706250Y-92525000D01*
G75*
G02*
X131925000Y-92743750I0J-218750D01*
G01*
X131925000Y-93256250D01*
G75*
G02*
X131706250Y-93475000I-218750J0D01*
G01*
X131268750Y-93475000D01*
G75*
G02*
X131050000Y-93256250I0J218750D01*
G01*
G37*
G36*
G01*
X129475000Y-93256250D02*
X129475000Y-92743750D01*
G75*
G02*
X129693750Y-92525000I218750J0D01*
G01*
X130131250Y-92525000D01*
G75*
G02*
X130350000Y-92743750I0J-218750D01*
G01*
X130350000Y-93256250D01*
G75*
G02*
X130131250Y-93475000I-218750J0D01*
G01*
X129693750Y-93475000D01*
G75*
G02*
X129475000Y-93256250I0J218750D01*
G01*
G37*
G36*
G01*
X111980000Y-84170000D02*
X111980000Y-89170000D01*
G75*
G02*
X111730000Y-89420000I-250000J0D01*
G01*
X111230000Y-89420000D01*
G75*
G02*
X110980000Y-89170000I0J250000D01*
G01*
X110980000Y-84170000D01*
G75*
G02*
X111230000Y-83920000I250000J0D01*
G01*
X111730000Y-83920000D01*
G75*
G02*
X111980000Y-84170000I0J-250000D01*
G01*
G37*
G36*
G01*
X109980000Y-84170001D02*
X109980000Y-89169999D01*
G75*
G02*
X109730000Y-89419999I-250000J0D01*
G01*
X109230000Y-89419999D01*
G75*
G02*
X108980000Y-89169999I0J250000D01*
G01*
X108980000Y-84170001D01*
G75*
G02*
X109230000Y-83920001I250000J0D01*
G01*
X109730000Y-83920001D01*
G75*
G02*
X109980000Y-84170001I0J-250000D01*
G01*
G37*
G36*
G01*
X114680000Y-87670000D02*
X114680000Y-90170000D01*
G75*
G02*
X114430000Y-90420000I-250000J0D01*
G01*
X113330000Y-90420000D01*
G75*
G02*
X113080000Y-90170000I0J250000D01*
G01*
X113080000Y-87670000D01*
G75*
G02*
X113330000Y-87420000I250000J0D01*
G01*
X114430000Y-87420000D01*
G75*
G02*
X114680000Y-87670000I0J-250000D01*
G01*
G37*
G36*
G01*
X107880000Y-87670000D02*
X107880000Y-90170000D01*
G75*
G02*
X107630000Y-90420000I-250000J0D01*
G01*
X106530000Y-90420000D01*
G75*
G02*
X106280000Y-90170000I0J250000D01*
G01*
X106280000Y-87670000D01*
G75*
G02*
X106530000Y-87420000I250000J0D01*
G01*
X107630000Y-87420000D01*
G75*
G02*
X107880000Y-87670000I0J-250000D01*
G01*
G37*
G36*
G01*
X119080000Y-78653750D02*
X119080000Y-79166250D01*
G75*
G02*
X118861250Y-79385000I-218750J0D01*
G01*
X118423750Y-79385000D01*
G75*
G02*
X118205000Y-79166250I0J218750D01*
G01*
X118205000Y-78653750D01*
G75*
G02*
X118423750Y-78435000I218750J0D01*
G01*
X118861250Y-78435000D01*
G75*
G02*
X119080000Y-78653750I0J-218750D01*
G01*
G37*
G36*
G01*
X120655000Y-78653750D02*
X120655000Y-79166250D01*
G75*
G02*
X120436250Y-79385000I-218750J0D01*
G01*
X119998750Y-79385000D01*
G75*
G02*
X119780000Y-79166250I0J218750D01*
G01*
X119780000Y-78653750D01*
G75*
G02*
X119998750Y-78435000I218750J0D01*
G01*
X120436250Y-78435000D01*
G75*
G02*
X120655000Y-78653750I0J-218750D01*
G01*
G37*
D15*
X90200000Y-53860000D03*
X90200000Y-77160000D03*
D16*
X86950000Y-75260000D03*
X86950000Y-74760000D03*
X86950000Y-74260000D03*
X86950000Y-73760000D03*
X86950000Y-73260000D03*
X86950000Y-72760000D03*
X86950000Y-72260000D03*
X86950000Y-71760000D03*
X86950000Y-71260000D03*
X86950000Y-70760000D03*
X86950000Y-70260000D03*
X86950000Y-69760000D03*
X86950000Y-69260000D03*
X86950000Y-68760000D03*
X86950000Y-68260000D03*
X86950000Y-67760000D03*
X86950000Y-67260000D03*
X86950000Y-66760000D03*
X86950000Y-66260000D03*
X86950000Y-65760000D03*
X86950000Y-65260000D03*
X86950000Y-64760000D03*
X86950000Y-64260000D03*
X86950000Y-63760000D03*
X86950000Y-63260000D03*
X86950000Y-62760000D03*
X86950000Y-62260000D03*
X86950000Y-61760000D03*
X86950000Y-61260000D03*
X86950000Y-60760000D03*
X86950000Y-60260000D03*
X86950000Y-59760000D03*
X86950000Y-59260000D03*
X86950000Y-58760000D03*
X86950000Y-58260000D03*
X86950000Y-57760000D03*
X86950000Y-57260000D03*
X86950000Y-56760000D03*
X86950000Y-56260000D03*
X86950000Y-55760000D03*
D17*
X41900000Y-53275000D03*
X41900000Y-57725000D03*
X41930000Y-49000000D03*
X41930000Y-44550000D03*
D18*
X53675000Y-74930000D03*
D19*
X46175000Y-82430000D03*
X47445000Y-82430000D03*
X48715000Y-82430000D03*
X49985000Y-82430000D03*
X51255000Y-82430000D03*
X52525000Y-82430000D03*
X53795000Y-82430000D03*
X55065000Y-82430000D03*
X56335000Y-82430000D03*
X57605000Y-82430000D03*
X58875000Y-82430000D03*
X60145000Y-82430000D03*
X61415000Y-82430000D03*
X62685000Y-82430000D03*
D20*
X63685000Y-79645000D03*
X63685000Y-78375000D03*
X63685000Y-77105000D03*
X63685000Y-75835000D03*
X63685000Y-74565000D03*
X63685000Y-73295000D03*
X63685000Y-72025000D03*
X63685000Y-70755000D03*
X63685000Y-69485000D03*
X63685000Y-68215000D03*
D19*
X62685000Y-65430000D03*
X61415000Y-65430000D03*
X60145000Y-65430000D03*
X58875000Y-65430000D03*
X57605000Y-65430000D03*
X56335000Y-65430000D03*
X55065000Y-65430000D03*
X53795000Y-65430000D03*
X52525000Y-65430000D03*
X51255000Y-65430000D03*
X49985000Y-65430000D03*
X48715000Y-65430000D03*
X47445000Y-65430000D03*
X46175000Y-65430000D03*
G36*
G01*
X125243750Y-74975000D02*
X125756250Y-74975000D01*
G75*
G02*
X125975000Y-75193750I0J-218750D01*
G01*
X125975000Y-75631250D01*
G75*
G02*
X125756250Y-75850000I-218750J0D01*
G01*
X125243750Y-75850000D01*
G75*
G02*
X125025000Y-75631250I0J218750D01*
G01*
X125025000Y-75193750D01*
G75*
G02*
X125243750Y-74975000I218750J0D01*
G01*
G37*
G36*
G01*
X125243750Y-76550000D02*
X125756250Y-76550000D01*
G75*
G02*
X125975000Y-76768750I0J-218750D01*
G01*
X125975000Y-77206250D01*
G75*
G02*
X125756250Y-77425000I-218750J0D01*
G01*
X125243750Y-77425000D01*
G75*
G02*
X125025000Y-77206250I0J218750D01*
G01*
X125025000Y-76768750D01*
G75*
G02*
X125243750Y-76550000I218750J0D01*
G01*
G37*
G36*
G01*
X118380000Y-84105001D02*
X118380000Y-83254999D01*
G75*
G02*
X118629999Y-83005000I249999J0D01*
G01*
X119530001Y-83005000D01*
G75*
G02*
X119780000Y-83254999I0J-249999D01*
G01*
X119780000Y-84105001D01*
G75*
G02*
X119530001Y-84355000I-249999J0D01*
G01*
X118629999Y-84355000D01*
G75*
G02*
X118380000Y-84105001I0J249999D01*
G01*
G37*
G36*
G01*
X115680000Y-84105001D02*
X115680000Y-83254999D01*
G75*
G02*
X115929999Y-83005000I249999J0D01*
G01*
X116830001Y-83005000D01*
G75*
G02*
X117080000Y-83254999I0J-249999D01*
G01*
X117080000Y-84105001D01*
G75*
G02*
X116830001Y-84355000I-249999J0D01*
G01*
X115929999Y-84355000D01*
G75*
G02*
X115680000Y-84105001I0J249999D01*
G01*
G37*
G36*
G01*
X111940000Y-75144999D02*
X111940000Y-75995001D01*
G75*
G02*
X111690001Y-76245000I-249999J0D01*
G01*
X110789999Y-76245000D01*
G75*
G02*
X110540000Y-75995001I0J249999D01*
G01*
X110540000Y-75144999D01*
G75*
G02*
X110789999Y-74895000I249999J0D01*
G01*
X111690001Y-74895000D01*
G75*
G02*
X111940000Y-75144999I0J-249999D01*
G01*
G37*
G36*
G01*
X109240000Y-75144999D02*
X109240000Y-75995001D01*
G75*
G02*
X108990001Y-76245000I-249999J0D01*
G01*
X108089999Y-76245000D01*
G75*
G02*
X107840000Y-75995001I0J249999D01*
G01*
X107840000Y-75144999D01*
G75*
G02*
X108089999Y-74895000I249999J0D01*
G01*
X108990001Y-74895000D01*
G75*
G02*
X109240000Y-75144999I0J-249999D01*
G01*
G37*
G36*
G01*
X47043750Y-85175000D02*
X47556250Y-85175000D01*
G75*
G02*
X47775000Y-85393750I0J-218750D01*
G01*
X47775000Y-85831250D01*
G75*
G02*
X47556250Y-86050000I-218750J0D01*
G01*
X47043750Y-86050000D01*
G75*
G02*
X46825000Y-85831250I0J218750D01*
G01*
X46825000Y-85393750D01*
G75*
G02*
X47043750Y-85175000I218750J0D01*
G01*
G37*
G36*
G01*
X47043750Y-86750000D02*
X47556250Y-86750000D01*
G75*
G02*
X47775000Y-86968750I0J-218750D01*
G01*
X47775000Y-87406250D01*
G75*
G02*
X47556250Y-87625000I-218750J0D01*
G01*
X47043750Y-87625000D01*
G75*
G02*
X46825000Y-87406250I0J218750D01*
G01*
X46825000Y-86968750D01*
G75*
G02*
X47043750Y-86750000I218750J0D01*
G01*
G37*
G36*
G01*
X111185000Y-73253750D02*
X111185000Y-73766250D01*
G75*
G02*
X110966250Y-73985000I-218750J0D01*
G01*
X110528750Y-73985000D01*
G75*
G02*
X110310000Y-73766250I0J218750D01*
G01*
X110310000Y-73253750D01*
G75*
G02*
X110528750Y-73035000I218750J0D01*
G01*
X110966250Y-73035000D01*
G75*
G02*
X111185000Y-73253750I0J-218750D01*
G01*
G37*
G36*
G01*
X109610000Y-73253750D02*
X109610000Y-73766250D01*
G75*
G02*
X109391250Y-73985000I-218750J0D01*
G01*
X108953750Y-73985000D01*
G75*
G02*
X108735000Y-73766250I0J218750D01*
G01*
X108735000Y-73253750D01*
G75*
G02*
X108953750Y-73035000I218750J0D01*
G01*
X109391250Y-73035000D01*
G75*
G02*
X109610000Y-73253750I0J-218750D01*
G01*
G37*
G36*
G01*
X50543750Y-85175000D02*
X51056250Y-85175000D01*
G75*
G02*
X51275000Y-85393750I0J-218750D01*
G01*
X51275000Y-85831250D01*
G75*
G02*
X51056250Y-86050000I-218750J0D01*
G01*
X50543750Y-86050000D01*
G75*
G02*
X50325000Y-85831250I0J218750D01*
G01*
X50325000Y-85393750D01*
G75*
G02*
X50543750Y-85175000I218750J0D01*
G01*
G37*
G36*
G01*
X50543750Y-86750000D02*
X51056250Y-86750000D01*
G75*
G02*
X51275000Y-86968750I0J-218750D01*
G01*
X51275000Y-87406250D01*
G75*
G02*
X51056250Y-87625000I-218750J0D01*
G01*
X50543750Y-87625000D01*
G75*
G02*
X50325000Y-87406250I0J218750D01*
G01*
X50325000Y-86968750D01*
G75*
G02*
X50543750Y-86750000I218750J0D01*
G01*
G37*
G36*
G01*
X109450000Y-81663750D02*
X109450000Y-82176250D01*
G75*
G02*
X109231250Y-82395000I-218750J0D01*
G01*
X108793750Y-82395000D01*
G75*
G02*
X108575000Y-82176250I0J218750D01*
G01*
X108575000Y-81663750D01*
G75*
G02*
X108793750Y-81445000I218750J0D01*
G01*
X109231250Y-81445000D01*
G75*
G02*
X109450000Y-81663750I0J-218750D01*
G01*
G37*
G36*
G01*
X111025000Y-81663750D02*
X111025000Y-82176250D01*
G75*
G02*
X110806250Y-82395000I-218750J0D01*
G01*
X110368750Y-82395000D01*
G75*
G02*
X110150000Y-82176250I0J218750D01*
G01*
X110150000Y-81663750D01*
G75*
G02*
X110368750Y-81445000I218750J0D01*
G01*
X110806250Y-81445000D01*
G75*
G02*
X111025000Y-81663750I0J-218750D01*
G01*
G37*
D21*
X121850000Y-81630000D03*
X125850000Y-81630000D03*
G36*
G01*
X109445000Y-93216250D02*
X109445000Y-92703750D01*
G75*
G02*
X109663750Y-92485000I218750J0D01*
G01*
X110101250Y-92485000D01*
G75*
G02*
X110320000Y-92703750I0J-218750D01*
G01*
X110320000Y-93216250D01*
G75*
G02*
X110101250Y-93435000I-218750J0D01*
G01*
X109663750Y-93435000D01*
G75*
G02*
X109445000Y-93216250I0J218750D01*
G01*
G37*
G36*
G01*
X111020000Y-93216250D02*
X111020000Y-92703750D01*
G75*
G02*
X111238750Y-92485000I218750J0D01*
G01*
X111676250Y-92485000D01*
G75*
G02*
X111895000Y-92703750I0J-218750D01*
G01*
X111895000Y-93216250D01*
G75*
G02*
X111676250Y-93435000I-218750J0D01*
G01*
X111238750Y-93435000D01*
G75*
G02*
X111020000Y-93216250I0J218750D01*
G01*
G37*
D15*
X112580000Y-54920000D03*
X112580000Y-61220000D03*
D16*
X109330000Y-59320000D03*
X109330000Y-58820000D03*
X109330000Y-58320000D03*
X109330000Y-57820000D03*
X109330000Y-57320000D03*
X109330000Y-56820000D03*
D13*
X99600000Y-81400000D03*
X101600000Y-80450000D03*
X101600000Y-82350000D03*
X97800000Y-82350000D03*
X97800000Y-80450000D03*
X95800000Y-81400000D03*
X118530000Y-87770000D03*
X118530000Y-85870000D03*
X116530000Y-86820000D03*
G36*
G01*
X125243750Y-71575000D02*
X125756250Y-71575000D01*
G75*
G02*
X125975000Y-71793750I0J-218750D01*
G01*
X125975000Y-72231250D01*
G75*
G02*
X125756250Y-72450000I-218750J0D01*
G01*
X125243750Y-72450000D01*
G75*
G02*
X125025000Y-72231250I0J218750D01*
G01*
X125025000Y-71793750D01*
G75*
G02*
X125243750Y-71575000I218750J0D01*
G01*
G37*
G36*
G01*
X125243750Y-73150000D02*
X125756250Y-73150000D01*
G75*
G02*
X125975000Y-73368750I0J-218750D01*
G01*
X125975000Y-73806250D01*
G75*
G02*
X125756250Y-74025000I-218750J0D01*
G01*
X125243750Y-74025000D01*
G75*
G02*
X125025000Y-73806250I0J218750D01*
G01*
X125025000Y-73368750D01*
G75*
G02*
X125243750Y-73150000I218750J0D01*
G01*
G37*
G36*
G01*
X127456250Y-72450000D02*
X126943750Y-72450000D01*
G75*
G02*
X126725000Y-72231250I0J218750D01*
G01*
X126725000Y-71793750D01*
G75*
G02*
X126943750Y-71575000I218750J0D01*
G01*
X127456250Y-71575000D01*
G75*
G02*
X127675000Y-71793750I0J-218750D01*
G01*
X127675000Y-72231250D01*
G75*
G02*
X127456250Y-72450000I-218750J0D01*
G01*
G37*
G36*
G01*
X127456250Y-74025000D02*
X126943750Y-74025000D01*
G75*
G02*
X126725000Y-73806250I0J218750D01*
G01*
X126725000Y-73368750D01*
G75*
G02*
X126943750Y-73150000I218750J0D01*
G01*
X127456250Y-73150000D01*
G75*
G02*
X127675000Y-73368750I0J-218750D01*
G01*
X127675000Y-73806250D01*
G75*
G02*
X127456250Y-74025000I-218750J0D01*
G01*
G37*
G36*
G01*
X115520000Y-72866250D02*
X115520000Y-72353750D01*
G75*
G02*
X115738750Y-72135000I218750J0D01*
G01*
X116176250Y-72135000D01*
G75*
G02*
X116395000Y-72353750I0J-218750D01*
G01*
X116395000Y-72866250D01*
G75*
G02*
X116176250Y-73085000I-218750J0D01*
G01*
X115738750Y-73085000D01*
G75*
G02*
X115520000Y-72866250I0J218750D01*
G01*
G37*
G36*
G01*
X113945000Y-72866250D02*
X113945000Y-72353750D01*
G75*
G02*
X114163750Y-72135000I218750J0D01*
G01*
X114601250Y-72135000D01*
G75*
G02*
X114820000Y-72353750I0J-218750D01*
G01*
X114820000Y-72866250D01*
G75*
G02*
X114601250Y-73085000I-218750J0D01*
G01*
X114163750Y-73085000D01*
G75*
G02*
X113945000Y-72866250I0J218750D01*
G01*
G37*
G36*
G01*
X113945000Y-74566250D02*
X113945000Y-74053750D01*
G75*
G02*
X114163750Y-73835000I218750J0D01*
G01*
X114601250Y-73835000D01*
G75*
G02*
X114820000Y-74053750I0J-218750D01*
G01*
X114820000Y-74566250D01*
G75*
G02*
X114601250Y-74785000I-218750J0D01*
G01*
X114163750Y-74785000D01*
G75*
G02*
X113945000Y-74566250I0J218750D01*
G01*
G37*
G36*
G01*
X115520000Y-74566250D02*
X115520000Y-74053750D01*
G75*
G02*
X115738750Y-73835000I218750J0D01*
G01*
X116176250Y-73835000D01*
G75*
G02*
X116395000Y-74053750I0J-218750D01*
G01*
X116395000Y-74566250D01*
G75*
G02*
X116176250Y-74785000I-218750J0D01*
G01*
X115738750Y-74785000D01*
G75*
G02*
X115520000Y-74566250I0J218750D01*
G01*
G37*
G36*
G01*
X95762500Y-78856250D02*
X95762500Y-78343750D01*
G75*
G02*
X95981250Y-78125000I218750J0D01*
G01*
X96418750Y-78125000D01*
G75*
G02*
X96637500Y-78343750I0J-218750D01*
G01*
X96637500Y-78856250D01*
G75*
G02*
X96418750Y-79075000I-218750J0D01*
G01*
X95981250Y-79075000D01*
G75*
G02*
X95762500Y-78856250I0J218750D01*
G01*
G37*
G36*
G01*
X97337500Y-78856250D02*
X97337500Y-78343750D01*
G75*
G02*
X97556250Y-78125000I218750J0D01*
G01*
X97993750Y-78125000D01*
G75*
G02*
X98212500Y-78343750I0J-218750D01*
G01*
X98212500Y-78856250D01*
G75*
G02*
X97993750Y-79075000I-218750J0D01*
G01*
X97556250Y-79075000D01*
G75*
G02*
X97337500Y-78856250I0J218750D01*
G01*
G37*
G36*
G01*
X101150000Y-78856250D02*
X101150000Y-78343750D01*
G75*
G02*
X101368750Y-78125000I218750J0D01*
G01*
X101806250Y-78125000D01*
G75*
G02*
X102025000Y-78343750I0J-218750D01*
G01*
X102025000Y-78856250D01*
G75*
G02*
X101806250Y-79075000I-218750J0D01*
G01*
X101368750Y-79075000D01*
G75*
G02*
X101150000Y-78856250I0J218750D01*
G01*
G37*
G36*
G01*
X99575000Y-78856250D02*
X99575000Y-78343750D01*
G75*
G02*
X99793750Y-78125000I218750J0D01*
G01*
X100231250Y-78125000D01*
G75*
G02*
X100450000Y-78343750I0J-218750D01*
G01*
X100450000Y-78856250D01*
G75*
G02*
X100231250Y-79075000I-218750J0D01*
G01*
X99793750Y-79075000D01*
G75*
G02*
X99575000Y-78856250I0J218750D01*
G01*
G37*
G36*
G01*
X49306250Y-87625000D02*
X48793750Y-87625000D01*
G75*
G02*
X48575000Y-87406250I0J218750D01*
G01*
X48575000Y-86968750D01*
G75*
G02*
X48793750Y-86750000I218750J0D01*
G01*
X49306250Y-86750000D01*
G75*
G02*
X49525000Y-86968750I0J-218750D01*
G01*
X49525000Y-87406250D01*
G75*
G02*
X49306250Y-87625000I-218750J0D01*
G01*
G37*
G36*
G01*
X49306250Y-86050000D02*
X48793750Y-86050000D01*
G75*
G02*
X48575000Y-85831250I0J218750D01*
G01*
X48575000Y-85393750D01*
G75*
G02*
X48793750Y-85175000I218750J0D01*
G01*
X49306250Y-85175000D01*
G75*
G02*
X49525000Y-85393750I0J-218750D01*
G01*
X49525000Y-85831250D01*
G75*
G02*
X49306250Y-86050000I-218750J0D01*
G01*
G37*
G36*
G01*
X125223750Y-84115000D02*
X125736250Y-84115000D01*
G75*
G02*
X125955000Y-84333750I0J-218750D01*
G01*
X125955000Y-84771250D01*
G75*
G02*
X125736250Y-84990000I-218750J0D01*
G01*
X125223750Y-84990000D01*
G75*
G02*
X125005000Y-84771250I0J218750D01*
G01*
X125005000Y-84333750D01*
G75*
G02*
X125223750Y-84115000I218750J0D01*
G01*
G37*
G36*
G01*
X125223750Y-85690000D02*
X125736250Y-85690000D01*
G75*
G02*
X125955000Y-85908750I0J-218750D01*
G01*
X125955000Y-86346250D01*
G75*
G02*
X125736250Y-86565000I-218750J0D01*
G01*
X125223750Y-86565000D01*
G75*
G02*
X125005000Y-86346250I0J218750D01*
G01*
X125005000Y-85908750D01*
G75*
G02*
X125223750Y-85690000I218750J0D01*
G01*
G37*
G36*
G01*
X63100000Y-61743750D02*
X63100000Y-62256250D01*
G75*
G02*
X62881250Y-62475000I-218750J0D01*
G01*
X62443750Y-62475000D01*
G75*
G02*
X62225000Y-62256250I0J218750D01*
G01*
X62225000Y-61743750D01*
G75*
G02*
X62443750Y-61525000I218750J0D01*
G01*
X62881250Y-61525000D01*
G75*
G02*
X63100000Y-61743750I0J-218750D01*
G01*
G37*
G36*
G01*
X64675000Y-61743750D02*
X64675000Y-62256250D01*
G75*
G02*
X64456250Y-62475000I-218750J0D01*
G01*
X64018750Y-62475000D01*
G75*
G02*
X63800000Y-62256250I0J218750D01*
G01*
X63800000Y-61743750D01*
G75*
G02*
X64018750Y-61525000I218750J0D01*
G01*
X64456250Y-61525000D01*
G75*
G02*
X64675000Y-61743750I0J-218750D01*
G01*
G37*
G36*
G01*
X66543750Y-67837500D02*
X67056250Y-67837500D01*
G75*
G02*
X67275000Y-68056250I0J-218750D01*
G01*
X67275000Y-68493750D01*
G75*
G02*
X67056250Y-68712500I-218750J0D01*
G01*
X66543750Y-68712500D01*
G75*
G02*
X66325000Y-68493750I0J218750D01*
G01*
X66325000Y-68056250D01*
G75*
G02*
X66543750Y-67837500I218750J0D01*
G01*
G37*
G36*
G01*
X66543750Y-66262500D02*
X67056250Y-66262500D01*
G75*
G02*
X67275000Y-66481250I0J-218750D01*
G01*
X67275000Y-66918750D01*
G75*
G02*
X67056250Y-67137500I-218750J0D01*
G01*
X66543750Y-67137500D01*
G75*
G02*
X66325000Y-66918750I0J218750D01*
G01*
X66325000Y-66481250D01*
G75*
G02*
X66543750Y-66262500I218750J0D01*
G01*
G37*
G36*
G01*
X102456250Y-88725000D02*
X101943750Y-88725000D01*
G75*
G02*
X101725000Y-88506250I0J218750D01*
G01*
X101725000Y-88068750D01*
G75*
G02*
X101943750Y-87850000I218750J0D01*
G01*
X102456250Y-87850000D01*
G75*
G02*
X102675000Y-88068750I0J-218750D01*
G01*
X102675000Y-88506250D01*
G75*
G02*
X102456250Y-88725000I-218750J0D01*
G01*
G37*
G36*
G01*
X102456250Y-87150000D02*
X101943750Y-87150000D01*
G75*
G02*
X101725000Y-86931250I0J218750D01*
G01*
X101725000Y-86493750D01*
G75*
G02*
X101943750Y-86275000I218750J0D01*
G01*
X102456250Y-86275000D01*
G75*
G02*
X102675000Y-86493750I0J-218750D01*
G01*
X102675000Y-86931250D01*
G75*
G02*
X102456250Y-87150000I-218750J0D01*
G01*
G37*
G36*
G01*
X54506250Y-87625000D02*
X53993750Y-87625000D01*
G75*
G02*
X53775000Y-87406250I0J218750D01*
G01*
X53775000Y-86968750D01*
G75*
G02*
X53993750Y-86750000I218750J0D01*
G01*
X54506250Y-86750000D01*
G75*
G02*
X54725000Y-86968750I0J-218750D01*
G01*
X54725000Y-87406250D01*
G75*
G02*
X54506250Y-87625000I-218750J0D01*
G01*
G37*
G36*
G01*
X54506250Y-86050000D02*
X53993750Y-86050000D01*
G75*
G02*
X53775000Y-85831250I0J218750D01*
G01*
X53775000Y-85393750D01*
G75*
G02*
X53993750Y-85175000I218750J0D01*
G01*
X54506250Y-85175000D01*
G75*
G02*
X54725000Y-85393750I0J-218750D01*
G01*
X54725000Y-85831250D01*
G75*
G02*
X54506250Y-86050000I-218750J0D01*
G01*
G37*
G36*
G01*
X52293750Y-86750000D02*
X52806250Y-86750000D01*
G75*
G02*
X53025000Y-86968750I0J-218750D01*
G01*
X53025000Y-87406250D01*
G75*
G02*
X52806250Y-87625000I-218750J0D01*
G01*
X52293750Y-87625000D01*
G75*
G02*
X52075000Y-87406250I0J218750D01*
G01*
X52075000Y-86968750D01*
G75*
G02*
X52293750Y-86750000I218750J0D01*
G01*
G37*
G36*
G01*
X52293750Y-85175000D02*
X52806250Y-85175000D01*
G75*
G02*
X53025000Y-85393750I0J-218750D01*
G01*
X53025000Y-85831250D01*
G75*
G02*
X52806250Y-86050000I-218750J0D01*
G01*
X52293750Y-86050000D01*
G75*
G02*
X52075000Y-85831250I0J218750D01*
G01*
X52075000Y-85393750D01*
G75*
G02*
X52293750Y-85175000I218750J0D01*
G01*
G37*
G36*
G01*
X106613750Y-79360000D02*
X107126250Y-79360000D01*
G75*
G02*
X107345000Y-79578750I0J-218750D01*
G01*
X107345000Y-80016250D01*
G75*
G02*
X107126250Y-80235000I-218750J0D01*
G01*
X106613750Y-80235000D01*
G75*
G02*
X106395000Y-80016250I0J218750D01*
G01*
X106395000Y-79578750D01*
G75*
G02*
X106613750Y-79360000I218750J0D01*
G01*
G37*
G36*
G01*
X106613750Y-77785000D02*
X107126250Y-77785000D01*
G75*
G02*
X107345000Y-78003750I0J-218750D01*
G01*
X107345000Y-78441250D01*
G75*
G02*
X107126250Y-78660000I-218750J0D01*
G01*
X106613750Y-78660000D01*
G75*
G02*
X106395000Y-78441250I0J218750D01*
G01*
X106395000Y-78003750D01*
G75*
G02*
X106613750Y-77785000I218750J0D01*
G01*
G37*
G36*
G01*
X119332500Y-76580000D02*
X119207500Y-76580000D01*
G75*
G02*
X119145000Y-76517500I0J62500D01*
G01*
X119145000Y-75842500D01*
G75*
G02*
X119207500Y-75780000I62500J0D01*
G01*
X119332500Y-75780000D01*
G75*
G02*
X119395000Y-75842500I0J-62500D01*
G01*
X119395000Y-76517500D01*
G75*
G02*
X119332500Y-76580000I-62500J0D01*
G01*
G37*
G36*
G01*
X119832500Y-76580000D02*
X119707500Y-76580000D01*
G75*
G02*
X119645000Y-76517500I0J62500D01*
G01*
X119645000Y-75842500D01*
G75*
G02*
X119707500Y-75780000I62500J0D01*
G01*
X119832500Y-75780000D01*
G75*
G02*
X119895000Y-75842500I0J-62500D01*
G01*
X119895000Y-76517500D01*
G75*
G02*
X119832500Y-76580000I-62500J0D01*
G01*
G37*
G36*
G01*
X120332500Y-76580000D02*
X120207500Y-76580000D01*
G75*
G02*
X120145000Y-76517500I0J62500D01*
G01*
X120145000Y-75842500D01*
G75*
G02*
X120207500Y-75780000I62500J0D01*
G01*
X120332500Y-75780000D01*
G75*
G02*
X120395000Y-75842500I0J-62500D01*
G01*
X120395000Y-76517500D01*
G75*
G02*
X120332500Y-76580000I-62500J0D01*
G01*
G37*
G36*
G01*
X120832500Y-76580000D02*
X120707500Y-76580000D01*
G75*
G02*
X120645000Y-76517500I0J62500D01*
G01*
X120645000Y-75842500D01*
G75*
G02*
X120707500Y-75780000I62500J0D01*
G01*
X120832500Y-75780000D01*
G75*
G02*
X120895000Y-75842500I0J-62500D01*
G01*
X120895000Y-76517500D01*
G75*
G02*
X120832500Y-76580000I-62500J0D01*
G01*
G37*
G36*
G01*
X121332500Y-76580000D02*
X121207500Y-76580000D01*
G75*
G02*
X121145000Y-76517500I0J62500D01*
G01*
X121145000Y-75842500D01*
G75*
G02*
X121207500Y-75780000I62500J0D01*
G01*
X121332500Y-75780000D01*
G75*
G02*
X121395000Y-75842500I0J-62500D01*
G01*
X121395000Y-76517500D01*
G75*
G02*
X121332500Y-76580000I-62500J0D01*
G01*
G37*
G36*
G01*
X121832500Y-76580000D02*
X121707500Y-76580000D01*
G75*
G02*
X121645000Y-76517500I0J62500D01*
G01*
X121645000Y-75842500D01*
G75*
G02*
X121707500Y-75780000I62500J0D01*
G01*
X121832500Y-75780000D01*
G75*
G02*
X121895000Y-75842500I0J-62500D01*
G01*
X121895000Y-76517500D01*
G75*
G02*
X121832500Y-76580000I-62500J0D01*
G01*
G37*
G36*
G01*
X122332500Y-76580000D02*
X122207500Y-76580000D01*
G75*
G02*
X122145000Y-76517500I0J62500D01*
G01*
X122145000Y-75842500D01*
G75*
G02*
X122207500Y-75780000I62500J0D01*
G01*
X122332500Y-75780000D01*
G75*
G02*
X122395000Y-75842500I0J-62500D01*
G01*
X122395000Y-76517500D01*
G75*
G02*
X122332500Y-76580000I-62500J0D01*
G01*
G37*
G36*
G01*
X123557500Y-75355000D02*
X122882500Y-75355000D01*
G75*
G02*
X122820000Y-75292500I0J62500D01*
G01*
X122820000Y-75167500D01*
G75*
G02*
X122882500Y-75105000I62500J0D01*
G01*
X123557500Y-75105000D01*
G75*
G02*
X123620000Y-75167500I0J-62500D01*
G01*
X123620000Y-75292500D01*
G75*
G02*
X123557500Y-75355000I-62500J0D01*
G01*
G37*
G36*
G01*
X123557500Y-74855000D02*
X122882500Y-74855000D01*
G75*
G02*
X122820000Y-74792500I0J62500D01*
G01*
X122820000Y-74667500D01*
G75*
G02*
X122882500Y-74605000I62500J0D01*
G01*
X123557500Y-74605000D01*
G75*
G02*
X123620000Y-74667500I0J-62500D01*
G01*
X123620000Y-74792500D01*
G75*
G02*
X123557500Y-74855000I-62500J0D01*
G01*
G37*
G36*
G01*
X123557500Y-74355000D02*
X122882500Y-74355000D01*
G75*
G02*
X122820000Y-74292500I0J62500D01*
G01*
X122820000Y-74167500D01*
G75*
G02*
X122882500Y-74105000I62500J0D01*
G01*
X123557500Y-74105000D01*
G75*
G02*
X123620000Y-74167500I0J-62500D01*
G01*
X123620000Y-74292500D01*
G75*
G02*
X123557500Y-74355000I-62500J0D01*
G01*
G37*
G36*
G01*
X123557500Y-73855000D02*
X122882500Y-73855000D01*
G75*
G02*
X122820000Y-73792500I0J62500D01*
G01*
X122820000Y-73667500D01*
G75*
G02*
X122882500Y-73605000I62500J0D01*
G01*
X123557500Y-73605000D01*
G75*
G02*
X123620000Y-73667500I0J-62500D01*
G01*
X123620000Y-73792500D01*
G75*
G02*
X123557500Y-73855000I-62500J0D01*
G01*
G37*
G36*
G01*
X123557500Y-73355000D02*
X122882500Y-73355000D01*
G75*
G02*
X122820000Y-73292500I0J62500D01*
G01*
X122820000Y-73167500D01*
G75*
G02*
X122882500Y-73105000I62500J0D01*
G01*
X123557500Y-73105000D01*
G75*
G02*
X123620000Y-73167500I0J-62500D01*
G01*
X123620000Y-73292500D01*
G75*
G02*
X123557500Y-73355000I-62500J0D01*
G01*
G37*
G36*
G01*
X123557500Y-72855000D02*
X122882500Y-72855000D01*
G75*
G02*
X122820000Y-72792500I0J62500D01*
G01*
X122820000Y-72667500D01*
G75*
G02*
X122882500Y-72605000I62500J0D01*
G01*
X123557500Y-72605000D01*
G75*
G02*
X123620000Y-72667500I0J-62500D01*
G01*
X123620000Y-72792500D01*
G75*
G02*
X123557500Y-72855000I-62500J0D01*
G01*
G37*
G36*
G01*
X123557500Y-72355000D02*
X122882500Y-72355000D01*
G75*
G02*
X122820000Y-72292500I0J62500D01*
G01*
X122820000Y-72167500D01*
G75*
G02*
X122882500Y-72105000I62500J0D01*
G01*
X123557500Y-72105000D01*
G75*
G02*
X123620000Y-72167500I0J-62500D01*
G01*
X123620000Y-72292500D01*
G75*
G02*
X123557500Y-72355000I-62500J0D01*
G01*
G37*
G36*
G01*
X122332500Y-71680000D02*
X122207500Y-71680000D01*
G75*
G02*
X122145000Y-71617500I0J62500D01*
G01*
X122145000Y-70942500D01*
G75*
G02*
X122207500Y-70880000I62500J0D01*
G01*
X122332500Y-70880000D01*
G75*
G02*
X122395000Y-70942500I0J-62500D01*
G01*
X122395000Y-71617500D01*
G75*
G02*
X122332500Y-71680000I-62500J0D01*
G01*
G37*
G36*
G01*
X121832500Y-71680000D02*
X121707500Y-71680000D01*
G75*
G02*
X121645000Y-71617500I0J62500D01*
G01*
X121645000Y-70942500D01*
G75*
G02*
X121707500Y-70880000I62500J0D01*
G01*
X121832500Y-70880000D01*
G75*
G02*
X121895000Y-70942500I0J-62500D01*
G01*
X121895000Y-71617500D01*
G75*
G02*
X121832500Y-71680000I-62500J0D01*
G01*
G37*
G36*
G01*
X121332500Y-71680000D02*
X121207500Y-71680000D01*
G75*
G02*
X121145000Y-71617500I0J62500D01*
G01*
X121145000Y-70942500D01*
G75*
G02*
X121207500Y-70880000I62500J0D01*
G01*
X121332500Y-70880000D01*
G75*
G02*
X121395000Y-70942500I0J-62500D01*
G01*
X121395000Y-71617500D01*
G75*
G02*
X121332500Y-71680000I-62500J0D01*
G01*
G37*
G36*
G01*
X120832500Y-71680000D02*
X120707500Y-71680000D01*
G75*
G02*
X120645000Y-71617500I0J62500D01*
G01*
X120645000Y-70942500D01*
G75*
G02*
X120707500Y-70880000I62500J0D01*
G01*
X120832500Y-70880000D01*
G75*
G02*
X120895000Y-70942500I0J-62500D01*
G01*
X120895000Y-71617500D01*
G75*
G02*
X120832500Y-71680000I-62500J0D01*
G01*
G37*
G36*
G01*
X120332500Y-71680000D02*
X120207500Y-71680000D01*
G75*
G02*
X120145000Y-71617500I0J62500D01*
G01*
X120145000Y-70942500D01*
G75*
G02*
X120207500Y-70880000I62500J0D01*
G01*
X120332500Y-70880000D01*
G75*
G02*
X120395000Y-70942500I0J-62500D01*
G01*
X120395000Y-71617500D01*
G75*
G02*
X120332500Y-71680000I-62500J0D01*
G01*
G37*
G36*
G01*
X119832500Y-71680000D02*
X119707500Y-71680000D01*
G75*
G02*
X119645000Y-71617500I0J62500D01*
G01*
X119645000Y-70942500D01*
G75*
G02*
X119707500Y-70880000I62500J0D01*
G01*
X119832500Y-70880000D01*
G75*
G02*
X119895000Y-70942500I0J-62500D01*
G01*
X119895000Y-71617500D01*
G75*
G02*
X119832500Y-71680000I-62500J0D01*
G01*
G37*
G36*
G01*
X119332500Y-71680000D02*
X119207500Y-71680000D01*
G75*
G02*
X119145000Y-71617500I0J62500D01*
G01*
X119145000Y-70942500D01*
G75*
G02*
X119207500Y-70880000I62500J0D01*
G01*
X119332500Y-70880000D01*
G75*
G02*
X119395000Y-70942500I0J-62500D01*
G01*
X119395000Y-71617500D01*
G75*
G02*
X119332500Y-71680000I-62500J0D01*
G01*
G37*
G36*
G01*
X118657500Y-72355000D02*
X117982500Y-72355000D01*
G75*
G02*
X117920000Y-72292500I0J62500D01*
G01*
X117920000Y-72167500D01*
G75*
G02*
X117982500Y-72105000I62500J0D01*
G01*
X118657500Y-72105000D01*
G75*
G02*
X118720000Y-72167500I0J-62500D01*
G01*
X118720000Y-72292500D01*
G75*
G02*
X118657500Y-72355000I-62500J0D01*
G01*
G37*
G36*
G01*
X118657500Y-72855000D02*
X117982500Y-72855000D01*
G75*
G02*
X117920000Y-72792500I0J62500D01*
G01*
X117920000Y-72667500D01*
G75*
G02*
X117982500Y-72605000I62500J0D01*
G01*
X118657500Y-72605000D01*
G75*
G02*
X118720000Y-72667500I0J-62500D01*
G01*
X118720000Y-72792500D01*
G75*
G02*
X118657500Y-72855000I-62500J0D01*
G01*
G37*
G36*
G01*
X118657500Y-73355000D02*
X117982500Y-73355000D01*
G75*
G02*
X117920000Y-73292500I0J62500D01*
G01*
X117920000Y-73167500D01*
G75*
G02*
X117982500Y-73105000I62500J0D01*
G01*
X118657500Y-73105000D01*
G75*
G02*
X118720000Y-73167500I0J-62500D01*
G01*
X118720000Y-73292500D01*
G75*
G02*
X118657500Y-73355000I-62500J0D01*
G01*
G37*
G36*
G01*
X118657500Y-73855000D02*
X117982500Y-73855000D01*
G75*
G02*
X117920000Y-73792500I0J62500D01*
G01*
X117920000Y-73667500D01*
G75*
G02*
X117982500Y-73605000I62500J0D01*
G01*
X118657500Y-73605000D01*
G75*
G02*
X118720000Y-73667500I0J-62500D01*
G01*
X118720000Y-73792500D01*
G75*
G02*
X118657500Y-73855000I-62500J0D01*
G01*
G37*
G36*
G01*
X118657500Y-74355000D02*
X117982500Y-74355000D01*
G75*
G02*
X117920000Y-74292500I0J62500D01*
G01*
X117920000Y-74167500D01*
G75*
G02*
X117982500Y-74105000I62500J0D01*
G01*
X118657500Y-74105000D01*
G75*
G02*
X118720000Y-74167500I0J-62500D01*
G01*
X118720000Y-74292500D01*
G75*
G02*
X118657500Y-74355000I-62500J0D01*
G01*
G37*
G36*
G01*
X118657500Y-74855000D02*
X117982500Y-74855000D01*
G75*
G02*
X117920000Y-74792500I0J62500D01*
G01*
X117920000Y-74667500D01*
G75*
G02*
X117982500Y-74605000I62500J0D01*
G01*
X118657500Y-74605000D01*
G75*
G02*
X118720000Y-74667500I0J-62500D01*
G01*
X118720000Y-74792500D01*
G75*
G02*
X118657500Y-74855000I-62500J0D01*
G01*
G37*
G36*
G01*
X118657500Y-75355000D02*
X117982500Y-75355000D01*
G75*
G02*
X117920000Y-75292500I0J62500D01*
G01*
X117920000Y-75167500D01*
G75*
G02*
X117982500Y-75105000I62500J0D01*
G01*
X118657500Y-75105000D01*
G75*
G02*
X118720000Y-75167500I0J-62500D01*
G01*
X118720000Y-75292500D01*
G75*
G02*
X118657500Y-75355000I-62500J0D01*
G01*
G37*
G36*
G01*
X119875000Y-75300000D02*
X119425000Y-75300000D01*
G75*
G02*
X119200000Y-75075000I0J225000D01*
G01*
X119200000Y-74625000D01*
G75*
G02*
X119425000Y-74400000I225000J0D01*
G01*
X119875000Y-74400000D01*
G75*
G02*
X120100000Y-74625000I0J-225000D01*
G01*
X120100000Y-75075000D01*
G75*
G02*
X119875000Y-75300000I-225000J0D01*
G01*
G37*
G36*
G01*
X120995000Y-75300000D02*
X120545000Y-75300000D01*
G75*
G02*
X120320000Y-75075000I0J225000D01*
G01*
X120320000Y-74625000D01*
G75*
G02*
X120545000Y-74400000I225000J0D01*
G01*
X120995000Y-74400000D01*
G75*
G02*
X121220000Y-74625000I0J-225000D01*
G01*
X121220000Y-75075000D01*
G75*
G02*
X120995000Y-75300000I-225000J0D01*
G01*
G37*
G36*
G01*
X122115000Y-75300000D02*
X121665000Y-75300000D01*
G75*
G02*
X121440000Y-75075000I0J225000D01*
G01*
X121440000Y-74625000D01*
G75*
G02*
X121665000Y-74400000I225000J0D01*
G01*
X122115000Y-74400000D01*
G75*
G02*
X122340000Y-74625000I0J-225000D01*
G01*
X122340000Y-75075000D01*
G75*
G02*
X122115000Y-75300000I-225000J0D01*
G01*
G37*
G36*
G01*
X119875000Y-74180000D02*
X119425000Y-74180000D01*
G75*
G02*
X119200000Y-73955000I0J225000D01*
G01*
X119200000Y-73505000D01*
G75*
G02*
X119425000Y-73280000I225000J0D01*
G01*
X119875000Y-73280000D01*
G75*
G02*
X120100000Y-73505000I0J-225000D01*
G01*
X120100000Y-73955000D01*
G75*
G02*
X119875000Y-74180000I-225000J0D01*
G01*
G37*
G36*
G01*
X120995000Y-74180000D02*
X120545000Y-74180000D01*
G75*
G02*
X120320000Y-73955000I0J225000D01*
G01*
X120320000Y-73505000D01*
G75*
G02*
X120545000Y-73280000I225000J0D01*
G01*
X120995000Y-73280000D01*
G75*
G02*
X121220000Y-73505000I0J-225000D01*
G01*
X121220000Y-73955000D01*
G75*
G02*
X120995000Y-74180000I-225000J0D01*
G01*
G37*
G36*
G01*
X122115000Y-74180000D02*
X121665000Y-74180000D01*
G75*
G02*
X121440000Y-73955000I0J225000D01*
G01*
X121440000Y-73505000D01*
G75*
G02*
X121665000Y-73280000I225000J0D01*
G01*
X122115000Y-73280000D01*
G75*
G02*
X122340000Y-73505000I0J-225000D01*
G01*
X122340000Y-73955000D01*
G75*
G02*
X122115000Y-74180000I-225000J0D01*
G01*
G37*
G36*
G01*
X119875000Y-73060000D02*
X119425000Y-73060000D01*
G75*
G02*
X119200000Y-72835000I0J225000D01*
G01*
X119200000Y-72385000D01*
G75*
G02*
X119425000Y-72160000I225000J0D01*
G01*
X119875000Y-72160000D01*
G75*
G02*
X120100000Y-72385000I0J-225000D01*
G01*
X120100000Y-72835000D01*
G75*
G02*
X119875000Y-73060000I-225000J0D01*
G01*
G37*
G36*
G01*
X120995000Y-73060000D02*
X120545000Y-73060000D01*
G75*
G02*
X120320000Y-72835000I0J225000D01*
G01*
X120320000Y-72385000D01*
G75*
G02*
X120545000Y-72160000I225000J0D01*
G01*
X120995000Y-72160000D01*
G75*
G02*
X121220000Y-72385000I0J-225000D01*
G01*
X121220000Y-72835000D01*
G75*
G02*
X120995000Y-73060000I-225000J0D01*
G01*
G37*
G36*
G01*
X122115000Y-73060000D02*
X121665000Y-73060000D01*
G75*
G02*
X121440000Y-72835000I0J225000D01*
G01*
X121440000Y-72385000D01*
G75*
G02*
X121665000Y-72160000I225000J0D01*
G01*
X122115000Y-72160000D01*
G75*
G02*
X122340000Y-72385000I0J-225000D01*
G01*
X122340000Y-72835000D01*
G75*
G02*
X122115000Y-73060000I-225000J0D01*
G01*
G37*
D22*
X113710000Y-78970000D03*
X115610000Y-78970000D03*
X115610000Y-81170000D03*
X114660000Y-81170000D03*
X113710000Y-81170000D03*
X108790000Y-80030000D03*
X109740000Y-80030000D03*
X110690000Y-80030000D03*
X110690000Y-77830000D03*
X108790000Y-77830000D03*
G36*
G01*
X113700000Y-43350000D02*
X113700000Y-46350000D01*
G75*
G02*
X113450000Y-46600000I-250000J0D01*
G01*
X112950000Y-46600000D01*
G75*
G02*
X112700000Y-46350000I0J250000D01*
G01*
X112700000Y-43350000D01*
G75*
G02*
X112950000Y-43100000I250000J0D01*
G01*
X113450000Y-43100000D01*
G75*
G02*
X113700000Y-43350000I0J-250000D01*
G01*
G37*
G36*
G01*
X111700000Y-43350000D02*
X111700000Y-46350000D01*
G75*
G02*
X111450000Y-46600000I-250000J0D01*
G01*
X110950000Y-46600000D01*
G75*
G02*
X110700000Y-46350000I0J250000D01*
G01*
X110700000Y-43350000D01*
G75*
G02*
X110950000Y-43100000I250000J0D01*
G01*
X111450000Y-43100000D01*
G75*
G02*
X111700000Y-43350000I0J-250000D01*
G01*
G37*
G36*
G01*
X109700000Y-43350000D02*
X109700000Y-46350000D01*
G75*
G02*
X109450000Y-46600000I-250000J0D01*
G01*
X108950000Y-46600000D01*
G75*
G02*
X108700000Y-46350000I0J250000D01*
G01*
X108700000Y-43350000D01*
G75*
G02*
X108950000Y-43100000I250000J0D01*
G01*
X109450000Y-43100000D01*
G75*
G02*
X109700000Y-43350000I0J-250000D01*
G01*
G37*
G36*
G01*
X107700000Y-43350000D02*
X107700000Y-46350000D01*
G75*
G02*
X107450000Y-46600000I-250000J0D01*
G01*
X106950000Y-46600000D01*
G75*
G02*
X106700000Y-46350000I0J250000D01*
G01*
X106700000Y-43350000D01*
G75*
G02*
X106950000Y-43100000I250000J0D01*
G01*
X107450000Y-43100000D01*
G75*
G02*
X107700000Y-43350000I0J-250000D01*
G01*
G37*
G36*
G01*
X116300000Y-37650000D02*
X116300000Y-40550000D01*
G75*
G02*
X116050000Y-40800000I-250000J0D01*
G01*
X115050000Y-40800000D01*
G75*
G02*
X114800000Y-40550000I0J250000D01*
G01*
X114800000Y-37650000D01*
G75*
G02*
X115050000Y-37400000I250000J0D01*
G01*
X116050000Y-37400000D01*
G75*
G02*
X116300000Y-37650000I0J-250000D01*
G01*
G37*
G36*
G01*
X105600000Y-37650000D02*
X105600000Y-40550000D01*
G75*
G02*
X105350000Y-40800000I-250000J0D01*
G01*
X104350000Y-40800000D01*
G75*
G02*
X104100000Y-40550000I0J250000D01*
G01*
X104100000Y-37650000D01*
G75*
G02*
X104350000Y-37400000I250000J0D01*
G01*
X105350000Y-37400000D01*
G75*
G02*
X105600000Y-37650000I0J-250000D01*
G01*
G37*
D23*
X70150000Y-78910000D03*
D24*
X69050000Y-79560000D03*
X83730000Y-79560000D03*
D25*
X69050000Y-89260000D03*
X84570000Y-89260000D03*
D23*
X71250000Y-78910000D03*
X72350000Y-78910000D03*
X73450000Y-78910000D03*
X74550000Y-78910000D03*
X75650000Y-78910000D03*
X76750000Y-78910000D03*
X77850000Y-78910000D03*
X78950000Y-78910000D03*
M02*
