%TF.GenerationSoftware,KiCad,Pcbnew,(5.1.6-0)*%
%TF.CreationDate,2020-10-12T19:17:27+02:00*%
%TF.ProjectId,ESP32_TFT,45535033-325f-4544-9654-2e6b69636164,rev?*%
%TF.SameCoordinates,Original*%
%TF.FileFunction,Soldermask,Bot*%
%TF.FilePolarity,Negative*%
%FSLAX46Y46*%
G04 Gerber Fmt 4.6, Leading zero omitted, Abs format (unit mm)*
G04 Created by KiCad (PCBNEW (5.1.6-0)) date 2020-10-12 19:17:27*
%MOMM*%
%LPD*%
G01*
G04 APERTURE LIST*
%ADD10C,0.900000*%
%ADD11C,5.100000*%
%ADD12C,1.000000*%
%ADD13C,0.650000*%
%ADD14C,1.100000*%
G04 APERTURE END LIST*
D10*
%TO.C,H1*%
X42825825Y-38674175D03*
X41500000Y-38125000D03*
X40174175Y-38674175D03*
X39625000Y-40000000D03*
X40174175Y-41325825D03*
X41500000Y-41875000D03*
X42825825Y-41325825D03*
X43375000Y-40000000D03*
D11*
X41500000Y-40000000D03*
%TD*%
D10*
%TO.C,H2*%
X42825825Y-89674175D03*
X41500000Y-89125000D03*
X40174175Y-89674175D03*
X39625000Y-91000000D03*
X40174175Y-92325825D03*
X41500000Y-92875000D03*
X42825825Y-92325825D03*
X43375000Y-91000000D03*
D11*
X41500000Y-91000000D03*
%TD*%
D10*
%TO.C,H3*%
X136825825Y-38674175D03*
X135500000Y-38125000D03*
X134174175Y-38674175D03*
X133625000Y-40000000D03*
X134174175Y-41325825D03*
X135500000Y-41875000D03*
X136825825Y-41325825D03*
X137375000Y-40000000D03*
D11*
X135500000Y-40000000D03*
%TD*%
D10*
%TO.C,H4*%
X136825825Y-89674175D03*
X135500000Y-89125000D03*
X134174175Y-89674175D03*
X133625000Y-91000000D03*
X134174175Y-92325825D03*
X135500000Y-92875000D03*
X136825825Y-92325825D03*
X137375000Y-91000000D03*
D11*
X135500000Y-91000000D03*
%TD*%
D12*
%TO.C,SW3*%
X124600000Y-92120000D03*
X121600000Y-92120000D03*
%TD*%
D13*
%TO.C,J1*%
X134000000Y-76350000D03*
X134000000Y-80650000D03*
%TD*%
D14*
%TO.C,SD1*%
X72735001Y-90900000D03*
X80735001Y-90900000D03*
%TD*%
M02*
