%TF.GenerationSoftware,KiCad,Pcbnew,(5.1.6-0)*%
%TF.CreationDate,2020-10-12T19:17:27+02:00*%
%TF.ProjectId,ESP32_TFT,45535033-325f-4544-9654-2e6b69636164,rev?*%
%TF.SameCoordinates,Original*%
%TF.FileFunction,Legend,Top*%
%TF.FilePolarity,Positive*%
%FSLAX46Y46*%
G04 Gerber Fmt 4.6, Leading zero omitted, Abs format (unit mm)*
G04 Created by KiCad (PCBNEW (5.1.6-0)) date 2020-10-12 19:17:27*
%MOMM*%
%LPD*%
G01*
G04 APERTURE LIST*
%ADD10C,0.150000*%
%ADD11C,0.100000*%
%ADD12C,0.120000*%
%ADD13C,0.200000*%
%ADD14C,0.250000*%
G04 APERTURE END LIST*
D10*
X86535714Y-77095714D02*
X87202380Y-77095714D01*
X86154761Y-77333809D02*
X86869047Y-77571904D01*
X86869047Y-76952857D01*
X86202380Y-76381428D02*
X86202380Y-76286190D01*
X86250000Y-76190952D01*
X86297619Y-76143333D01*
X86392857Y-76095714D01*
X86583333Y-76048095D01*
X86821428Y-76048095D01*
X87011904Y-76095714D01*
X87107142Y-76143333D01*
X87154761Y-76190952D01*
X87202380Y-76286190D01*
X87202380Y-76381428D01*
X87154761Y-76476666D01*
X87107142Y-76524285D01*
X87011904Y-76571904D01*
X86821428Y-76619523D01*
X86583333Y-76619523D01*
X86392857Y-76571904D01*
X86297619Y-76524285D01*
X86250000Y-76476666D01*
X86202380Y-76381428D01*
X87102380Y-54254285D02*
X87102380Y-54825714D01*
X87102380Y-54540000D02*
X86102380Y-54540000D01*
X86245238Y-54635238D01*
X86340476Y-54730476D01*
X86388095Y-54825714D01*
X115564285Y-92532857D02*
X115611904Y-92485238D01*
X115754761Y-92437619D01*
X115850000Y-92437619D01*
X115992857Y-92485238D01*
X116088095Y-92580476D01*
X116135714Y-92675714D01*
X116183333Y-92866190D01*
X116183333Y-93009047D01*
X116135714Y-93199523D01*
X116088095Y-93294761D01*
X115992857Y-93390000D01*
X115850000Y-93437619D01*
X115754761Y-93437619D01*
X115611904Y-93390000D01*
X115564285Y-93342380D01*
X115135714Y-92437619D02*
X115135714Y-93437619D01*
X115135714Y-92961428D02*
X114564285Y-92961428D01*
X114564285Y-92437619D02*
X114564285Y-93437619D01*
X113516666Y-92437619D02*
X113850000Y-92913809D01*
X114088095Y-92437619D02*
X114088095Y-93437619D01*
X113707142Y-93437619D01*
X113611904Y-93390000D01*
X113564285Y-93342380D01*
X113516666Y-93247142D01*
X113516666Y-93104285D01*
X113564285Y-93009047D01*
X113611904Y-92961428D01*
X113707142Y-92913809D01*
X114088095Y-92913809D01*
X112564285Y-93390000D02*
X112659523Y-93437619D01*
X112802380Y-93437619D01*
X112945238Y-93390000D01*
X113040476Y-93294761D01*
X113088095Y-93199523D01*
X113135714Y-93009047D01*
X113135714Y-92866190D01*
X113088095Y-92675714D01*
X113040476Y-92580476D01*
X112945238Y-92485238D01*
X112802380Y-92437619D01*
X112707142Y-92437619D01*
X112564285Y-92485238D01*
X112516666Y-92532857D01*
X112516666Y-92866190D01*
X112707142Y-92866190D01*
D11*
G36*
X110850000Y-93370000D02*
G01*
X110460000Y-93000000D01*
X110850000Y-92610000D01*
X110850000Y-93370000D01*
G37*
X110850000Y-93370000D02*
X110460000Y-93000000D01*
X110850000Y-92610000D01*
X110850000Y-93370000D01*
G36*
X124130000Y-82380000D02*
G01*
X123440000Y-81610000D01*
X124130000Y-80800000D01*
X124130000Y-82380000D01*
G37*
X124130000Y-82380000D02*
X123440000Y-81610000D01*
X124130000Y-80800000D01*
X124130000Y-82380000D01*
D12*
X124150000Y-82460000D02*
X124150000Y-80740000D01*
X123430000Y-81640000D02*
X124150000Y-82460000D01*
X124150000Y-80740000D02*
X123410000Y-81610000D01*
X112410000Y-74700000D02*
X112410000Y-76420000D01*
X120210000Y-80010000D02*
X120210000Y-83270000D01*
X115200000Y-82810000D02*
X115200000Y-84530000D01*
D10*
X131106666Y-91308095D02*
X130840000Y-90508095D01*
X130573333Y-91308095D01*
X130040000Y-90927142D02*
X129925714Y-90889047D01*
X129887619Y-90850952D01*
X129849523Y-90774761D01*
X129849523Y-90660476D01*
X129887619Y-90584285D01*
X129925714Y-90546190D01*
X130001904Y-90508095D01*
X130306666Y-90508095D01*
X130306666Y-91308095D01*
X130040000Y-91308095D01*
X129963809Y-91270000D01*
X129925714Y-91231904D01*
X129887619Y-91155714D01*
X129887619Y-91079523D01*
X129925714Y-91003333D01*
X129963809Y-90965238D01*
X130040000Y-90927142D01*
X130306666Y-90927142D01*
X129506666Y-91308095D02*
X129506666Y-90660476D01*
X129468571Y-90584285D01*
X129430476Y-90546190D01*
X129354285Y-90508095D01*
X129201904Y-90508095D01*
X129125714Y-90546190D01*
X129087619Y-90584285D01*
X129049523Y-90660476D01*
X129049523Y-91308095D01*
X128706666Y-90546190D02*
X128592380Y-90508095D01*
X128401904Y-90508095D01*
X128325714Y-90546190D01*
X128287619Y-90584285D01*
X128249523Y-90660476D01*
X128249523Y-90736666D01*
X128287619Y-90812857D01*
X128325714Y-90850952D01*
X128401904Y-90889047D01*
X128554285Y-90927142D01*
X128630476Y-90965238D01*
X128668571Y-91003333D01*
X128706666Y-91079523D01*
X128706666Y-91155714D01*
X128668571Y-91231904D01*
X128630476Y-91270000D01*
X128554285Y-91308095D01*
X128363809Y-91308095D01*
X128249523Y-91270000D01*
X105254285Y-85528095D02*
X104987619Y-84728095D01*
X104720952Y-85528095D01*
X104187619Y-85147142D02*
X104073333Y-85109047D01*
X104035238Y-85070952D01*
X103997142Y-84994761D01*
X103997142Y-84880476D01*
X104035238Y-84804285D01*
X104073333Y-84766190D01*
X104149523Y-84728095D01*
X104454285Y-84728095D01*
X104454285Y-85528095D01*
X104187619Y-85528095D01*
X104111428Y-85490000D01*
X104073333Y-85451904D01*
X104035238Y-85375714D01*
X104035238Y-85299523D01*
X104073333Y-85223333D01*
X104111428Y-85185238D01*
X104187619Y-85147142D01*
X104454285Y-85147142D01*
X103692380Y-84956666D02*
X103311428Y-84956666D01*
X103768571Y-84728095D02*
X103501904Y-85528095D01*
X103235238Y-84728095D01*
X103082857Y-85528095D02*
X102625714Y-85528095D01*
X102854285Y-84728095D02*
X102854285Y-85528095D01*
X91000000Y-41261904D02*
X90952380Y-41357142D01*
X90952380Y-41500000D01*
X91000000Y-41642857D01*
X91095238Y-41738095D01*
X91190476Y-41785714D01*
X91380952Y-41833333D01*
X91523809Y-41833333D01*
X91714285Y-41785714D01*
X91809523Y-41738095D01*
X91904761Y-41642857D01*
X91952380Y-41500000D01*
X91952380Y-41404761D01*
X91904761Y-41261904D01*
X91857142Y-41214285D01*
X91523809Y-41214285D01*
X91523809Y-41404761D01*
X91952380Y-40785714D02*
X90952380Y-40785714D01*
X91952380Y-40214285D01*
X90952380Y-40214285D01*
X91952380Y-39738095D02*
X90952380Y-39738095D01*
X90952380Y-39500000D01*
X91000000Y-39357142D01*
X91095238Y-39261904D01*
X91190476Y-39214285D01*
X91380952Y-39166666D01*
X91523809Y-39166666D01*
X91714285Y-39214285D01*
X91809523Y-39261904D01*
X91904761Y-39357142D01*
X91952380Y-39500000D01*
X91952380Y-39738095D01*
X93952380Y-41738095D02*
X93952380Y-41119047D01*
X94333333Y-41452380D01*
X94333333Y-41309523D01*
X94380952Y-41214285D01*
X94428571Y-41166666D01*
X94523809Y-41119047D01*
X94761904Y-41119047D01*
X94857142Y-41166666D01*
X94904761Y-41214285D01*
X94952380Y-41309523D01*
X94952380Y-41595238D01*
X94904761Y-41690476D01*
X94857142Y-41738095D01*
X93952380Y-40833333D02*
X94952380Y-40500000D01*
X93952380Y-40166666D01*
X93952380Y-39928571D02*
X93952380Y-39309523D01*
X94333333Y-39642857D01*
X94333333Y-39500000D01*
X94380952Y-39404761D01*
X94428571Y-39357142D01*
X94523809Y-39309523D01*
X94761904Y-39309523D01*
X94857142Y-39357142D01*
X94904761Y-39404761D01*
X94952380Y-39500000D01*
X94952380Y-39785714D01*
X94904761Y-39880952D01*
X94857142Y-39928571D01*
X97904761Y-41714285D02*
X97952380Y-41571428D01*
X97952380Y-41333333D01*
X97904761Y-41238095D01*
X97857142Y-41190476D01*
X97761904Y-41142857D01*
X97666666Y-41142857D01*
X97571428Y-41190476D01*
X97523809Y-41238095D01*
X97476190Y-41333333D01*
X97428571Y-41523809D01*
X97380952Y-41619047D01*
X97333333Y-41666666D01*
X97238095Y-41714285D01*
X97142857Y-41714285D01*
X97047619Y-41666666D01*
X97000000Y-41619047D01*
X96952380Y-41523809D01*
X96952380Y-41285714D01*
X97000000Y-41142857D01*
X97952380Y-40714285D02*
X96952380Y-40714285D01*
X96952380Y-40476190D01*
X97000000Y-40333333D01*
X97095238Y-40238095D01*
X97190476Y-40190476D01*
X97380952Y-40142857D01*
X97523809Y-40142857D01*
X97714285Y-40190476D01*
X97809523Y-40238095D01*
X97904761Y-40333333D01*
X97952380Y-40476190D01*
X97952380Y-40714285D01*
X97666666Y-39761904D02*
X97666666Y-39285714D01*
X97952380Y-39857142D02*
X96952380Y-39523809D01*
X97952380Y-39190476D01*
X100904761Y-41690476D02*
X100952380Y-41547619D01*
X100952380Y-41309523D01*
X100904761Y-41214285D01*
X100857142Y-41166666D01*
X100761904Y-41119047D01*
X100666666Y-41119047D01*
X100571428Y-41166666D01*
X100523809Y-41214285D01*
X100476190Y-41309523D01*
X100428571Y-41500000D01*
X100380952Y-41595238D01*
X100333333Y-41642857D01*
X100238095Y-41690476D01*
X100142857Y-41690476D01*
X100047619Y-41642857D01*
X100000000Y-41595238D01*
X99952380Y-41500000D01*
X99952380Y-41261904D01*
X100000000Y-41119047D01*
X100857142Y-40119047D02*
X100904761Y-40166666D01*
X100952380Y-40309523D01*
X100952380Y-40404761D01*
X100904761Y-40547619D01*
X100809523Y-40642857D01*
X100714285Y-40690476D01*
X100523809Y-40738095D01*
X100380952Y-40738095D01*
X100190476Y-40690476D01*
X100095238Y-40642857D01*
X100000000Y-40547619D01*
X99952380Y-40404761D01*
X99952380Y-40309523D01*
X100000000Y-40166666D01*
X100047619Y-40119047D01*
X100952380Y-39214285D02*
X100952380Y-39690476D01*
X99952380Y-39690476D01*
D12*
X90000000Y-42500000D02*
X93000000Y-42500000D01*
X90000000Y-38500000D02*
X90000000Y-42500000D01*
X93000000Y-38500000D02*
X90000000Y-38500000D01*
X102000000Y-38500000D02*
X102000000Y-42500000D01*
X99000000Y-38500000D02*
X99000000Y-42500000D01*
X96000000Y-38500000D02*
X96000000Y-42500000D01*
X102000000Y-38500000D02*
X93000000Y-38500000D01*
X93000000Y-42500000D02*
X102000000Y-42500000D01*
X93000000Y-38500000D02*
X93000000Y-42500000D01*
D10*
X112858095Y-85162857D02*
X114381904Y-85162857D01*
X113620000Y-85924761D02*
X113620000Y-84400952D01*
X106748095Y-85302857D02*
X108271904Y-85302857D01*
D12*
X131722788Y-80530000D02*
G75*
G03*
X131722788Y-80530000I-162788J0D01*
G01*
X108302788Y-80880000D02*
G75*
G03*
X108302788Y-80880000I-162788J0D01*
G01*
X113212788Y-82000000D02*
G75*
G03*
X113212788Y-82000000I-162788J0D01*
G01*
X118612788Y-76540000D02*
G75*
G03*
X118612788Y-76540000I-162788J0D01*
G01*
D10*
X105490476Y-50938095D02*
X104995238Y-50938095D01*
X105261904Y-50633333D01*
X105147619Y-50633333D01*
X105071428Y-50595238D01*
X105033333Y-50557142D01*
X104995238Y-50480952D01*
X104995238Y-50290476D01*
X105033333Y-50214285D01*
X105071428Y-50176190D01*
X105147619Y-50138095D01*
X105376190Y-50138095D01*
X105452380Y-50176190D01*
X105490476Y-50214285D01*
X104766666Y-50938095D02*
X104500000Y-50138095D01*
X104233333Y-50938095D01*
X104042857Y-50938095D02*
X103547619Y-50938095D01*
X103814285Y-50633333D01*
X103700000Y-50633333D01*
X103623809Y-50595238D01*
X103585714Y-50557142D01*
X103547619Y-50480952D01*
X103547619Y-50290476D01*
X103585714Y-50214285D01*
X103623809Y-50176190D01*
X103700000Y-50138095D01*
X103928571Y-50138095D01*
X104004761Y-50176190D01*
X104042857Y-50214285D01*
D13*
X48715183Y-47250000D02*
G75*
G03*
X48715183Y-47250000I-205183J0D01*
G01*
X108395183Y-60010000D02*
G75*
G03*
X108395183Y-60010000I-205183J0D01*
G01*
X114485183Y-47290000D02*
G75*
G03*
X114485183Y-47290000I-205183J0D01*
G01*
X68695183Y-56220000D02*
G75*
G03*
X68695183Y-56220000I-205183J0D01*
G01*
D14*
X67252857Y-90725714D02*
X67252857Y-92525714D01*
X67252857Y-91840000D02*
X67081428Y-91925714D01*
X66738571Y-91925714D01*
X66567142Y-91840000D01*
X66481428Y-91754285D01*
X66395714Y-91582857D01*
X66395714Y-91068571D01*
X66481428Y-90897142D01*
X66567142Y-90811428D01*
X66738571Y-90725714D01*
X67081428Y-90725714D01*
X67252857Y-90811428D01*
X65795714Y-91925714D02*
X65367142Y-90725714D01*
X64938571Y-91925714D02*
X65367142Y-90725714D01*
X65538571Y-90297142D01*
X65624285Y-90211428D01*
X65795714Y-90125714D01*
X62881428Y-90725714D02*
X62881428Y-92525714D01*
X62452857Y-92525714D01*
X62195714Y-92440000D01*
X62024285Y-92268571D01*
X61938571Y-92097142D01*
X61852857Y-91754285D01*
X61852857Y-91497142D01*
X61938571Y-91154285D01*
X62024285Y-90982857D01*
X62195714Y-90811428D01*
X62452857Y-90725714D01*
X62881428Y-90725714D01*
X60310000Y-91925714D02*
X60310000Y-90725714D01*
X61081428Y-91925714D02*
X61081428Y-90982857D01*
X60995714Y-90811428D01*
X60824285Y-90725714D01*
X60567142Y-90725714D01*
X60395714Y-90811428D01*
X60310000Y-90897142D01*
X59538571Y-90811428D02*
X59367142Y-90725714D01*
X59024285Y-90725714D01*
X58852857Y-90811428D01*
X58767142Y-90982857D01*
X58767142Y-91068571D01*
X58852857Y-91240000D01*
X59024285Y-91325714D01*
X59281428Y-91325714D01*
X59452857Y-91411428D01*
X59538571Y-91582857D01*
X59538571Y-91668571D01*
X59452857Y-91840000D01*
X59281428Y-91925714D01*
X59024285Y-91925714D01*
X58852857Y-91840000D01*
X58252857Y-91925714D02*
X57567142Y-91925714D01*
X57995714Y-92525714D02*
X57995714Y-90982857D01*
X57910000Y-90811428D01*
X57738571Y-90725714D01*
X57567142Y-90725714D01*
X56967142Y-90725714D02*
X56967142Y-91925714D01*
X56967142Y-92525714D02*
X57052857Y-92440000D01*
X56967142Y-92354285D01*
X56881428Y-92440000D01*
X56967142Y-92525714D01*
X56967142Y-92354285D01*
X56110000Y-91925714D02*
X56110000Y-90725714D01*
X56110000Y-91754285D02*
X56024285Y-91840000D01*
X55852857Y-91925714D01*
X55595714Y-91925714D01*
X55424285Y-91840000D01*
X55338571Y-91668571D01*
X55338571Y-90725714D01*
X53281428Y-92525714D02*
X52852857Y-90725714D01*
X52510000Y-92011428D01*
X52167142Y-90725714D01*
X51738571Y-92525714D01*
X50281428Y-90725714D02*
X50281428Y-91668571D01*
X50367142Y-91840000D01*
X50538571Y-91925714D01*
X50881428Y-91925714D01*
X51052857Y-91840000D01*
X50281428Y-90811428D02*
X50452857Y-90725714D01*
X50881428Y-90725714D01*
X51052857Y-90811428D01*
X51138571Y-90982857D01*
X51138571Y-91154285D01*
X51052857Y-91325714D01*
X50881428Y-91411428D01*
X50452857Y-91411428D01*
X50281428Y-91497142D01*
X49681428Y-91925714D02*
X48995714Y-91925714D01*
X49424285Y-92525714D02*
X49424285Y-90982857D01*
X49338571Y-90811428D01*
X49167142Y-90725714D01*
X48995714Y-90725714D01*
X48652857Y-91925714D02*
X47967142Y-91925714D01*
X48395714Y-92525714D02*
X48395714Y-90982857D01*
X48310000Y-90811428D01*
X48138571Y-90725714D01*
X47967142Y-90725714D01*
X47452857Y-90811428D02*
X47281428Y-90725714D01*
X46938571Y-90725714D01*
X46767142Y-90811428D01*
X46681428Y-90982857D01*
X46681428Y-91068571D01*
X46767142Y-91240000D01*
X46938571Y-91325714D01*
X47195714Y-91325714D01*
X47367142Y-91411428D01*
X47452857Y-91582857D01*
X47452857Y-91668571D01*
X47367142Y-91840000D01*
X47195714Y-91925714D01*
X46938571Y-91925714D01*
X46767142Y-91840000D01*
D10*
X129866190Y-39207619D02*
X129532857Y-38207619D01*
X129199523Y-39207619D01*
X128485238Y-38255238D02*
X128580476Y-38207619D01*
X128770952Y-38207619D01*
X128866190Y-38255238D01*
X128913809Y-38350476D01*
X128913809Y-38731428D01*
X128866190Y-38826666D01*
X128770952Y-38874285D01*
X128580476Y-38874285D01*
X128485238Y-38826666D01*
X128437619Y-38731428D01*
X128437619Y-38636190D01*
X128913809Y-38540952D01*
X128009047Y-38207619D02*
X128009047Y-38874285D01*
X128009047Y-38683809D02*
X127961428Y-38779047D01*
X127913809Y-38826666D01*
X127818571Y-38874285D01*
X127723333Y-38874285D01*
X127437619Y-38255238D02*
X127342380Y-38207619D01*
X127151904Y-38207619D01*
X127056666Y-38255238D01*
X127009047Y-38350476D01*
X127009047Y-38398095D01*
X127056666Y-38493333D01*
X127151904Y-38540952D01*
X127294761Y-38540952D01*
X127390000Y-38588571D01*
X127437619Y-38683809D01*
X127437619Y-38731428D01*
X127390000Y-38826666D01*
X127294761Y-38874285D01*
X127151904Y-38874285D01*
X127056666Y-38826666D01*
X126580476Y-38207619D02*
X126580476Y-38874285D01*
X126580476Y-39207619D02*
X126628095Y-39160000D01*
X126580476Y-39112380D01*
X126532857Y-39160000D01*
X126580476Y-39207619D01*
X126580476Y-39112380D01*
X125961428Y-38207619D02*
X126056666Y-38255238D01*
X126104285Y-38302857D01*
X126151904Y-38398095D01*
X126151904Y-38683809D01*
X126104285Y-38779047D01*
X126056666Y-38826666D01*
X125961428Y-38874285D01*
X125818571Y-38874285D01*
X125723333Y-38826666D01*
X125675714Y-38779047D01*
X125628095Y-38683809D01*
X125628095Y-38398095D01*
X125675714Y-38302857D01*
X125723333Y-38255238D01*
X125818571Y-38207619D01*
X125961428Y-38207619D01*
X125199523Y-38874285D02*
X125199523Y-38207619D01*
X125199523Y-38779047D02*
X125151904Y-38826666D01*
X125056666Y-38874285D01*
X124913809Y-38874285D01*
X124818571Y-38826666D01*
X124770952Y-38731428D01*
X124770952Y-38207619D01*
X123342380Y-39207619D02*
X123247142Y-39207619D01*
X123151904Y-39160000D01*
X123104285Y-39112380D01*
X123056666Y-39017142D01*
X123009047Y-38826666D01*
X123009047Y-38588571D01*
X123056666Y-38398095D01*
X123104285Y-38302857D01*
X123151904Y-38255238D01*
X123247142Y-38207619D01*
X123342380Y-38207619D01*
X123437619Y-38255238D01*
X123485238Y-38302857D01*
X123532857Y-38398095D01*
X123580476Y-38588571D01*
X123580476Y-38826666D01*
X123532857Y-39017142D01*
X123485238Y-39112380D01*
X123437619Y-39160000D01*
X123342380Y-39207619D01*
X39007619Y-45307619D02*
X39483809Y-44974285D01*
X39007619Y-44736190D02*
X40007619Y-44736190D01*
X40007619Y-45117142D01*
X39960000Y-45212380D01*
X39912380Y-45260000D01*
X39817142Y-45307619D01*
X39674285Y-45307619D01*
X39579047Y-45260000D01*
X39531428Y-45212380D01*
X39483809Y-45117142D01*
X39483809Y-44736190D01*
X39531428Y-45736190D02*
X39531428Y-46069523D01*
X39007619Y-46212380D02*
X39007619Y-45736190D01*
X40007619Y-45736190D01*
X40007619Y-46212380D01*
X39055238Y-46593333D02*
X39007619Y-46736190D01*
X39007619Y-46974285D01*
X39055238Y-47069523D01*
X39102857Y-47117142D01*
X39198095Y-47164761D01*
X39293333Y-47164761D01*
X39388571Y-47117142D01*
X39436190Y-47069523D01*
X39483809Y-46974285D01*
X39531428Y-46783809D01*
X39579047Y-46688571D01*
X39626666Y-46640952D01*
X39721904Y-46593333D01*
X39817142Y-46593333D01*
X39912380Y-46640952D01*
X39960000Y-46688571D01*
X40007619Y-46783809D01*
X40007619Y-47021904D01*
X39960000Y-47164761D01*
X39531428Y-47593333D02*
X39531428Y-47926666D01*
X39007619Y-48069523D02*
X39007619Y-47593333D01*
X40007619Y-47593333D01*
X40007619Y-48069523D01*
X40007619Y-48355238D02*
X40007619Y-48926666D01*
X39007619Y-48640952D02*
X40007619Y-48640952D01*
X39571428Y-54022857D02*
X39523809Y-54165714D01*
X39476190Y-54213333D01*
X39380952Y-54260952D01*
X39238095Y-54260952D01*
X39142857Y-54213333D01*
X39095238Y-54165714D01*
X39047619Y-54070476D01*
X39047619Y-53689523D01*
X40047619Y-53689523D01*
X40047619Y-54022857D01*
X40000000Y-54118095D01*
X39952380Y-54165714D01*
X39857142Y-54213333D01*
X39761904Y-54213333D01*
X39666666Y-54165714D01*
X39619047Y-54118095D01*
X39571428Y-54022857D01*
X39571428Y-53689523D01*
X40047619Y-54880000D02*
X40047619Y-55070476D01*
X40000000Y-55165714D01*
X39904761Y-55260952D01*
X39714285Y-55308571D01*
X39380952Y-55308571D01*
X39190476Y-55260952D01*
X39095238Y-55165714D01*
X39047619Y-55070476D01*
X39047619Y-54880000D01*
X39095238Y-54784761D01*
X39190476Y-54689523D01*
X39380952Y-54641904D01*
X39714285Y-54641904D01*
X39904761Y-54689523D01*
X40000000Y-54784761D01*
X40047619Y-54880000D01*
X40047619Y-55927619D02*
X40047619Y-56118095D01*
X40000000Y-56213333D01*
X39904761Y-56308571D01*
X39714285Y-56356190D01*
X39380952Y-56356190D01*
X39190476Y-56308571D01*
X39095238Y-56213333D01*
X39047619Y-56118095D01*
X39047619Y-55927619D01*
X39095238Y-55832380D01*
X39190476Y-55737142D01*
X39380952Y-55689523D01*
X39714285Y-55689523D01*
X39904761Y-55737142D01*
X40000000Y-55832380D01*
X40047619Y-55927619D01*
X40047619Y-56641904D02*
X40047619Y-57213333D01*
X39047619Y-56927619D02*
X40047619Y-56927619D01*
X58062380Y-54400476D02*
X58062380Y-54971904D01*
X58062380Y-54686190D02*
X57062380Y-54686190D01*
X57205238Y-54781428D01*
X57300476Y-54876666D01*
X57348095Y-54971904D01*
X57062380Y-53543333D02*
X57062380Y-53733809D01*
X57110000Y-53829047D01*
X57157619Y-53876666D01*
X57300476Y-53971904D01*
X57490952Y-54019523D01*
X57871904Y-54019523D01*
X57967142Y-53971904D01*
X58014761Y-53924285D01*
X58062380Y-53829047D01*
X58062380Y-53638571D01*
X58014761Y-53543333D01*
X57967142Y-53495714D01*
X57871904Y-53448095D01*
X57633809Y-53448095D01*
X57538571Y-53495714D01*
X57490952Y-53543333D01*
X57443333Y-53638571D01*
X57443333Y-53829047D01*
X57490952Y-53924285D01*
X57538571Y-53971904D01*
X57633809Y-54019523D01*
X49532380Y-55079523D02*
X49532380Y-54460476D01*
X49913333Y-54793809D01*
X49913333Y-54650952D01*
X49960952Y-54555714D01*
X50008571Y-54508095D01*
X50103809Y-54460476D01*
X50341904Y-54460476D01*
X50437142Y-54508095D01*
X50484761Y-54555714D01*
X50532380Y-54650952D01*
X50532380Y-54936666D01*
X50484761Y-55031904D01*
X50437142Y-55079523D01*
X49865714Y-53603333D02*
X50532380Y-53603333D01*
X49484761Y-53841428D02*
X50199047Y-54079523D01*
X50199047Y-53460476D01*
X49532380Y-51379523D02*
X49532380Y-50760476D01*
X49913333Y-51093809D01*
X49913333Y-50950952D01*
X49960952Y-50855714D01*
X50008571Y-50808095D01*
X50103809Y-50760476D01*
X50341904Y-50760476D01*
X50437142Y-50808095D01*
X50484761Y-50855714D01*
X50532380Y-50950952D01*
X50532380Y-51236666D01*
X50484761Y-51331904D01*
X50437142Y-51379523D01*
X49532380Y-50427142D02*
X49532380Y-49808095D01*
X49913333Y-50141428D01*
X49913333Y-49998571D01*
X49960952Y-49903333D01*
X50008571Y-49855714D01*
X50103809Y-49808095D01*
X50341904Y-49808095D01*
X50437142Y-49855714D01*
X50484761Y-49903333D01*
X50532380Y-49998571D01*
X50532380Y-50284285D01*
X50484761Y-50379523D01*
X50437142Y-50427142D01*
X52924761Y-51820476D02*
X52972380Y-51677619D01*
X52972380Y-51439523D01*
X52924761Y-51344285D01*
X52877142Y-51296666D01*
X52781904Y-51249047D01*
X52686666Y-51249047D01*
X52591428Y-51296666D01*
X52543809Y-51344285D01*
X52496190Y-51439523D01*
X52448571Y-51630000D01*
X52400952Y-51725238D01*
X52353333Y-51772857D01*
X52258095Y-51820476D01*
X52162857Y-51820476D01*
X52067619Y-51772857D01*
X52020000Y-51725238D01*
X51972380Y-51630000D01*
X51972380Y-51391904D01*
X52020000Y-51249047D01*
X52877142Y-50249047D02*
X52924761Y-50296666D01*
X52972380Y-50439523D01*
X52972380Y-50534761D01*
X52924761Y-50677619D01*
X52829523Y-50772857D01*
X52734285Y-50820476D01*
X52543809Y-50868095D01*
X52400952Y-50868095D01*
X52210476Y-50820476D01*
X52115238Y-50772857D01*
X52020000Y-50677619D01*
X51972380Y-50534761D01*
X51972380Y-50439523D01*
X52020000Y-50296666D01*
X52067619Y-50249047D01*
X52972380Y-49344285D02*
X52972380Y-49820476D01*
X51972380Y-49820476D01*
X57062380Y-50331904D02*
X57062380Y-50808095D01*
X57538571Y-50855714D01*
X57490952Y-50808095D01*
X57443333Y-50712857D01*
X57443333Y-50474761D01*
X57490952Y-50379523D01*
X57538571Y-50331904D01*
X57633809Y-50284285D01*
X57871904Y-50284285D01*
X57967142Y-50331904D01*
X58014761Y-50379523D01*
X58062380Y-50474761D01*
X58062380Y-50712857D01*
X58014761Y-50808095D01*
X57967142Y-50855714D01*
X60552380Y-50820476D02*
X60552380Y-51391904D01*
X60552380Y-51106190D02*
X59552380Y-51106190D01*
X59695238Y-51201428D01*
X59790476Y-51296666D01*
X59838095Y-51391904D01*
X59647619Y-50439523D02*
X59600000Y-50391904D01*
X59552380Y-50296666D01*
X59552380Y-50058571D01*
X59600000Y-49963333D01*
X59647619Y-49915714D01*
X59742857Y-49868095D01*
X59838095Y-49868095D01*
X59980952Y-49915714D01*
X60552380Y-50487142D01*
X60552380Y-49868095D01*
X60622380Y-54460476D02*
X60622380Y-55031904D01*
X60622380Y-54746190D02*
X59622380Y-54746190D01*
X59765238Y-54841428D01*
X59860476Y-54936666D01*
X59908095Y-55031904D01*
X59622380Y-54127142D02*
X59622380Y-53508095D01*
X60003333Y-53841428D01*
X60003333Y-53698571D01*
X60050952Y-53603333D01*
X60098571Y-53555714D01*
X60193809Y-53508095D01*
X60431904Y-53508095D01*
X60527142Y-53555714D01*
X60574761Y-53603333D01*
X60622380Y-53698571D01*
X60622380Y-53984285D01*
X60574761Y-54079523D01*
X60527142Y-54127142D01*
X52944761Y-55604285D02*
X52992380Y-55461428D01*
X52992380Y-55223333D01*
X52944761Y-55128095D01*
X52897142Y-55080476D01*
X52801904Y-55032857D01*
X52706666Y-55032857D01*
X52611428Y-55080476D01*
X52563809Y-55128095D01*
X52516190Y-55223333D01*
X52468571Y-55413809D01*
X52420952Y-55509047D01*
X52373333Y-55556666D01*
X52278095Y-55604285D01*
X52182857Y-55604285D01*
X52087619Y-55556666D01*
X52040000Y-55509047D01*
X51992380Y-55413809D01*
X51992380Y-55175714D01*
X52040000Y-55032857D01*
X52992380Y-54604285D02*
X51992380Y-54604285D01*
X51992380Y-54366190D01*
X52040000Y-54223333D01*
X52135238Y-54128095D01*
X52230476Y-54080476D01*
X52420952Y-54032857D01*
X52563809Y-54032857D01*
X52754285Y-54080476D01*
X52849523Y-54128095D01*
X52944761Y-54223333D01*
X52992380Y-54366190D01*
X52992380Y-54604285D01*
X52706666Y-53651904D02*
X52706666Y-53175714D01*
X52992380Y-53747142D02*
X51992380Y-53413809D01*
X52992380Y-53080476D01*
X54670000Y-55091904D02*
X54622380Y-55187142D01*
X54622380Y-55330000D01*
X54670000Y-55472857D01*
X54765238Y-55568095D01*
X54860476Y-55615714D01*
X55050952Y-55663333D01*
X55193809Y-55663333D01*
X55384285Y-55615714D01*
X55479523Y-55568095D01*
X55574761Y-55472857D01*
X55622380Y-55330000D01*
X55622380Y-55234761D01*
X55574761Y-55091904D01*
X55527142Y-55044285D01*
X55193809Y-55044285D01*
X55193809Y-55234761D01*
X55622380Y-54615714D02*
X54622380Y-54615714D01*
X55622380Y-54044285D01*
X54622380Y-54044285D01*
X55622380Y-53568095D02*
X54622380Y-53568095D01*
X54622380Y-53330000D01*
X54670000Y-53187142D01*
X54765238Y-53091904D01*
X54860476Y-53044285D01*
X55050952Y-52996666D01*
X55193809Y-52996666D01*
X55384285Y-53044285D01*
X55479523Y-53091904D01*
X55574761Y-53187142D01*
X55622380Y-53330000D01*
X55622380Y-53568095D01*
X54602380Y-51878095D02*
X54602380Y-51259047D01*
X54983333Y-51592380D01*
X54983333Y-51449523D01*
X55030952Y-51354285D01*
X55078571Y-51306666D01*
X55173809Y-51259047D01*
X55411904Y-51259047D01*
X55507142Y-51306666D01*
X55554761Y-51354285D01*
X55602380Y-51449523D01*
X55602380Y-51735238D01*
X55554761Y-51830476D01*
X55507142Y-51878095D01*
X54602380Y-50973333D02*
X55602380Y-50640000D01*
X54602380Y-50306666D01*
X54602380Y-50068571D02*
X54602380Y-49449523D01*
X54983333Y-49782857D01*
X54983333Y-49640000D01*
X55030952Y-49544761D01*
X55078571Y-49497142D01*
X55173809Y-49449523D01*
X55411904Y-49449523D01*
X55507142Y-49497142D01*
X55554761Y-49544761D01*
X55602380Y-49640000D01*
X55602380Y-49925714D01*
X55554761Y-50020952D01*
X55507142Y-50068571D01*
D12*
X48720000Y-52480000D02*
X61390000Y-52480000D01*
X48720000Y-48670000D02*
X48720000Y-52480000D01*
X61400000Y-48700000D02*
X61400000Y-56320000D01*
X58860000Y-48700000D02*
X61400000Y-48700000D01*
X58860000Y-56320000D02*
X58860000Y-48700000D01*
X56320000Y-56320000D02*
X58860000Y-56320000D01*
X56320000Y-48700000D02*
X56320000Y-56320000D01*
X53780000Y-48700000D02*
X56320000Y-48700000D01*
X53780000Y-56320000D02*
X53780000Y-48700000D01*
X51240000Y-56320000D02*
X53780000Y-56320000D01*
X51240000Y-48700000D02*
X51240000Y-56320000D01*
X48700000Y-56320000D02*
X48700000Y-48700000D01*
X61400000Y-56320000D02*
X48700000Y-56320000D01*
X48700000Y-48700000D02*
X61400000Y-48700000D01*
D10*
X112840476Y-48145238D02*
X112697619Y-48097619D01*
X112459523Y-48097619D01*
X112364285Y-48145238D01*
X112316666Y-48192857D01*
X112269047Y-48288095D01*
X112269047Y-48383333D01*
X112316666Y-48478571D01*
X112364285Y-48526190D01*
X112459523Y-48573809D01*
X112650000Y-48621428D01*
X112745238Y-48669047D01*
X112792857Y-48716666D01*
X112840476Y-48811904D01*
X112840476Y-48907142D01*
X112792857Y-49002380D01*
X112745238Y-49050000D01*
X112650000Y-49097619D01*
X112411904Y-49097619D01*
X112269047Y-49050000D01*
X111983333Y-49097619D02*
X111411904Y-49097619D01*
X111697619Y-48097619D02*
X111697619Y-49097619D01*
X111078571Y-48621428D02*
X110745238Y-48621428D01*
X110602380Y-48097619D02*
X111078571Y-48097619D01*
X111078571Y-49097619D01*
X110602380Y-49097619D01*
X110173809Y-48097619D02*
X110173809Y-49097619D01*
X109840476Y-48383333D01*
X109507142Y-49097619D01*
X109507142Y-48097619D01*
X109030952Y-48097619D02*
X109030952Y-49097619D01*
X108697619Y-48383333D01*
X108364285Y-49097619D01*
X108364285Y-48097619D01*
X107935714Y-48383333D02*
X107459523Y-48383333D01*
X108030952Y-48097619D02*
X107697619Y-49097619D01*
X107364285Y-48097619D01*
X85288380Y-67757619D02*
X84288380Y-67757619D01*
X85288380Y-66805238D02*
X85288380Y-67281428D01*
X84288380Y-67281428D01*
X85288380Y-66471904D02*
X84288380Y-66471904D01*
X85288380Y-65948095D02*
X85288380Y-65757619D01*
X85240761Y-65662380D01*
X85193142Y-65614761D01*
X85050285Y-65519523D01*
X84859809Y-65471904D01*
X84478857Y-65471904D01*
X84383619Y-65519523D01*
X84336000Y-65567142D01*
X84288380Y-65662380D01*
X84288380Y-65852857D01*
X84336000Y-65948095D01*
X84383619Y-65995714D01*
X84478857Y-66043333D01*
X84716952Y-66043333D01*
X84812190Y-65995714D01*
X84859809Y-65948095D01*
X84907428Y-65852857D01*
X84907428Y-65662380D01*
X84859809Y-65567142D01*
X84812190Y-65519523D01*
X84716952Y-65471904D01*
X84621714Y-64614761D02*
X85288380Y-64614761D01*
X84240761Y-64852857D02*
X84955047Y-65090952D01*
X84955047Y-64471904D01*
X84716952Y-63948095D02*
X84669333Y-64043333D01*
X84621714Y-64090952D01*
X84526476Y-64138571D01*
X84478857Y-64138571D01*
X84383619Y-64090952D01*
X84336000Y-64043333D01*
X84288380Y-63948095D01*
X84288380Y-63757619D01*
X84336000Y-63662380D01*
X84383619Y-63614761D01*
X84478857Y-63567142D01*
X84526476Y-63567142D01*
X84621714Y-63614761D01*
X84669333Y-63662380D01*
X84716952Y-63757619D01*
X84716952Y-63948095D01*
X84764571Y-64043333D01*
X84812190Y-64090952D01*
X84907428Y-64138571D01*
X85097904Y-64138571D01*
X85193142Y-64090952D01*
X85240761Y-64043333D01*
X85288380Y-63948095D01*
X85288380Y-63757619D01*
X85240761Y-63662380D01*
X85193142Y-63614761D01*
X85097904Y-63567142D01*
X84907428Y-63567142D01*
X84812190Y-63614761D01*
X84764571Y-63662380D01*
X84716952Y-63757619D01*
X84716952Y-62995714D02*
X84669333Y-63090952D01*
X84621714Y-63138571D01*
X84526476Y-63186190D01*
X84478857Y-63186190D01*
X84383619Y-63138571D01*
X84336000Y-63090952D01*
X84288380Y-62995714D01*
X84288380Y-62805238D01*
X84336000Y-62710000D01*
X84383619Y-62662380D01*
X84478857Y-62614761D01*
X84526476Y-62614761D01*
X84621714Y-62662380D01*
X84669333Y-62710000D01*
X84716952Y-62805238D01*
X84716952Y-62995714D01*
X84764571Y-63090952D01*
X84812190Y-63138571D01*
X84907428Y-63186190D01*
X85097904Y-63186190D01*
X85193142Y-63138571D01*
X85240761Y-63090952D01*
X85288380Y-62995714D01*
X85288380Y-62805238D01*
X85240761Y-62710000D01*
X85193142Y-62662380D01*
X85097904Y-62614761D01*
X84907428Y-62614761D01*
X84812190Y-62662380D01*
X84764571Y-62710000D01*
X84716952Y-62805238D01*
D12*
%TO.C,J3*%
X106395000Y-91530000D02*
X106395000Y-90680000D01*
X114565000Y-91530000D02*
X106395000Y-91530000D01*
X114565000Y-90680000D02*
X114565000Y-91530000D01*
X106395000Y-86310000D02*
X108720000Y-86310000D01*
X106395000Y-87160000D02*
X106395000Y-86310000D01*
X112240000Y-86310000D02*
X112240000Y-83920000D01*
X114565000Y-86310000D02*
X112240000Y-86310000D01*
X114565000Y-87160000D02*
X114565000Y-86310000D01*
%TO.C,U6*%
X128690000Y-80530000D02*
X131140000Y-80530000D01*
X130490000Y-77310000D02*
X128690000Y-77310000D01*
%TO.C,F1*%
X129291422Y-85070000D02*
X129808578Y-85070000D01*
X129291422Y-83650000D02*
X129808578Y-83650000D01*
%TO.C,C10*%
X119592779Y-78400000D02*
X119267221Y-78400000D01*
X119592779Y-79420000D02*
X119267221Y-79420000D01*
%TO.C,C3*%
X129387221Y-86710000D02*
X129712779Y-86710000D01*
X129387221Y-85690000D02*
X129712779Y-85690000D01*
%TO.C,FPC1*%
X87500000Y-75670000D02*
X87500000Y-77160000D01*
X87500000Y-77160000D02*
X88840000Y-77160000D01*
X87500000Y-55350000D02*
X87500000Y-53860000D01*
X87500000Y-53860000D02*
X88840000Y-53860000D01*
X91560000Y-77160000D02*
X93300000Y-77160000D01*
X93300000Y-77160000D02*
X93300000Y-53860000D01*
X93300000Y-53860000D02*
X91560000Y-53860000D01*
X87500000Y-75670000D02*
X86300000Y-75670000D01*
%TO.C,SW3*%
X126350000Y-93520000D02*
X126350000Y-90920000D01*
X119850000Y-93520000D02*
X119850000Y-90920000D01*
X119850000Y-90920000D02*
X126350000Y-90920000D01*
X126350000Y-93520000D02*
X119850000Y-93520000D01*
%TO.C,LS1*%
X82400000Y-43700000D02*
X82400000Y-37700000D01*
X66400000Y-43700000D02*
X66400000Y-37700000D01*
X82400000Y-53700000D02*
X66400000Y-53700000D01*
X82400000Y-47700000D02*
X82400000Y-53700000D01*
X66400000Y-37700000D02*
X82400000Y-37700000D01*
X66400000Y-47700000D02*
X66400000Y-53700000D01*
%TO.C,SW1*%
X43100000Y-53600000D02*
X43100000Y-57400000D01*
X40700000Y-57400000D02*
X40700000Y-53600000D01*
X42621110Y-55500000D02*
G75*
G03*
X42621110Y-55500000I-721110J0D01*
G01*
%TO.C,SW2*%
X40730000Y-48675000D02*
X40730000Y-44875000D01*
X43130000Y-44875000D02*
X43130000Y-48675000D01*
X42651110Y-46775000D02*
G75*
G03*
X42651110Y-46775000I-721110J0D01*
G01*
%TO.C,J1*%
X137600000Y-82110000D02*
X137600000Y-74900000D01*
X133300000Y-82150000D02*
X133300000Y-80190000D01*
X133340000Y-82160000D02*
X135030000Y-82160000D01*
X133300000Y-74840000D02*
X134990000Y-74840000D01*
X133300000Y-76800000D02*
X133300000Y-74840000D01*
%TO.C,J2*%
X58200000Y-40600000D02*
X59220000Y-40600000D01*
X58200000Y-45800000D02*
X59220000Y-45800000D01*
X55660000Y-40600000D02*
X56680000Y-40600000D01*
X55660000Y-45800000D02*
X56680000Y-45800000D01*
X53120000Y-40600000D02*
X54140000Y-40600000D01*
X53120000Y-45800000D02*
X54140000Y-45800000D01*
X50580000Y-40600000D02*
X51600000Y-40600000D01*
X50580000Y-45800000D02*
X51600000Y-45800000D01*
X60740000Y-40600000D02*
X61310000Y-40600000D01*
X60740000Y-45800000D02*
X61310000Y-45800000D01*
X48490000Y-40600000D02*
X49060000Y-40600000D01*
X48490000Y-45800000D02*
X49060000Y-45800000D01*
X49060000Y-47240000D02*
X49060000Y-45800000D01*
X61310000Y-45800000D02*
X61310000Y-40600000D01*
X48490000Y-45800000D02*
X48490000Y-40600000D01*
%TO.C,U4*%
X44555000Y-83120000D02*
X44555000Y-83500000D01*
X38135000Y-83120000D02*
X44555000Y-83120000D01*
X38135000Y-64880000D02*
X44555000Y-64880000D01*
X38135000Y-83120000D02*
X38135000Y-64880000D01*
X63880000Y-64880000D02*
X63880000Y-65880000D01*
X63100000Y-64880000D02*
X63880000Y-64880000D01*
X63880000Y-83120000D02*
X63880000Y-82120000D01*
X63100000Y-83120000D02*
X63880000Y-83120000D01*
%TO.C,C1*%
X128580000Y-73032779D02*
X128580000Y-72707221D01*
X127560000Y-73032779D02*
X127560000Y-72707221D01*
%TO.C,C2*%
X74862779Y-63510000D02*
X74537221Y-63510000D01*
X74862779Y-62490000D02*
X74537221Y-62490000D01*
%TO.C,C4*%
X119330000Y-82745000D02*
X115420000Y-82745000D01*
X115420000Y-82745000D02*
X115420000Y-84615000D01*
X115420000Y-84615000D02*
X119330000Y-84615000D01*
%TO.C,C5*%
X112200000Y-74635000D02*
X108290000Y-74635000D01*
X112200000Y-76505000D02*
X112200000Y-74635000D01*
X108290000Y-76505000D02*
X112200000Y-76505000D01*
%TO.C,C6*%
X46582779Y-84470000D02*
X46257221Y-84470000D01*
X46582779Y-85490000D02*
X46257221Y-85490000D01*
%TO.C,C7*%
X110122779Y-73000000D02*
X109797221Y-73000000D01*
X110122779Y-74020000D02*
X109797221Y-74020000D01*
%TO.C,C8*%
X49737221Y-88910000D02*
X50062779Y-88910000D01*
X49737221Y-87890000D02*
X50062779Y-87890000D01*
%TO.C,C9*%
X109962779Y-82430000D02*
X109637221Y-82430000D01*
X109962779Y-81410000D02*
X109637221Y-81410000D01*
%TO.C,D1*%
X120450000Y-79980000D02*
X125850000Y-79980000D01*
X120450000Y-83280000D02*
X125850000Y-83280000D01*
X120450000Y-79980000D02*
X120450000Y-83280000D01*
%TO.C,D2*%
X109185000Y-93695000D02*
X111470000Y-93695000D01*
X109185000Y-92225000D02*
X109185000Y-93695000D01*
X111470000Y-92225000D02*
X109185000Y-92225000D01*
%TO.C,FPC2*%
X109880000Y-59730000D02*
X108680000Y-59730000D01*
X115680000Y-54920000D02*
X113940000Y-54920000D01*
X115680000Y-61220000D02*
X115680000Y-54920000D01*
X113940000Y-61220000D02*
X115680000Y-61220000D01*
X109880000Y-54920000D02*
X111220000Y-54920000D01*
X109880000Y-56410000D02*
X109880000Y-54920000D01*
X109880000Y-61220000D02*
X111220000Y-61220000D01*
X109880000Y-59730000D02*
X109880000Y-61220000D01*
%TO.C,Q1*%
X99840000Y-79820000D02*
X99840000Y-80750000D01*
X99840000Y-82980000D02*
X99840000Y-82050000D01*
X99840000Y-82980000D02*
X102000000Y-82980000D01*
X99840000Y-79820000D02*
X101300000Y-79820000D01*
%TO.C,Q2*%
X96040000Y-79820000D02*
X97500000Y-79820000D01*
X96040000Y-82980000D02*
X98200000Y-82980000D01*
X96040000Y-82980000D02*
X96040000Y-82050000D01*
X96040000Y-79820000D02*
X96040000Y-80750000D01*
%TO.C,Q3*%
X116770000Y-85240000D02*
X118230000Y-85240000D01*
X116770000Y-88400000D02*
X118930000Y-88400000D01*
X116770000Y-88400000D02*
X116770000Y-87470000D01*
X116770000Y-85240000D02*
X116770000Y-86170000D01*
%TO.C,R1*%
X125860000Y-72707221D02*
X125860000Y-73032779D01*
X126880000Y-72707221D02*
X126880000Y-73032779D01*
%TO.C,R2*%
X129270000Y-73042779D02*
X129270000Y-72717221D01*
X130290000Y-73042779D02*
X130290000Y-72717221D01*
%TO.C,R3*%
X115007221Y-72100000D02*
X115332779Y-72100000D01*
X115007221Y-73120000D02*
X115332779Y-73120000D01*
%TO.C,R4*%
X115007221Y-74820000D02*
X115332779Y-74820000D01*
X115007221Y-73800000D02*
X115332779Y-73800000D01*
%TO.C,R5*%
X96824721Y-79110000D02*
X97150279Y-79110000D01*
X96824721Y-78090000D02*
X97150279Y-78090000D01*
%TO.C,R6*%
X100637221Y-78090000D02*
X100962779Y-78090000D01*
X100637221Y-79110000D02*
X100962779Y-79110000D01*
%TO.C,R7*%
X61377221Y-84710000D02*
X61702779Y-84710000D01*
X61377221Y-85730000D02*
X61702779Y-85730000D01*
%TO.C,R8*%
X48137221Y-87210000D02*
X48462779Y-87210000D01*
X48137221Y-86190000D02*
X48462779Y-86190000D01*
%TO.C,R9*%
X124740000Y-85987221D02*
X124740000Y-86312779D01*
X125760000Y-85987221D02*
X125760000Y-86312779D01*
%TO.C,R10*%
X62810000Y-62037221D02*
X62810000Y-62362779D01*
X61790000Y-62037221D02*
X61790000Y-62362779D01*
%TO.C,R11*%
X56690000Y-62037221D02*
X56690000Y-62362779D01*
X57710000Y-62037221D02*
X57710000Y-62362779D01*
%TO.C,R12*%
X66920000Y-67397221D02*
X66920000Y-67722779D01*
X65900000Y-67397221D02*
X65900000Y-67722779D01*
%TO.C,R13*%
X102660000Y-90412779D02*
X102660000Y-90087221D01*
X101640000Y-90412779D02*
X101640000Y-90087221D01*
%TO.C,R14*%
X57062779Y-87890000D02*
X56737221Y-87890000D01*
X57062779Y-88910000D02*
X56737221Y-88910000D01*
%TO.C,R15*%
X53562779Y-88910000D02*
X53237221Y-88910000D01*
X53562779Y-87890000D02*
X53237221Y-87890000D01*
%TO.C,Rprog1*%
X107380000Y-78847221D02*
X107380000Y-79172779D01*
X106360000Y-78847221D02*
X106360000Y-79172779D01*
%TO.C,U1*%
X118160000Y-75615000D02*
X118160000Y-76340000D01*
X123380000Y-71120000D02*
X122655000Y-71120000D01*
X123380000Y-71845000D02*
X123380000Y-71120000D01*
X123380000Y-76340000D02*
X122655000Y-76340000D01*
X123380000Y-75615000D02*
X123380000Y-76340000D01*
X118160000Y-71120000D02*
X118885000Y-71120000D01*
X118160000Y-71845000D02*
X118160000Y-71120000D01*
%TO.C,U2*%
X72600000Y-56165000D02*
X69000000Y-56165000D01*
X72600000Y-56165000D02*
X74800000Y-56165000D01*
X72600000Y-61635000D02*
X70400000Y-61635000D01*
X72600000Y-61635000D02*
X74800000Y-61635000D01*
%TO.C,U3*%
X116270000Y-80970000D02*
X116270000Y-79170000D01*
X113050000Y-79170000D02*
X113050000Y-81620000D01*
%TO.C,U5*%
X108130000Y-78030000D02*
X108130000Y-80480000D01*
X111350000Y-79830000D02*
X111350000Y-78030000D01*
%TO.C,R16*%
X109887221Y-50850000D02*
X110212779Y-50850000D01*
X109887221Y-49830000D02*
X110212779Y-49830000D01*
%TO.C,R17*%
X109907221Y-51360000D02*
X110232779Y-51360000D01*
X109907221Y-52380000D02*
X110232779Y-52380000D01*
%TO.C,J4*%
X114540000Y-37690000D02*
X105860000Y-37690000D01*
X105160000Y-43910000D02*
X106440000Y-43910000D01*
X105160000Y-45510000D02*
X105160000Y-43910000D01*
X104140000Y-45510000D02*
X105160000Y-45510000D01*
X104140000Y-41260000D02*
X104140000Y-45510000D01*
X113960000Y-43910000D02*
X113960000Y-46800000D01*
X115240000Y-43910000D02*
X113960000Y-43910000D01*
X115240000Y-45510000D02*
X115240000Y-43910000D01*
X116260000Y-45510000D02*
X115240000Y-45510000D01*
X116260000Y-41260000D02*
X116260000Y-45510000D01*
%TO.C,TP1*%
X130300000Y-89190000D02*
G75*
G03*
X130300000Y-89190000I-700000J0D01*
G01*
%TO.C,TP2*%
X105250000Y-48700000D02*
G75*
G03*
X105250000Y-48700000I-700000J0D01*
G01*
%TO.C,TP3*%
X105300000Y-83550000D02*
G75*
G03*
X105300000Y-83550000I-700000J0D01*
G01*
%TO.C,SD1*%
X84775001Y-93750000D02*
X84775001Y-89250000D01*
X70275001Y-93750000D02*
X84775001Y-93750000D01*
X70275001Y-91750000D02*
X70275001Y-93750000D01*
X83775001Y-81750000D02*
X83775001Y-80250000D01*
X84775001Y-81750000D02*
X83775001Y-81750000D01*
X84775001Y-81750000D02*
X84775001Y-89250000D01*
X80525001Y-80250000D02*
X83775001Y-80250000D01*
X70275001Y-81750000D02*
X70275001Y-89250000D01*
%TD*%
M02*
