%TF.GenerationSoftware,KiCad,Pcbnew,(5.1.6-0)*%
%TF.CreationDate,2020-10-12T19:17:27+02:00*%
%TF.ProjectId,ESP32_TFT,45535033-325f-4544-9654-2e6b69636164,rev?*%
%TF.SameCoordinates,Original*%
%TF.FileFunction,Soldermask,Top*%
%TF.FilePolarity,Negative*%
%FSLAX46Y46*%
G04 Gerber Fmt 4.6, Leading zero omitted, Abs format (unit mm)*
G04 Created by KiCad (PCBNEW (5.1.6-0)) date 2020-10-12 19:17:27*
%MOMM*%
%LPD*%
G01*
G04 APERTURE LIST*
%ADD10C,0.900000*%
%ADD11C,5.100000*%
%ADD12R,1.160000X0.750000*%
%ADD13R,2.300000X1.900000*%
%ADD14R,1.400000X0.400000*%
%ADD15R,1.000000X1.400000*%
%ADD16R,0.900000X1.000000*%
%ADD17C,1.000000*%
%ADD18R,3.100000X3.100000*%
%ADD19R,2.100000X1.150000*%
%ADD20R,1.450000X0.500000*%
%ADD21R,2.000000X2.000000*%
%ADD22C,0.650000*%
%ADD23R,1.100000X3.250000*%
%ADD24R,5.100000X5.100000*%
%ADD25R,1.000000X2.100000*%
%ADD26R,2.100000X1.000000*%
%ADD27R,2.600000X1.900000*%
%ADD28R,1.000000X0.900000*%
%ADD29R,3.450000X3.450000*%
%ADD30R,0.750000X1.160000*%
%ADD31C,1.100000*%
%ADD32R,0.800000X1.400000*%
%ADD33R,1.300000X1.500000*%
%ADD34R,1.300000X2.100000*%
G04 APERTURE END LIST*
D10*
%TO.C,H1*%
X42825825Y-38674175D03*
X41500000Y-38125000D03*
X40174175Y-38674175D03*
X39625000Y-40000000D03*
X40174175Y-41325825D03*
X41500000Y-41875000D03*
X42825825Y-41325825D03*
X43375000Y-40000000D03*
D11*
X41500000Y-40000000D03*
%TD*%
D10*
%TO.C,H2*%
X42825825Y-89674175D03*
X41500000Y-89125000D03*
X40174175Y-89674175D03*
X39625000Y-91000000D03*
X40174175Y-92325825D03*
X41500000Y-92875000D03*
X42825825Y-92325825D03*
X43375000Y-91000000D03*
D11*
X41500000Y-91000000D03*
%TD*%
D10*
%TO.C,H3*%
X136825825Y-38674175D03*
X135500000Y-38125000D03*
X134174175Y-38674175D03*
X133625000Y-40000000D03*
X134174175Y-41325825D03*
X135500000Y-41875000D03*
X136825825Y-41325825D03*
X137375000Y-40000000D03*
D11*
X135500000Y-40000000D03*
%TD*%
D10*
%TO.C,H4*%
X136825825Y-89674175D03*
X135500000Y-89125000D03*
X134174175Y-89674175D03*
X133625000Y-91000000D03*
X134174175Y-92325825D03*
X135500000Y-92875000D03*
X136825825Y-92325825D03*
X137375000Y-91000000D03*
D11*
X135500000Y-91000000D03*
%TD*%
%TO.C,J3*%
G36*
G01*
X112030000Y-84145000D02*
X112030000Y-89195000D01*
G75*
G02*
X111755000Y-89470000I-275000J0D01*
G01*
X111205000Y-89470000D01*
G75*
G02*
X110930000Y-89195000I0J275000D01*
G01*
X110930000Y-84145000D01*
G75*
G02*
X111205000Y-83870000I275000J0D01*
G01*
X111755000Y-83870000D01*
G75*
G02*
X112030000Y-84145000I0J-275000D01*
G01*
G37*
G36*
G01*
X110030000Y-84145001D02*
X110030000Y-89194999D01*
G75*
G02*
X109755000Y-89469999I-275000J0D01*
G01*
X109205000Y-89469999D01*
G75*
G02*
X108930000Y-89194999I0J275000D01*
G01*
X108930000Y-84145001D01*
G75*
G02*
X109205000Y-83870001I275000J0D01*
G01*
X109755000Y-83870001D01*
G75*
G02*
X110030000Y-84145001I0J-275000D01*
G01*
G37*
G36*
G01*
X114730000Y-87635625D02*
X114730000Y-90204375D01*
G75*
G02*
X114464375Y-90470000I-265625J0D01*
G01*
X113295625Y-90470000D01*
G75*
G02*
X113030000Y-90204375I0J265625D01*
G01*
X113030000Y-87635625D01*
G75*
G02*
X113295625Y-87370000I265625J0D01*
G01*
X114464375Y-87370000D01*
G75*
G02*
X114730000Y-87635625I0J-265625D01*
G01*
G37*
G36*
G01*
X107930000Y-87635625D02*
X107930000Y-90204375D01*
G75*
G02*
X107664375Y-90470000I-265625J0D01*
G01*
X106495625Y-90470000D01*
G75*
G02*
X106230000Y-90204375I0J265625D01*
G01*
X106230000Y-87635625D01*
G75*
G02*
X106495625Y-87370000I265625J0D01*
G01*
X107664375Y-87370000D01*
G75*
G02*
X107930000Y-87635625I0J-265625D01*
G01*
G37*
%TD*%
D12*
%TO.C,U6*%
X128490000Y-78920000D03*
X128490000Y-79870000D03*
X128490000Y-77970000D03*
X130690000Y-77970000D03*
X130690000Y-78920000D03*
X130690000Y-79870000D03*
%TD*%
%TO.C,F1*%
G36*
G01*
X129950000Y-84841250D02*
X129950000Y-83878750D01*
G75*
G02*
X130218750Y-83610000I268750J0D01*
G01*
X130756250Y-83610000D01*
G75*
G02*
X131025000Y-83878750I0J-268750D01*
G01*
X131025000Y-84841250D01*
G75*
G02*
X130756250Y-85110000I-268750J0D01*
G01*
X130218750Y-85110000D01*
G75*
G02*
X129950000Y-84841250I0J268750D01*
G01*
G37*
G36*
G01*
X128075000Y-84841250D02*
X128075000Y-83878750D01*
G75*
G02*
X128343750Y-83610000I268750J0D01*
G01*
X128881250Y-83610000D01*
G75*
G02*
X129150000Y-83878750I0J-268750D01*
G01*
X129150000Y-84841250D01*
G75*
G02*
X128881250Y-85110000I-268750J0D01*
G01*
X128343750Y-85110000D01*
G75*
G02*
X128075000Y-84841250I0J268750D01*
G01*
G37*
%TD*%
%TO.C,C10*%
G36*
G01*
X119130000Y-78628750D02*
X119130000Y-79191250D01*
G75*
G02*
X118886250Y-79435000I-243750J0D01*
G01*
X118398750Y-79435000D01*
G75*
G02*
X118155000Y-79191250I0J243750D01*
G01*
X118155000Y-78628750D01*
G75*
G02*
X118398750Y-78385000I243750J0D01*
G01*
X118886250Y-78385000D01*
G75*
G02*
X119130000Y-78628750I0J-243750D01*
G01*
G37*
G36*
G01*
X120705000Y-78628750D02*
X120705000Y-79191250D01*
G75*
G02*
X120461250Y-79435000I-243750J0D01*
G01*
X119973750Y-79435000D01*
G75*
G02*
X119730000Y-79191250I0J243750D01*
G01*
X119730000Y-78628750D01*
G75*
G02*
X119973750Y-78385000I243750J0D01*
G01*
X120461250Y-78385000D01*
G75*
G02*
X120705000Y-78628750I0J-243750D01*
G01*
G37*
%TD*%
%TO.C,C3*%
G36*
G01*
X129850000Y-86481250D02*
X129850000Y-85918750D01*
G75*
G02*
X130093750Y-85675000I243750J0D01*
G01*
X130581250Y-85675000D01*
G75*
G02*
X130825000Y-85918750I0J-243750D01*
G01*
X130825000Y-86481250D01*
G75*
G02*
X130581250Y-86725000I-243750J0D01*
G01*
X130093750Y-86725000D01*
G75*
G02*
X129850000Y-86481250I0J243750D01*
G01*
G37*
G36*
G01*
X128275000Y-86481250D02*
X128275000Y-85918750D01*
G75*
G02*
X128518750Y-85675000I243750J0D01*
G01*
X129006250Y-85675000D01*
G75*
G02*
X129250000Y-85918750I0J-243750D01*
G01*
X129250000Y-86481250D01*
G75*
G02*
X129006250Y-86725000I-243750J0D01*
G01*
X128518750Y-86725000D01*
G75*
G02*
X128275000Y-86481250I0J243750D01*
G01*
G37*
%TD*%
D13*
%TO.C,FPC1*%
X90200000Y-53860000D03*
X90200000Y-77160000D03*
D14*
X86950000Y-75260000D03*
X86950000Y-74760000D03*
X86950000Y-74260000D03*
X86950000Y-73760000D03*
X86950000Y-73260000D03*
X86950000Y-72760000D03*
X86950000Y-72260000D03*
X86950000Y-71760000D03*
X86950000Y-71260000D03*
X86950000Y-70760000D03*
X86950000Y-70260000D03*
X86950000Y-69760000D03*
X86950000Y-69260000D03*
X86950000Y-68760000D03*
X86950000Y-68260000D03*
X86950000Y-67760000D03*
X86950000Y-67260000D03*
X86950000Y-66760000D03*
X86950000Y-66260000D03*
X86950000Y-65760000D03*
X86950000Y-65260000D03*
X86950000Y-64760000D03*
X86950000Y-64260000D03*
X86950000Y-63760000D03*
X86950000Y-63260000D03*
X86950000Y-62760000D03*
X86950000Y-62260000D03*
X86950000Y-61760000D03*
X86950000Y-61260000D03*
X86950000Y-60760000D03*
X86950000Y-60260000D03*
X86950000Y-59760000D03*
X86950000Y-59260000D03*
X86950000Y-58760000D03*
X86950000Y-58260000D03*
X86950000Y-57760000D03*
X86950000Y-57260000D03*
X86950000Y-56760000D03*
X86950000Y-56260000D03*
X86950000Y-55760000D03*
%TD*%
D15*
%TO.C,SW3*%
X125350000Y-90020000D03*
X123850000Y-90020000D03*
X120850000Y-90020000D03*
D16*
X126900000Y-93220000D03*
X126900000Y-91020000D03*
X119300000Y-93220000D03*
X119300000Y-91020000D03*
D17*
X124600000Y-92120000D03*
X121600000Y-92120000D03*
%TD*%
D18*
%TO.C,LS1*%
X82900000Y-45700000D03*
X65900000Y-45700000D03*
%TD*%
D19*
%TO.C,SW1*%
X41900000Y-53275000D03*
X41900000Y-57725000D03*
%TD*%
%TO.C,SW2*%
X41930000Y-49000000D03*
X41930000Y-44550000D03*
%TD*%
D20*
%TO.C,J1*%
X133475000Y-79800000D03*
X133475000Y-79150000D03*
X133475000Y-78500000D03*
X133475000Y-77850000D03*
X133475000Y-77200000D03*
D21*
X136150000Y-74550000D03*
X136150000Y-82450000D03*
X136150000Y-77300000D03*
X136150000Y-79700000D03*
D22*
X134000000Y-76350000D03*
X134000000Y-80650000D03*
%TD*%
D23*
%TO.C,J2*%
X49820000Y-45725000D03*
X49820000Y-40675000D03*
X52360000Y-45725000D03*
X52360000Y-40675000D03*
X54900000Y-45725000D03*
X54900000Y-40675000D03*
X57440000Y-45725000D03*
X57440000Y-40675000D03*
X59980000Y-45725000D03*
X59980000Y-40675000D03*
%TD*%
D24*
%TO.C,U4*%
X53245000Y-75000000D03*
D25*
X45745000Y-82500000D03*
X47015000Y-82500000D03*
X48285000Y-82500000D03*
X49555000Y-82500000D03*
X50825000Y-82500000D03*
X52095000Y-82500000D03*
X53365000Y-82500000D03*
X54635000Y-82500000D03*
X55905000Y-82500000D03*
X57175000Y-82500000D03*
X58445000Y-82500000D03*
X59715000Y-82500000D03*
X60985000Y-82500000D03*
X62255000Y-82500000D03*
D26*
X63255000Y-79715000D03*
X63255000Y-78445000D03*
X63255000Y-77175000D03*
X63255000Y-75905000D03*
X63255000Y-74635000D03*
X63255000Y-73365000D03*
X63255000Y-72095000D03*
X63255000Y-70825000D03*
X63255000Y-69555000D03*
X63255000Y-68285000D03*
D25*
X62255000Y-65500000D03*
X60985000Y-65500000D03*
X59715000Y-65500000D03*
X58445000Y-65500000D03*
X57175000Y-65500000D03*
X55905000Y-65500000D03*
X54635000Y-65500000D03*
X53365000Y-65500000D03*
X52095000Y-65500000D03*
X50825000Y-65500000D03*
X49555000Y-65500000D03*
X48285000Y-65500000D03*
X47015000Y-65500000D03*
X45745000Y-65500000D03*
%TD*%
%TO.C,C1*%
G36*
G01*
X128351250Y-74145000D02*
X127788750Y-74145000D01*
G75*
G02*
X127545000Y-73901250I0J243750D01*
G01*
X127545000Y-73413750D01*
G75*
G02*
X127788750Y-73170000I243750J0D01*
G01*
X128351250Y-73170000D01*
G75*
G02*
X128595000Y-73413750I0J-243750D01*
G01*
X128595000Y-73901250D01*
G75*
G02*
X128351250Y-74145000I-243750J0D01*
G01*
G37*
G36*
G01*
X128351250Y-72570000D02*
X127788750Y-72570000D01*
G75*
G02*
X127545000Y-72326250I0J243750D01*
G01*
X127545000Y-71838750D01*
G75*
G02*
X127788750Y-71595000I243750J0D01*
G01*
X128351250Y-71595000D01*
G75*
G02*
X128595000Y-71838750I0J-243750D01*
G01*
X128595000Y-72326250D01*
G75*
G02*
X128351250Y-72570000I-243750J0D01*
G01*
G37*
%TD*%
%TO.C,C2*%
G36*
G01*
X74400000Y-62718750D02*
X74400000Y-63281250D01*
G75*
G02*
X74156250Y-63525000I-243750J0D01*
G01*
X73668750Y-63525000D01*
G75*
G02*
X73425000Y-63281250I0J243750D01*
G01*
X73425000Y-62718750D01*
G75*
G02*
X73668750Y-62475000I243750J0D01*
G01*
X74156250Y-62475000D01*
G75*
G02*
X74400000Y-62718750I0J-243750D01*
G01*
G37*
G36*
G01*
X75975000Y-62718750D02*
X75975000Y-63281250D01*
G75*
G02*
X75731250Y-63525000I-243750J0D01*
G01*
X75243750Y-63525000D01*
G75*
G02*
X75000000Y-63281250I0J243750D01*
G01*
X75000000Y-62718750D01*
G75*
G02*
X75243750Y-62475000I243750J0D01*
G01*
X75731250Y-62475000D01*
G75*
G02*
X75975000Y-62718750I0J-243750D01*
G01*
G37*
%TD*%
%TO.C,C4*%
G36*
G01*
X118330000Y-84136482D02*
X118330000Y-83223518D01*
G75*
G02*
X118598518Y-82955000I268518J0D01*
G01*
X119561482Y-82955000D01*
G75*
G02*
X119830000Y-83223518I0J-268518D01*
G01*
X119830000Y-84136482D01*
G75*
G02*
X119561482Y-84405000I-268518J0D01*
G01*
X118598518Y-84405000D01*
G75*
G02*
X118330000Y-84136482I0J268518D01*
G01*
G37*
G36*
G01*
X115630000Y-84136482D02*
X115630000Y-83223518D01*
G75*
G02*
X115898518Y-82955000I268518J0D01*
G01*
X116861482Y-82955000D01*
G75*
G02*
X117130000Y-83223518I0J-268518D01*
G01*
X117130000Y-84136482D01*
G75*
G02*
X116861482Y-84405000I-268518J0D01*
G01*
X115898518Y-84405000D01*
G75*
G02*
X115630000Y-84136482I0J268518D01*
G01*
G37*
%TD*%
%TO.C,C5*%
G36*
G01*
X111990000Y-75113518D02*
X111990000Y-76026482D01*
G75*
G02*
X111721482Y-76295000I-268518J0D01*
G01*
X110758518Y-76295000D01*
G75*
G02*
X110490000Y-76026482I0J268518D01*
G01*
X110490000Y-75113518D01*
G75*
G02*
X110758518Y-74845000I268518J0D01*
G01*
X111721482Y-74845000D01*
G75*
G02*
X111990000Y-75113518I0J-268518D01*
G01*
G37*
G36*
G01*
X109290000Y-75113518D02*
X109290000Y-76026482D01*
G75*
G02*
X109021482Y-76295000I-268518J0D01*
G01*
X108058518Y-76295000D01*
G75*
G02*
X107790000Y-76026482I0J268518D01*
G01*
X107790000Y-75113518D01*
G75*
G02*
X108058518Y-74845000I268518J0D01*
G01*
X109021482Y-74845000D01*
G75*
G02*
X109290000Y-75113518I0J-268518D01*
G01*
G37*
%TD*%
%TO.C,C6*%
G36*
G01*
X47695000Y-84698750D02*
X47695000Y-85261250D01*
G75*
G02*
X47451250Y-85505000I-243750J0D01*
G01*
X46963750Y-85505000D01*
G75*
G02*
X46720000Y-85261250I0J243750D01*
G01*
X46720000Y-84698750D01*
G75*
G02*
X46963750Y-84455000I243750J0D01*
G01*
X47451250Y-84455000D01*
G75*
G02*
X47695000Y-84698750I0J-243750D01*
G01*
G37*
G36*
G01*
X46120000Y-84698750D02*
X46120000Y-85261250D01*
G75*
G02*
X45876250Y-85505000I-243750J0D01*
G01*
X45388750Y-85505000D01*
G75*
G02*
X45145000Y-85261250I0J243750D01*
G01*
X45145000Y-84698750D01*
G75*
G02*
X45388750Y-84455000I243750J0D01*
G01*
X45876250Y-84455000D01*
G75*
G02*
X46120000Y-84698750I0J-243750D01*
G01*
G37*
%TD*%
%TO.C,C7*%
G36*
G01*
X111235000Y-73228750D02*
X111235000Y-73791250D01*
G75*
G02*
X110991250Y-74035000I-243750J0D01*
G01*
X110503750Y-74035000D01*
G75*
G02*
X110260000Y-73791250I0J243750D01*
G01*
X110260000Y-73228750D01*
G75*
G02*
X110503750Y-72985000I243750J0D01*
G01*
X110991250Y-72985000D01*
G75*
G02*
X111235000Y-73228750I0J-243750D01*
G01*
G37*
G36*
G01*
X109660000Y-73228750D02*
X109660000Y-73791250D01*
G75*
G02*
X109416250Y-74035000I-243750J0D01*
G01*
X108928750Y-74035000D01*
G75*
G02*
X108685000Y-73791250I0J243750D01*
G01*
X108685000Y-73228750D01*
G75*
G02*
X108928750Y-72985000I243750J0D01*
G01*
X109416250Y-72985000D01*
G75*
G02*
X109660000Y-73228750I0J-243750D01*
G01*
G37*
%TD*%
%TO.C,C8*%
G36*
G01*
X48625000Y-88681250D02*
X48625000Y-88118750D01*
G75*
G02*
X48868750Y-87875000I243750J0D01*
G01*
X49356250Y-87875000D01*
G75*
G02*
X49600000Y-88118750I0J-243750D01*
G01*
X49600000Y-88681250D01*
G75*
G02*
X49356250Y-88925000I-243750J0D01*
G01*
X48868750Y-88925000D01*
G75*
G02*
X48625000Y-88681250I0J243750D01*
G01*
G37*
G36*
G01*
X50200000Y-88681250D02*
X50200000Y-88118750D01*
G75*
G02*
X50443750Y-87875000I243750J0D01*
G01*
X50931250Y-87875000D01*
G75*
G02*
X51175000Y-88118750I0J-243750D01*
G01*
X51175000Y-88681250D01*
G75*
G02*
X50931250Y-88925000I-243750J0D01*
G01*
X50443750Y-88925000D01*
G75*
G02*
X50200000Y-88681250I0J243750D01*
G01*
G37*
%TD*%
%TO.C,C9*%
G36*
G01*
X109500000Y-81638750D02*
X109500000Y-82201250D01*
G75*
G02*
X109256250Y-82445000I-243750J0D01*
G01*
X108768750Y-82445000D01*
G75*
G02*
X108525000Y-82201250I0J243750D01*
G01*
X108525000Y-81638750D01*
G75*
G02*
X108768750Y-81395000I243750J0D01*
G01*
X109256250Y-81395000D01*
G75*
G02*
X109500000Y-81638750I0J-243750D01*
G01*
G37*
G36*
G01*
X111075000Y-81638750D02*
X111075000Y-82201250D01*
G75*
G02*
X110831250Y-82445000I-243750J0D01*
G01*
X110343750Y-82445000D01*
G75*
G02*
X110100000Y-82201250I0J243750D01*
G01*
X110100000Y-81638750D01*
G75*
G02*
X110343750Y-81395000I243750J0D01*
G01*
X110831250Y-81395000D01*
G75*
G02*
X111075000Y-81638750I0J-243750D01*
G01*
G37*
%TD*%
D27*
%TO.C,D1*%
X121850000Y-81630000D03*
X125850000Y-81630000D03*
%TD*%
%TO.C,D2*%
G36*
G01*
X109395000Y-93241250D02*
X109395000Y-92678750D01*
G75*
G02*
X109638750Y-92435000I243750J0D01*
G01*
X110126250Y-92435000D01*
G75*
G02*
X110370000Y-92678750I0J-243750D01*
G01*
X110370000Y-93241250D01*
G75*
G02*
X110126250Y-93485000I-243750J0D01*
G01*
X109638750Y-93485000D01*
G75*
G02*
X109395000Y-93241250I0J243750D01*
G01*
G37*
G36*
G01*
X110970000Y-93241250D02*
X110970000Y-92678750D01*
G75*
G02*
X111213750Y-92435000I243750J0D01*
G01*
X111701250Y-92435000D01*
G75*
G02*
X111945000Y-92678750I0J-243750D01*
G01*
X111945000Y-93241250D01*
G75*
G02*
X111701250Y-93485000I-243750J0D01*
G01*
X111213750Y-93485000D01*
G75*
G02*
X110970000Y-93241250I0J243750D01*
G01*
G37*
%TD*%
D13*
%TO.C,FPC2*%
X112580000Y-54920000D03*
X112580000Y-61220000D03*
D14*
X109330000Y-59320000D03*
X109330000Y-58820000D03*
X109330000Y-58320000D03*
X109330000Y-57820000D03*
X109330000Y-57320000D03*
X109330000Y-56820000D03*
%TD*%
D28*
%TO.C,Q1*%
X99600000Y-81400000D03*
X101600000Y-80450000D03*
X101600000Y-82350000D03*
%TD*%
%TO.C,Q2*%
X97800000Y-82350000D03*
X97800000Y-80450000D03*
X95800000Y-81400000D03*
%TD*%
%TO.C,Q3*%
X118530000Y-87770000D03*
X118530000Y-85870000D03*
X116530000Y-86820000D03*
%TD*%
%TO.C,R1*%
G36*
G01*
X126088750Y-71595000D02*
X126651250Y-71595000D01*
G75*
G02*
X126895000Y-71838750I0J-243750D01*
G01*
X126895000Y-72326250D01*
G75*
G02*
X126651250Y-72570000I-243750J0D01*
G01*
X126088750Y-72570000D01*
G75*
G02*
X125845000Y-72326250I0J243750D01*
G01*
X125845000Y-71838750D01*
G75*
G02*
X126088750Y-71595000I243750J0D01*
G01*
G37*
G36*
G01*
X126088750Y-73170000D02*
X126651250Y-73170000D01*
G75*
G02*
X126895000Y-73413750I0J-243750D01*
G01*
X126895000Y-73901250D01*
G75*
G02*
X126651250Y-74145000I-243750J0D01*
G01*
X126088750Y-74145000D01*
G75*
G02*
X125845000Y-73901250I0J243750D01*
G01*
X125845000Y-73413750D01*
G75*
G02*
X126088750Y-73170000I243750J0D01*
G01*
G37*
%TD*%
%TO.C,R2*%
G36*
G01*
X130061250Y-72580000D02*
X129498750Y-72580000D01*
G75*
G02*
X129255000Y-72336250I0J243750D01*
G01*
X129255000Y-71848750D01*
G75*
G02*
X129498750Y-71605000I243750J0D01*
G01*
X130061250Y-71605000D01*
G75*
G02*
X130305000Y-71848750I0J-243750D01*
G01*
X130305000Y-72336250D01*
G75*
G02*
X130061250Y-72580000I-243750J0D01*
G01*
G37*
G36*
G01*
X130061250Y-74155000D02*
X129498750Y-74155000D01*
G75*
G02*
X129255000Y-73911250I0J243750D01*
G01*
X129255000Y-73423750D01*
G75*
G02*
X129498750Y-73180000I243750J0D01*
G01*
X130061250Y-73180000D01*
G75*
G02*
X130305000Y-73423750I0J-243750D01*
G01*
X130305000Y-73911250D01*
G75*
G02*
X130061250Y-74155000I-243750J0D01*
G01*
G37*
%TD*%
%TO.C,R3*%
G36*
G01*
X115470000Y-72891250D02*
X115470000Y-72328750D01*
G75*
G02*
X115713750Y-72085000I243750J0D01*
G01*
X116201250Y-72085000D01*
G75*
G02*
X116445000Y-72328750I0J-243750D01*
G01*
X116445000Y-72891250D01*
G75*
G02*
X116201250Y-73135000I-243750J0D01*
G01*
X115713750Y-73135000D01*
G75*
G02*
X115470000Y-72891250I0J243750D01*
G01*
G37*
G36*
G01*
X113895000Y-72891250D02*
X113895000Y-72328750D01*
G75*
G02*
X114138750Y-72085000I243750J0D01*
G01*
X114626250Y-72085000D01*
G75*
G02*
X114870000Y-72328750I0J-243750D01*
G01*
X114870000Y-72891250D01*
G75*
G02*
X114626250Y-73135000I-243750J0D01*
G01*
X114138750Y-73135000D01*
G75*
G02*
X113895000Y-72891250I0J243750D01*
G01*
G37*
%TD*%
%TO.C,R4*%
G36*
G01*
X113895000Y-74591250D02*
X113895000Y-74028750D01*
G75*
G02*
X114138750Y-73785000I243750J0D01*
G01*
X114626250Y-73785000D01*
G75*
G02*
X114870000Y-74028750I0J-243750D01*
G01*
X114870000Y-74591250D01*
G75*
G02*
X114626250Y-74835000I-243750J0D01*
G01*
X114138750Y-74835000D01*
G75*
G02*
X113895000Y-74591250I0J243750D01*
G01*
G37*
G36*
G01*
X115470000Y-74591250D02*
X115470000Y-74028750D01*
G75*
G02*
X115713750Y-73785000I243750J0D01*
G01*
X116201250Y-73785000D01*
G75*
G02*
X116445000Y-74028750I0J-243750D01*
G01*
X116445000Y-74591250D01*
G75*
G02*
X116201250Y-74835000I-243750J0D01*
G01*
X115713750Y-74835000D01*
G75*
G02*
X115470000Y-74591250I0J243750D01*
G01*
G37*
%TD*%
%TO.C,R5*%
G36*
G01*
X95712500Y-78881250D02*
X95712500Y-78318750D01*
G75*
G02*
X95956250Y-78075000I243750J0D01*
G01*
X96443750Y-78075000D01*
G75*
G02*
X96687500Y-78318750I0J-243750D01*
G01*
X96687500Y-78881250D01*
G75*
G02*
X96443750Y-79125000I-243750J0D01*
G01*
X95956250Y-79125000D01*
G75*
G02*
X95712500Y-78881250I0J243750D01*
G01*
G37*
G36*
G01*
X97287500Y-78881250D02*
X97287500Y-78318750D01*
G75*
G02*
X97531250Y-78075000I243750J0D01*
G01*
X98018750Y-78075000D01*
G75*
G02*
X98262500Y-78318750I0J-243750D01*
G01*
X98262500Y-78881250D01*
G75*
G02*
X98018750Y-79125000I-243750J0D01*
G01*
X97531250Y-79125000D01*
G75*
G02*
X97287500Y-78881250I0J243750D01*
G01*
G37*
%TD*%
%TO.C,R6*%
G36*
G01*
X101100000Y-78881250D02*
X101100000Y-78318750D01*
G75*
G02*
X101343750Y-78075000I243750J0D01*
G01*
X101831250Y-78075000D01*
G75*
G02*
X102075000Y-78318750I0J-243750D01*
G01*
X102075000Y-78881250D01*
G75*
G02*
X101831250Y-79125000I-243750J0D01*
G01*
X101343750Y-79125000D01*
G75*
G02*
X101100000Y-78881250I0J243750D01*
G01*
G37*
G36*
G01*
X99525000Y-78881250D02*
X99525000Y-78318750D01*
G75*
G02*
X99768750Y-78075000I243750J0D01*
G01*
X100256250Y-78075000D01*
G75*
G02*
X100500000Y-78318750I0J-243750D01*
G01*
X100500000Y-78881250D01*
G75*
G02*
X100256250Y-79125000I-243750J0D01*
G01*
X99768750Y-79125000D01*
G75*
G02*
X99525000Y-78881250I0J243750D01*
G01*
G37*
%TD*%
%TO.C,R7*%
G36*
G01*
X61840000Y-85501250D02*
X61840000Y-84938750D01*
G75*
G02*
X62083750Y-84695000I243750J0D01*
G01*
X62571250Y-84695000D01*
G75*
G02*
X62815000Y-84938750I0J-243750D01*
G01*
X62815000Y-85501250D01*
G75*
G02*
X62571250Y-85745000I-243750J0D01*
G01*
X62083750Y-85745000D01*
G75*
G02*
X61840000Y-85501250I0J243750D01*
G01*
G37*
G36*
G01*
X60265000Y-85501250D02*
X60265000Y-84938750D01*
G75*
G02*
X60508750Y-84695000I243750J0D01*
G01*
X60996250Y-84695000D01*
G75*
G02*
X61240000Y-84938750I0J-243750D01*
G01*
X61240000Y-85501250D01*
G75*
G02*
X60996250Y-85745000I-243750J0D01*
G01*
X60508750Y-85745000D01*
G75*
G02*
X60265000Y-85501250I0J243750D01*
G01*
G37*
%TD*%
%TO.C,R8*%
G36*
G01*
X47025000Y-86981250D02*
X47025000Y-86418750D01*
G75*
G02*
X47268750Y-86175000I243750J0D01*
G01*
X47756250Y-86175000D01*
G75*
G02*
X48000000Y-86418750I0J-243750D01*
G01*
X48000000Y-86981250D01*
G75*
G02*
X47756250Y-87225000I-243750J0D01*
G01*
X47268750Y-87225000D01*
G75*
G02*
X47025000Y-86981250I0J243750D01*
G01*
G37*
G36*
G01*
X48600000Y-86981250D02*
X48600000Y-86418750D01*
G75*
G02*
X48843750Y-86175000I243750J0D01*
G01*
X49331250Y-86175000D01*
G75*
G02*
X49575000Y-86418750I0J-243750D01*
G01*
X49575000Y-86981250D01*
G75*
G02*
X49331250Y-87225000I-243750J0D01*
G01*
X48843750Y-87225000D01*
G75*
G02*
X48600000Y-86981250I0J243750D01*
G01*
G37*
%TD*%
%TO.C,R9*%
G36*
G01*
X124968750Y-84875000D02*
X125531250Y-84875000D01*
G75*
G02*
X125775000Y-85118750I0J-243750D01*
G01*
X125775000Y-85606250D01*
G75*
G02*
X125531250Y-85850000I-243750J0D01*
G01*
X124968750Y-85850000D01*
G75*
G02*
X124725000Y-85606250I0J243750D01*
G01*
X124725000Y-85118750D01*
G75*
G02*
X124968750Y-84875000I243750J0D01*
G01*
G37*
G36*
G01*
X124968750Y-86450000D02*
X125531250Y-86450000D01*
G75*
G02*
X125775000Y-86693750I0J-243750D01*
G01*
X125775000Y-87181250D01*
G75*
G02*
X125531250Y-87425000I-243750J0D01*
G01*
X124968750Y-87425000D01*
G75*
G02*
X124725000Y-87181250I0J243750D01*
G01*
X124725000Y-86693750D01*
G75*
G02*
X124968750Y-86450000I243750J0D01*
G01*
G37*
%TD*%
%TO.C,R10*%
G36*
G01*
X62018750Y-62500000D02*
X62581250Y-62500000D01*
G75*
G02*
X62825000Y-62743750I0J-243750D01*
G01*
X62825000Y-63231250D01*
G75*
G02*
X62581250Y-63475000I-243750J0D01*
G01*
X62018750Y-63475000D01*
G75*
G02*
X61775000Y-63231250I0J243750D01*
G01*
X61775000Y-62743750D01*
G75*
G02*
X62018750Y-62500000I243750J0D01*
G01*
G37*
G36*
G01*
X62018750Y-60925000D02*
X62581250Y-60925000D01*
G75*
G02*
X62825000Y-61168750I0J-243750D01*
G01*
X62825000Y-61656250D01*
G75*
G02*
X62581250Y-61900000I-243750J0D01*
G01*
X62018750Y-61900000D01*
G75*
G02*
X61775000Y-61656250I0J243750D01*
G01*
X61775000Y-61168750D01*
G75*
G02*
X62018750Y-60925000I243750J0D01*
G01*
G37*
%TD*%
%TO.C,R11*%
G36*
G01*
X56918750Y-60925000D02*
X57481250Y-60925000D01*
G75*
G02*
X57725000Y-61168750I0J-243750D01*
G01*
X57725000Y-61656250D01*
G75*
G02*
X57481250Y-61900000I-243750J0D01*
G01*
X56918750Y-61900000D01*
G75*
G02*
X56675000Y-61656250I0J243750D01*
G01*
X56675000Y-61168750D01*
G75*
G02*
X56918750Y-60925000I243750J0D01*
G01*
G37*
G36*
G01*
X56918750Y-62500000D02*
X57481250Y-62500000D01*
G75*
G02*
X57725000Y-62743750I0J-243750D01*
G01*
X57725000Y-63231250D01*
G75*
G02*
X57481250Y-63475000I-243750J0D01*
G01*
X56918750Y-63475000D01*
G75*
G02*
X56675000Y-63231250I0J243750D01*
G01*
X56675000Y-62743750D01*
G75*
G02*
X56918750Y-62500000I243750J0D01*
G01*
G37*
%TD*%
%TO.C,R12*%
G36*
G01*
X66128750Y-67860000D02*
X66691250Y-67860000D01*
G75*
G02*
X66935000Y-68103750I0J-243750D01*
G01*
X66935000Y-68591250D01*
G75*
G02*
X66691250Y-68835000I-243750J0D01*
G01*
X66128750Y-68835000D01*
G75*
G02*
X65885000Y-68591250I0J243750D01*
G01*
X65885000Y-68103750D01*
G75*
G02*
X66128750Y-67860000I243750J0D01*
G01*
G37*
G36*
G01*
X66128750Y-66285000D02*
X66691250Y-66285000D01*
G75*
G02*
X66935000Y-66528750I0J-243750D01*
G01*
X66935000Y-67016250D01*
G75*
G02*
X66691250Y-67260000I-243750J0D01*
G01*
X66128750Y-67260000D01*
G75*
G02*
X65885000Y-67016250I0J243750D01*
G01*
X65885000Y-66528750D01*
G75*
G02*
X66128750Y-66285000I243750J0D01*
G01*
G37*
%TD*%
%TO.C,R13*%
G36*
G01*
X102431250Y-91525000D02*
X101868750Y-91525000D01*
G75*
G02*
X101625000Y-91281250I0J243750D01*
G01*
X101625000Y-90793750D01*
G75*
G02*
X101868750Y-90550000I243750J0D01*
G01*
X102431250Y-90550000D01*
G75*
G02*
X102675000Y-90793750I0J-243750D01*
G01*
X102675000Y-91281250D01*
G75*
G02*
X102431250Y-91525000I-243750J0D01*
G01*
G37*
G36*
G01*
X102431250Y-89950000D02*
X101868750Y-89950000D01*
G75*
G02*
X101625000Y-89706250I0J243750D01*
G01*
X101625000Y-89218750D01*
G75*
G02*
X101868750Y-88975000I243750J0D01*
G01*
X102431250Y-88975000D01*
G75*
G02*
X102675000Y-89218750I0J-243750D01*
G01*
X102675000Y-89706250D01*
G75*
G02*
X102431250Y-89950000I-243750J0D01*
G01*
G37*
%TD*%
%TO.C,R14*%
G36*
G01*
X58175000Y-88118750D02*
X58175000Y-88681250D01*
G75*
G02*
X57931250Y-88925000I-243750J0D01*
G01*
X57443750Y-88925000D01*
G75*
G02*
X57200000Y-88681250I0J243750D01*
G01*
X57200000Y-88118750D01*
G75*
G02*
X57443750Y-87875000I243750J0D01*
G01*
X57931250Y-87875000D01*
G75*
G02*
X58175000Y-88118750I0J-243750D01*
G01*
G37*
G36*
G01*
X56600000Y-88118750D02*
X56600000Y-88681250D01*
G75*
G02*
X56356250Y-88925000I-243750J0D01*
G01*
X55868750Y-88925000D01*
G75*
G02*
X55625000Y-88681250I0J243750D01*
G01*
X55625000Y-88118750D01*
G75*
G02*
X55868750Y-87875000I243750J0D01*
G01*
X56356250Y-87875000D01*
G75*
G02*
X56600000Y-88118750I0J-243750D01*
G01*
G37*
%TD*%
%TO.C,R15*%
G36*
G01*
X53100000Y-88118750D02*
X53100000Y-88681250D01*
G75*
G02*
X52856250Y-88925000I-243750J0D01*
G01*
X52368750Y-88925000D01*
G75*
G02*
X52125000Y-88681250I0J243750D01*
G01*
X52125000Y-88118750D01*
G75*
G02*
X52368750Y-87875000I243750J0D01*
G01*
X52856250Y-87875000D01*
G75*
G02*
X53100000Y-88118750I0J-243750D01*
G01*
G37*
G36*
G01*
X54675000Y-88118750D02*
X54675000Y-88681250D01*
G75*
G02*
X54431250Y-88925000I-243750J0D01*
G01*
X53943750Y-88925000D01*
G75*
G02*
X53700000Y-88681250I0J243750D01*
G01*
X53700000Y-88118750D01*
G75*
G02*
X53943750Y-87875000I243750J0D01*
G01*
X54431250Y-87875000D01*
G75*
G02*
X54675000Y-88118750I0J-243750D01*
G01*
G37*
%TD*%
%TO.C,Rprog1*%
G36*
G01*
X106588750Y-79310000D02*
X107151250Y-79310000D01*
G75*
G02*
X107395000Y-79553750I0J-243750D01*
G01*
X107395000Y-80041250D01*
G75*
G02*
X107151250Y-80285000I-243750J0D01*
G01*
X106588750Y-80285000D01*
G75*
G02*
X106345000Y-80041250I0J243750D01*
G01*
X106345000Y-79553750D01*
G75*
G02*
X106588750Y-79310000I243750J0D01*
G01*
G37*
G36*
G01*
X106588750Y-77735000D02*
X107151250Y-77735000D01*
G75*
G02*
X107395000Y-77978750I0J-243750D01*
G01*
X107395000Y-78466250D01*
G75*
G02*
X107151250Y-78710000I-243750J0D01*
G01*
X106588750Y-78710000D01*
G75*
G02*
X106345000Y-78466250I0J243750D01*
G01*
X106345000Y-77978750D01*
G75*
G02*
X106588750Y-77735000I243750J0D01*
G01*
G37*
%TD*%
%TO.C,U1*%
G36*
G01*
X119357500Y-76630000D02*
X119182500Y-76630000D01*
G75*
G02*
X119095000Y-76542500I0J87500D01*
G01*
X119095000Y-75817500D01*
G75*
G02*
X119182500Y-75730000I87500J0D01*
G01*
X119357500Y-75730000D01*
G75*
G02*
X119445000Y-75817500I0J-87500D01*
G01*
X119445000Y-76542500D01*
G75*
G02*
X119357500Y-76630000I-87500J0D01*
G01*
G37*
G36*
G01*
X119857500Y-76630000D02*
X119682500Y-76630000D01*
G75*
G02*
X119595000Y-76542500I0J87500D01*
G01*
X119595000Y-75817500D01*
G75*
G02*
X119682500Y-75730000I87500J0D01*
G01*
X119857500Y-75730000D01*
G75*
G02*
X119945000Y-75817500I0J-87500D01*
G01*
X119945000Y-76542500D01*
G75*
G02*
X119857500Y-76630000I-87500J0D01*
G01*
G37*
G36*
G01*
X120357500Y-76630000D02*
X120182500Y-76630000D01*
G75*
G02*
X120095000Y-76542500I0J87500D01*
G01*
X120095000Y-75817500D01*
G75*
G02*
X120182500Y-75730000I87500J0D01*
G01*
X120357500Y-75730000D01*
G75*
G02*
X120445000Y-75817500I0J-87500D01*
G01*
X120445000Y-76542500D01*
G75*
G02*
X120357500Y-76630000I-87500J0D01*
G01*
G37*
G36*
G01*
X120857500Y-76630000D02*
X120682500Y-76630000D01*
G75*
G02*
X120595000Y-76542500I0J87500D01*
G01*
X120595000Y-75817500D01*
G75*
G02*
X120682500Y-75730000I87500J0D01*
G01*
X120857500Y-75730000D01*
G75*
G02*
X120945000Y-75817500I0J-87500D01*
G01*
X120945000Y-76542500D01*
G75*
G02*
X120857500Y-76630000I-87500J0D01*
G01*
G37*
G36*
G01*
X121357500Y-76630000D02*
X121182500Y-76630000D01*
G75*
G02*
X121095000Y-76542500I0J87500D01*
G01*
X121095000Y-75817500D01*
G75*
G02*
X121182500Y-75730000I87500J0D01*
G01*
X121357500Y-75730000D01*
G75*
G02*
X121445000Y-75817500I0J-87500D01*
G01*
X121445000Y-76542500D01*
G75*
G02*
X121357500Y-76630000I-87500J0D01*
G01*
G37*
G36*
G01*
X121857500Y-76630000D02*
X121682500Y-76630000D01*
G75*
G02*
X121595000Y-76542500I0J87500D01*
G01*
X121595000Y-75817500D01*
G75*
G02*
X121682500Y-75730000I87500J0D01*
G01*
X121857500Y-75730000D01*
G75*
G02*
X121945000Y-75817500I0J-87500D01*
G01*
X121945000Y-76542500D01*
G75*
G02*
X121857500Y-76630000I-87500J0D01*
G01*
G37*
G36*
G01*
X122357500Y-76630000D02*
X122182500Y-76630000D01*
G75*
G02*
X122095000Y-76542500I0J87500D01*
G01*
X122095000Y-75817500D01*
G75*
G02*
X122182500Y-75730000I87500J0D01*
G01*
X122357500Y-75730000D01*
G75*
G02*
X122445000Y-75817500I0J-87500D01*
G01*
X122445000Y-76542500D01*
G75*
G02*
X122357500Y-76630000I-87500J0D01*
G01*
G37*
G36*
G01*
X123582500Y-75405000D02*
X122857500Y-75405000D01*
G75*
G02*
X122770000Y-75317500I0J87500D01*
G01*
X122770000Y-75142500D01*
G75*
G02*
X122857500Y-75055000I87500J0D01*
G01*
X123582500Y-75055000D01*
G75*
G02*
X123670000Y-75142500I0J-87500D01*
G01*
X123670000Y-75317500D01*
G75*
G02*
X123582500Y-75405000I-87500J0D01*
G01*
G37*
G36*
G01*
X123582500Y-74905000D02*
X122857500Y-74905000D01*
G75*
G02*
X122770000Y-74817500I0J87500D01*
G01*
X122770000Y-74642500D01*
G75*
G02*
X122857500Y-74555000I87500J0D01*
G01*
X123582500Y-74555000D01*
G75*
G02*
X123670000Y-74642500I0J-87500D01*
G01*
X123670000Y-74817500D01*
G75*
G02*
X123582500Y-74905000I-87500J0D01*
G01*
G37*
G36*
G01*
X123582500Y-74405000D02*
X122857500Y-74405000D01*
G75*
G02*
X122770000Y-74317500I0J87500D01*
G01*
X122770000Y-74142500D01*
G75*
G02*
X122857500Y-74055000I87500J0D01*
G01*
X123582500Y-74055000D01*
G75*
G02*
X123670000Y-74142500I0J-87500D01*
G01*
X123670000Y-74317500D01*
G75*
G02*
X123582500Y-74405000I-87500J0D01*
G01*
G37*
G36*
G01*
X123582500Y-73905000D02*
X122857500Y-73905000D01*
G75*
G02*
X122770000Y-73817500I0J87500D01*
G01*
X122770000Y-73642500D01*
G75*
G02*
X122857500Y-73555000I87500J0D01*
G01*
X123582500Y-73555000D01*
G75*
G02*
X123670000Y-73642500I0J-87500D01*
G01*
X123670000Y-73817500D01*
G75*
G02*
X123582500Y-73905000I-87500J0D01*
G01*
G37*
G36*
G01*
X123582500Y-73405000D02*
X122857500Y-73405000D01*
G75*
G02*
X122770000Y-73317500I0J87500D01*
G01*
X122770000Y-73142500D01*
G75*
G02*
X122857500Y-73055000I87500J0D01*
G01*
X123582500Y-73055000D01*
G75*
G02*
X123670000Y-73142500I0J-87500D01*
G01*
X123670000Y-73317500D01*
G75*
G02*
X123582500Y-73405000I-87500J0D01*
G01*
G37*
G36*
G01*
X123582500Y-72905000D02*
X122857500Y-72905000D01*
G75*
G02*
X122770000Y-72817500I0J87500D01*
G01*
X122770000Y-72642500D01*
G75*
G02*
X122857500Y-72555000I87500J0D01*
G01*
X123582500Y-72555000D01*
G75*
G02*
X123670000Y-72642500I0J-87500D01*
G01*
X123670000Y-72817500D01*
G75*
G02*
X123582500Y-72905000I-87500J0D01*
G01*
G37*
G36*
G01*
X123582500Y-72405000D02*
X122857500Y-72405000D01*
G75*
G02*
X122770000Y-72317500I0J87500D01*
G01*
X122770000Y-72142500D01*
G75*
G02*
X122857500Y-72055000I87500J0D01*
G01*
X123582500Y-72055000D01*
G75*
G02*
X123670000Y-72142500I0J-87500D01*
G01*
X123670000Y-72317500D01*
G75*
G02*
X123582500Y-72405000I-87500J0D01*
G01*
G37*
G36*
G01*
X122357500Y-71730000D02*
X122182500Y-71730000D01*
G75*
G02*
X122095000Y-71642500I0J87500D01*
G01*
X122095000Y-70917500D01*
G75*
G02*
X122182500Y-70830000I87500J0D01*
G01*
X122357500Y-70830000D01*
G75*
G02*
X122445000Y-70917500I0J-87500D01*
G01*
X122445000Y-71642500D01*
G75*
G02*
X122357500Y-71730000I-87500J0D01*
G01*
G37*
G36*
G01*
X121857500Y-71730000D02*
X121682500Y-71730000D01*
G75*
G02*
X121595000Y-71642500I0J87500D01*
G01*
X121595000Y-70917500D01*
G75*
G02*
X121682500Y-70830000I87500J0D01*
G01*
X121857500Y-70830000D01*
G75*
G02*
X121945000Y-70917500I0J-87500D01*
G01*
X121945000Y-71642500D01*
G75*
G02*
X121857500Y-71730000I-87500J0D01*
G01*
G37*
G36*
G01*
X121357500Y-71730000D02*
X121182500Y-71730000D01*
G75*
G02*
X121095000Y-71642500I0J87500D01*
G01*
X121095000Y-70917500D01*
G75*
G02*
X121182500Y-70830000I87500J0D01*
G01*
X121357500Y-70830000D01*
G75*
G02*
X121445000Y-70917500I0J-87500D01*
G01*
X121445000Y-71642500D01*
G75*
G02*
X121357500Y-71730000I-87500J0D01*
G01*
G37*
G36*
G01*
X120857500Y-71730000D02*
X120682500Y-71730000D01*
G75*
G02*
X120595000Y-71642500I0J87500D01*
G01*
X120595000Y-70917500D01*
G75*
G02*
X120682500Y-70830000I87500J0D01*
G01*
X120857500Y-70830000D01*
G75*
G02*
X120945000Y-70917500I0J-87500D01*
G01*
X120945000Y-71642500D01*
G75*
G02*
X120857500Y-71730000I-87500J0D01*
G01*
G37*
G36*
G01*
X120357500Y-71730000D02*
X120182500Y-71730000D01*
G75*
G02*
X120095000Y-71642500I0J87500D01*
G01*
X120095000Y-70917500D01*
G75*
G02*
X120182500Y-70830000I87500J0D01*
G01*
X120357500Y-70830000D01*
G75*
G02*
X120445000Y-70917500I0J-87500D01*
G01*
X120445000Y-71642500D01*
G75*
G02*
X120357500Y-71730000I-87500J0D01*
G01*
G37*
G36*
G01*
X119857500Y-71730000D02*
X119682500Y-71730000D01*
G75*
G02*
X119595000Y-71642500I0J87500D01*
G01*
X119595000Y-70917500D01*
G75*
G02*
X119682500Y-70830000I87500J0D01*
G01*
X119857500Y-70830000D01*
G75*
G02*
X119945000Y-70917500I0J-87500D01*
G01*
X119945000Y-71642500D01*
G75*
G02*
X119857500Y-71730000I-87500J0D01*
G01*
G37*
G36*
G01*
X119357500Y-71730000D02*
X119182500Y-71730000D01*
G75*
G02*
X119095000Y-71642500I0J87500D01*
G01*
X119095000Y-70917500D01*
G75*
G02*
X119182500Y-70830000I87500J0D01*
G01*
X119357500Y-70830000D01*
G75*
G02*
X119445000Y-70917500I0J-87500D01*
G01*
X119445000Y-71642500D01*
G75*
G02*
X119357500Y-71730000I-87500J0D01*
G01*
G37*
G36*
G01*
X118682500Y-72405000D02*
X117957500Y-72405000D01*
G75*
G02*
X117870000Y-72317500I0J87500D01*
G01*
X117870000Y-72142500D01*
G75*
G02*
X117957500Y-72055000I87500J0D01*
G01*
X118682500Y-72055000D01*
G75*
G02*
X118770000Y-72142500I0J-87500D01*
G01*
X118770000Y-72317500D01*
G75*
G02*
X118682500Y-72405000I-87500J0D01*
G01*
G37*
G36*
G01*
X118682500Y-72905000D02*
X117957500Y-72905000D01*
G75*
G02*
X117870000Y-72817500I0J87500D01*
G01*
X117870000Y-72642500D01*
G75*
G02*
X117957500Y-72555000I87500J0D01*
G01*
X118682500Y-72555000D01*
G75*
G02*
X118770000Y-72642500I0J-87500D01*
G01*
X118770000Y-72817500D01*
G75*
G02*
X118682500Y-72905000I-87500J0D01*
G01*
G37*
G36*
G01*
X118682500Y-73405000D02*
X117957500Y-73405000D01*
G75*
G02*
X117870000Y-73317500I0J87500D01*
G01*
X117870000Y-73142500D01*
G75*
G02*
X117957500Y-73055000I87500J0D01*
G01*
X118682500Y-73055000D01*
G75*
G02*
X118770000Y-73142500I0J-87500D01*
G01*
X118770000Y-73317500D01*
G75*
G02*
X118682500Y-73405000I-87500J0D01*
G01*
G37*
G36*
G01*
X118682500Y-73905000D02*
X117957500Y-73905000D01*
G75*
G02*
X117870000Y-73817500I0J87500D01*
G01*
X117870000Y-73642500D01*
G75*
G02*
X117957500Y-73555000I87500J0D01*
G01*
X118682500Y-73555000D01*
G75*
G02*
X118770000Y-73642500I0J-87500D01*
G01*
X118770000Y-73817500D01*
G75*
G02*
X118682500Y-73905000I-87500J0D01*
G01*
G37*
G36*
G01*
X118682500Y-74405000D02*
X117957500Y-74405000D01*
G75*
G02*
X117870000Y-74317500I0J87500D01*
G01*
X117870000Y-74142500D01*
G75*
G02*
X117957500Y-74055000I87500J0D01*
G01*
X118682500Y-74055000D01*
G75*
G02*
X118770000Y-74142500I0J-87500D01*
G01*
X118770000Y-74317500D01*
G75*
G02*
X118682500Y-74405000I-87500J0D01*
G01*
G37*
G36*
G01*
X118682500Y-74905000D02*
X117957500Y-74905000D01*
G75*
G02*
X117870000Y-74817500I0J87500D01*
G01*
X117870000Y-74642500D01*
G75*
G02*
X117957500Y-74555000I87500J0D01*
G01*
X118682500Y-74555000D01*
G75*
G02*
X118770000Y-74642500I0J-87500D01*
G01*
X118770000Y-74817500D01*
G75*
G02*
X118682500Y-74905000I-87500J0D01*
G01*
G37*
G36*
G01*
X118682500Y-75405000D02*
X117957500Y-75405000D01*
G75*
G02*
X117870000Y-75317500I0J87500D01*
G01*
X117870000Y-75142500D01*
G75*
G02*
X117957500Y-75055000I87500J0D01*
G01*
X118682500Y-75055000D01*
G75*
G02*
X118770000Y-75142500I0J-87500D01*
G01*
X118770000Y-75317500D01*
G75*
G02*
X118682500Y-75405000I-87500J0D01*
G01*
G37*
D29*
X120770000Y-73730000D03*
%TD*%
%TO.C,U2*%
G36*
G01*
X68950000Y-56750000D02*
X68950000Y-56500000D01*
G75*
G02*
X69075000Y-56375000I125000J0D01*
G01*
X70400000Y-56375000D01*
G75*
G02*
X70525000Y-56500000I0J-125000D01*
G01*
X70525000Y-56750000D01*
G75*
G02*
X70400000Y-56875000I-125000J0D01*
G01*
X69075000Y-56875000D01*
G75*
G02*
X68950000Y-56750000I0J125000D01*
G01*
G37*
G36*
G01*
X68950000Y-57400000D02*
X68950000Y-57150000D01*
G75*
G02*
X69075000Y-57025000I125000J0D01*
G01*
X70400000Y-57025000D01*
G75*
G02*
X70525000Y-57150000I0J-125000D01*
G01*
X70525000Y-57400000D01*
G75*
G02*
X70400000Y-57525000I-125000J0D01*
G01*
X69075000Y-57525000D01*
G75*
G02*
X68950000Y-57400000I0J125000D01*
G01*
G37*
G36*
G01*
X68950000Y-58050000D02*
X68950000Y-57800000D01*
G75*
G02*
X69075000Y-57675000I125000J0D01*
G01*
X70400000Y-57675000D01*
G75*
G02*
X70525000Y-57800000I0J-125000D01*
G01*
X70525000Y-58050000D01*
G75*
G02*
X70400000Y-58175000I-125000J0D01*
G01*
X69075000Y-58175000D01*
G75*
G02*
X68950000Y-58050000I0J125000D01*
G01*
G37*
G36*
G01*
X68950000Y-58700000D02*
X68950000Y-58450000D01*
G75*
G02*
X69075000Y-58325000I125000J0D01*
G01*
X70400000Y-58325000D01*
G75*
G02*
X70525000Y-58450000I0J-125000D01*
G01*
X70525000Y-58700000D01*
G75*
G02*
X70400000Y-58825000I-125000J0D01*
G01*
X69075000Y-58825000D01*
G75*
G02*
X68950000Y-58700000I0J125000D01*
G01*
G37*
G36*
G01*
X68950000Y-59350000D02*
X68950000Y-59100000D01*
G75*
G02*
X69075000Y-58975000I125000J0D01*
G01*
X70400000Y-58975000D01*
G75*
G02*
X70525000Y-59100000I0J-125000D01*
G01*
X70525000Y-59350000D01*
G75*
G02*
X70400000Y-59475000I-125000J0D01*
G01*
X69075000Y-59475000D01*
G75*
G02*
X68950000Y-59350000I0J125000D01*
G01*
G37*
G36*
G01*
X68950000Y-60000000D02*
X68950000Y-59750000D01*
G75*
G02*
X69075000Y-59625000I125000J0D01*
G01*
X70400000Y-59625000D01*
G75*
G02*
X70525000Y-59750000I0J-125000D01*
G01*
X70525000Y-60000000D01*
G75*
G02*
X70400000Y-60125000I-125000J0D01*
G01*
X69075000Y-60125000D01*
G75*
G02*
X68950000Y-60000000I0J125000D01*
G01*
G37*
G36*
G01*
X68950000Y-60650000D02*
X68950000Y-60400000D01*
G75*
G02*
X69075000Y-60275000I125000J0D01*
G01*
X70400000Y-60275000D01*
G75*
G02*
X70525000Y-60400000I0J-125000D01*
G01*
X70525000Y-60650000D01*
G75*
G02*
X70400000Y-60775000I-125000J0D01*
G01*
X69075000Y-60775000D01*
G75*
G02*
X68950000Y-60650000I0J125000D01*
G01*
G37*
G36*
G01*
X68950000Y-61300000D02*
X68950000Y-61050000D01*
G75*
G02*
X69075000Y-60925000I125000J0D01*
G01*
X70400000Y-60925000D01*
G75*
G02*
X70525000Y-61050000I0J-125000D01*
G01*
X70525000Y-61300000D01*
G75*
G02*
X70400000Y-61425000I-125000J0D01*
G01*
X69075000Y-61425000D01*
G75*
G02*
X68950000Y-61300000I0J125000D01*
G01*
G37*
G36*
G01*
X74675000Y-61300000D02*
X74675000Y-61050000D01*
G75*
G02*
X74800000Y-60925000I125000J0D01*
G01*
X76125000Y-60925000D01*
G75*
G02*
X76250000Y-61050000I0J-125000D01*
G01*
X76250000Y-61300000D01*
G75*
G02*
X76125000Y-61425000I-125000J0D01*
G01*
X74800000Y-61425000D01*
G75*
G02*
X74675000Y-61300000I0J125000D01*
G01*
G37*
G36*
G01*
X74675000Y-60650000D02*
X74675000Y-60400000D01*
G75*
G02*
X74800000Y-60275000I125000J0D01*
G01*
X76125000Y-60275000D01*
G75*
G02*
X76250000Y-60400000I0J-125000D01*
G01*
X76250000Y-60650000D01*
G75*
G02*
X76125000Y-60775000I-125000J0D01*
G01*
X74800000Y-60775000D01*
G75*
G02*
X74675000Y-60650000I0J125000D01*
G01*
G37*
G36*
G01*
X74675000Y-60000000D02*
X74675000Y-59750000D01*
G75*
G02*
X74800000Y-59625000I125000J0D01*
G01*
X76125000Y-59625000D01*
G75*
G02*
X76250000Y-59750000I0J-125000D01*
G01*
X76250000Y-60000000D01*
G75*
G02*
X76125000Y-60125000I-125000J0D01*
G01*
X74800000Y-60125000D01*
G75*
G02*
X74675000Y-60000000I0J125000D01*
G01*
G37*
G36*
G01*
X74675000Y-59350000D02*
X74675000Y-59100000D01*
G75*
G02*
X74800000Y-58975000I125000J0D01*
G01*
X76125000Y-58975000D01*
G75*
G02*
X76250000Y-59100000I0J-125000D01*
G01*
X76250000Y-59350000D01*
G75*
G02*
X76125000Y-59475000I-125000J0D01*
G01*
X74800000Y-59475000D01*
G75*
G02*
X74675000Y-59350000I0J125000D01*
G01*
G37*
G36*
G01*
X74675000Y-58700000D02*
X74675000Y-58450000D01*
G75*
G02*
X74800000Y-58325000I125000J0D01*
G01*
X76125000Y-58325000D01*
G75*
G02*
X76250000Y-58450000I0J-125000D01*
G01*
X76250000Y-58700000D01*
G75*
G02*
X76125000Y-58825000I-125000J0D01*
G01*
X74800000Y-58825000D01*
G75*
G02*
X74675000Y-58700000I0J125000D01*
G01*
G37*
G36*
G01*
X74675000Y-58050000D02*
X74675000Y-57800000D01*
G75*
G02*
X74800000Y-57675000I125000J0D01*
G01*
X76125000Y-57675000D01*
G75*
G02*
X76250000Y-57800000I0J-125000D01*
G01*
X76250000Y-58050000D01*
G75*
G02*
X76125000Y-58175000I-125000J0D01*
G01*
X74800000Y-58175000D01*
G75*
G02*
X74675000Y-58050000I0J125000D01*
G01*
G37*
G36*
G01*
X74675000Y-57400000D02*
X74675000Y-57150000D01*
G75*
G02*
X74800000Y-57025000I125000J0D01*
G01*
X76125000Y-57025000D01*
G75*
G02*
X76250000Y-57150000I0J-125000D01*
G01*
X76250000Y-57400000D01*
G75*
G02*
X76125000Y-57525000I-125000J0D01*
G01*
X74800000Y-57525000D01*
G75*
G02*
X74675000Y-57400000I0J125000D01*
G01*
G37*
G36*
G01*
X74675000Y-56750000D02*
X74675000Y-56500000D01*
G75*
G02*
X74800000Y-56375000I125000J0D01*
G01*
X76125000Y-56375000D01*
G75*
G02*
X76250000Y-56500000I0J-125000D01*
G01*
X76250000Y-56750000D01*
G75*
G02*
X76125000Y-56875000I-125000J0D01*
G01*
X74800000Y-56875000D01*
G75*
G02*
X74675000Y-56750000I0J125000D01*
G01*
G37*
%TD*%
D30*
%TO.C,U3*%
X113710000Y-78970000D03*
X115610000Y-78970000D03*
X115610000Y-81170000D03*
X114660000Y-81170000D03*
X113710000Y-81170000D03*
%TD*%
%TO.C,U5*%
X108790000Y-80030000D03*
X109740000Y-80030000D03*
X110690000Y-80030000D03*
X110690000Y-77830000D03*
X108790000Y-77830000D03*
%TD*%
%TO.C,R16*%
G36*
G01*
X108775000Y-50621250D02*
X108775000Y-50058750D01*
G75*
G02*
X109018750Y-49815000I243750J0D01*
G01*
X109506250Y-49815000D01*
G75*
G02*
X109750000Y-50058750I0J-243750D01*
G01*
X109750000Y-50621250D01*
G75*
G02*
X109506250Y-50865000I-243750J0D01*
G01*
X109018750Y-50865000D01*
G75*
G02*
X108775000Y-50621250I0J243750D01*
G01*
G37*
G36*
G01*
X110350000Y-50621250D02*
X110350000Y-50058750D01*
G75*
G02*
X110593750Y-49815000I243750J0D01*
G01*
X111081250Y-49815000D01*
G75*
G02*
X111325000Y-50058750I0J-243750D01*
G01*
X111325000Y-50621250D01*
G75*
G02*
X111081250Y-50865000I-243750J0D01*
G01*
X110593750Y-50865000D01*
G75*
G02*
X110350000Y-50621250I0J243750D01*
G01*
G37*
%TD*%
%TO.C,R17*%
G36*
G01*
X110370000Y-52151250D02*
X110370000Y-51588750D01*
G75*
G02*
X110613750Y-51345000I243750J0D01*
G01*
X111101250Y-51345000D01*
G75*
G02*
X111345000Y-51588750I0J-243750D01*
G01*
X111345000Y-52151250D01*
G75*
G02*
X111101250Y-52395000I-243750J0D01*
G01*
X110613750Y-52395000D01*
G75*
G02*
X110370000Y-52151250I0J243750D01*
G01*
G37*
G36*
G01*
X108795000Y-52151250D02*
X108795000Y-51588750D01*
G75*
G02*
X109038750Y-51345000I243750J0D01*
G01*
X109526250Y-51345000D01*
G75*
G02*
X109770000Y-51588750I0J-243750D01*
G01*
X109770000Y-52151250D01*
G75*
G02*
X109526250Y-52395000I-243750J0D01*
G01*
X109038750Y-52395000D01*
G75*
G02*
X108795000Y-52151250I0J243750D01*
G01*
G37*
%TD*%
%TO.C,J4*%
G36*
G01*
X113750000Y-43525000D02*
X113750000Y-46575000D01*
G75*
G02*
X113475000Y-46850000I-275000J0D01*
G01*
X112925000Y-46850000D01*
G75*
G02*
X112650000Y-46575000I0J275000D01*
G01*
X112650000Y-43525000D01*
G75*
G02*
X112925000Y-43250000I275000J0D01*
G01*
X113475000Y-43250000D01*
G75*
G02*
X113750000Y-43525000I0J-275000D01*
G01*
G37*
G36*
G01*
X111750000Y-43525000D02*
X111750000Y-46575000D01*
G75*
G02*
X111475000Y-46850000I-275000J0D01*
G01*
X110925000Y-46850000D01*
G75*
G02*
X110650000Y-46575000I0J275000D01*
G01*
X110650000Y-43525000D01*
G75*
G02*
X110925000Y-43250000I275000J0D01*
G01*
X111475000Y-43250000D01*
G75*
G02*
X111750000Y-43525000I0J-275000D01*
G01*
G37*
G36*
G01*
X109750000Y-43525000D02*
X109750000Y-46575000D01*
G75*
G02*
X109475000Y-46850000I-275000J0D01*
G01*
X108925000Y-46850000D01*
G75*
G02*
X108650000Y-46575000I0J275000D01*
G01*
X108650000Y-43525000D01*
G75*
G02*
X108925000Y-43250000I275000J0D01*
G01*
X109475000Y-43250000D01*
G75*
G02*
X109750000Y-43525000I0J-275000D01*
G01*
G37*
G36*
G01*
X107750000Y-43525000D02*
X107750000Y-46575000D01*
G75*
G02*
X107475000Y-46850000I-275000J0D01*
G01*
X106925000Y-46850000D01*
G75*
G02*
X106650000Y-46575000I0J275000D01*
G01*
X106650000Y-43525000D01*
G75*
G02*
X106925000Y-43250000I275000J0D01*
G01*
X107475000Y-43250000D01*
G75*
G02*
X107750000Y-43525000I0J-275000D01*
G01*
G37*
G36*
G01*
X116350000Y-37816667D02*
X116350000Y-40783333D01*
G75*
G02*
X116083333Y-41050000I-266667J0D01*
G01*
X115016667Y-41050000D01*
G75*
G02*
X114750000Y-40783333I0J266667D01*
G01*
X114750000Y-37816667D01*
G75*
G02*
X115016667Y-37550000I266667J0D01*
G01*
X116083333Y-37550000D01*
G75*
G02*
X116350000Y-37816667I0J-266667D01*
G01*
G37*
G36*
G01*
X105650000Y-37816667D02*
X105650000Y-40783333D01*
G75*
G02*
X105383333Y-41050000I-266667J0D01*
G01*
X104316667Y-41050000D01*
G75*
G02*
X104050000Y-40783333I0J266667D01*
G01*
X104050000Y-37816667D01*
G75*
G02*
X104316667Y-37550000I266667J0D01*
G01*
X105383333Y-37550000D01*
G75*
G02*
X105650000Y-37816667I0J-266667D01*
G01*
G37*
%TD*%
D31*
%TO.C,TP1*%
X129600000Y-89190000D03*
%TD*%
%TO.C,TP2*%
X104550000Y-48700000D03*
%TD*%
%TO.C,TP3*%
X104600000Y-83550000D03*
%TD*%
D32*
%TO.C,SD1*%
X71025001Y-80160000D03*
D33*
X69925001Y-80810000D03*
X84605001Y-80810000D03*
D34*
X69925001Y-90510000D03*
X85445001Y-90510000D03*
D31*
X72735001Y-90900000D03*
D32*
X72125001Y-80160000D03*
X73225001Y-80160000D03*
X74325001Y-80160000D03*
X75425001Y-80160000D03*
X76525001Y-80160000D03*
X77625001Y-80160000D03*
X78725001Y-80160000D03*
X79825001Y-80160000D03*
D31*
X80735001Y-90900000D03*
%TD*%
M02*
