%TF.GenerationSoftware,KiCad,Pcbnew,(5.1.6-0)*%
%TF.CreationDate,2020-10-12T19:17:27+02:00*%
%TF.ProjectId,ESP32_TFT,45535033-325f-4544-9654-2e6b69636164,rev?*%
%TF.SameCoordinates,Original*%
%TF.FileFunction,Copper,L2,Bot*%
%TF.FilePolarity,Positive*%
%FSLAX46Y46*%
G04 Gerber Fmt 4.6, Leading zero omitted, Abs format (unit mm)*
G04 Created by KiCad (PCBNEW (5.1.6-0)) date 2020-10-12 19:17:27*
%MOMM*%
%LPD*%
G01*
G04 APERTURE LIST*
%TA.AperFunction,ComponentPad*%
%ADD10C,0.800000*%
%TD*%
%TA.AperFunction,ComponentPad*%
%ADD11C,5.000000*%
%TD*%
%TA.AperFunction,ViaPad*%
%ADD12C,0.800000*%
%TD*%
%TA.AperFunction,ViaPad*%
%ADD13C,0.450000*%
%TD*%
%TA.AperFunction,Conductor*%
%ADD14C,0.254000*%
%TD*%
%TA.AperFunction,Conductor*%
%ADD15C,0.635000*%
%TD*%
%TA.AperFunction,Conductor*%
%ADD16C,0.381000*%
%TD*%
%TA.AperFunction,Conductor*%
%ADD17C,0.508000*%
%TD*%
%TA.AperFunction,Conductor*%
%ADD18C,0.152400*%
%TD*%
G04 APERTURE END LIST*
D10*
%TO.P,H1,1*%
%TO.N,N/C*%
X42825825Y-38674175D03*
X41500000Y-38125000D03*
X40174175Y-38674175D03*
X39625000Y-40000000D03*
X40174175Y-41325825D03*
X41500000Y-41875000D03*
X42825825Y-41325825D03*
X43375000Y-40000000D03*
D11*
X41500000Y-40000000D03*
%TD*%
D10*
%TO.P,H2,1*%
%TO.N,N/C*%
X42825825Y-89674175D03*
X41500000Y-89125000D03*
X40174175Y-89674175D03*
X39625000Y-91000000D03*
X40174175Y-92325825D03*
X41500000Y-92875000D03*
X42825825Y-92325825D03*
X43375000Y-91000000D03*
D11*
X41500000Y-91000000D03*
%TD*%
D10*
%TO.P,H3,1*%
%TO.N,N/C*%
X136825825Y-38674175D03*
X135500000Y-38125000D03*
X134174175Y-38674175D03*
X133625000Y-40000000D03*
X134174175Y-41325825D03*
X135500000Y-41875000D03*
X136825825Y-41325825D03*
X137375000Y-40000000D03*
D11*
X135500000Y-40000000D03*
%TD*%
D10*
%TO.P,H4,1*%
%TO.N,N/C*%
X136825825Y-89674175D03*
X135500000Y-89125000D03*
X134174175Y-89674175D03*
X133625000Y-91000000D03*
X134174175Y-92325825D03*
X135500000Y-92875000D03*
X136825825Y-92325825D03*
X137375000Y-91000000D03*
D11*
X135500000Y-91000000D03*
%TD*%
D12*
%TO.N,VBUS*%
X126970000Y-84370000D03*
D13*
X126990000Y-78990000D03*
D12*
X127180000Y-75240000D03*
D13*
X112340000Y-79099998D03*
D12*
%TO.N,GND*%
X93130000Y-45600000D03*
X93130000Y-46600000D03*
X93130000Y-47600000D03*
X94130000Y-45600000D03*
X94130000Y-46600000D03*
X94130000Y-47600000D03*
X44870000Y-53670000D03*
X44870000Y-52670000D03*
X44870000Y-51670000D03*
X113400000Y-65640000D03*
X113400000Y-66640000D03*
X113400000Y-67640000D03*
X114400000Y-67640000D03*
X114400000Y-65640000D03*
X114400000Y-66640000D03*
X123360000Y-45680000D03*
X122360000Y-44680000D03*
X122360000Y-43680000D03*
X123360000Y-44680000D03*
X123360000Y-43680000D03*
X122360000Y-45680000D03*
X97010000Y-66400000D03*
X96010000Y-65400000D03*
X96010000Y-64400000D03*
X97010000Y-65400000D03*
X97010000Y-64400000D03*
X96010000Y-66400000D03*
X104780000Y-89230000D03*
X103780000Y-89230000D03*
X104780000Y-90230000D03*
X103780000Y-91230000D03*
X103780000Y-90230000D03*
X104780000Y-91230000D03*
X66600000Y-75760000D03*
X66600000Y-74660000D03*
X66600000Y-73560000D03*
X67700000Y-75760000D03*
X67700000Y-74660000D03*
X67700000Y-73560000D03*
D13*
X64200000Y-66400000D03*
X64200000Y-65700000D03*
X64800000Y-65700000D03*
X64800000Y-66400000D03*
X109730000Y-77530000D03*
X109730000Y-78220000D03*
X109740000Y-78960000D03*
X108970000Y-78940000D03*
X108180000Y-78970000D03*
D12*
%TO.N,+3V3*%
X47570000Y-89950000D03*
X74027773Y-64962227D03*
D13*
X58287507Y-60212493D03*
D12*
X65190000Y-64350000D03*
D13*
X76525001Y-78294999D03*
D12*
X106549998Y-50200000D03*
X93240000Y-83820000D03*
X123640000Y-76900000D03*
X119600000Y-77650000D03*
D13*
X86930000Y-76610000D03*
X124950000Y-72099998D03*
D12*
X106640000Y-59290000D03*
X93230000Y-92920000D03*
X67949998Y-60949998D03*
D13*
X63600000Y-85300000D03*
D12*
X54920000Y-38550002D03*
D13*
%TO.N,EN*%
X90740000Y-88950000D03*
X99660000Y-88980000D03*
%TO.N,+BATT*%
X101370000Y-88080000D03*
X106390000Y-91470000D03*
X90730000Y-88090000D03*
%TO.N,YD*%
X85270000Y-57260000D03*
X85259998Y-54450000D03*
%TO.N,DC_RS*%
X84830000Y-60320000D03*
X82330000Y-60330000D03*
%TO.N,SCK*%
X57300000Y-67300000D03*
X78270000Y-56620000D03*
X84550000Y-61240000D03*
X81670000Y-61270000D03*
X76659998Y-71930000D03*
X78690000Y-63810000D03*
%TO.N,SDI*%
X58900000Y-68800000D03*
X85300000Y-61959998D03*
X77624994Y-72414994D03*
X77600000Y-61970000D03*
%TO.N,TFT_RESET*%
X82810002Y-62760000D03*
X59930409Y-68030409D03*
%TO.N,CTC_IRQ*%
X101200000Y-52900000D03*
X59700000Y-80190000D03*
%TO.N,D-*%
X121909840Y-79200000D03*
X121909999Y-77690000D03*
%TO.N,IO5*%
X55700000Y-62300000D03*
X55900000Y-54500000D03*
%TO.N,IO12*%
X61700002Y-45974000D03*
X57900000Y-71930002D03*
%TO.N,IO13*%
X60706000Y-48400000D03*
X57950000Y-70330000D03*
%TO.N,IO16*%
X53500000Y-68000000D03*
X57430000Y-48440000D03*
%TO.N,IO33*%
X47800000Y-40700000D03*
X55905000Y-80235000D03*
%TO.N,IO34*%
X46400000Y-46500000D03*
X52100000Y-80220000D03*
%TO.N,SDA*%
X52500000Y-63250000D03*
X56940000Y-49650000D03*
X53370000Y-53220000D03*
X111190000Y-47670000D03*
X107780000Y-58730000D03*
%TO.N,PIEZO*%
X49650000Y-60330000D03*
X58440000Y-80209998D03*
%TO.N,RTS*%
X117150000Y-72380000D03*
X103620000Y-78580000D03*
%TO.N,Net-(Q1-Pad1)*%
X102880000Y-82359998D03*
X93010000Y-78590000D03*
%TO.N,DTR*%
X96790000Y-86850002D03*
X117210000Y-75240000D03*
%TO.N,IO0*%
X61000000Y-68000000D03*
X48920000Y-69704410D03*
X66140000Y-86909994D03*
X40140000Y-58000014D03*
%TO.N,RXD0*%
X50950000Y-63390000D03*
X50940000Y-60389974D03*
X112610000Y-73380000D03*
X68379999Y-62840001D03*
%TO.N,TXD0*%
X113190000Y-74300000D03*
X67600001Y-63449993D03*
%TO.N,RTC_IRQ*%
X65270000Y-81790000D03*
X68010000Y-66580000D03*
%TO.N,SDO*%
X73225001Y-78334999D03*
X67643995Y-64823983D03*
%TO.N,SD_CS*%
X57200000Y-84540000D03*
X57160000Y-87090000D03*
%TO.N,LDO_EN*%
X122710000Y-86480000D03*
X117340000Y-81110000D03*
%TO.N,RTC_CS*%
X60000000Y-63500000D03*
X77960000Y-57609998D03*
%TO.N,/VIN*%
X123780000Y-85820000D03*
X121780000Y-83800000D03*
%TD*%
D14*
%TO.N,VBUS*%
X126970000Y-79010000D02*
X126990000Y-78990000D01*
D15*
X126970000Y-84370000D02*
X126970000Y-79010000D01*
X126990000Y-75320000D02*
X126990000Y-78990000D01*
X127180000Y-75240000D02*
X126990000Y-75320000D01*
X126970000Y-84370000D02*
X124530000Y-84370000D01*
X119259998Y-79099998D02*
X112340000Y-79099998D01*
X124530000Y-84370000D02*
X119259998Y-79099998D01*
%TO.N,+3V3*%
X68000000Y-61000000D02*
X68000000Y-61000000D01*
X87460454Y-83820000D02*
X93240000Y-83820000D01*
D16*
X87460454Y-77140454D02*
X86930000Y-76610000D01*
X87460454Y-83820000D02*
X87460454Y-77140454D01*
D15*
X120500000Y-76140000D02*
X119600000Y-77040000D01*
X119600000Y-77040000D02*
X119600000Y-77650000D01*
X122880000Y-76140000D02*
X120500000Y-76140000D01*
X123640000Y-76900000D02*
X122880000Y-76140000D01*
D16*
X123640000Y-76900000D02*
X123640000Y-73409998D01*
X123640000Y-73409998D02*
X124950000Y-72099998D01*
D15*
X87090000Y-83820000D02*
X87460454Y-83820000D01*
X74027773Y-70757773D02*
X87090000Y-83820000D01*
X74027773Y-64962227D02*
X74027773Y-70757773D01*
D17*
X106549998Y-59199998D02*
X106640000Y-59290000D01*
X106549998Y-50200000D02*
X106549998Y-59199998D01*
D14*
X76510000Y-93130000D02*
X76500000Y-92910000D01*
D16*
X76525001Y-78294999D02*
X76510000Y-93130000D01*
D15*
X47570000Y-90240000D02*
X47570000Y-89950000D01*
X50260000Y-92930000D02*
X47570000Y-90240000D01*
X76089802Y-92930000D02*
X50260000Y-92930000D01*
X92664315Y-92920000D02*
X93230000Y-92920000D01*
X76040000Y-92920000D02*
X92664315Y-92920000D01*
X76030000Y-92930000D02*
X76040000Y-92920000D01*
X74027773Y-64962227D02*
X70015544Y-60949998D01*
X70015544Y-60949998D02*
X67949998Y-60949998D01*
X67949998Y-60960002D02*
X67949998Y-60949998D01*
X65190000Y-63720000D02*
X67949998Y-60960002D01*
X65190000Y-64350000D02*
X65190000Y-63720000D01*
X93240000Y-92910000D02*
X93230000Y-92920000D01*
X111350000Y-89250000D02*
X107690000Y-92910000D01*
X111350000Y-78545000D02*
X111350000Y-89250000D01*
X107690000Y-92910000D02*
X93240000Y-92910000D01*
X112895000Y-77000000D02*
X111350000Y-78545000D01*
X118950000Y-77000000D02*
X112895000Y-77000000D01*
X119600000Y-77650000D02*
X118950000Y-77000000D01*
D16*
X62286914Y-86613086D02*
X63600000Y-85300000D01*
X62286914Y-92890000D02*
X62286914Y-86613086D01*
D15*
X58287507Y-60212493D02*
X63300000Y-55200000D01*
X63300000Y-55200000D02*
X63300000Y-46364317D01*
X63300000Y-46364317D02*
X55485685Y-38550002D01*
X55485685Y-38550002D02*
X54920000Y-38550002D01*
D16*
%TO.N,EN*%
X99660000Y-88980000D02*
X90770000Y-88980000D01*
D14*
X90770000Y-88980000D02*
X90740000Y-88950000D01*
D16*
%TO.N,+BATT*%
X90730000Y-88090000D02*
X101360000Y-88090000D01*
D14*
X101360000Y-88090000D02*
X101370000Y-88080000D01*
D16*
X105270000Y-88080000D02*
X106390000Y-89200000D01*
X106390000Y-89200000D02*
X106390000Y-91470000D01*
X101370000Y-88080000D02*
X105270000Y-88080000D01*
%TO.N,YD*%
X85270000Y-57260000D02*
X85270000Y-54460002D01*
D14*
X85270000Y-54460002D02*
X85259998Y-54450000D01*
D16*
%TO.N,DC_RS*%
X84830000Y-60320000D02*
X82340000Y-60320000D01*
D14*
X82340000Y-60320000D02*
X82330000Y-60330000D01*
D16*
%TO.N,SCK*%
X78300000Y-56620000D02*
X79860000Y-58180000D01*
X81200000Y-61240000D02*
X84550000Y-61240000D01*
X79860000Y-59900000D02*
X81200000Y-61240000D01*
X79860000Y-58180000D02*
X79860000Y-59900000D01*
D14*
X78270000Y-56620000D02*
X78300000Y-56620000D01*
D16*
X76790000Y-56620000D02*
X78270000Y-56620000D01*
X65340000Y-56620000D02*
X76790000Y-56620000D01*
X57300000Y-64660000D02*
X65340000Y-56620000D01*
X57300000Y-67300000D02*
X57300000Y-64660000D01*
X76659998Y-65840002D02*
X78690000Y-63810000D01*
X76659998Y-71930000D02*
X76659998Y-65840002D01*
D14*
%TO.N,SDI*%
X85289998Y-61970000D02*
X85300000Y-61959998D01*
D16*
X85300000Y-61960000D02*
X77624994Y-69635006D01*
X77624994Y-69635006D02*
X77624994Y-72414994D01*
D14*
X85300000Y-61959998D02*
X85300000Y-61960000D01*
D16*
X85289998Y-61970000D02*
X77600000Y-61970000D01*
X71750000Y-58590000D02*
X75130000Y-61970000D01*
X58900000Y-66430000D02*
X66740000Y-58590000D01*
X75130000Y-61970000D02*
X77600000Y-61970000D01*
X66740000Y-58590000D02*
X71750000Y-58590000D01*
X58900000Y-68800000D02*
X58900000Y-66430000D01*
%TO.N,TFT_RESET*%
X70860000Y-59490000D02*
X67740000Y-59490000D01*
X82700002Y-62870000D02*
X74240000Y-62870000D01*
X67740000Y-59490000D02*
X59930409Y-67299591D01*
X74240000Y-62870000D02*
X70860000Y-59490000D01*
X59930409Y-67299591D02*
X59930409Y-68030409D01*
X82810002Y-62760000D02*
X82700002Y-62870000D01*
%TO.N,CTC_IRQ*%
X101200000Y-52900000D02*
X67600000Y-52900000D01*
X67600000Y-52900000D02*
X56400000Y-64100000D01*
X56400000Y-64100000D02*
X56400000Y-67700000D01*
X56400000Y-67700000D02*
X59700000Y-71000000D01*
X59700000Y-71000000D02*
X59700000Y-80190000D01*
D14*
%TO.N,D-*%
X121909840Y-79200000D02*
X121909840Y-77690159D01*
X121909840Y-77690159D02*
X121909999Y-77690000D01*
%TO.N,IO5*%
X55700000Y-62300000D02*
X55700000Y-54700000D01*
X55700000Y-54700000D02*
X55900000Y-54500000D01*
%TO.N,IO12*%
X57900000Y-71330000D02*
X57900000Y-71930002D01*
X53580000Y-67010000D02*
X57900000Y-71330000D01*
X53580000Y-54094002D02*
X53580000Y-67010000D01*
X61700002Y-45974000D02*
X53580000Y-54094002D01*
%TO.N,IO13*%
X54480000Y-66860000D02*
X57950000Y-70330000D01*
X54480000Y-54626000D02*
X54480000Y-66860000D01*
X60706000Y-48400000D02*
X54480000Y-54626000D01*
%TO.N,IO16*%
X51700000Y-53560000D02*
X56820000Y-48440000D01*
X51700000Y-66200000D02*
X51700000Y-53560000D01*
X56820000Y-48440000D02*
X57430000Y-48440000D01*
X53500000Y-68000000D02*
X51700000Y-66200000D01*
%TO.N,IO33*%
X47800000Y-40700000D02*
X47800000Y-64704410D01*
X47800000Y-64704410D02*
X53300000Y-70204410D01*
X55905000Y-72809410D02*
X53300000Y-70204410D01*
X55905000Y-80235000D02*
X55905000Y-72809410D01*
%TO.N,IO34*%
X52090000Y-80210000D02*
X52100000Y-80220000D01*
X52090000Y-70390000D02*
X52090000Y-80210000D01*
X46400000Y-64700000D02*
X52090000Y-70390000D01*
X46400000Y-46500000D02*
X46400000Y-64700000D01*
%TO.N,SDA*%
X52500000Y-63250000D02*
X52500000Y-54090000D01*
X53370000Y-53220000D02*
X56940000Y-49650000D01*
X52500000Y-54090000D02*
X53370000Y-53220000D01*
D16*
X111190000Y-47670000D02*
X111190000Y-55320000D01*
X111190000Y-55320000D02*
X107780000Y-58730000D01*
D14*
%TO.N,PIEZO*%
X49650000Y-65250000D02*
X58440000Y-74040000D01*
X49650000Y-60330000D02*
X49650000Y-65250000D01*
X58440000Y-74040000D02*
X58440000Y-80209998D01*
D16*
%TO.N,RTS*%
X110100000Y-72380000D02*
X103900000Y-78580000D01*
D14*
X103900000Y-78580000D02*
X103620000Y-78580000D01*
D16*
X117150000Y-72380000D02*
X110100000Y-72380000D01*
%TO.N,Net-(Q1-Pad1)*%
X96850000Y-78590000D02*
X93010000Y-78590000D01*
X100619998Y-82359998D02*
X96850000Y-78590000D01*
X102880000Y-82359998D02*
X100619998Y-82359998D01*
%TO.N,DTR*%
X106160000Y-84510000D02*
X106160000Y-79520000D01*
X110440000Y-75240000D02*
X117210000Y-75240000D01*
X103819998Y-86850002D02*
X106160000Y-84510000D01*
X106160000Y-79520000D02*
X110440000Y-75240000D01*
X96790000Y-86850002D02*
X103819998Y-86850002D01*
%TO.N,IO0*%
X45360000Y-66144410D02*
X45360000Y-62401802D01*
X48920000Y-69704410D02*
X45360000Y-66144410D01*
X45360000Y-62401802D02*
X40958212Y-58000014D01*
X40958212Y-58000014D02*
X40140000Y-58000014D01*
X66140000Y-85210000D02*
X66140000Y-86909994D01*
X61000000Y-80070000D02*
X66140000Y-85210000D01*
X61000000Y-68000000D02*
X61000000Y-80070000D01*
D14*
%TO.N,RXD0*%
X50950000Y-63390000D02*
X50950000Y-60399974D01*
X50950000Y-60399974D02*
X50940000Y-60389974D01*
D16*
X71000000Y-69900000D02*
X71000000Y-65460002D01*
X86050000Y-84950000D02*
X71000000Y-69900000D01*
X71000000Y-65460002D02*
X68379999Y-62840001D01*
X104560000Y-83710000D02*
X103320000Y-84950000D01*
X104560000Y-79010000D02*
X104560000Y-83710000D01*
X103320000Y-84950000D02*
X86050000Y-84950000D01*
X110190000Y-73380000D02*
X104560000Y-79010000D01*
X112610000Y-73380000D02*
X110190000Y-73380000D01*
%TO.N,TXD0*%
X70020000Y-65869992D02*
X67600001Y-63449993D01*
X85550000Y-85830000D02*
X70020000Y-70300000D01*
X113190000Y-74300000D02*
X110320000Y-74300000D01*
X103560000Y-85830000D02*
X85550000Y-85830000D01*
X70020000Y-70300000D02*
X70020000Y-65869992D01*
X105370000Y-84020000D02*
X103560000Y-85830000D01*
X105370000Y-79250000D02*
X105370000Y-84020000D01*
X110320000Y-74300000D02*
X105370000Y-79250000D01*
%TO.N,RTC_IRQ*%
X65270000Y-81790000D02*
X65270000Y-69320000D01*
X65270000Y-69320000D02*
X68010000Y-66580000D01*
%TO.N,SDO*%
X73225001Y-78334999D02*
X69110000Y-74219998D01*
X69110000Y-66289988D02*
X67643995Y-64823983D01*
X69110000Y-74219998D02*
X69110000Y-66289988D01*
D14*
%TO.N,SD_CS*%
X57200000Y-87050000D02*
X57160000Y-87090000D01*
D16*
X57200000Y-84540000D02*
X57200000Y-87050000D01*
%TO.N,LDO_EN*%
X122710000Y-86480000D02*
X117340000Y-81110000D01*
%TO.N,RTC_CS*%
X60000000Y-63500000D02*
X65890002Y-57609998D01*
X65890002Y-57609998D02*
X77960000Y-57609998D01*
D14*
%TO.N,/VIN*%
X121780000Y-83820000D02*
X121780000Y-83800000D01*
D16*
X123780000Y-85820000D02*
X121780000Y-83820000D01*
%TD*%
D18*
%TO.N,GND*%
G36*
X134671632Y-37389705D02*
G01*
X134207523Y-37581946D01*
X133760619Y-37880558D01*
X133380558Y-38260619D01*
X133081946Y-38707523D01*
X132876258Y-39204097D01*
X132771400Y-39731256D01*
X132771400Y-40268744D01*
X132876258Y-40795903D01*
X133081946Y-41292477D01*
X133380558Y-41739381D01*
X133760619Y-42119442D01*
X134207523Y-42418054D01*
X134704097Y-42623742D01*
X135231256Y-42728600D01*
X135768744Y-42728600D01*
X136295903Y-42623742D01*
X136792477Y-42418054D01*
X137239381Y-42119442D01*
X137619442Y-41739381D01*
X137918054Y-41292477D01*
X138123742Y-40795903D01*
X138228600Y-40268744D01*
X138228600Y-39823687D01*
X138246374Y-39992794D01*
X138246400Y-40000310D01*
X138246401Y-90987583D01*
X138228600Y-91169130D01*
X138228600Y-90731256D01*
X138123742Y-90204097D01*
X137918054Y-89707523D01*
X137619442Y-89260619D01*
X137239381Y-88880558D01*
X136792477Y-88581946D01*
X136295903Y-88376258D01*
X135768744Y-88271400D01*
X135231256Y-88271400D01*
X134704097Y-88376258D01*
X134207523Y-88581946D01*
X133760619Y-88880558D01*
X133380558Y-89260619D01*
X133081946Y-89707523D01*
X132876258Y-90204097D01*
X132771400Y-90731256D01*
X132771400Y-91268744D01*
X132876258Y-91795903D01*
X133081946Y-92292477D01*
X133380558Y-92739381D01*
X133760619Y-93119442D01*
X134207523Y-93418054D01*
X134704097Y-93623742D01*
X134767716Y-93636396D01*
X44046229Y-93680815D01*
X44051577Y-91970124D01*
X44123742Y-91795903D01*
X44228600Y-91268744D01*
X44228600Y-90731256D01*
X44123742Y-90204097D01*
X44057597Y-90044409D01*
X44058085Y-89888088D01*
X46941400Y-89888088D01*
X46941400Y-90011912D01*
X46965556Y-90133356D01*
X47012941Y-90247754D01*
X47023593Y-90263695D01*
X47023900Y-90266817D01*
X47023900Y-90266823D01*
X47031802Y-90347053D01*
X47063028Y-90449993D01*
X47113738Y-90544865D01*
X47181981Y-90628019D01*
X47202821Y-90645122D01*
X49854882Y-93297184D01*
X49871981Y-93318019D01*
X49892816Y-93335118D01*
X49900959Y-93341801D01*
X49955135Y-93386262D01*
X50050006Y-93436972D01*
X50152946Y-93468198D01*
X50233176Y-93476100D01*
X50233185Y-93476100D01*
X50259999Y-93478741D01*
X50286813Y-93476100D01*
X76003183Y-93476100D01*
X76030000Y-93478741D01*
X76056817Y-93476100D01*
X76116626Y-93476100D01*
X76196856Y-93468198D01*
X76203772Y-93466100D01*
X76258880Y-93466100D01*
X76275681Y-93479917D01*
X76348449Y-93518907D01*
X76427425Y-93542951D01*
X76509575Y-93551126D01*
X76591740Y-93543117D01*
X76670764Y-93519233D01*
X76743611Y-93480390D01*
X76761059Y-93466100D01*
X92915845Y-93466100D01*
X92932246Y-93477059D01*
X93046644Y-93524444D01*
X93168088Y-93548600D01*
X93291912Y-93548600D01*
X93413356Y-93524444D01*
X93527754Y-93477059D01*
X93559121Y-93456100D01*
X107663183Y-93456100D01*
X107690000Y-93458741D01*
X107716817Y-93456100D01*
X107716824Y-93456100D01*
X107797054Y-93448198D01*
X107899994Y-93416972D01*
X107994865Y-93366262D01*
X108078019Y-93298019D01*
X108095122Y-93277179D01*
X109319137Y-92053164D01*
X120921400Y-92053164D01*
X120921400Y-92186836D01*
X120947479Y-92317940D01*
X120998633Y-92441437D01*
X121072897Y-92552582D01*
X121167418Y-92647103D01*
X121278563Y-92721367D01*
X121402060Y-92772521D01*
X121533164Y-92798600D01*
X121666836Y-92798600D01*
X121797940Y-92772521D01*
X121921437Y-92721367D01*
X122032582Y-92647103D01*
X122127103Y-92552582D01*
X122201367Y-92441437D01*
X122252521Y-92317940D01*
X122278600Y-92186836D01*
X122278600Y-92053164D01*
X123921400Y-92053164D01*
X123921400Y-92186836D01*
X123947479Y-92317940D01*
X123998633Y-92441437D01*
X124072897Y-92552582D01*
X124167418Y-92647103D01*
X124278563Y-92721367D01*
X124402060Y-92772521D01*
X124533164Y-92798600D01*
X124666836Y-92798600D01*
X124797940Y-92772521D01*
X124921437Y-92721367D01*
X125032582Y-92647103D01*
X125127103Y-92552582D01*
X125201367Y-92441437D01*
X125252521Y-92317940D01*
X125278600Y-92186836D01*
X125278600Y-92053164D01*
X125252521Y-91922060D01*
X125201367Y-91798563D01*
X125127103Y-91687418D01*
X125032582Y-91592897D01*
X124921437Y-91518633D01*
X124797940Y-91467479D01*
X124666836Y-91441400D01*
X124533164Y-91441400D01*
X124402060Y-91467479D01*
X124278563Y-91518633D01*
X124167418Y-91592897D01*
X124072897Y-91687418D01*
X123998633Y-91798563D01*
X123947479Y-91922060D01*
X123921400Y-92053164D01*
X122278600Y-92053164D01*
X122252521Y-91922060D01*
X122201367Y-91798563D01*
X122127103Y-91687418D01*
X122032582Y-91592897D01*
X121921437Y-91518633D01*
X121797940Y-91467479D01*
X121666836Y-91441400D01*
X121533164Y-91441400D01*
X121402060Y-91467479D01*
X121278563Y-91518633D01*
X121167418Y-91592897D01*
X121072897Y-91687418D01*
X120998633Y-91798563D01*
X120947479Y-91922060D01*
X120921400Y-92053164D01*
X109319137Y-92053164D01*
X111717184Y-89655118D01*
X111738019Y-89638019D01*
X111759157Y-89612263D01*
X111806262Y-89554865D01*
X111838935Y-89493738D01*
X111856972Y-89459994D01*
X111888198Y-89357054D01*
X111896100Y-89276824D01*
X111896100Y-89276817D01*
X111898741Y-89250000D01*
X111896100Y-89223183D01*
X111896100Y-81065324D01*
X116886400Y-81065324D01*
X116886400Y-81154676D01*
X116903831Y-81242310D01*
X116938025Y-81324860D01*
X116987666Y-81399153D01*
X117050847Y-81462334D01*
X117125140Y-81511975D01*
X117166348Y-81529044D01*
X122290956Y-86653653D01*
X122308025Y-86694860D01*
X122357666Y-86769153D01*
X122420847Y-86832334D01*
X122495140Y-86881975D01*
X122577690Y-86916169D01*
X122665324Y-86933600D01*
X122754676Y-86933600D01*
X122842310Y-86916169D01*
X122924860Y-86881975D01*
X122999153Y-86832334D01*
X123062334Y-86769153D01*
X123111975Y-86694860D01*
X123146169Y-86612310D01*
X123163600Y-86524676D01*
X123163600Y-86435324D01*
X123146169Y-86347690D01*
X123111975Y-86265140D01*
X123062334Y-86190847D01*
X122999153Y-86127666D01*
X122924860Y-86078025D01*
X122883653Y-86060956D01*
X120578021Y-83755324D01*
X121326400Y-83755324D01*
X121326400Y-83844676D01*
X121343831Y-83932310D01*
X121378025Y-84014860D01*
X121427666Y-84089153D01*
X121490847Y-84152334D01*
X121565140Y-84201975D01*
X121572206Y-84204902D01*
X123360956Y-85993653D01*
X123378025Y-86034860D01*
X123427666Y-86109153D01*
X123490847Y-86172334D01*
X123565140Y-86221975D01*
X123647690Y-86256169D01*
X123735324Y-86273600D01*
X123824676Y-86273600D01*
X123912310Y-86256169D01*
X123994860Y-86221975D01*
X124069153Y-86172334D01*
X124132334Y-86109153D01*
X124181975Y-86034860D01*
X124216169Y-85952310D01*
X124233600Y-85864676D01*
X124233600Y-85775324D01*
X124216169Y-85687690D01*
X124181975Y-85605140D01*
X124132334Y-85530847D01*
X124069153Y-85467666D01*
X123994860Y-85418025D01*
X123953653Y-85400956D01*
X122213187Y-83660491D01*
X122181975Y-83585140D01*
X122132334Y-83510847D01*
X122069153Y-83447666D01*
X121994860Y-83398025D01*
X121912310Y-83363831D01*
X121824676Y-83346400D01*
X121735324Y-83346400D01*
X121647690Y-83363831D01*
X121565140Y-83398025D01*
X121490847Y-83447666D01*
X121427666Y-83510847D01*
X121378025Y-83585140D01*
X121343831Y-83667690D01*
X121326400Y-83755324D01*
X120578021Y-83755324D01*
X117759044Y-80936348D01*
X117741975Y-80895140D01*
X117692334Y-80820847D01*
X117629153Y-80757666D01*
X117554860Y-80708025D01*
X117472310Y-80673831D01*
X117384676Y-80656400D01*
X117295324Y-80656400D01*
X117207690Y-80673831D01*
X117125140Y-80708025D01*
X117050847Y-80757666D01*
X116987666Y-80820847D01*
X116938025Y-80895140D01*
X116903831Y-80977690D01*
X116886400Y-81065324D01*
X111896100Y-81065324D01*
X111896100Y-79419926D01*
X111951981Y-79488017D01*
X112035135Y-79556260D01*
X112130006Y-79606970D01*
X112232946Y-79638196D01*
X112313176Y-79646098D01*
X119033797Y-79646098D01*
X124124882Y-84737184D01*
X124141981Y-84758019D01*
X124225135Y-84826262D01*
X124320006Y-84876972D01*
X124422946Y-84908198D01*
X124503176Y-84916100D01*
X124503185Y-84916100D01*
X124529999Y-84918741D01*
X124556813Y-84916100D01*
X126655845Y-84916100D01*
X126672246Y-84927059D01*
X126786644Y-84974444D01*
X126908088Y-84998600D01*
X127031912Y-84998600D01*
X127153356Y-84974444D01*
X127267754Y-84927059D01*
X127370709Y-84858266D01*
X127458266Y-84770709D01*
X127527059Y-84667754D01*
X127574444Y-84553356D01*
X127598600Y-84431912D01*
X127598600Y-84308088D01*
X127574444Y-84186644D01*
X127527059Y-84072246D01*
X127516100Y-84055845D01*
X127516100Y-80600400D01*
X133496400Y-80600400D01*
X133496400Y-80699600D01*
X133515753Y-80796895D01*
X133553715Y-80888544D01*
X133608828Y-80971026D01*
X133678974Y-81041172D01*
X133761456Y-81096285D01*
X133853105Y-81134247D01*
X133950400Y-81153600D01*
X134049600Y-81153600D01*
X134146895Y-81134247D01*
X134238544Y-81096285D01*
X134321026Y-81041172D01*
X134391172Y-80971026D01*
X134446285Y-80888544D01*
X134484247Y-80796895D01*
X134503600Y-80699600D01*
X134503600Y-80600400D01*
X134484247Y-80503105D01*
X134446285Y-80411456D01*
X134391172Y-80328974D01*
X134321026Y-80258828D01*
X134238544Y-80203715D01*
X134146895Y-80165753D01*
X134049600Y-80146400D01*
X133950400Y-80146400D01*
X133853105Y-80165753D01*
X133761456Y-80203715D01*
X133678974Y-80258828D01*
X133608828Y-80328974D01*
X133553715Y-80411456D01*
X133515753Y-80503105D01*
X133496400Y-80600400D01*
X127516100Y-80600400D01*
X127516100Y-79136936D01*
X127528198Y-79097054D01*
X127536100Y-79016824D01*
X127536100Y-76300400D01*
X133496400Y-76300400D01*
X133496400Y-76399600D01*
X133515753Y-76496895D01*
X133553715Y-76588544D01*
X133608828Y-76671026D01*
X133678974Y-76741172D01*
X133761456Y-76796285D01*
X133853105Y-76834247D01*
X133950400Y-76853600D01*
X134049600Y-76853600D01*
X134146895Y-76834247D01*
X134238544Y-76796285D01*
X134321026Y-76741172D01*
X134391172Y-76671026D01*
X134446285Y-76588544D01*
X134484247Y-76496895D01*
X134503600Y-76399600D01*
X134503600Y-76300400D01*
X134484247Y-76203105D01*
X134446285Y-76111456D01*
X134391172Y-76028974D01*
X134321026Y-75958828D01*
X134238544Y-75903715D01*
X134146895Y-75865753D01*
X134049600Y-75846400D01*
X133950400Y-75846400D01*
X133853105Y-75865753D01*
X133761456Y-75903715D01*
X133678974Y-75958828D01*
X133608828Y-76028974D01*
X133553715Y-76111456D01*
X133515753Y-76203105D01*
X133496400Y-76300400D01*
X127536100Y-76300400D01*
X127536100Y-75758073D01*
X127580709Y-75728266D01*
X127668266Y-75640709D01*
X127737059Y-75537754D01*
X127784444Y-75423356D01*
X127808600Y-75301912D01*
X127808600Y-75178088D01*
X127784444Y-75056644D01*
X127737059Y-74942246D01*
X127668266Y-74839291D01*
X127580709Y-74751734D01*
X127477754Y-74682941D01*
X127363356Y-74635556D01*
X127241912Y-74611400D01*
X127118088Y-74611400D01*
X126996644Y-74635556D01*
X126882246Y-74682941D01*
X126779291Y-74751734D01*
X126691734Y-74839291D01*
X126663889Y-74880964D01*
X126642393Y-74898816D01*
X126601981Y-74931981D01*
X126600961Y-74933224D01*
X126599729Y-74934247D01*
X126566901Y-74974726D01*
X126533738Y-75015135D01*
X126532981Y-75016552D01*
X126531970Y-75017798D01*
X126507664Y-75063916D01*
X126483028Y-75110007D01*
X126482561Y-75111547D01*
X126481815Y-75112962D01*
X126466978Y-75162917D01*
X126451802Y-75212947D01*
X126451645Y-75214544D01*
X126451188Y-75216082D01*
X126446381Y-75267990D01*
X126443900Y-75293177D01*
X126443900Y-75294776D01*
X126441268Y-75323196D01*
X126443900Y-75348413D01*
X126443901Y-78863064D01*
X126431803Y-78902946D01*
X126423901Y-78983176D01*
X126423900Y-83823900D01*
X124756202Y-83823900D01*
X120087626Y-79155324D01*
X121456240Y-79155324D01*
X121456240Y-79244676D01*
X121473671Y-79332310D01*
X121507865Y-79414860D01*
X121557506Y-79489153D01*
X121620687Y-79552334D01*
X121694980Y-79601975D01*
X121777530Y-79636169D01*
X121865164Y-79653600D01*
X121954516Y-79653600D01*
X122042150Y-79636169D01*
X122124700Y-79601975D01*
X122198993Y-79552334D01*
X122262174Y-79489153D01*
X122311815Y-79414860D01*
X122346009Y-79332310D01*
X122363440Y-79244676D01*
X122363440Y-79155324D01*
X122346009Y-79067690D01*
X122311815Y-78985140D01*
X122265440Y-78915735D01*
X122265440Y-77974503D01*
X122311974Y-77904860D01*
X122346168Y-77822310D01*
X122363599Y-77734676D01*
X122363599Y-77645324D01*
X122346168Y-77557690D01*
X122311974Y-77475140D01*
X122262333Y-77400847D01*
X122199152Y-77337666D01*
X122124859Y-77288025D01*
X122042309Y-77253831D01*
X121954675Y-77236400D01*
X121865323Y-77236400D01*
X121777689Y-77253831D01*
X121695139Y-77288025D01*
X121620846Y-77337666D01*
X121557665Y-77400847D01*
X121508024Y-77475140D01*
X121473830Y-77557690D01*
X121456399Y-77645324D01*
X121456399Y-77734676D01*
X121473830Y-77822310D01*
X121508024Y-77904860D01*
X121554241Y-77974028D01*
X121554240Y-78915735D01*
X121507865Y-78985140D01*
X121473671Y-79067690D01*
X121456240Y-79155324D01*
X120087626Y-79155324D01*
X119665120Y-78732819D01*
X119648017Y-78711979D01*
X119564863Y-78643736D01*
X119469992Y-78593026D01*
X119367052Y-78561800D01*
X119286822Y-78553898D01*
X119286815Y-78553898D01*
X119259998Y-78551257D01*
X119233181Y-78553898D01*
X112313176Y-78553898D01*
X112232946Y-78561800D01*
X112130006Y-78593026D01*
X112035135Y-78643736D01*
X111970614Y-78696688D01*
X113121202Y-77546100D01*
X118723799Y-77546100D01*
X118991708Y-77814010D01*
X118995556Y-77833356D01*
X119042941Y-77947754D01*
X119111734Y-78050709D01*
X119199291Y-78138266D01*
X119302246Y-78207059D01*
X119416644Y-78254444D01*
X119538088Y-78278600D01*
X119661912Y-78278600D01*
X119783356Y-78254444D01*
X119897754Y-78207059D01*
X120000709Y-78138266D01*
X120088266Y-78050709D01*
X120157059Y-77947754D01*
X120204444Y-77833356D01*
X120228600Y-77711912D01*
X120228600Y-77588088D01*
X120204444Y-77466644D01*
X120157059Y-77352246D01*
X120146100Y-77335845D01*
X120146100Y-77266201D01*
X120726202Y-76686100D01*
X122653799Y-76686100D01*
X123031708Y-77064010D01*
X123035556Y-77083356D01*
X123082941Y-77197754D01*
X123151734Y-77300709D01*
X123239291Y-77388266D01*
X123342246Y-77457059D01*
X123456644Y-77504444D01*
X123578088Y-77528600D01*
X123701912Y-77528600D01*
X123823356Y-77504444D01*
X123937754Y-77457059D01*
X124040709Y-77388266D01*
X124128266Y-77300709D01*
X124197059Y-77197754D01*
X124244444Y-77083356D01*
X124268600Y-76961912D01*
X124268600Y-76838088D01*
X124244444Y-76716644D01*
X124197059Y-76602246D01*
X124128266Y-76499291D01*
X124059100Y-76430125D01*
X124059100Y-73583594D01*
X125123653Y-72519042D01*
X125164860Y-72501973D01*
X125239153Y-72452332D01*
X125302334Y-72389151D01*
X125351975Y-72314858D01*
X125386169Y-72232308D01*
X125403600Y-72144674D01*
X125403600Y-72055322D01*
X125386169Y-71967688D01*
X125351975Y-71885138D01*
X125302334Y-71810845D01*
X125239153Y-71747664D01*
X125164860Y-71698023D01*
X125082310Y-71663829D01*
X124994676Y-71646398D01*
X124905324Y-71646398D01*
X124817690Y-71663829D01*
X124735140Y-71698023D01*
X124660847Y-71747664D01*
X124597666Y-71810845D01*
X124548025Y-71885138D01*
X124530956Y-71926345D01*
X123358206Y-73099096D01*
X123342219Y-73112216D01*
X123329100Y-73128202D01*
X123289846Y-73176033D01*
X123250930Y-73248840D01*
X123226965Y-73327841D01*
X123218873Y-73409998D01*
X123220901Y-73430588D01*
X123220900Y-75713312D01*
X123184865Y-75683738D01*
X123089994Y-75633028D01*
X122987054Y-75601802D01*
X122906824Y-75593900D01*
X122906817Y-75593900D01*
X122880000Y-75591259D01*
X122853183Y-75593900D01*
X120526813Y-75593900D01*
X120499999Y-75591259D01*
X120473185Y-75593900D01*
X120473176Y-75593900D01*
X120392946Y-75601802D01*
X120290006Y-75633028D01*
X120195135Y-75683738D01*
X120111981Y-75751981D01*
X120094882Y-75772816D01*
X119292816Y-76574883D01*
X119254865Y-76543738D01*
X119159994Y-76493028D01*
X119057054Y-76461802D01*
X118976824Y-76453900D01*
X118976817Y-76453900D01*
X118950000Y-76451259D01*
X118923183Y-76453900D01*
X112921817Y-76453900D01*
X112895000Y-76451259D01*
X112868183Y-76453900D01*
X112868176Y-76453900D01*
X112787946Y-76461802D01*
X112685006Y-76493028D01*
X112685004Y-76493029D01*
X112590135Y-76543738D01*
X112535041Y-76588953D01*
X112506981Y-76611981D01*
X112489882Y-76632816D01*
X110982821Y-78139878D01*
X110961981Y-78156981D01*
X110893738Y-78240135D01*
X110843028Y-78335007D01*
X110811802Y-78437947D01*
X110803900Y-78518177D01*
X110803900Y-78518183D01*
X110801259Y-78545000D01*
X110803900Y-78571817D01*
X110803901Y-89023797D01*
X107463799Y-92363900D01*
X93529189Y-92363900D01*
X93527754Y-92362941D01*
X93413356Y-92315556D01*
X93291912Y-92291400D01*
X93168088Y-92291400D01*
X93046644Y-92315556D01*
X92932246Y-92362941D01*
X92915845Y-92373900D01*
X76929864Y-92373900D01*
X76931427Y-90828239D01*
X80006401Y-90828239D01*
X80006401Y-90971761D01*
X80034401Y-91112525D01*
X80089324Y-91245121D01*
X80169061Y-91364455D01*
X80270546Y-91465940D01*
X80389880Y-91545677D01*
X80522476Y-91600600D01*
X80663240Y-91628600D01*
X80806762Y-91628600D01*
X80947526Y-91600600D01*
X81080122Y-91545677D01*
X81199456Y-91465940D01*
X81300941Y-91364455D01*
X81380678Y-91245121D01*
X81435601Y-91112525D01*
X81463601Y-90971761D01*
X81463601Y-90828239D01*
X81435601Y-90687475D01*
X81380678Y-90554879D01*
X81300941Y-90435545D01*
X81199456Y-90334060D01*
X81080122Y-90254323D01*
X80947526Y-90199400D01*
X80806762Y-90171400D01*
X80663240Y-90171400D01*
X80522476Y-90199400D01*
X80389880Y-90254323D01*
X80270546Y-90334060D01*
X80169061Y-90435545D01*
X80089324Y-90554879D01*
X80034401Y-90687475D01*
X80006401Y-90828239D01*
X76931427Y-90828239D01*
X76934241Y-88045324D01*
X90276400Y-88045324D01*
X90276400Y-88134676D01*
X90293831Y-88222310D01*
X90328025Y-88304860D01*
X90377666Y-88379153D01*
X90440847Y-88442334D01*
X90515140Y-88491975D01*
X90587797Y-88522071D01*
X90525140Y-88548025D01*
X90450847Y-88597666D01*
X90387666Y-88660847D01*
X90338025Y-88735140D01*
X90303831Y-88817690D01*
X90286400Y-88905324D01*
X90286400Y-88994676D01*
X90303831Y-89082310D01*
X90338025Y-89164860D01*
X90387666Y-89239153D01*
X90450847Y-89302334D01*
X90525140Y-89351975D01*
X90607690Y-89386169D01*
X90695324Y-89403600D01*
X90784676Y-89403600D01*
X90807300Y-89399100D01*
X99486483Y-89399100D01*
X99527690Y-89416169D01*
X99615324Y-89433600D01*
X99704676Y-89433600D01*
X99792310Y-89416169D01*
X99874860Y-89381975D01*
X99949153Y-89332334D01*
X100012334Y-89269153D01*
X100061975Y-89194860D01*
X100096169Y-89112310D01*
X100113600Y-89024676D01*
X100113600Y-88935324D01*
X100096169Y-88847690D01*
X100061975Y-88765140D01*
X100012334Y-88690847D01*
X99949153Y-88627666D01*
X99874860Y-88578025D01*
X99792310Y-88543831D01*
X99704676Y-88526400D01*
X99615324Y-88526400D01*
X99527690Y-88543831D01*
X99486483Y-88560900D01*
X90974129Y-88560900D01*
X90954860Y-88548025D01*
X90882203Y-88517929D01*
X90903517Y-88509100D01*
X101220624Y-88509100D01*
X101237690Y-88516169D01*
X101325324Y-88533600D01*
X101414676Y-88533600D01*
X101502310Y-88516169D01*
X101543517Y-88499100D01*
X105096404Y-88499100D01*
X105970900Y-89373597D01*
X105970901Y-91296480D01*
X105953831Y-91337690D01*
X105936400Y-91425324D01*
X105936400Y-91514676D01*
X105953831Y-91602310D01*
X105988025Y-91684860D01*
X106037666Y-91759153D01*
X106100847Y-91822334D01*
X106175140Y-91871975D01*
X106257690Y-91906169D01*
X106345324Y-91923600D01*
X106434676Y-91923600D01*
X106522310Y-91906169D01*
X106604860Y-91871975D01*
X106679153Y-91822334D01*
X106742334Y-91759153D01*
X106791975Y-91684860D01*
X106826169Y-91602310D01*
X106843600Y-91514676D01*
X106843600Y-91425324D01*
X106826169Y-91337690D01*
X106809100Y-91296483D01*
X106809100Y-89220579D01*
X106811127Y-89199999D01*
X106803035Y-89117842D01*
X106801357Y-89112310D01*
X106779071Y-89038842D01*
X106740154Y-88966034D01*
X106687782Y-88902218D01*
X106671796Y-88889099D01*
X105580907Y-87798211D01*
X105567782Y-87782218D01*
X105503966Y-87729846D01*
X105431158Y-87690929D01*
X105352158Y-87666965D01*
X105290580Y-87660900D01*
X105270000Y-87658873D01*
X105249420Y-87660900D01*
X101543517Y-87660900D01*
X101502310Y-87643831D01*
X101414676Y-87626400D01*
X101325324Y-87626400D01*
X101237690Y-87643831D01*
X101172341Y-87670900D01*
X90903517Y-87670900D01*
X90862310Y-87653831D01*
X90774676Y-87636400D01*
X90685324Y-87636400D01*
X90597690Y-87653831D01*
X90515140Y-87688025D01*
X90440847Y-87737666D01*
X90377666Y-87800847D01*
X90328025Y-87875140D01*
X90293831Y-87957690D01*
X90276400Y-88045324D01*
X76934241Y-88045324D01*
X76943925Y-78468942D01*
X76961170Y-78427309D01*
X76978601Y-78339675D01*
X76978601Y-78250323D01*
X76961170Y-78162689D01*
X76926976Y-78080139D01*
X76877335Y-78005846D01*
X76814154Y-77942665D01*
X76739861Y-77893024D01*
X76657311Y-77858830D01*
X76569677Y-77841399D01*
X76480325Y-77841399D01*
X76392691Y-77858830D01*
X76310141Y-77893024D01*
X76235848Y-77942665D01*
X76172667Y-78005846D01*
X76123026Y-78080139D01*
X76088832Y-78162689D01*
X76071401Y-78250323D01*
X76071401Y-78339675D01*
X76088832Y-78427309D01*
X76105727Y-78468096D01*
X76091665Y-92373900D01*
X76066813Y-92373900D01*
X76039999Y-92371259D01*
X76013185Y-92373900D01*
X76013176Y-92373900D01*
X75932946Y-92381802D01*
X75926030Y-92383900D01*
X62706014Y-92383900D01*
X62706014Y-90828239D01*
X72006401Y-90828239D01*
X72006401Y-90971761D01*
X72034401Y-91112525D01*
X72089324Y-91245121D01*
X72169061Y-91364455D01*
X72270546Y-91465940D01*
X72389880Y-91545677D01*
X72522476Y-91600600D01*
X72663240Y-91628600D01*
X72806762Y-91628600D01*
X72947526Y-91600600D01*
X73080122Y-91545677D01*
X73199456Y-91465940D01*
X73300941Y-91364455D01*
X73380678Y-91245121D01*
X73435601Y-91112525D01*
X73463601Y-90971761D01*
X73463601Y-90828239D01*
X73435601Y-90687475D01*
X73380678Y-90554879D01*
X73300941Y-90435545D01*
X73199456Y-90334060D01*
X73080122Y-90254323D01*
X72947526Y-90199400D01*
X72806762Y-90171400D01*
X72663240Y-90171400D01*
X72522476Y-90199400D01*
X72389880Y-90254323D01*
X72270546Y-90334060D01*
X72169061Y-90435545D01*
X72089324Y-90554879D01*
X72034401Y-90687475D01*
X72006401Y-90828239D01*
X62706014Y-90828239D01*
X62706014Y-86786682D01*
X63773653Y-85719044D01*
X63814860Y-85701975D01*
X63889153Y-85652334D01*
X63952334Y-85589153D01*
X64001975Y-85514860D01*
X64036169Y-85432310D01*
X64053600Y-85344676D01*
X64053600Y-85255324D01*
X64036169Y-85167690D01*
X64001975Y-85085140D01*
X63952334Y-85010847D01*
X63889153Y-84947666D01*
X63814860Y-84898025D01*
X63732310Y-84863831D01*
X63644676Y-84846400D01*
X63555324Y-84846400D01*
X63467690Y-84863831D01*
X63385140Y-84898025D01*
X63310847Y-84947666D01*
X63247666Y-85010847D01*
X63198025Y-85085140D01*
X63180956Y-85126347D01*
X62005120Y-86302184D01*
X61989133Y-86315304D01*
X61976014Y-86331290D01*
X61936760Y-86379121D01*
X61897844Y-86451928D01*
X61873879Y-86530929D01*
X61865787Y-86613086D01*
X61867815Y-86633676D01*
X61867814Y-92383900D01*
X50486202Y-92383900D01*
X48184600Y-90082299D01*
X48198600Y-90011912D01*
X48198600Y-89888088D01*
X48174444Y-89766644D01*
X48127059Y-89652246D01*
X48058266Y-89549291D01*
X47970709Y-89461734D01*
X47867754Y-89392941D01*
X47753356Y-89345556D01*
X47631912Y-89321400D01*
X47508088Y-89321400D01*
X47386644Y-89345556D01*
X47272246Y-89392941D01*
X47169291Y-89461734D01*
X47081734Y-89549291D01*
X47012941Y-89652246D01*
X46965556Y-89766644D01*
X46941400Y-89888088D01*
X44058085Y-89888088D01*
X44066971Y-87045324D01*
X56706400Y-87045324D01*
X56706400Y-87134676D01*
X56723831Y-87222310D01*
X56758025Y-87304860D01*
X56807666Y-87379153D01*
X56870847Y-87442334D01*
X56945140Y-87491975D01*
X57027690Y-87526169D01*
X57115324Y-87543600D01*
X57204676Y-87543600D01*
X57292310Y-87526169D01*
X57374860Y-87491975D01*
X57449153Y-87442334D01*
X57512334Y-87379153D01*
X57561975Y-87304860D01*
X57596169Y-87222310D01*
X57613600Y-87134676D01*
X57613600Y-87126422D01*
X57619100Y-87070580D01*
X57619100Y-84713517D01*
X57636169Y-84672310D01*
X57653600Y-84584676D01*
X57653600Y-84495324D01*
X57636169Y-84407690D01*
X57601975Y-84325140D01*
X57552334Y-84250847D01*
X57489153Y-84187666D01*
X57414860Y-84138025D01*
X57332310Y-84103831D01*
X57244676Y-84086400D01*
X57155324Y-84086400D01*
X57067690Y-84103831D01*
X56985140Y-84138025D01*
X56910847Y-84187666D01*
X56847666Y-84250847D01*
X56798025Y-84325140D01*
X56763831Y-84407690D01*
X56746400Y-84495324D01*
X56746400Y-84584676D01*
X56763831Y-84672310D01*
X56780900Y-84713518D01*
X56780901Y-86840904D01*
X56758025Y-86875140D01*
X56723831Y-86957690D01*
X56706400Y-87045324D01*
X44066971Y-87045324D01*
X44145949Y-61780448D01*
X44940901Y-62575400D01*
X44940900Y-66123830D01*
X44938873Y-66144410D01*
X44940900Y-66164989D01*
X44946965Y-66226567D01*
X44970929Y-66305567D01*
X45009846Y-66378375D01*
X45062218Y-66442192D01*
X45078211Y-66455317D01*
X48500956Y-69878063D01*
X48518025Y-69919270D01*
X48567666Y-69993563D01*
X48630847Y-70056744D01*
X48705140Y-70106385D01*
X48787690Y-70140579D01*
X48875324Y-70158010D01*
X48964676Y-70158010D01*
X49052310Y-70140579D01*
X49134860Y-70106385D01*
X49209153Y-70056744D01*
X49272334Y-69993563D01*
X49321975Y-69919270D01*
X49356169Y-69836720D01*
X49373600Y-69749086D01*
X49373600Y-69659734D01*
X49356169Y-69572100D01*
X49321975Y-69489550D01*
X49272334Y-69415257D01*
X49209153Y-69352076D01*
X49134860Y-69302435D01*
X49093653Y-69285366D01*
X45779100Y-65970814D01*
X45779100Y-62422381D01*
X45781127Y-62401801D01*
X45773035Y-62319644D01*
X45770247Y-62310454D01*
X45749071Y-62240644D01*
X45710154Y-62167836D01*
X45657782Y-62104020D01*
X45641795Y-62090900D01*
X41269119Y-57718225D01*
X41255994Y-57702232D01*
X41192178Y-57649860D01*
X41119370Y-57610943D01*
X41040370Y-57586979D01*
X40978792Y-57580914D01*
X40958212Y-57578887D01*
X40937632Y-57580914D01*
X40313517Y-57580914D01*
X40272310Y-57563845D01*
X40184676Y-57546414D01*
X40095324Y-57546414D01*
X40007690Y-57563845D01*
X39925140Y-57598039D01*
X39850847Y-57647680D01*
X39787666Y-57710861D01*
X39738025Y-57785154D01*
X39703831Y-57867704D01*
X39686400Y-57955338D01*
X39686400Y-58044690D01*
X39703831Y-58132324D01*
X39738025Y-58214874D01*
X39787666Y-58289167D01*
X39850847Y-58352348D01*
X39925140Y-58401989D01*
X40007690Y-58436183D01*
X40095324Y-58453614D01*
X40184676Y-58453614D01*
X40272310Y-58436183D01*
X40313517Y-58419114D01*
X40784616Y-58419114D01*
X43989301Y-61623800D01*
X38753600Y-61623800D01*
X38753600Y-46455324D01*
X45946400Y-46455324D01*
X45946400Y-46544676D01*
X45963831Y-46632310D01*
X45998025Y-46714860D01*
X46044400Y-46784265D01*
X46044401Y-64682534D01*
X46042681Y-64700000D01*
X46049546Y-64769710D01*
X46069880Y-64836741D01*
X46083812Y-64862805D01*
X46102900Y-64898516D01*
X46120848Y-64920385D01*
X46133174Y-64935404D01*
X46147338Y-64952663D01*
X46160901Y-64963794D01*
X51734400Y-70537295D01*
X51734401Y-79950700D01*
X51698025Y-80005140D01*
X51663831Y-80087690D01*
X51646400Y-80175324D01*
X51646400Y-80264676D01*
X51663831Y-80352310D01*
X51698025Y-80434860D01*
X51747666Y-80509153D01*
X51810847Y-80572334D01*
X51885140Y-80621975D01*
X51967690Y-80656169D01*
X52055324Y-80673600D01*
X52144676Y-80673600D01*
X52232310Y-80656169D01*
X52314860Y-80621975D01*
X52389153Y-80572334D01*
X52452334Y-80509153D01*
X52501975Y-80434860D01*
X52536169Y-80352310D01*
X52553600Y-80264676D01*
X52553600Y-80175324D01*
X52536169Y-80087690D01*
X52501975Y-80005140D01*
X52452334Y-79930847D01*
X52445600Y-79924113D01*
X52445600Y-70407455D01*
X52447319Y-70389999D01*
X52445600Y-70372544D01*
X52445600Y-70372537D01*
X52441133Y-70327187D01*
X52440454Y-70320289D01*
X52420120Y-70253258D01*
X52401190Y-70217843D01*
X52387101Y-70191484D01*
X52379150Y-70181796D01*
X52353795Y-70150900D01*
X52353785Y-70150890D01*
X52342662Y-70137337D01*
X52329110Y-70126215D01*
X46755600Y-64552707D01*
X46755600Y-46784265D01*
X46801975Y-46714860D01*
X46836169Y-46632310D01*
X46853600Y-46544676D01*
X46853600Y-46455324D01*
X46836169Y-46367690D01*
X46801975Y-46285140D01*
X46752334Y-46210847D01*
X46689153Y-46147666D01*
X46614860Y-46098025D01*
X46532310Y-46063831D01*
X46444676Y-46046400D01*
X46355324Y-46046400D01*
X46267690Y-46063831D01*
X46185140Y-46098025D01*
X46110847Y-46147666D01*
X46047666Y-46210847D01*
X45998025Y-46285140D01*
X45963831Y-46367690D01*
X45946400Y-46455324D01*
X38753600Y-46455324D01*
X38753600Y-40012407D01*
X38771400Y-39830870D01*
X38771400Y-40268744D01*
X38876258Y-40795903D01*
X39081946Y-41292477D01*
X39380558Y-41739381D01*
X39760619Y-42119442D01*
X40207523Y-42418054D01*
X40704097Y-42623742D01*
X41231256Y-42728600D01*
X41768744Y-42728600D01*
X42295903Y-42623742D01*
X42792477Y-42418054D01*
X43239381Y-42119442D01*
X43619442Y-41739381D01*
X43918054Y-41292477D01*
X44123742Y-40795903D01*
X44151704Y-40655324D01*
X47346400Y-40655324D01*
X47346400Y-40744676D01*
X47363831Y-40832310D01*
X47398025Y-40914860D01*
X47444400Y-40984265D01*
X47444401Y-64686944D01*
X47442681Y-64704410D01*
X47449546Y-64774120D01*
X47469880Y-64841151D01*
X47478337Y-64856972D01*
X47502900Y-64902926D01*
X47526122Y-64931222D01*
X47535385Y-64942508D01*
X47547338Y-64957073D01*
X47560901Y-64968204D01*
X53060901Y-70468205D01*
X53060906Y-70468209D01*
X55549401Y-72956706D01*
X55549400Y-79950735D01*
X55503025Y-80020140D01*
X55468831Y-80102690D01*
X55451400Y-80190324D01*
X55451400Y-80279676D01*
X55468831Y-80367310D01*
X55503025Y-80449860D01*
X55552666Y-80524153D01*
X55615847Y-80587334D01*
X55690140Y-80636975D01*
X55772690Y-80671169D01*
X55860324Y-80688600D01*
X55949676Y-80688600D01*
X56037310Y-80671169D01*
X56119860Y-80636975D01*
X56194153Y-80587334D01*
X56257334Y-80524153D01*
X56306975Y-80449860D01*
X56341169Y-80367310D01*
X56358600Y-80279676D01*
X56358600Y-80190324D01*
X56341169Y-80102690D01*
X56306975Y-80020140D01*
X56260600Y-79950735D01*
X56260600Y-72826862D01*
X56262319Y-72809409D01*
X56260600Y-72791956D01*
X56260600Y-72791947D01*
X56255454Y-72739700D01*
X56235121Y-72672670D01*
X56202101Y-72610894D01*
X56173589Y-72576152D01*
X56168795Y-72570310D01*
X56168790Y-72570305D01*
X56157663Y-72556747D01*
X56144105Y-72545620D01*
X53563799Y-69965316D01*
X53563795Y-69965311D01*
X48155600Y-64557117D01*
X48155600Y-60285324D01*
X49196400Y-60285324D01*
X49196400Y-60374676D01*
X49213831Y-60462310D01*
X49248025Y-60544860D01*
X49294400Y-60614265D01*
X49294401Y-65232534D01*
X49292681Y-65250000D01*
X49299546Y-65319710D01*
X49319880Y-65386741D01*
X49336390Y-65417628D01*
X49352900Y-65448516D01*
X49369874Y-65469198D01*
X49379495Y-65480921D01*
X49397338Y-65502663D01*
X49410901Y-65513794D01*
X58084400Y-74187295D01*
X58084401Y-79925731D01*
X58038025Y-79995138D01*
X58003831Y-80077688D01*
X57986400Y-80165322D01*
X57986400Y-80254674D01*
X58003831Y-80342308D01*
X58038025Y-80424858D01*
X58087666Y-80499151D01*
X58150847Y-80562332D01*
X58225140Y-80611973D01*
X58307690Y-80646167D01*
X58395324Y-80663598D01*
X58484676Y-80663598D01*
X58572310Y-80646167D01*
X58654860Y-80611973D01*
X58729153Y-80562332D01*
X58792334Y-80499151D01*
X58841975Y-80424858D01*
X58876169Y-80342308D01*
X58893600Y-80254674D01*
X58893600Y-80165322D01*
X58876169Y-80077688D01*
X58841975Y-79995138D01*
X58795600Y-79925733D01*
X58795600Y-74057452D01*
X58797319Y-74039999D01*
X58795600Y-74022546D01*
X58795600Y-74022537D01*
X58790454Y-73970290D01*
X58770121Y-73903260D01*
X58737101Y-73841484D01*
X58730631Y-73833600D01*
X58703795Y-73800900D01*
X58703785Y-73800890D01*
X58692662Y-73787337D01*
X58679110Y-73776215D01*
X53318820Y-68415926D01*
X53367690Y-68436169D01*
X53455324Y-68453600D01*
X53544676Y-68453600D01*
X53632310Y-68436169D01*
X53714860Y-68401975D01*
X53789153Y-68352334D01*
X53852334Y-68289153D01*
X53901975Y-68214860D01*
X53936169Y-68132310D01*
X53953600Y-68044676D01*
X53953600Y-67955324D01*
X53936510Y-67869403D01*
X57544400Y-71477294D01*
X57544401Y-71645736D01*
X57498025Y-71715142D01*
X57463831Y-71797692D01*
X57446400Y-71885326D01*
X57446400Y-71974678D01*
X57463831Y-72062312D01*
X57498025Y-72144862D01*
X57547666Y-72219155D01*
X57610847Y-72282336D01*
X57685140Y-72331977D01*
X57767690Y-72366171D01*
X57855324Y-72383602D01*
X57944676Y-72383602D01*
X58032310Y-72366171D01*
X58114860Y-72331977D01*
X58189153Y-72282336D01*
X58252334Y-72219155D01*
X58301975Y-72144862D01*
X58336169Y-72062312D01*
X58353600Y-71974678D01*
X58353600Y-71885326D01*
X58336169Y-71797692D01*
X58301975Y-71715142D01*
X58255600Y-71645737D01*
X58255600Y-71347455D01*
X58257319Y-71330000D01*
X58255600Y-71312545D01*
X58255600Y-71312537D01*
X58250454Y-71260290D01*
X58230121Y-71193260D01*
X58197101Y-71131484D01*
X58163795Y-71090901D01*
X58163790Y-71090896D01*
X58152662Y-71077337D01*
X58139104Y-71066210D01*
X57844370Y-70771476D01*
X57905324Y-70783600D01*
X57994676Y-70783600D01*
X58082310Y-70766169D01*
X58164860Y-70731975D01*
X58239153Y-70682334D01*
X58302334Y-70619153D01*
X58351975Y-70544860D01*
X58386169Y-70462310D01*
X58403600Y-70374676D01*
X58403600Y-70296297D01*
X59280900Y-71173597D01*
X59280901Y-80016480D01*
X59263831Y-80057690D01*
X59246400Y-80145324D01*
X59246400Y-80234676D01*
X59263831Y-80322310D01*
X59298025Y-80404860D01*
X59347666Y-80479153D01*
X59410847Y-80542334D01*
X59485140Y-80591975D01*
X59567690Y-80626169D01*
X59655324Y-80643600D01*
X59744676Y-80643600D01*
X59832310Y-80626169D01*
X59914860Y-80591975D01*
X59989153Y-80542334D01*
X60052334Y-80479153D01*
X60101975Y-80404860D01*
X60136169Y-80322310D01*
X60153600Y-80234676D01*
X60153600Y-80145324D01*
X60136169Y-80057690D01*
X60119100Y-80016483D01*
X60119100Y-71020580D01*
X60121127Y-71000000D01*
X60113035Y-70917842D01*
X60089071Y-70838843D01*
X60089071Y-70838842D01*
X60050154Y-70766034D01*
X59997782Y-70702218D01*
X59981796Y-70689099D01*
X56819100Y-67526404D01*
X56819100Y-67255324D01*
X56846400Y-67255324D01*
X56846400Y-67344676D01*
X56863831Y-67432310D01*
X56898025Y-67514860D01*
X56947666Y-67589153D01*
X57010847Y-67652334D01*
X57085140Y-67701975D01*
X57167690Y-67736169D01*
X57255324Y-67753600D01*
X57344676Y-67753600D01*
X57432310Y-67736169D01*
X57514860Y-67701975D01*
X57589153Y-67652334D01*
X57652334Y-67589153D01*
X57701975Y-67514860D01*
X57736169Y-67432310D01*
X57753600Y-67344676D01*
X57753600Y-67255324D01*
X57736169Y-67167690D01*
X57719100Y-67126483D01*
X57719100Y-64833596D01*
X59097372Y-63455324D01*
X59546400Y-63455324D01*
X59546400Y-63544676D01*
X59563831Y-63632310D01*
X59598025Y-63714860D01*
X59647666Y-63789153D01*
X59710847Y-63852334D01*
X59785140Y-63901975D01*
X59867690Y-63936169D01*
X59955324Y-63953600D01*
X60044676Y-63953600D01*
X60132310Y-63936169D01*
X60214860Y-63901975D01*
X60289153Y-63852334D01*
X60352334Y-63789153D01*
X60401975Y-63714860D01*
X60419044Y-63673652D01*
X66063598Y-58029098D01*
X77786483Y-58029098D01*
X77827690Y-58046167D01*
X77915324Y-58063598D01*
X78004676Y-58063598D01*
X78092310Y-58046167D01*
X78174860Y-58011973D01*
X78249153Y-57962332D01*
X78312334Y-57899151D01*
X78361975Y-57824858D01*
X78396169Y-57742308D01*
X78413600Y-57654674D01*
X78413600Y-57565322D01*
X78396169Y-57477688D01*
X78361975Y-57395138D01*
X78312334Y-57320845D01*
X78249153Y-57257664D01*
X78174860Y-57208023D01*
X78092310Y-57173829D01*
X78004676Y-57156398D01*
X77915324Y-57156398D01*
X77827690Y-57173829D01*
X77786483Y-57190898D01*
X65910582Y-57190898D01*
X65890002Y-57188871D01*
X65869422Y-57190898D01*
X65807844Y-57196963D01*
X65728844Y-57220927D01*
X65656036Y-57259844D01*
X65592220Y-57312216D01*
X65579095Y-57328209D01*
X59826348Y-63080956D01*
X59785140Y-63098025D01*
X59710847Y-63147666D01*
X59647666Y-63210847D01*
X59598025Y-63285140D01*
X59563831Y-63367690D01*
X59546400Y-63455324D01*
X59097372Y-63455324D01*
X65513597Y-57039100D01*
X78096483Y-57039100D01*
X78137690Y-57056169D01*
X78144909Y-57057605D01*
X79440900Y-58353597D01*
X79440901Y-59879410D01*
X79438873Y-59900000D01*
X79446965Y-59982157D01*
X79470930Y-60061158D01*
X79508521Y-60131485D01*
X79509847Y-60133966D01*
X79562219Y-60197782D01*
X79578206Y-60210902D01*
X80889097Y-61521794D01*
X80902218Y-61537782D01*
X80918202Y-61550900D01*
X77773517Y-61550900D01*
X77732310Y-61533831D01*
X77644676Y-61516400D01*
X77555324Y-61516400D01*
X77467690Y-61533831D01*
X77426483Y-61550900D01*
X75303597Y-61550900D01*
X72060907Y-58308211D01*
X72047782Y-58292218D01*
X71983966Y-58239846D01*
X71911158Y-58200929D01*
X71832158Y-58176965D01*
X71770580Y-58170900D01*
X71750000Y-58168873D01*
X71729420Y-58170900D01*
X66760577Y-58170900D01*
X66739999Y-58168873D01*
X66719422Y-58170900D01*
X66719420Y-58170900D01*
X66657842Y-58176965D01*
X66578842Y-58200929D01*
X66506034Y-58239846D01*
X66442218Y-58292218D01*
X66429098Y-58308205D01*
X58618206Y-66119098D01*
X58602219Y-66132218D01*
X58589100Y-66148204D01*
X58549846Y-66196035D01*
X58510930Y-66268842D01*
X58486965Y-66347843D01*
X58478873Y-66430000D01*
X58480901Y-66450590D01*
X58480900Y-68626482D01*
X58463831Y-68667690D01*
X58446400Y-68755324D01*
X58446400Y-68844676D01*
X58463831Y-68932310D01*
X58498025Y-69014860D01*
X58547666Y-69089153D01*
X58610847Y-69152334D01*
X58685140Y-69201975D01*
X58767690Y-69236169D01*
X58855324Y-69253600D01*
X58944676Y-69253600D01*
X59032310Y-69236169D01*
X59114860Y-69201975D01*
X59189153Y-69152334D01*
X59252334Y-69089153D01*
X59301975Y-69014860D01*
X59336169Y-68932310D01*
X59353600Y-68844676D01*
X59353600Y-68755324D01*
X59336169Y-68667690D01*
X59319100Y-68626483D01*
X59319100Y-66603596D01*
X66913597Y-59009100D01*
X71576404Y-59009100D01*
X74819098Y-62251794D01*
X74832218Y-62267782D01*
X74896034Y-62320154D01*
X74968842Y-62359071D01*
X75041865Y-62381222D01*
X75047842Y-62383035D01*
X75130000Y-62391127D01*
X75150580Y-62389100D01*
X77426483Y-62389100D01*
X77467690Y-62406169D01*
X77555324Y-62423600D01*
X77644676Y-62423600D01*
X77732310Y-62406169D01*
X77773517Y-62389100D01*
X82548635Y-62389100D01*
X82520849Y-62407666D01*
X82477615Y-62450900D01*
X74413597Y-62450900D01*
X71170907Y-59208211D01*
X71157782Y-59192218D01*
X71093966Y-59139846D01*
X71021158Y-59100929D01*
X70942158Y-59076965D01*
X70880580Y-59070900D01*
X70860000Y-59068873D01*
X70839420Y-59070900D01*
X67760580Y-59070900D01*
X67740000Y-59068873D01*
X67719420Y-59070900D01*
X67657842Y-59076965D01*
X67618342Y-59088947D01*
X67578841Y-59100929D01*
X67520759Y-59131975D01*
X67506034Y-59139846D01*
X67442218Y-59192218D01*
X67429098Y-59208205D01*
X59648620Y-66988684D01*
X59632627Y-67001809D01*
X59580255Y-67065626D01*
X59541338Y-67138434D01*
X59525659Y-67190121D01*
X59517374Y-67217434D01*
X59509282Y-67299591D01*
X59511309Y-67320171D01*
X59511310Y-67856890D01*
X59494240Y-67898099D01*
X59476809Y-67985733D01*
X59476809Y-68075085D01*
X59494240Y-68162719D01*
X59528434Y-68245269D01*
X59578075Y-68319562D01*
X59641256Y-68382743D01*
X59715549Y-68432384D01*
X59798099Y-68466578D01*
X59885733Y-68484009D01*
X59975085Y-68484009D01*
X60062719Y-68466578D01*
X60145269Y-68432384D01*
X60219562Y-68382743D01*
X60282743Y-68319562D01*
X60332384Y-68245269D01*
X60366578Y-68162719D01*
X60384009Y-68075085D01*
X60384009Y-67985733D01*
X60377961Y-67955324D01*
X60546400Y-67955324D01*
X60546400Y-68044676D01*
X60563831Y-68132310D01*
X60580900Y-68173517D01*
X60580901Y-80049410D01*
X60578873Y-80070000D01*
X60586965Y-80152157D01*
X60610930Y-80231158D01*
X60649846Y-80303965D01*
X60664901Y-80322310D01*
X60702219Y-80367782D01*
X60718206Y-80380902D01*
X65720900Y-85383596D01*
X65720901Y-86736474D01*
X65703831Y-86777684D01*
X65686400Y-86865318D01*
X65686400Y-86954670D01*
X65703831Y-87042304D01*
X65738025Y-87124854D01*
X65787666Y-87199147D01*
X65850847Y-87262328D01*
X65925140Y-87311969D01*
X66007690Y-87346163D01*
X66095324Y-87363594D01*
X66184676Y-87363594D01*
X66272310Y-87346163D01*
X66354860Y-87311969D01*
X66429153Y-87262328D01*
X66492334Y-87199147D01*
X66541975Y-87124854D01*
X66576169Y-87042304D01*
X66593600Y-86954670D01*
X66593600Y-86865318D01*
X66576169Y-86777684D01*
X66559100Y-86736477D01*
X66559100Y-85230580D01*
X66561127Y-85210000D01*
X66553035Y-85127842D01*
X66547974Y-85111158D01*
X66529071Y-85048842D01*
X66490154Y-84976034D01*
X66437782Y-84912218D01*
X66421790Y-84899094D01*
X63268020Y-81745324D01*
X64816400Y-81745324D01*
X64816400Y-81834676D01*
X64833831Y-81922310D01*
X64868025Y-82004860D01*
X64917666Y-82079153D01*
X64980847Y-82142334D01*
X65055140Y-82191975D01*
X65137690Y-82226169D01*
X65225324Y-82243600D01*
X65314676Y-82243600D01*
X65402310Y-82226169D01*
X65484860Y-82191975D01*
X65559153Y-82142334D01*
X65622334Y-82079153D01*
X65671975Y-82004860D01*
X65706169Y-81922310D01*
X65723600Y-81834676D01*
X65723600Y-81745324D01*
X65706169Y-81657690D01*
X65689100Y-81616483D01*
X65689100Y-69493596D01*
X68183653Y-66999044D01*
X68224860Y-66981975D01*
X68299153Y-66932334D01*
X68362334Y-66869153D01*
X68411975Y-66794860D01*
X68446169Y-66712310D01*
X68463600Y-66624676D01*
X68463600Y-66535324D01*
X68446169Y-66447690D01*
X68411975Y-66365140D01*
X68362334Y-66290847D01*
X68299153Y-66227666D01*
X68224860Y-66178025D01*
X68142310Y-66143831D01*
X68054676Y-66126400D01*
X67965324Y-66126400D01*
X67877690Y-66143831D01*
X67795140Y-66178025D01*
X67720847Y-66227666D01*
X67657666Y-66290847D01*
X67608025Y-66365140D01*
X67590956Y-66406347D01*
X64988206Y-69009098D01*
X64972219Y-69022218D01*
X64959100Y-69038204D01*
X64919846Y-69086035D01*
X64880930Y-69158842D01*
X64856965Y-69237843D01*
X64848873Y-69320000D01*
X64850901Y-69340590D01*
X64850900Y-81616483D01*
X64833831Y-81657690D01*
X64816400Y-81745324D01*
X63268020Y-81745324D01*
X61419100Y-79896404D01*
X61419100Y-68173517D01*
X61436169Y-68132310D01*
X61453600Y-68044676D01*
X61453600Y-67955324D01*
X61436169Y-67867690D01*
X61401975Y-67785140D01*
X61352334Y-67710847D01*
X61289153Y-67647666D01*
X61214860Y-67598025D01*
X61132310Y-67563831D01*
X61044676Y-67546400D01*
X60955324Y-67546400D01*
X60867690Y-67563831D01*
X60785140Y-67598025D01*
X60710847Y-67647666D01*
X60647666Y-67710847D01*
X60598025Y-67785140D01*
X60563831Y-67867690D01*
X60546400Y-67955324D01*
X60377961Y-67955324D01*
X60366578Y-67898099D01*
X60349509Y-67856892D01*
X60349509Y-67473187D01*
X63534608Y-64288088D01*
X64561400Y-64288088D01*
X64561400Y-64411912D01*
X64585556Y-64533356D01*
X64632941Y-64647754D01*
X64701734Y-64750709D01*
X64789291Y-64838266D01*
X64892246Y-64907059D01*
X65006644Y-64954444D01*
X65128088Y-64978600D01*
X65251912Y-64978600D01*
X65373356Y-64954444D01*
X65487754Y-64907059D01*
X65590709Y-64838266D01*
X65649668Y-64779307D01*
X67190395Y-64779307D01*
X67190395Y-64868659D01*
X67207826Y-64956293D01*
X67242020Y-65038843D01*
X67291661Y-65113136D01*
X67354842Y-65176317D01*
X67429135Y-65225958D01*
X67470343Y-65243027D01*
X68690901Y-66463586D01*
X68690900Y-74199418D01*
X68688873Y-74219998D01*
X68690900Y-74240577D01*
X68696965Y-74302155D01*
X68720929Y-74381155D01*
X68759846Y-74453963D01*
X68812218Y-74517780D01*
X68828211Y-74530905D01*
X72805957Y-78508652D01*
X72823026Y-78549859D01*
X72872667Y-78624152D01*
X72935848Y-78687333D01*
X73010141Y-78736974D01*
X73092691Y-78771168D01*
X73180325Y-78788599D01*
X73269677Y-78788599D01*
X73357311Y-78771168D01*
X73439861Y-78736974D01*
X73514154Y-78687333D01*
X73577335Y-78624152D01*
X73626976Y-78549859D01*
X73661170Y-78467309D01*
X73678601Y-78379675D01*
X73678601Y-78290323D01*
X73661170Y-78202689D01*
X73626976Y-78120139D01*
X73577335Y-78045846D01*
X73514154Y-77982665D01*
X73439861Y-77933024D01*
X73398654Y-77915955D01*
X69529100Y-74046402D01*
X69529100Y-66310567D01*
X69531127Y-66289987D01*
X69523035Y-66207830D01*
X69519457Y-66196034D01*
X69499071Y-66128830D01*
X69460154Y-66056022D01*
X69407782Y-65992206D01*
X69391794Y-65979085D01*
X68063039Y-64650331D01*
X68045970Y-64609123D01*
X67996329Y-64534830D01*
X67933148Y-64471649D01*
X67858855Y-64422008D01*
X67776305Y-64387814D01*
X67688671Y-64370383D01*
X67599319Y-64370383D01*
X67511685Y-64387814D01*
X67429135Y-64422008D01*
X67354842Y-64471649D01*
X67291661Y-64534830D01*
X67242020Y-64609123D01*
X67207826Y-64691673D01*
X67190395Y-64779307D01*
X65649668Y-64779307D01*
X65678266Y-64750709D01*
X65747059Y-64647754D01*
X65794444Y-64533356D01*
X65818600Y-64411912D01*
X65818600Y-64288088D01*
X65794444Y-64166644D01*
X65747059Y-64052246D01*
X65736100Y-64035845D01*
X65736100Y-63946201D01*
X66276984Y-63405317D01*
X67146401Y-63405317D01*
X67146401Y-63494669D01*
X67163832Y-63582303D01*
X67198026Y-63664853D01*
X67247667Y-63739146D01*
X67310848Y-63802327D01*
X67385141Y-63851968D01*
X67426349Y-63869037D01*
X69600901Y-66043590D01*
X69600900Y-70279420D01*
X69598873Y-70300000D01*
X69600900Y-70320579D01*
X69606965Y-70382157D01*
X69630929Y-70461157D01*
X69669846Y-70533965D01*
X69722218Y-70597782D01*
X69738211Y-70610907D01*
X85239093Y-86111789D01*
X85252218Y-86127782D01*
X85316034Y-86180154D01*
X85388842Y-86219071D01*
X85461552Y-86241127D01*
X85467842Y-86243035D01*
X85550000Y-86251127D01*
X85570580Y-86249100D01*
X103539420Y-86249100D01*
X103560000Y-86251127D01*
X103580580Y-86249100D01*
X103642158Y-86243035D01*
X103721158Y-86219071D01*
X103793966Y-86180154D01*
X103857782Y-86127782D01*
X103870907Y-86111789D01*
X105651794Y-84330903D01*
X105667782Y-84317782D01*
X105720154Y-84253966D01*
X105740900Y-84215153D01*
X105740900Y-84336403D01*
X103646402Y-86430902D01*
X96963517Y-86430902D01*
X96922310Y-86413833D01*
X96834676Y-86396402D01*
X96745324Y-86396402D01*
X96657690Y-86413833D01*
X96575140Y-86448027D01*
X96500847Y-86497668D01*
X96437666Y-86560849D01*
X96388025Y-86635142D01*
X96353831Y-86717692D01*
X96336400Y-86805326D01*
X96336400Y-86894678D01*
X96353831Y-86982312D01*
X96388025Y-87064862D01*
X96437666Y-87139155D01*
X96500847Y-87202336D01*
X96575140Y-87251977D01*
X96657690Y-87286171D01*
X96745324Y-87303602D01*
X96834676Y-87303602D01*
X96922310Y-87286171D01*
X96963517Y-87269102D01*
X103799418Y-87269102D01*
X103819998Y-87271129D01*
X103840578Y-87269102D01*
X103902156Y-87263037D01*
X103981156Y-87239073D01*
X104053964Y-87200156D01*
X104117780Y-87147784D01*
X104130905Y-87131791D01*
X106441796Y-84820901D01*
X106457782Y-84807782D01*
X106510154Y-84743966D01*
X106549071Y-84671158D01*
X106573035Y-84592158D01*
X106579100Y-84530580D01*
X106579100Y-84530579D01*
X106581127Y-84510000D01*
X106579100Y-84489420D01*
X106579100Y-79693596D01*
X110613597Y-75659100D01*
X117036483Y-75659100D01*
X117077690Y-75676169D01*
X117165324Y-75693600D01*
X117254676Y-75693600D01*
X117342310Y-75676169D01*
X117424860Y-75641975D01*
X117499153Y-75592334D01*
X117562334Y-75529153D01*
X117611975Y-75454860D01*
X117646169Y-75372310D01*
X117663600Y-75284676D01*
X117663600Y-75195324D01*
X117646169Y-75107690D01*
X117611975Y-75025140D01*
X117562334Y-74950847D01*
X117499153Y-74887666D01*
X117424860Y-74838025D01*
X117342310Y-74803831D01*
X117254676Y-74786400D01*
X117165324Y-74786400D01*
X117077690Y-74803831D01*
X117036483Y-74820900D01*
X110460579Y-74820900D01*
X110439999Y-74818873D01*
X110388779Y-74823918D01*
X110493597Y-74719100D01*
X113016483Y-74719100D01*
X113057690Y-74736169D01*
X113145324Y-74753600D01*
X113234676Y-74753600D01*
X113322310Y-74736169D01*
X113404860Y-74701975D01*
X113479153Y-74652334D01*
X113542334Y-74589153D01*
X113591975Y-74514860D01*
X113626169Y-74432310D01*
X113643600Y-74344676D01*
X113643600Y-74255324D01*
X113626169Y-74167690D01*
X113591975Y-74085140D01*
X113542334Y-74010847D01*
X113479153Y-73947666D01*
X113404860Y-73898025D01*
X113322310Y-73863831D01*
X113234676Y-73846400D01*
X113145324Y-73846400D01*
X113057690Y-73863831D01*
X113016483Y-73880900D01*
X110340579Y-73880900D01*
X110319999Y-73878873D01*
X110279872Y-73882825D01*
X110363597Y-73799100D01*
X112436483Y-73799100D01*
X112477690Y-73816169D01*
X112565324Y-73833600D01*
X112654676Y-73833600D01*
X112742310Y-73816169D01*
X112824860Y-73781975D01*
X112899153Y-73732334D01*
X112962334Y-73669153D01*
X113011975Y-73594860D01*
X113046169Y-73512310D01*
X113063600Y-73424676D01*
X113063600Y-73335324D01*
X113046169Y-73247690D01*
X113011975Y-73165140D01*
X112962334Y-73090847D01*
X112899153Y-73027666D01*
X112824860Y-72978025D01*
X112742310Y-72943831D01*
X112654676Y-72926400D01*
X112565324Y-72926400D01*
X112477690Y-72943831D01*
X112436483Y-72960900D01*
X110210577Y-72960900D01*
X110189999Y-72958873D01*
X110169422Y-72960900D01*
X110169420Y-72960900D01*
X110107842Y-72966965D01*
X110104813Y-72967884D01*
X110273597Y-72799100D01*
X116976483Y-72799100D01*
X117017690Y-72816169D01*
X117105324Y-72833600D01*
X117194676Y-72833600D01*
X117282310Y-72816169D01*
X117364860Y-72781975D01*
X117439153Y-72732334D01*
X117502334Y-72669153D01*
X117551975Y-72594860D01*
X117586169Y-72512310D01*
X117603600Y-72424676D01*
X117603600Y-72335324D01*
X117586169Y-72247690D01*
X117551975Y-72165140D01*
X117502334Y-72090847D01*
X117439153Y-72027666D01*
X117364860Y-71978025D01*
X117282310Y-71943831D01*
X117194676Y-71926400D01*
X117105324Y-71926400D01*
X117017690Y-71943831D01*
X116976483Y-71960900D01*
X110120579Y-71960900D01*
X110099999Y-71958873D01*
X110074404Y-71961394D01*
X110017842Y-71966965D01*
X109938842Y-71990929D01*
X109866034Y-72029846D01*
X109802218Y-72082218D01*
X109789098Y-72098205D01*
X103744939Y-78142365D01*
X103664676Y-78126400D01*
X103575324Y-78126400D01*
X103487690Y-78143831D01*
X103405140Y-78178025D01*
X103330847Y-78227666D01*
X103267666Y-78290847D01*
X103218025Y-78365140D01*
X103183831Y-78447690D01*
X103166400Y-78535324D01*
X103166400Y-78624676D01*
X103183831Y-78712310D01*
X103218025Y-78794860D01*
X103267666Y-78869153D01*
X103330847Y-78932334D01*
X103405140Y-78981975D01*
X103487690Y-79016169D01*
X103575324Y-79033600D01*
X103664676Y-79033600D01*
X103752310Y-79016169D01*
X103812253Y-78991339D01*
X103817843Y-78993035D01*
X103900000Y-79001127D01*
X103982157Y-78993035D01*
X104061158Y-78969070D01*
X104133965Y-78930154D01*
X104150341Y-78916715D01*
X104146965Y-78927843D01*
X104138873Y-79010000D01*
X104140900Y-79030580D01*
X104140901Y-83536402D01*
X103146404Y-84530900D01*
X86223597Y-84530900D01*
X71419100Y-69726404D01*
X71419100Y-65480582D01*
X71421127Y-65460002D01*
X71413035Y-65377844D01*
X71404663Y-65350246D01*
X71389071Y-65298844D01*
X71350154Y-65226036D01*
X71297782Y-65162220D01*
X71281794Y-65149099D01*
X68799043Y-62666349D01*
X68781974Y-62625141D01*
X68732333Y-62550848D01*
X68669152Y-62487667D01*
X68594859Y-62438026D01*
X68512309Y-62403832D01*
X68424675Y-62386401D01*
X68335323Y-62386401D01*
X68247689Y-62403832D01*
X68165139Y-62438026D01*
X68090846Y-62487667D01*
X68027665Y-62550848D01*
X67978024Y-62625141D01*
X67943830Y-62707691D01*
X67926399Y-62795325D01*
X67926399Y-62884677D01*
X67943830Y-62972311D01*
X67978024Y-63054861D01*
X68027665Y-63129154D01*
X68090846Y-63192335D01*
X68165139Y-63241976D01*
X68206347Y-63259045D01*
X70580901Y-65633600D01*
X70580900Y-69879420D01*
X70578873Y-69900000D01*
X70583783Y-69949846D01*
X70586965Y-69982157D01*
X70610929Y-70061157D01*
X70649846Y-70133965D01*
X70702218Y-70197782D01*
X70718211Y-70210907D01*
X85739098Y-85231795D01*
X85752218Y-85247782D01*
X85816034Y-85300154D01*
X85888842Y-85339071D01*
X85967842Y-85363035D01*
X86049999Y-85371127D01*
X86070579Y-85369100D01*
X103299420Y-85369100D01*
X103320000Y-85371127D01*
X103340580Y-85369100D01*
X103402158Y-85363035D01*
X103448251Y-85349053D01*
X103386404Y-85410900D01*
X85723596Y-85410900D01*
X70439100Y-70126404D01*
X70439100Y-65890569D01*
X70441127Y-65869991D01*
X70439100Y-65849412D01*
X70433035Y-65787834D01*
X70409071Y-65708834D01*
X70370154Y-65636026D01*
X70317782Y-65572210D01*
X70301794Y-65559089D01*
X68019045Y-63276341D01*
X68001976Y-63235133D01*
X67952335Y-63160840D01*
X67889154Y-63097659D01*
X67814861Y-63048018D01*
X67732311Y-63013824D01*
X67644677Y-62996393D01*
X67555325Y-62996393D01*
X67467691Y-63013824D01*
X67385141Y-63048018D01*
X67310848Y-63097659D01*
X67247667Y-63160840D01*
X67198026Y-63235133D01*
X67163832Y-63317683D01*
X67146401Y-63405317D01*
X66276984Y-63405317D01*
X68126496Y-61555806D01*
X68133354Y-61554442D01*
X68247752Y-61507057D01*
X68264153Y-61496098D01*
X69789343Y-61496098D01*
X73419481Y-65126237D01*
X73423329Y-65145583D01*
X73470714Y-65259981D01*
X73481673Y-65276382D01*
X73481674Y-70730946D01*
X73479032Y-70757773D01*
X73489575Y-70864826D01*
X73520802Y-70967768D01*
X73527031Y-70979421D01*
X73571512Y-71062638D01*
X73639755Y-71145792D01*
X73660589Y-71162890D01*
X86684882Y-84187184D01*
X86701981Y-84208019D01*
X86785135Y-84276262D01*
X86880006Y-84326972D01*
X86952100Y-84348841D01*
X86982946Y-84358198D01*
X87090000Y-84368742D01*
X87116824Y-84366100D01*
X92925845Y-84366100D01*
X92942246Y-84377059D01*
X93056644Y-84424444D01*
X93178088Y-84448600D01*
X93301912Y-84448600D01*
X93423356Y-84424444D01*
X93537754Y-84377059D01*
X93640709Y-84308266D01*
X93728266Y-84220709D01*
X93797059Y-84117754D01*
X93844444Y-84003356D01*
X93868600Y-83881912D01*
X93868600Y-83758088D01*
X93844444Y-83636644D01*
X93797059Y-83522246D01*
X93728266Y-83419291D01*
X93640709Y-83331734D01*
X93537754Y-83262941D01*
X93423356Y-83215556D01*
X93301912Y-83191400D01*
X93178088Y-83191400D01*
X93056644Y-83215556D01*
X92942246Y-83262941D01*
X92925845Y-83273900D01*
X87879554Y-83273900D01*
X87879554Y-78545324D01*
X92556400Y-78545324D01*
X92556400Y-78634676D01*
X92573831Y-78722310D01*
X92608025Y-78804860D01*
X92657666Y-78879153D01*
X92720847Y-78942334D01*
X92795140Y-78991975D01*
X92877690Y-79026169D01*
X92965324Y-79043600D01*
X93054676Y-79043600D01*
X93142310Y-79026169D01*
X93183517Y-79009100D01*
X96676404Y-79009100D01*
X100309096Y-82641792D01*
X100322216Y-82657780D01*
X100386032Y-82710152D01*
X100458840Y-82749069D01*
X100537840Y-82773033D01*
X100599418Y-82779098D01*
X100599420Y-82779098D01*
X100619997Y-82781125D01*
X100640575Y-82779098D01*
X102706483Y-82779098D01*
X102747690Y-82796167D01*
X102835324Y-82813598D01*
X102924676Y-82813598D01*
X103012310Y-82796167D01*
X103094860Y-82761973D01*
X103169153Y-82712332D01*
X103232334Y-82649151D01*
X103281975Y-82574858D01*
X103316169Y-82492308D01*
X103333600Y-82404674D01*
X103333600Y-82315322D01*
X103316169Y-82227688D01*
X103281975Y-82145138D01*
X103232334Y-82070845D01*
X103169153Y-82007664D01*
X103094860Y-81958023D01*
X103012310Y-81923829D01*
X102924676Y-81906398D01*
X102835324Y-81906398D01*
X102747690Y-81923829D01*
X102706483Y-81940898D01*
X100793595Y-81940898D01*
X97160907Y-78308211D01*
X97147782Y-78292218D01*
X97083966Y-78239846D01*
X97011158Y-78200929D01*
X96932158Y-78176965D01*
X96870580Y-78170900D01*
X96850000Y-78168873D01*
X96829420Y-78170900D01*
X93183517Y-78170900D01*
X93142310Y-78153831D01*
X93054676Y-78136400D01*
X92965324Y-78136400D01*
X92877690Y-78153831D01*
X92795140Y-78188025D01*
X92720847Y-78237666D01*
X92657666Y-78300847D01*
X92608025Y-78375140D01*
X92573831Y-78457690D01*
X92556400Y-78545324D01*
X87879554Y-78545324D01*
X87879554Y-77161033D01*
X87881581Y-77140453D01*
X87873489Y-77058296D01*
X87869624Y-77045556D01*
X87849525Y-76979296D01*
X87810608Y-76906488D01*
X87758236Y-76842672D01*
X87742248Y-76829551D01*
X87349044Y-76436348D01*
X87331975Y-76395140D01*
X87282334Y-76320847D01*
X87219153Y-76257666D01*
X87144860Y-76208025D01*
X87062310Y-76173831D01*
X86974676Y-76156400D01*
X86885324Y-76156400D01*
X86797690Y-76173831D01*
X86715140Y-76208025D01*
X86640847Y-76257666D01*
X86577666Y-76320847D01*
X86528025Y-76395140D01*
X86493831Y-76477690D01*
X86476400Y-76565324D01*
X86476400Y-76654676D01*
X86493831Y-76742310D01*
X86528025Y-76824860D01*
X86577666Y-76899153D01*
X86640847Y-76962334D01*
X86715140Y-77011975D01*
X86756348Y-77029044D01*
X87041355Y-77314052D01*
X87041354Y-82999052D01*
X75927626Y-71885324D01*
X76206398Y-71885324D01*
X76206398Y-71974676D01*
X76223829Y-72062310D01*
X76258023Y-72144860D01*
X76307664Y-72219153D01*
X76370845Y-72282334D01*
X76445138Y-72331975D01*
X76527688Y-72366169D01*
X76615322Y-72383600D01*
X76704674Y-72383600D01*
X76792308Y-72366169D01*
X76874858Y-72331975D01*
X76949151Y-72282334D01*
X77012332Y-72219153D01*
X77061973Y-72144860D01*
X77096167Y-72062310D01*
X77113598Y-71974676D01*
X77113598Y-71885324D01*
X77096167Y-71797690D01*
X77079098Y-71756483D01*
X77079098Y-66013598D01*
X78863653Y-64229044D01*
X78904860Y-64211975D01*
X78979153Y-64162334D01*
X79042334Y-64099153D01*
X79091975Y-64024860D01*
X79126169Y-63942310D01*
X79143600Y-63854676D01*
X79143600Y-63765324D01*
X79126169Y-63677690D01*
X79091975Y-63595140D01*
X79042334Y-63520847D01*
X78979153Y-63457666D01*
X78904860Y-63408025D01*
X78822310Y-63373831D01*
X78734676Y-63356400D01*
X78645324Y-63356400D01*
X78557690Y-63373831D01*
X78475140Y-63408025D01*
X78400847Y-63457666D01*
X78337666Y-63520847D01*
X78288025Y-63595140D01*
X78270956Y-63636347D01*
X76378204Y-65529100D01*
X76362217Y-65542220D01*
X76349098Y-65558206D01*
X76309844Y-65606037D01*
X76270928Y-65678844D01*
X76246963Y-65757845D01*
X76238871Y-65840002D01*
X76240899Y-65860592D01*
X76240898Y-71756483D01*
X76223829Y-71797690D01*
X76206398Y-71885324D01*
X75927626Y-71885324D01*
X74573873Y-70531572D01*
X74573873Y-65276382D01*
X74584832Y-65259981D01*
X74632217Y-65145583D01*
X74656373Y-65024139D01*
X74656373Y-64900315D01*
X74632217Y-64778871D01*
X74584832Y-64664473D01*
X74516039Y-64561518D01*
X74428482Y-64473961D01*
X74325527Y-64405168D01*
X74211129Y-64357783D01*
X74191783Y-64353935D01*
X70420666Y-60582819D01*
X70403563Y-60561979D01*
X70320409Y-60493736D01*
X70225538Y-60443026D01*
X70122598Y-60411800D01*
X70042368Y-60403898D01*
X70042361Y-60403898D01*
X70015544Y-60401257D01*
X69988727Y-60403898D01*
X68264153Y-60403898D01*
X68247752Y-60392939D01*
X68133354Y-60345554D01*
X68011910Y-60321398D01*
X67888086Y-60321398D01*
X67766642Y-60345554D01*
X67652244Y-60392939D01*
X67549289Y-60461732D01*
X67461732Y-60549289D01*
X67392939Y-60652244D01*
X67345554Y-60766642D01*
X67339222Y-60798476D01*
X64822816Y-63314883D01*
X64801982Y-63331981D01*
X64784883Y-63352816D01*
X64784882Y-63352817D01*
X64733738Y-63415136D01*
X64683029Y-63510005D01*
X64674187Y-63539153D01*
X64651802Y-63612946D01*
X64643900Y-63693176D01*
X64643900Y-63693183D01*
X64641259Y-63720000D01*
X64643900Y-63746817D01*
X64643900Y-64035845D01*
X64632941Y-64052246D01*
X64585556Y-64166644D01*
X64561400Y-64288088D01*
X63534608Y-64288088D01*
X67913597Y-59909100D01*
X70686404Y-59909100D01*
X73929098Y-63151794D01*
X73942218Y-63167782D01*
X74006034Y-63220154D01*
X74078842Y-63259071D01*
X74135211Y-63276170D01*
X74157842Y-63283035D01*
X74240000Y-63291127D01*
X74260580Y-63289100D01*
X82679422Y-63289100D01*
X82700002Y-63291127D01*
X82720582Y-63289100D01*
X82782160Y-63283035D01*
X82861160Y-63259071D01*
X82933968Y-63220154D01*
X82984475Y-63178704D01*
X83024862Y-63161975D01*
X83099155Y-63112334D01*
X83162336Y-63049153D01*
X83211977Y-62974860D01*
X83246171Y-62892310D01*
X83263602Y-62804676D01*
X83263602Y-62715324D01*
X83246171Y-62627690D01*
X83211977Y-62545140D01*
X83162336Y-62470847D01*
X83099155Y-62407666D01*
X83071369Y-62389100D01*
X84278203Y-62389100D01*
X77343205Y-69324099D01*
X77327212Y-69337224D01*
X77274840Y-69401041D01*
X77235923Y-69473849D01*
X77224675Y-69510930D01*
X77211959Y-69552849D01*
X77203867Y-69635006D01*
X77205894Y-69655586D01*
X77205895Y-72241474D01*
X77188825Y-72282684D01*
X77171394Y-72370318D01*
X77171394Y-72459670D01*
X77188825Y-72547304D01*
X77223019Y-72629854D01*
X77272660Y-72704147D01*
X77335841Y-72767328D01*
X77410134Y-72816969D01*
X77492684Y-72851163D01*
X77580318Y-72868594D01*
X77669670Y-72868594D01*
X77757304Y-72851163D01*
X77839854Y-72816969D01*
X77914147Y-72767328D01*
X77977328Y-72704147D01*
X78026969Y-72629854D01*
X78061163Y-72547304D01*
X78078594Y-72459670D01*
X78078594Y-72370318D01*
X78061163Y-72282684D01*
X78044094Y-72241477D01*
X78044094Y-69808602D01*
X85473657Y-62379040D01*
X85514860Y-62361973D01*
X85589153Y-62312332D01*
X85652334Y-62249151D01*
X85701975Y-62174858D01*
X85736169Y-62092308D01*
X85753600Y-62004674D01*
X85753600Y-61915322D01*
X85736169Y-61827688D01*
X85701975Y-61745138D01*
X85652334Y-61670845D01*
X85589153Y-61607664D01*
X85514860Y-61558023D01*
X85432310Y-61523829D01*
X85344676Y-61506398D01*
X85255324Y-61506398D01*
X85167690Y-61523829D01*
X85102336Y-61550900D01*
X84880587Y-61550900D01*
X84902334Y-61529153D01*
X84951975Y-61454860D01*
X84986169Y-61372310D01*
X85003600Y-61284676D01*
X85003600Y-61195324D01*
X84986169Y-61107690D01*
X84951975Y-61025140D01*
X84902334Y-60950847D01*
X84839153Y-60887666D01*
X84764860Y-60838025D01*
X84682310Y-60803831D01*
X84594676Y-60786400D01*
X84505324Y-60786400D01*
X84417690Y-60803831D01*
X84376483Y-60820900D01*
X81737300Y-60820900D01*
X81714676Y-60816400D01*
X81625324Y-60816400D01*
X81602700Y-60820900D01*
X81373597Y-60820900D01*
X80838021Y-60285324D01*
X81876400Y-60285324D01*
X81876400Y-60374676D01*
X81893831Y-60462310D01*
X81928025Y-60544860D01*
X81977666Y-60619153D01*
X82040847Y-60682334D01*
X82115140Y-60731975D01*
X82197690Y-60766169D01*
X82285324Y-60783600D01*
X82374676Y-60783600D01*
X82462310Y-60766169D01*
X82527659Y-60739100D01*
X84656483Y-60739100D01*
X84697690Y-60756169D01*
X84785324Y-60773600D01*
X84874676Y-60773600D01*
X84962310Y-60756169D01*
X85044860Y-60721975D01*
X85119153Y-60672334D01*
X85182334Y-60609153D01*
X85231975Y-60534860D01*
X85266169Y-60452310D01*
X85283600Y-60364676D01*
X85283600Y-60275324D01*
X85266169Y-60187690D01*
X85231975Y-60105140D01*
X85182334Y-60030847D01*
X85119153Y-59967666D01*
X85044860Y-59918025D01*
X84962310Y-59883831D01*
X84874676Y-59866400D01*
X84785324Y-59866400D01*
X84697690Y-59883831D01*
X84656483Y-59900900D01*
X82479376Y-59900900D01*
X82462310Y-59893831D01*
X82374676Y-59876400D01*
X82285324Y-59876400D01*
X82197690Y-59893831D01*
X82115140Y-59928025D01*
X82040847Y-59977666D01*
X81977666Y-60040847D01*
X81928025Y-60115140D01*
X81893831Y-60197690D01*
X81876400Y-60285324D01*
X80838021Y-60285324D01*
X80279100Y-59726404D01*
X80279100Y-58200579D01*
X80281127Y-58179999D01*
X80273035Y-58097842D01*
X80249071Y-58018842D01*
X80210154Y-57946034D01*
X80157782Y-57882218D01*
X80141796Y-57869099D01*
X78660173Y-56387477D01*
X78622334Y-56330847D01*
X78559153Y-56267666D01*
X78484860Y-56218025D01*
X78402310Y-56183831D01*
X78314676Y-56166400D01*
X78225324Y-56166400D01*
X78137690Y-56183831D01*
X78096483Y-56200900D01*
X65360579Y-56200900D01*
X65339999Y-56198873D01*
X65257842Y-56206965D01*
X65178842Y-56230929D01*
X65106034Y-56269846D01*
X65042218Y-56322218D01*
X65029098Y-56338205D01*
X57018206Y-64349098D01*
X57002219Y-64362218D01*
X56968869Y-64402856D01*
X56949846Y-64426035D01*
X56910930Y-64498842D01*
X56886965Y-64577843D01*
X56878873Y-64660000D01*
X56880901Y-64680590D01*
X56880900Y-67126482D01*
X56863831Y-67167690D01*
X56846400Y-67255324D01*
X56819100Y-67255324D01*
X56819100Y-64273596D01*
X66687372Y-54405324D01*
X84806398Y-54405324D01*
X84806398Y-54494676D01*
X84823829Y-54582310D01*
X84850901Y-54647666D01*
X84850900Y-57086482D01*
X84833831Y-57127690D01*
X84816400Y-57215324D01*
X84816400Y-57304676D01*
X84833831Y-57392310D01*
X84868025Y-57474860D01*
X84917666Y-57549153D01*
X84980847Y-57612334D01*
X85055140Y-57661975D01*
X85137690Y-57696169D01*
X85225324Y-57713600D01*
X85314676Y-57713600D01*
X85402310Y-57696169D01*
X85484860Y-57661975D01*
X85559153Y-57612334D01*
X85622334Y-57549153D01*
X85671975Y-57474860D01*
X85706169Y-57392310D01*
X85723600Y-57304676D01*
X85723600Y-57215324D01*
X85706169Y-57127690D01*
X85689100Y-57086483D01*
X85689100Y-54987542D01*
X99746400Y-54987542D01*
X99746401Y-76012459D01*
X99747511Y-76023734D01*
X99747468Y-76029966D01*
X99747813Y-76033490D01*
X99768214Y-76227587D01*
X99772839Y-76250117D01*
X99777143Y-76272679D01*
X99778166Y-76276069D01*
X99835878Y-76462507D01*
X99844795Y-76483719D01*
X99853396Y-76505007D01*
X99855058Y-76508134D01*
X99947883Y-76679811D01*
X99960726Y-76698851D01*
X99973322Y-76718100D01*
X99975560Y-76720844D01*
X100099964Y-76871222D01*
X100116260Y-76887404D01*
X100132355Y-76903840D01*
X100135083Y-76906097D01*
X100286325Y-77029447D01*
X100305484Y-77042176D01*
X100324435Y-77055152D01*
X100327550Y-77056837D01*
X100499873Y-77148462D01*
X100521138Y-77157227D01*
X100542249Y-77166275D01*
X100545632Y-77167322D01*
X100732468Y-77223731D01*
X100755028Y-77228198D01*
X100777497Y-77232974D01*
X100781019Y-77233345D01*
X100975252Y-77252390D01*
X100975255Y-77252390D01*
X100987541Y-77253600D01*
X104012459Y-77253600D01*
X104023744Y-77252489D01*
X104029966Y-77252532D01*
X104033490Y-77252187D01*
X104227587Y-77231786D01*
X104250117Y-77227161D01*
X104272679Y-77222857D01*
X104276069Y-77221834D01*
X104462507Y-77164122D01*
X104483719Y-77155205D01*
X104505007Y-77146604D01*
X104508134Y-77144942D01*
X104679811Y-77052117D01*
X104698851Y-77039274D01*
X104718100Y-77026678D01*
X104720844Y-77024440D01*
X104871222Y-76900036D01*
X104887404Y-76883740D01*
X104903840Y-76867645D01*
X104906097Y-76864917D01*
X105029447Y-76713675D01*
X105042176Y-76694516D01*
X105055152Y-76675565D01*
X105056837Y-76672450D01*
X105148462Y-76500127D01*
X105157227Y-76478862D01*
X105166275Y-76457751D01*
X105167322Y-76454368D01*
X105223731Y-76267532D01*
X105228198Y-76244972D01*
X105232974Y-76222503D01*
X105233345Y-76218981D01*
X105252390Y-76024748D01*
X105252390Y-76024745D01*
X105253600Y-76012459D01*
X105253600Y-54987541D01*
X105252489Y-54976256D01*
X105252532Y-54970034D01*
X105252187Y-54966510D01*
X105231786Y-54772413D01*
X105227162Y-54749889D01*
X105222857Y-54727321D01*
X105221834Y-54723931D01*
X105164122Y-54537493D01*
X105155205Y-54516281D01*
X105146604Y-54494993D01*
X105144942Y-54491866D01*
X105052117Y-54320189D01*
X105039251Y-54301114D01*
X105026677Y-54281900D01*
X105024440Y-54279156D01*
X104900036Y-54128778D01*
X104883721Y-54112577D01*
X104867645Y-54096161D01*
X104864917Y-54093903D01*
X104713675Y-53970553D01*
X104694532Y-53957835D01*
X104675565Y-53944848D01*
X104672450Y-53943164D01*
X104500128Y-53851538D01*
X104478848Y-53842768D01*
X104457751Y-53833725D01*
X104454369Y-53832678D01*
X104267532Y-53776269D01*
X104244951Y-53771797D01*
X104222502Y-53767026D01*
X104218981Y-53766655D01*
X104024747Y-53747610D01*
X104024745Y-53747610D01*
X104012459Y-53746400D01*
X100987541Y-53746400D01*
X100976256Y-53747511D01*
X100970034Y-53747468D01*
X100966510Y-53747813D01*
X100772413Y-53768214D01*
X100749889Y-53772838D01*
X100727321Y-53777143D01*
X100723931Y-53778166D01*
X100537493Y-53835878D01*
X100516281Y-53844795D01*
X100494993Y-53853396D01*
X100491866Y-53855058D01*
X100320189Y-53947883D01*
X100301114Y-53960749D01*
X100281900Y-53973323D01*
X100279156Y-53975560D01*
X100128778Y-54099964D01*
X100112577Y-54116279D01*
X100096161Y-54132355D01*
X100093903Y-54135083D01*
X99970553Y-54286325D01*
X99957835Y-54305468D01*
X99944848Y-54324435D01*
X99943164Y-54327550D01*
X99851538Y-54499872D01*
X99842768Y-54521152D01*
X99833725Y-54542249D01*
X99832678Y-54545631D01*
X99776269Y-54732468D01*
X99771797Y-54755049D01*
X99767026Y-54777498D01*
X99766655Y-54781019D01*
X99747610Y-54975253D01*
X99746400Y-54987542D01*
X85689100Y-54987542D01*
X85689100Y-54599371D01*
X85696167Y-54582310D01*
X85713598Y-54494676D01*
X85713598Y-54405324D01*
X85696167Y-54317690D01*
X85661973Y-54235140D01*
X85612332Y-54160847D01*
X85549151Y-54097666D01*
X85474858Y-54048025D01*
X85392308Y-54013831D01*
X85304674Y-53996400D01*
X85215322Y-53996400D01*
X85127688Y-54013831D01*
X85045138Y-54048025D01*
X84970845Y-54097666D01*
X84907664Y-54160847D01*
X84858023Y-54235140D01*
X84823829Y-54317690D01*
X84806398Y-54405324D01*
X66687372Y-54405324D01*
X67773597Y-53319100D01*
X101026483Y-53319100D01*
X101067690Y-53336169D01*
X101155324Y-53353600D01*
X101244676Y-53353600D01*
X101332310Y-53336169D01*
X101414860Y-53301975D01*
X101489153Y-53252334D01*
X101552334Y-53189153D01*
X101601975Y-53114860D01*
X101636169Y-53032310D01*
X101653600Y-52944676D01*
X101653600Y-52855324D01*
X101636169Y-52767690D01*
X101601975Y-52685140D01*
X101552334Y-52610847D01*
X101489153Y-52547666D01*
X101414860Y-52498025D01*
X101332310Y-52463831D01*
X101244676Y-52446400D01*
X101155324Y-52446400D01*
X101067690Y-52463831D01*
X101026483Y-52480900D01*
X67620580Y-52480900D01*
X67600000Y-52478873D01*
X67579420Y-52480900D01*
X67517842Y-52486965D01*
X67438842Y-52510929D01*
X67366034Y-52549846D01*
X67302218Y-52602218D01*
X67289098Y-52618205D01*
X56118211Y-63789093D01*
X56102218Y-63802218D01*
X56049846Y-63866035D01*
X56010929Y-63938843D01*
X55991869Y-64001677D01*
X55986965Y-64017843D01*
X55978873Y-64100000D01*
X55980900Y-64120580D01*
X55980901Y-67679410D01*
X55978873Y-67700000D01*
X55986965Y-67782157D01*
X56010930Y-67861158D01*
X56041793Y-67918900D01*
X54835600Y-66712707D01*
X54835600Y-62255324D01*
X55246400Y-62255324D01*
X55246400Y-62344676D01*
X55263831Y-62432310D01*
X55298025Y-62514860D01*
X55347666Y-62589153D01*
X55410847Y-62652334D01*
X55485140Y-62701975D01*
X55567690Y-62736169D01*
X55655324Y-62753600D01*
X55744676Y-62753600D01*
X55832310Y-62736169D01*
X55914860Y-62701975D01*
X55989153Y-62652334D01*
X56052334Y-62589153D01*
X56101975Y-62514860D01*
X56136169Y-62432310D01*
X56153600Y-62344676D01*
X56153600Y-62255324D01*
X56136169Y-62167690D01*
X56101975Y-62085140D01*
X56055600Y-62015735D01*
X56055600Y-54926522D01*
X56114860Y-54901975D01*
X56189153Y-54852334D01*
X56252334Y-54789153D01*
X56301975Y-54714860D01*
X56336169Y-54632310D01*
X56353600Y-54544676D01*
X56353600Y-54455324D01*
X56336169Y-54367690D01*
X56301975Y-54285140D01*
X56252334Y-54210847D01*
X56189153Y-54147666D01*
X56114860Y-54098025D01*
X56032310Y-54063831D01*
X55944676Y-54046400D01*
X55855324Y-54046400D01*
X55767690Y-54063831D01*
X55685140Y-54098025D01*
X55610847Y-54147666D01*
X55547666Y-54210847D01*
X55498025Y-54285140D01*
X55463831Y-54367690D01*
X55448116Y-54446699D01*
X55447338Y-54447337D01*
X55402900Y-54501484D01*
X55396026Y-54514344D01*
X55369880Y-54563259D01*
X55349546Y-54630290D01*
X55342681Y-54700000D01*
X55344401Y-54717466D01*
X55344400Y-62015735D01*
X55298025Y-62085140D01*
X55263831Y-62167690D01*
X55246400Y-62255324D01*
X54835600Y-62255324D01*
X54835600Y-54773293D01*
X60756441Y-48852453D01*
X60838310Y-48836169D01*
X60920860Y-48801975D01*
X60995153Y-48752334D01*
X61058334Y-48689153D01*
X61107975Y-48614860D01*
X61142169Y-48532310D01*
X61159600Y-48444676D01*
X61159600Y-48355324D01*
X61142169Y-48267690D01*
X61107975Y-48185140D01*
X61058334Y-48110847D01*
X60995153Y-48047666D01*
X60920860Y-47998025D01*
X60838310Y-47963831D01*
X60750676Y-47946400D01*
X60661324Y-47946400D01*
X60573690Y-47963831D01*
X60491140Y-47998025D01*
X60416847Y-48047666D01*
X60353666Y-48110847D01*
X60304025Y-48185140D01*
X60269831Y-48267690D01*
X60253547Y-48349559D01*
X54240902Y-54362205D01*
X54227337Y-54373338D01*
X54182899Y-54427485D01*
X54149879Y-54489261D01*
X54146171Y-54501485D01*
X54130376Y-54553556D01*
X54129546Y-54556291D01*
X54124400Y-54608538D01*
X54124400Y-54608545D01*
X54122681Y-54626000D01*
X54124400Y-54643455D01*
X54124401Y-66842534D01*
X54122681Y-66860000D01*
X54129546Y-66929710D01*
X54149880Y-66996741D01*
X54157420Y-67010847D01*
X54182900Y-67058516D01*
X54227338Y-67112663D01*
X54240901Y-67123794D01*
X57497547Y-70380442D01*
X57508524Y-70435630D01*
X53935600Y-66862707D01*
X53935600Y-54241295D01*
X61750443Y-46426453D01*
X61832312Y-46410169D01*
X61914862Y-46375975D01*
X61989155Y-46326334D01*
X62052336Y-46263153D01*
X62101977Y-46188860D01*
X62136171Y-46106310D01*
X62153602Y-46018676D01*
X62153602Y-45990221D01*
X62753901Y-46590520D01*
X62753900Y-54973798D01*
X57882389Y-59845310D01*
X57831245Y-59907629D01*
X57780536Y-60002498D01*
X57749309Y-60105440D01*
X57738766Y-60212493D01*
X57749309Y-60319546D01*
X57780536Y-60422488D01*
X57831245Y-60517357D01*
X57899488Y-60600512D01*
X57982643Y-60668755D01*
X58077512Y-60719464D01*
X58180454Y-60750691D01*
X58287507Y-60761234D01*
X58394560Y-60750691D01*
X58497502Y-60719464D01*
X58592371Y-60668755D01*
X58654690Y-60617611D01*
X63667184Y-55605118D01*
X63688019Y-55588019D01*
X63756262Y-55504865D01*
X63806972Y-55409994D01*
X63838198Y-55307054D01*
X63846100Y-55226824D01*
X63846100Y-55226823D01*
X63848742Y-55200000D01*
X63846100Y-55173176D01*
X63846100Y-50138088D01*
X105921398Y-50138088D01*
X105921398Y-50261912D01*
X105945554Y-50383356D01*
X105992939Y-50497754D01*
X106061732Y-50600709D01*
X106067398Y-50606375D01*
X106067399Y-59029768D01*
X106035556Y-59106644D01*
X106011400Y-59228088D01*
X106011400Y-59351912D01*
X106035556Y-59473356D01*
X106082941Y-59587754D01*
X106151734Y-59690709D01*
X106239291Y-59778266D01*
X106342246Y-59847059D01*
X106456644Y-59894444D01*
X106578088Y-59918600D01*
X106701912Y-59918600D01*
X106823356Y-59894444D01*
X106937754Y-59847059D01*
X107040709Y-59778266D01*
X107128266Y-59690709D01*
X107197059Y-59587754D01*
X107244444Y-59473356D01*
X107268600Y-59351912D01*
X107268600Y-59228088D01*
X107244444Y-59106644D01*
X107197059Y-58992246D01*
X107128266Y-58889291D01*
X107040709Y-58801734D01*
X107032598Y-58796314D01*
X107032598Y-58685324D01*
X107326400Y-58685324D01*
X107326400Y-58774676D01*
X107343831Y-58862310D01*
X107378025Y-58944860D01*
X107427666Y-59019153D01*
X107490847Y-59082334D01*
X107565140Y-59131975D01*
X107647690Y-59166169D01*
X107735324Y-59183600D01*
X107824676Y-59183600D01*
X107912310Y-59166169D01*
X107994860Y-59131975D01*
X108069153Y-59082334D01*
X108132334Y-59019153D01*
X108181975Y-58944860D01*
X108199044Y-58903652D01*
X111471794Y-55630902D01*
X111487782Y-55617782D01*
X111540154Y-55553966D01*
X111579071Y-55481158D01*
X111603035Y-55402158D01*
X111609100Y-55340580D01*
X111611127Y-55320001D01*
X111609100Y-55299421D01*
X111609100Y-52047542D01*
X128476400Y-52047542D01*
X128476401Y-64072459D01*
X128477511Y-64083734D01*
X128477468Y-64089966D01*
X128477813Y-64093490D01*
X128498214Y-64287587D01*
X128502839Y-64310117D01*
X128507143Y-64332679D01*
X128508166Y-64336069D01*
X128565878Y-64522507D01*
X128574795Y-64543719D01*
X128583396Y-64565007D01*
X128585058Y-64568134D01*
X128677883Y-64739811D01*
X128690726Y-64758851D01*
X128703322Y-64778100D01*
X128705560Y-64780844D01*
X128829964Y-64931222D01*
X128846260Y-64947404D01*
X128862355Y-64963840D01*
X128865083Y-64966097D01*
X129016325Y-65089447D01*
X129035484Y-65102176D01*
X129054435Y-65115152D01*
X129057550Y-65116837D01*
X129229873Y-65208462D01*
X129251138Y-65217227D01*
X129272249Y-65226275D01*
X129275632Y-65227322D01*
X129462468Y-65283731D01*
X129485028Y-65288198D01*
X129507497Y-65292974D01*
X129511019Y-65293345D01*
X129705252Y-65312390D01*
X129705255Y-65312390D01*
X129717541Y-65313600D01*
X132742459Y-65313600D01*
X132753744Y-65312489D01*
X132759966Y-65312532D01*
X132763490Y-65312187D01*
X132957587Y-65291786D01*
X132980117Y-65287161D01*
X133002679Y-65282857D01*
X133006069Y-65281834D01*
X133192507Y-65224122D01*
X133213719Y-65215205D01*
X133235007Y-65206604D01*
X133238134Y-65204942D01*
X133409811Y-65112117D01*
X133428851Y-65099274D01*
X133448100Y-65086678D01*
X133450844Y-65084440D01*
X133601222Y-64960036D01*
X133617404Y-64943740D01*
X133633840Y-64927645D01*
X133636097Y-64924917D01*
X133759447Y-64773675D01*
X133772176Y-64754516D01*
X133785152Y-64735565D01*
X133786837Y-64732450D01*
X133878462Y-64560127D01*
X133887227Y-64538862D01*
X133896275Y-64517751D01*
X133897322Y-64514368D01*
X133953731Y-64327532D01*
X133958198Y-64304972D01*
X133962974Y-64282503D01*
X133963345Y-64278981D01*
X133982390Y-64084748D01*
X133982390Y-64084745D01*
X133983600Y-64072459D01*
X133983600Y-52047541D01*
X133982489Y-52036256D01*
X133982532Y-52030034D01*
X133982187Y-52026510D01*
X133961786Y-51832413D01*
X133957162Y-51809889D01*
X133952857Y-51787321D01*
X133951834Y-51783931D01*
X133894122Y-51597493D01*
X133885205Y-51576281D01*
X133876604Y-51554993D01*
X133874942Y-51551866D01*
X133782117Y-51380189D01*
X133769251Y-51361114D01*
X133756677Y-51341900D01*
X133754440Y-51339156D01*
X133630036Y-51188778D01*
X133613721Y-51172577D01*
X133597645Y-51156161D01*
X133594917Y-51153903D01*
X133443675Y-51030553D01*
X133424532Y-51017835D01*
X133405565Y-51004848D01*
X133402450Y-51003164D01*
X133230128Y-50911538D01*
X133208848Y-50902768D01*
X133187751Y-50893725D01*
X133184369Y-50892678D01*
X132997532Y-50836269D01*
X132974951Y-50831797D01*
X132952502Y-50827026D01*
X132948981Y-50826655D01*
X132754747Y-50807610D01*
X132754745Y-50807610D01*
X132742459Y-50806400D01*
X129717541Y-50806400D01*
X129706256Y-50807511D01*
X129700034Y-50807468D01*
X129696510Y-50807813D01*
X129502413Y-50828214D01*
X129479889Y-50832838D01*
X129457321Y-50837143D01*
X129453931Y-50838166D01*
X129267493Y-50895878D01*
X129246281Y-50904795D01*
X129224993Y-50913396D01*
X129221866Y-50915058D01*
X129050189Y-51007883D01*
X129031114Y-51020749D01*
X129011900Y-51033323D01*
X129009156Y-51035560D01*
X128858778Y-51159964D01*
X128842577Y-51176279D01*
X128826161Y-51192355D01*
X128823903Y-51195083D01*
X128700553Y-51346325D01*
X128687835Y-51365468D01*
X128674848Y-51384435D01*
X128673164Y-51387550D01*
X128581538Y-51559872D01*
X128572768Y-51581152D01*
X128563725Y-51602249D01*
X128562678Y-51605631D01*
X128506269Y-51792468D01*
X128501797Y-51815049D01*
X128497026Y-51837498D01*
X128496655Y-51841019D01*
X128477610Y-52035253D01*
X128476400Y-52047542D01*
X111609100Y-52047542D01*
X111609100Y-47843517D01*
X111626169Y-47802310D01*
X111643600Y-47714676D01*
X111643600Y-47625324D01*
X111626169Y-47537690D01*
X111591975Y-47455140D01*
X111542334Y-47380847D01*
X111479153Y-47317666D01*
X111404860Y-47268025D01*
X111322310Y-47233831D01*
X111234676Y-47216400D01*
X111145324Y-47216400D01*
X111057690Y-47233831D01*
X110975140Y-47268025D01*
X110900847Y-47317666D01*
X110837666Y-47380847D01*
X110788025Y-47455140D01*
X110753831Y-47537690D01*
X110736400Y-47625324D01*
X110736400Y-47714676D01*
X110753831Y-47802310D01*
X110770900Y-47843517D01*
X110770901Y-55146402D01*
X107606348Y-58310956D01*
X107565140Y-58328025D01*
X107490847Y-58377666D01*
X107427666Y-58440847D01*
X107378025Y-58515140D01*
X107343831Y-58597690D01*
X107326400Y-58685324D01*
X107032598Y-58685324D01*
X107032598Y-50606375D01*
X107038264Y-50600709D01*
X107107057Y-50497754D01*
X107154442Y-50383356D01*
X107178598Y-50261912D01*
X107178598Y-50138088D01*
X107154442Y-50016644D01*
X107107057Y-49902246D01*
X107038264Y-49799291D01*
X106950707Y-49711734D01*
X106847752Y-49642941D01*
X106733354Y-49595556D01*
X106611910Y-49571400D01*
X106488086Y-49571400D01*
X106366642Y-49595556D01*
X106252244Y-49642941D01*
X106149289Y-49711734D01*
X106061732Y-49799291D01*
X105992939Y-49902246D01*
X105945554Y-50016644D01*
X105921398Y-50138088D01*
X63846100Y-50138088D01*
X63846100Y-46391130D01*
X63848741Y-46364316D01*
X63846100Y-46337502D01*
X63846100Y-46337493D01*
X63838198Y-46257263D01*
X63806972Y-46154323D01*
X63756262Y-46059452D01*
X63688019Y-45976298D01*
X63667184Y-45959199D01*
X55890807Y-38182823D01*
X55873704Y-38161983D01*
X55790550Y-38093740D01*
X55695679Y-38043030D01*
X55592739Y-38011804D01*
X55512509Y-38003902D01*
X55512502Y-38003902D01*
X55485685Y-38001261D01*
X55458868Y-38003902D01*
X55234155Y-38003902D01*
X55217754Y-37992943D01*
X55103356Y-37945558D01*
X54981912Y-37921402D01*
X54858088Y-37921402D01*
X54736644Y-37945558D01*
X54622246Y-37992943D01*
X54519291Y-38061736D01*
X54431734Y-38149293D01*
X54362941Y-38252248D01*
X54315556Y-38366646D01*
X54291400Y-38488090D01*
X54291400Y-38611914D01*
X54315556Y-38733358D01*
X54362941Y-38847756D01*
X54431734Y-38950711D01*
X54519291Y-39038268D01*
X54622246Y-39107061D01*
X54736644Y-39154446D01*
X54858088Y-39178602D01*
X54981912Y-39178602D01*
X55103356Y-39154446D01*
X55217754Y-39107061D01*
X55234155Y-39096102D01*
X55259484Y-39096102D01*
X61683781Y-45520400D01*
X61655326Y-45520400D01*
X61567692Y-45537831D01*
X61485142Y-45572025D01*
X61410849Y-45621666D01*
X61347668Y-45684847D01*
X61298027Y-45759140D01*
X61263833Y-45841690D01*
X61247549Y-45923559D01*
X57367238Y-49803870D01*
X57376169Y-49782310D01*
X57393600Y-49694676D01*
X57393600Y-49605324D01*
X57376169Y-49517690D01*
X57341975Y-49435140D01*
X57292334Y-49360847D01*
X57229153Y-49297666D01*
X57154860Y-49248025D01*
X57072310Y-49213831D01*
X56984676Y-49196400D01*
X56895324Y-49196400D01*
X56807690Y-49213831D01*
X56725140Y-49248025D01*
X56650847Y-49297666D01*
X56587666Y-49360847D01*
X56538025Y-49435140D01*
X56503831Y-49517690D01*
X56487547Y-49599558D01*
X53319560Y-52767546D01*
X53237690Y-52783831D01*
X53155140Y-52818025D01*
X53080847Y-52867666D01*
X53017666Y-52930847D01*
X52968025Y-53005140D01*
X52933831Y-53087690D01*
X52917547Y-53169560D01*
X52260901Y-53826206D01*
X52247338Y-53837337D01*
X52236207Y-53850900D01*
X52236205Y-53850902D01*
X52232794Y-53855059D01*
X52202900Y-53891484D01*
X52186390Y-53922372D01*
X52169880Y-53953259D01*
X52149546Y-54020290D01*
X52142681Y-54090000D01*
X52144401Y-54107466D01*
X52144400Y-62965735D01*
X52098025Y-63035140D01*
X52063831Y-63117690D01*
X52055600Y-63159071D01*
X52055600Y-53707293D01*
X56967295Y-48795600D01*
X57145735Y-48795600D01*
X57215140Y-48841975D01*
X57297690Y-48876169D01*
X57385324Y-48893600D01*
X57474676Y-48893600D01*
X57562310Y-48876169D01*
X57644860Y-48841975D01*
X57719153Y-48792334D01*
X57782334Y-48729153D01*
X57831975Y-48654860D01*
X57866169Y-48572310D01*
X57883600Y-48484676D01*
X57883600Y-48395324D01*
X57866169Y-48307690D01*
X57831975Y-48225140D01*
X57782334Y-48150847D01*
X57719153Y-48087666D01*
X57644860Y-48038025D01*
X57562310Y-48003831D01*
X57474676Y-47986400D01*
X57385324Y-47986400D01*
X57297690Y-48003831D01*
X57215140Y-48038025D01*
X57145735Y-48084400D01*
X56837452Y-48084400D01*
X56819999Y-48082681D01*
X56802546Y-48084400D01*
X56802537Y-48084400D01*
X56750290Y-48089546D01*
X56683260Y-48109879D01*
X56621484Y-48142899D01*
X56621482Y-48142900D01*
X56621483Y-48142900D01*
X56580900Y-48176205D01*
X56580895Y-48176210D01*
X56567337Y-48187337D01*
X56556210Y-48200895D01*
X51460901Y-53296206D01*
X51447338Y-53307337D01*
X51402900Y-53361484D01*
X51386390Y-53392372D01*
X51369880Y-53423259D01*
X51349546Y-53490290D01*
X51342681Y-53560000D01*
X51344401Y-53577466D01*
X51344400Y-60180970D01*
X51341975Y-60175114D01*
X51292334Y-60100821D01*
X51229153Y-60037640D01*
X51154860Y-59987999D01*
X51072310Y-59953805D01*
X50984676Y-59936374D01*
X50895324Y-59936374D01*
X50807690Y-59953805D01*
X50725140Y-59987999D01*
X50650847Y-60037640D01*
X50587666Y-60100821D01*
X50538025Y-60175114D01*
X50503831Y-60257664D01*
X50486400Y-60345298D01*
X50486400Y-60434650D01*
X50503831Y-60522284D01*
X50538025Y-60604834D01*
X50587666Y-60679127D01*
X50594401Y-60685862D01*
X50594400Y-63105735D01*
X50548025Y-63175140D01*
X50513831Y-63257690D01*
X50496400Y-63345324D01*
X50496400Y-63434676D01*
X50513831Y-63522310D01*
X50548025Y-63604860D01*
X50597666Y-63679153D01*
X50660847Y-63742334D01*
X50735140Y-63791975D01*
X50817690Y-63826169D01*
X50905324Y-63843600D01*
X50994676Y-63843600D01*
X51082310Y-63826169D01*
X51164860Y-63791975D01*
X51239153Y-63742334D01*
X51302334Y-63679153D01*
X51344400Y-63616196D01*
X51344400Y-66182545D01*
X51342681Y-66200000D01*
X51344400Y-66217455D01*
X51344400Y-66217462D01*
X51345544Y-66229072D01*
X51349546Y-66269710D01*
X51358400Y-66298897D01*
X51369879Y-66336739D01*
X51402899Y-66398515D01*
X51447337Y-66452662D01*
X51460901Y-66463795D01*
X53047547Y-68050442D01*
X53063831Y-68132310D01*
X53084074Y-68181180D01*
X50005600Y-65102707D01*
X50005600Y-60614265D01*
X50051975Y-60544860D01*
X50086169Y-60462310D01*
X50103600Y-60374676D01*
X50103600Y-60285324D01*
X50086169Y-60197690D01*
X50051975Y-60115140D01*
X50002334Y-60040847D01*
X49939153Y-59977666D01*
X49864860Y-59928025D01*
X49782310Y-59893831D01*
X49694676Y-59876400D01*
X49605324Y-59876400D01*
X49517690Y-59893831D01*
X49435140Y-59928025D01*
X49360847Y-59977666D01*
X49297666Y-60040847D01*
X49248025Y-60115140D01*
X49213831Y-60197690D01*
X49196400Y-60285324D01*
X48155600Y-60285324D01*
X48155600Y-40984265D01*
X48201975Y-40914860D01*
X48236169Y-40832310D01*
X48253600Y-40744676D01*
X48253600Y-40655324D01*
X48236169Y-40567690D01*
X48201975Y-40485140D01*
X48152334Y-40410847D01*
X48089153Y-40347666D01*
X48014860Y-40298025D01*
X47932310Y-40263831D01*
X47844676Y-40246400D01*
X47755324Y-40246400D01*
X47667690Y-40263831D01*
X47585140Y-40298025D01*
X47510847Y-40347666D01*
X47447666Y-40410847D01*
X47398025Y-40485140D01*
X47363831Y-40567690D01*
X47346400Y-40655324D01*
X44151704Y-40655324D01*
X44228600Y-40268744D01*
X44228600Y-39731256D01*
X44123742Y-39204097D01*
X43918054Y-38707523D01*
X43619442Y-38260619D01*
X43239381Y-37880558D01*
X42792477Y-37581946D01*
X42320334Y-37386378D01*
X134671632Y-37389705D01*
G37*
X134671632Y-37389705D02*
X134207523Y-37581946D01*
X133760619Y-37880558D01*
X133380558Y-38260619D01*
X133081946Y-38707523D01*
X132876258Y-39204097D01*
X132771400Y-39731256D01*
X132771400Y-40268744D01*
X132876258Y-40795903D01*
X133081946Y-41292477D01*
X133380558Y-41739381D01*
X133760619Y-42119442D01*
X134207523Y-42418054D01*
X134704097Y-42623742D01*
X135231256Y-42728600D01*
X135768744Y-42728600D01*
X136295903Y-42623742D01*
X136792477Y-42418054D01*
X137239381Y-42119442D01*
X137619442Y-41739381D01*
X137918054Y-41292477D01*
X138123742Y-40795903D01*
X138228600Y-40268744D01*
X138228600Y-39823687D01*
X138246374Y-39992794D01*
X138246400Y-40000310D01*
X138246401Y-90987583D01*
X138228600Y-91169130D01*
X138228600Y-90731256D01*
X138123742Y-90204097D01*
X137918054Y-89707523D01*
X137619442Y-89260619D01*
X137239381Y-88880558D01*
X136792477Y-88581946D01*
X136295903Y-88376258D01*
X135768744Y-88271400D01*
X135231256Y-88271400D01*
X134704097Y-88376258D01*
X134207523Y-88581946D01*
X133760619Y-88880558D01*
X133380558Y-89260619D01*
X133081946Y-89707523D01*
X132876258Y-90204097D01*
X132771400Y-90731256D01*
X132771400Y-91268744D01*
X132876258Y-91795903D01*
X133081946Y-92292477D01*
X133380558Y-92739381D01*
X133760619Y-93119442D01*
X134207523Y-93418054D01*
X134704097Y-93623742D01*
X134767716Y-93636396D01*
X44046229Y-93680815D01*
X44051577Y-91970124D01*
X44123742Y-91795903D01*
X44228600Y-91268744D01*
X44228600Y-90731256D01*
X44123742Y-90204097D01*
X44057597Y-90044409D01*
X44058085Y-89888088D01*
X46941400Y-89888088D01*
X46941400Y-90011912D01*
X46965556Y-90133356D01*
X47012941Y-90247754D01*
X47023593Y-90263695D01*
X47023900Y-90266817D01*
X47023900Y-90266823D01*
X47031802Y-90347053D01*
X47063028Y-90449993D01*
X47113738Y-90544865D01*
X47181981Y-90628019D01*
X47202821Y-90645122D01*
X49854882Y-93297184D01*
X49871981Y-93318019D01*
X49892816Y-93335118D01*
X49900959Y-93341801D01*
X49955135Y-93386262D01*
X50050006Y-93436972D01*
X50152946Y-93468198D01*
X50233176Y-93476100D01*
X50233185Y-93476100D01*
X50259999Y-93478741D01*
X50286813Y-93476100D01*
X76003183Y-93476100D01*
X76030000Y-93478741D01*
X76056817Y-93476100D01*
X76116626Y-93476100D01*
X76196856Y-93468198D01*
X76203772Y-93466100D01*
X76258880Y-93466100D01*
X76275681Y-93479917D01*
X76348449Y-93518907D01*
X76427425Y-93542951D01*
X76509575Y-93551126D01*
X76591740Y-93543117D01*
X76670764Y-93519233D01*
X76743611Y-93480390D01*
X76761059Y-93466100D01*
X92915845Y-93466100D01*
X92932246Y-93477059D01*
X93046644Y-93524444D01*
X93168088Y-93548600D01*
X93291912Y-93548600D01*
X93413356Y-93524444D01*
X93527754Y-93477059D01*
X93559121Y-93456100D01*
X107663183Y-93456100D01*
X107690000Y-93458741D01*
X107716817Y-93456100D01*
X107716824Y-93456100D01*
X107797054Y-93448198D01*
X107899994Y-93416972D01*
X107994865Y-93366262D01*
X108078019Y-93298019D01*
X108095122Y-93277179D01*
X109319137Y-92053164D01*
X120921400Y-92053164D01*
X120921400Y-92186836D01*
X120947479Y-92317940D01*
X120998633Y-92441437D01*
X121072897Y-92552582D01*
X121167418Y-92647103D01*
X121278563Y-92721367D01*
X121402060Y-92772521D01*
X121533164Y-92798600D01*
X121666836Y-92798600D01*
X121797940Y-92772521D01*
X121921437Y-92721367D01*
X122032582Y-92647103D01*
X122127103Y-92552582D01*
X122201367Y-92441437D01*
X122252521Y-92317940D01*
X122278600Y-92186836D01*
X122278600Y-92053164D01*
X123921400Y-92053164D01*
X123921400Y-92186836D01*
X123947479Y-92317940D01*
X123998633Y-92441437D01*
X124072897Y-92552582D01*
X124167418Y-92647103D01*
X124278563Y-92721367D01*
X124402060Y-92772521D01*
X124533164Y-92798600D01*
X124666836Y-92798600D01*
X124797940Y-92772521D01*
X124921437Y-92721367D01*
X125032582Y-92647103D01*
X125127103Y-92552582D01*
X125201367Y-92441437D01*
X125252521Y-92317940D01*
X125278600Y-92186836D01*
X125278600Y-92053164D01*
X125252521Y-91922060D01*
X125201367Y-91798563D01*
X125127103Y-91687418D01*
X125032582Y-91592897D01*
X124921437Y-91518633D01*
X124797940Y-91467479D01*
X124666836Y-91441400D01*
X124533164Y-91441400D01*
X124402060Y-91467479D01*
X124278563Y-91518633D01*
X124167418Y-91592897D01*
X124072897Y-91687418D01*
X123998633Y-91798563D01*
X123947479Y-91922060D01*
X123921400Y-92053164D01*
X122278600Y-92053164D01*
X122252521Y-91922060D01*
X122201367Y-91798563D01*
X122127103Y-91687418D01*
X122032582Y-91592897D01*
X121921437Y-91518633D01*
X121797940Y-91467479D01*
X121666836Y-91441400D01*
X121533164Y-91441400D01*
X121402060Y-91467479D01*
X121278563Y-91518633D01*
X121167418Y-91592897D01*
X121072897Y-91687418D01*
X120998633Y-91798563D01*
X120947479Y-91922060D01*
X120921400Y-92053164D01*
X109319137Y-92053164D01*
X111717184Y-89655118D01*
X111738019Y-89638019D01*
X111759157Y-89612263D01*
X111806262Y-89554865D01*
X111838935Y-89493738D01*
X111856972Y-89459994D01*
X111888198Y-89357054D01*
X111896100Y-89276824D01*
X111896100Y-89276817D01*
X111898741Y-89250000D01*
X111896100Y-89223183D01*
X111896100Y-81065324D01*
X116886400Y-81065324D01*
X116886400Y-81154676D01*
X116903831Y-81242310D01*
X116938025Y-81324860D01*
X116987666Y-81399153D01*
X117050847Y-81462334D01*
X117125140Y-81511975D01*
X117166348Y-81529044D01*
X122290956Y-86653653D01*
X122308025Y-86694860D01*
X122357666Y-86769153D01*
X122420847Y-86832334D01*
X122495140Y-86881975D01*
X122577690Y-86916169D01*
X122665324Y-86933600D01*
X122754676Y-86933600D01*
X122842310Y-86916169D01*
X122924860Y-86881975D01*
X122999153Y-86832334D01*
X123062334Y-86769153D01*
X123111975Y-86694860D01*
X123146169Y-86612310D01*
X123163600Y-86524676D01*
X123163600Y-86435324D01*
X123146169Y-86347690D01*
X123111975Y-86265140D01*
X123062334Y-86190847D01*
X122999153Y-86127666D01*
X122924860Y-86078025D01*
X122883653Y-86060956D01*
X120578021Y-83755324D01*
X121326400Y-83755324D01*
X121326400Y-83844676D01*
X121343831Y-83932310D01*
X121378025Y-84014860D01*
X121427666Y-84089153D01*
X121490847Y-84152334D01*
X121565140Y-84201975D01*
X121572206Y-84204902D01*
X123360956Y-85993653D01*
X123378025Y-86034860D01*
X123427666Y-86109153D01*
X123490847Y-86172334D01*
X123565140Y-86221975D01*
X123647690Y-86256169D01*
X123735324Y-86273600D01*
X123824676Y-86273600D01*
X123912310Y-86256169D01*
X123994860Y-86221975D01*
X124069153Y-86172334D01*
X124132334Y-86109153D01*
X124181975Y-86034860D01*
X124216169Y-85952310D01*
X124233600Y-85864676D01*
X124233600Y-85775324D01*
X124216169Y-85687690D01*
X124181975Y-85605140D01*
X124132334Y-85530847D01*
X124069153Y-85467666D01*
X123994860Y-85418025D01*
X123953653Y-85400956D01*
X122213187Y-83660491D01*
X122181975Y-83585140D01*
X122132334Y-83510847D01*
X122069153Y-83447666D01*
X121994860Y-83398025D01*
X121912310Y-83363831D01*
X121824676Y-83346400D01*
X121735324Y-83346400D01*
X121647690Y-83363831D01*
X121565140Y-83398025D01*
X121490847Y-83447666D01*
X121427666Y-83510847D01*
X121378025Y-83585140D01*
X121343831Y-83667690D01*
X121326400Y-83755324D01*
X120578021Y-83755324D01*
X117759044Y-80936348D01*
X117741975Y-80895140D01*
X117692334Y-80820847D01*
X117629153Y-80757666D01*
X117554860Y-80708025D01*
X117472310Y-80673831D01*
X117384676Y-80656400D01*
X117295324Y-80656400D01*
X117207690Y-80673831D01*
X117125140Y-80708025D01*
X117050847Y-80757666D01*
X116987666Y-80820847D01*
X116938025Y-80895140D01*
X116903831Y-80977690D01*
X116886400Y-81065324D01*
X111896100Y-81065324D01*
X111896100Y-79419926D01*
X111951981Y-79488017D01*
X112035135Y-79556260D01*
X112130006Y-79606970D01*
X112232946Y-79638196D01*
X112313176Y-79646098D01*
X119033797Y-79646098D01*
X124124882Y-84737184D01*
X124141981Y-84758019D01*
X124225135Y-84826262D01*
X124320006Y-84876972D01*
X124422946Y-84908198D01*
X124503176Y-84916100D01*
X124503185Y-84916100D01*
X124529999Y-84918741D01*
X124556813Y-84916100D01*
X126655845Y-84916100D01*
X126672246Y-84927059D01*
X126786644Y-84974444D01*
X126908088Y-84998600D01*
X127031912Y-84998600D01*
X127153356Y-84974444D01*
X127267754Y-84927059D01*
X127370709Y-84858266D01*
X127458266Y-84770709D01*
X127527059Y-84667754D01*
X127574444Y-84553356D01*
X127598600Y-84431912D01*
X127598600Y-84308088D01*
X127574444Y-84186644D01*
X127527059Y-84072246D01*
X127516100Y-84055845D01*
X127516100Y-80600400D01*
X133496400Y-80600400D01*
X133496400Y-80699600D01*
X133515753Y-80796895D01*
X133553715Y-80888544D01*
X133608828Y-80971026D01*
X133678974Y-81041172D01*
X133761456Y-81096285D01*
X133853105Y-81134247D01*
X133950400Y-81153600D01*
X134049600Y-81153600D01*
X134146895Y-81134247D01*
X134238544Y-81096285D01*
X134321026Y-81041172D01*
X134391172Y-80971026D01*
X134446285Y-80888544D01*
X134484247Y-80796895D01*
X134503600Y-80699600D01*
X134503600Y-80600400D01*
X134484247Y-80503105D01*
X134446285Y-80411456D01*
X134391172Y-80328974D01*
X134321026Y-80258828D01*
X134238544Y-80203715D01*
X134146895Y-80165753D01*
X134049600Y-80146400D01*
X133950400Y-80146400D01*
X133853105Y-80165753D01*
X133761456Y-80203715D01*
X133678974Y-80258828D01*
X133608828Y-80328974D01*
X133553715Y-80411456D01*
X133515753Y-80503105D01*
X133496400Y-80600400D01*
X127516100Y-80600400D01*
X127516100Y-79136936D01*
X127528198Y-79097054D01*
X127536100Y-79016824D01*
X127536100Y-76300400D01*
X133496400Y-76300400D01*
X133496400Y-76399600D01*
X133515753Y-76496895D01*
X133553715Y-76588544D01*
X133608828Y-76671026D01*
X133678974Y-76741172D01*
X133761456Y-76796285D01*
X133853105Y-76834247D01*
X133950400Y-76853600D01*
X134049600Y-76853600D01*
X134146895Y-76834247D01*
X134238544Y-76796285D01*
X134321026Y-76741172D01*
X134391172Y-76671026D01*
X134446285Y-76588544D01*
X134484247Y-76496895D01*
X134503600Y-76399600D01*
X134503600Y-76300400D01*
X134484247Y-76203105D01*
X134446285Y-76111456D01*
X134391172Y-76028974D01*
X134321026Y-75958828D01*
X134238544Y-75903715D01*
X134146895Y-75865753D01*
X134049600Y-75846400D01*
X133950400Y-75846400D01*
X133853105Y-75865753D01*
X133761456Y-75903715D01*
X133678974Y-75958828D01*
X133608828Y-76028974D01*
X133553715Y-76111456D01*
X133515753Y-76203105D01*
X133496400Y-76300400D01*
X127536100Y-76300400D01*
X127536100Y-75758073D01*
X127580709Y-75728266D01*
X127668266Y-75640709D01*
X127737059Y-75537754D01*
X127784444Y-75423356D01*
X127808600Y-75301912D01*
X127808600Y-75178088D01*
X127784444Y-75056644D01*
X127737059Y-74942246D01*
X127668266Y-74839291D01*
X127580709Y-74751734D01*
X127477754Y-74682941D01*
X127363356Y-74635556D01*
X127241912Y-74611400D01*
X127118088Y-74611400D01*
X126996644Y-74635556D01*
X126882246Y-74682941D01*
X126779291Y-74751734D01*
X126691734Y-74839291D01*
X126663889Y-74880964D01*
X126642393Y-74898816D01*
X126601981Y-74931981D01*
X126600961Y-74933224D01*
X126599729Y-74934247D01*
X126566901Y-74974726D01*
X126533738Y-75015135D01*
X126532981Y-75016552D01*
X126531970Y-75017798D01*
X126507664Y-75063916D01*
X126483028Y-75110007D01*
X126482561Y-75111547D01*
X126481815Y-75112962D01*
X126466978Y-75162917D01*
X126451802Y-75212947D01*
X126451645Y-75214544D01*
X126451188Y-75216082D01*
X126446381Y-75267990D01*
X126443900Y-75293177D01*
X126443900Y-75294776D01*
X126441268Y-75323196D01*
X126443900Y-75348413D01*
X126443901Y-78863064D01*
X126431803Y-78902946D01*
X126423901Y-78983176D01*
X126423900Y-83823900D01*
X124756202Y-83823900D01*
X120087626Y-79155324D01*
X121456240Y-79155324D01*
X121456240Y-79244676D01*
X121473671Y-79332310D01*
X121507865Y-79414860D01*
X121557506Y-79489153D01*
X121620687Y-79552334D01*
X121694980Y-79601975D01*
X121777530Y-79636169D01*
X121865164Y-79653600D01*
X121954516Y-79653600D01*
X122042150Y-79636169D01*
X122124700Y-79601975D01*
X122198993Y-79552334D01*
X122262174Y-79489153D01*
X122311815Y-79414860D01*
X122346009Y-79332310D01*
X122363440Y-79244676D01*
X122363440Y-79155324D01*
X122346009Y-79067690D01*
X122311815Y-78985140D01*
X122265440Y-78915735D01*
X122265440Y-77974503D01*
X122311974Y-77904860D01*
X122346168Y-77822310D01*
X122363599Y-77734676D01*
X122363599Y-77645324D01*
X122346168Y-77557690D01*
X122311974Y-77475140D01*
X122262333Y-77400847D01*
X122199152Y-77337666D01*
X122124859Y-77288025D01*
X122042309Y-77253831D01*
X121954675Y-77236400D01*
X121865323Y-77236400D01*
X121777689Y-77253831D01*
X121695139Y-77288025D01*
X121620846Y-77337666D01*
X121557665Y-77400847D01*
X121508024Y-77475140D01*
X121473830Y-77557690D01*
X121456399Y-77645324D01*
X121456399Y-77734676D01*
X121473830Y-77822310D01*
X121508024Y-77904860D01*
X121554241Y-77974028D01*
X121554240Y-78915735D01*
X121507865Y-78985140D01*
X121473671Y-79067690D01*
X121456240Y-79155324D01*
X120087626Y-79155324D01*
X119665120Y-78732819D01*
X119648017Y-78711979D01*
X119564863Y-78643736D01*
X119469992Y-78593026D01*
X119367052Y-78561800D01*
X119286822Y-78553898D01*
X119286815Y-78553898D01*
X119259998Y-78551257D01*
X119233181Y-78553898D01*
X112313176Y-78553898D01*
X112232946Y-78561800D01*
X112130006Y-78593026D01*
X112035135Y-78643736D01*
X111970614Y-78696688D01*
X113121202Y-77546100D01*
X118723799Y-77546100D01*
X118991708Y-77814010D01*
X118995556Y-77833356D01*
X119042941Y-77947754D01*
X119111734Y-78050709D01*
X119199291Y-78138266D01*
X119302246Y-78207059D01*
X119416644Y-78254444D01*
X119538088Y-78278600D01*
X119661912Y-78278600D01*
X119783356Y-78254444D01*
X119897754Y-78207059D01*
X120000709Y-78138266D01*
X120088266Y-78050709D01*
X120157059Y-77947754D01*
X120204444Y-77833356D01*
X120228600Y-77711912D01*
X120228600Y-77588088D01*
X120204444Y-77466644D01*
X120157059Y-77352246D01*
X120146100Y-77335845D01*
X120146100Y-77266201D01*
X120726202Y-76686100D01*
X122653799Y-76686100D01*
X123031708Y-77064010D01*
X123035556Y-77083356D01*
X123082941Y-77197754D01*
X123151734Y-77300709D01*
X123239291Y-77388266D01*
X123342246Y-77457059D01*
X123456644Y-77504444D01*
X123578088Y-77528600D01*
X123701912Y-77528600D01*
X123823356Y-77504444D01*
X123937754Y-77457059D01*
X124040709Y-77388266D01*
X124128266Y-77300709D01*
X124197059Y-77197754D01*
X124244444Y-77083356D01*
X124268600Y-76961912D01*
X124268600Y-76838088D01*
X124244444Y-76716644D01*
X124197059Y-76602246D01*
X124128266Y-76499291D01*
X124059100Y-76430125D01*
X124059100Y-73583594D01*
X125123653Y-72519042D01*
X125164860Y-72501973D01*
X125239153Y-72452332D01*
X125302334Y-72389151D01*
X125351975Y-72314858D01*
X125386169Y-72232308D01*
X125403600Y-72144674D01*
X125403600Y-72055322D01*
X125386169Y-71967688D01*
X125351975Y-71885138D01*
X125302334Y-71810845D01*
X125239153Y-71747664D01*
X125164860Y-71698023D01*
X125082310Y-71663829D01*
X124994676Y-71646398D01*
X124905324Y-71646398D01*
X124817690Y-71663829D01*
X124735140Y-71698023D01*
X124660847Y-71747664D01*
X124597666Y-71810845D01*
X124548025Y-71885138D01*
X124530956Y-71926345D01*
X123358206Y-73099096D01*
X123342219Y-73112216D01*
X123329100Y-73128202D01*
X123289846Y-73176033D01*
X123250930Y-73248840D01*
X123226965Y-73327841D01*
X123218873Y-73409998D01*
X123220901Y-73430588D01*
X123220900Y-75713312D01*
X123184865Y-75683738D01*
X123089994Y-75633028D01*
X122987054Y-75601802D01*
X122906824Y-75593900D01*
X122906817Y-75593900D01*
X122880000Y-75591259D01*
X122853183Y-75593900D01*
X120526813Y-75593900D01*
X120499999Y-75591259D01*
X120473185Y-75593900D01*
X120473176Y-75593900D01*
X120392946Y-75601802D01*
X120290006Y-75633028D01*
X120195135Y-75683738D01*
X120111981Y-75751981D01*
X120094882Y-75772816D01*
X119292816Y-76574883D01*
X119254865Y-76543738D01*
X119159994Y-76493028D01*
X119057054Y-76461802D01*
X118976824Y-76453900D01*
X118976817Y-76453900D01*
X118950000Y-76451259D01*
X118923183Y-76453900D01*
X112921817Y-76453900D01*
X112895000Y-76451259D01*
X112868183Y-76453900D01*
X112868176Y-76453900D01*
X112787946Y-76461802D01*
X112685006Y-76493028D01*
X112685004Y-76493029D01*
X112590135Y-76543738D01*
X112535041Y-76588953D01*
X112506981Y-76611981D01*
X112489882Y-76632816D01*
X110982821Y-78139878D01*
X110961981Y-78156981D01*
X110893738Y-78240135D01*
X110843028Y-78335007D01*
X110811802Y-78437947D01*
X110803900Y-78518177D01*
X110803900Y-78518183D01*
X110801259Y-78545000D01*
X110803900Y-78571817D01*
X110803901Y-89023797D01*
X107463799Y-92363900D01*
X93529189Y-92363900D01*
X93527754Y-92362941D01*
X93413356Y-92315556D01*
X93291912Y-92291400D01*
X93168088Y-92291400D01*
X93046644Y-92315556D01*
X92932246Y-92362941D01*
X92915845Y-92373900D01*
X76929864Y-92373900D01*
X76931427Y-90828239D01*
X80006401Y-90828239D01*
X80006401Y-90971761D01*
X80034401Y-91112525D01*
X80089324Y-91245121D01*
X80169061Y-91364455D01*
X80270546Y-91465940D01*
X80389880Y-91545677D01*
X80522476Y-91600600D01*
X80663240Y-91628600D01*
X80806762Y-91628600D01*
X80947526Y-91600600D01*
X81080122Y-91545677D01*
X81199456Y-91465940D01*
X81300941Y-91364455D01*
X81380678Y-91245121D01*
X81435601Y-91112525D01*
X81463601Y-90971761D01*
X81463601Y-90828239D01*
X81435601Y-90687475D01*
X81380678Y-90554879D01*
X81300941Y-90435545D01*
X81199456Y-90334060D01*
X81080122Y-90254323D01*
X80947526Y-90199400D01*
X80806762Y-90171400D01*
X80663240Y-90171400D01*
X80522476Y-90199400D01*
X80389880Y-90254323D01*
X80270546Y-90334060D01*
X80169061Y-90435545D01*
X80089324Y-90554879D01*
X80034401Y-90687475D01*
X80006401Y-90828239D01*
X76931427Y-90828239D01*
X76934241Y-88045324D01*
X90276400Y-88045324D01*
X90276400Y-88134676D01*
X90293831Y-88222310D01*
X90328025Y-88304860D01*
X90377666Y-88379153D01*
X90440847Y-88442334D01*
X90515140Y-88491975D01*
X90587797Y-88522071D01*
X90525140Y-88548025D01*
X90450847Y-88597666D01*
X90387666Y-88660847D01*
X90338025Y-88735140D01*
X90303831Y-88817690D01*
X90286400Y-88905324D01*
X90286400Y-88994676D01*
X90303831Y-89082310D01*
X90338025Y-89164860D01*
X90387666Y-89239153D01*
X90450847Y-89302334D01*
X90525140Y-89351975D01*
X90607690Y-89386169D01*
X90695324Y-89403600D01*
X90784676Y-89403600D01*
X90807300Y-89399100D01*
X99486483Y-89399100D01*
X99527690Y-89416169D01*
X99615324Y-89433600D01*
X99704676Y-89433600D01*
X99792310Y-89416169D01*
X99874860Y-89381975D01*
X99949153Y-89332334D01*
X100012334Y-89269153D01*
X100061975Y-89194860D01*
X100096169Y-89112310D01*
X100113600Y-89024676D01*
X100113600Y-88935324D01*
X100096169Y-88847690D01*
X100061975Y-88765140D01*
X100012334Y-88690847D01*
X99949153Y-88627666D01*
X99874860Y-88578025D01*
X99792310Y-88543831D01*
X99704676Y-88526400D01*
X99615324Y-88526400D01*
X99527690Y-88543831D01*
X99486483Y-88560900D01*
X90974129Y-88560900D01*
X90954860Y-88548025D01*
X90882203Y-88517929D01*
X90903517Y-88509100D01*
X101220624Y-88509100D01*
X101237690Y-88516169D01*
X101325324Y-88533600D01*
X101414676Y-88533600D01*
X101502310Y-88516169D01*
X101543517Y-88499100D01*
X105096404Y-88499100D01*
X105970900Y-89373597D01*
X105970901Y-91296480D01*
X105953831Y-91337690D01*
X105936400Y-91425324D01*
X105936400Y-91514676D01*
X105953831Y-91602310D01*
X105988025Y-91684860D01*
X106037666Y-91759153D01*
X106100847Y-91822334D01*
X106175140Y-91871975D01*
X106257690Y-91906169D01*
X106345324Y-91923600D01*
X106434676Y-91923600D01*
X106522310Y-91906169D01*
X106604860Y-91871975D01*
X106679153Y-91822334D01*
X106742334Y-91759153D01*
X106791975Y-91684860D01*
X106826169Y-91602310D01*
X106843600Y-91514676D01*
X106843600Y-91425324D01*
X106826169Y-91337690D01*
X106809100Y-91296483D01*
X106809100Y-89220579D01*
X106811127Y-89199999D01*
X106803035Y-89117842D01*
X106801357Y-89112310D01*
X106779071Y-89038842D01*
X106740154Y-88966034D01*
X106687782Y-88902218D01*
X106671796Y-88889099D01*
X105580907Y-87798211D01*
X105567782Y-87782218D01*
X105503966Y-87729846D01*
X105431158Y-87690929D01*
X105352158Y-87666965D01*
X105290580Y-87660900D01*
X105270000Y-87658873D01*
X105249420Y-87660900D01*
X101543517Y-87660900D01*
X101502310Y-87643831D01*
X101414676Y-87626400D01*
X101325324Y-87626400D01*
X101237690Y-87643831D01*
X101172341Y-87670900D01*
X90903517Y-87670900D01*
X90862310Y-87653831D01*
X90774676Y-87636400D01*
X90685324Y-87636400D01*
X90597690Y-87653831D01*
X90515140Y-87688025D01*
X90440847Y-87737666D01*
X90377666Y-87800847D01*
X90328025Y-87875140D01*
X90293831Y-87957690D01*
X90276400Y-88045324D01*
X76934241Y-88045324D01*
X76943925Y-78468942D01*
X76961170Y-78427309D01*
X76978601Y-78339675D01*
X76978601Y-78250323D01*
X76961170Y-78162689D01*
X76926976Y-78080139D01*
X76877335Y-78005846D01*
X76814154Y-77942665D01*
X76739861Y-77893024D01*
X76657311Y-77858830D01*
X76569677Y-77841399D01*
X76480325Y-77841399D01*
X76392691Y-77858830D01*
X76310141Y-77893024D01*
X76235848Y-77942665D01*
X76172667Y-78005846D01*
X76123026Y-78080139D01*
X76088832Y-78162689D01*
X76071401Y-78250323D01*
X76071401Y-78339675D01*
X76088832Y-78427309D01*
X76105727Y-78468096D01*
X76091665Y-92373900D01*
X76066813Y-92373900D01*
X76039999Y-92371259D01*
X76013185Y-92373900D01*
X76013176Y-92373900D01*
X75932946Y-92381802D01*
X75926030Y-92383900D01*
X62706014Y-92383900D01*
X62706014Y-90828239D01*
X72006401Y-90828239D01*
X72006401Y-90971761D01*
X72034401Y-91112525D01*
X72089324Y-91245121D01*
X72169061Y-91364455D01*
X72270546Y-91465940D01*
X72389880Y-91545677D01*
X72522476Y-91600600D01*
X72663240Y-91628600D01*
X72806762Y-91628600D01*
X72947526Y-91600600D01*
X73080122Y-91545677D01*
X73199456Y-91465940D01*
X73300941Y-91364455D01*
X73380678Y-91245121D01*
X73435601Y-91112525D01*
X73463601Y-90971761D01*
X73463601Y-90828239D01*
X73435601Y-90687475D01*
X73380678Y-90554879D01*
X73300941Y-90435545D01*
X73199456Y-90334060D01*
X73080122Y-90254323D01*
X72947526Y-90199400D01*
X72806762Y-90171400D01*
X72663240Y-90171400D01*
X72522476Y-90199400D01*
X72389880Y-90254323D01*
X72270546Y-90334060D01*
X72169061Y-90435545D01*
X72089324Y-90554879D01*
X72034401Y-90687475D01*
X72006401Y-90828239D01*
X62706014Y-90828239D01*
X62706014Y-86786682D01*
X63773653Y-85719044D01*
X63814860Y-85701975D01*
X63889153Y-85652334D01*
X63952334Y-85589153D01*
X64001975Y-85514860D01*
X64036169Y-85432310D01*
X64053600Y-85344676D01*
X64053600Y-85255324D01*
X64036169Y-85167690D01*
X64001975Y-85085140D01*
X63952334Y-85010847D01*
X63889153Y-84947666D01*
X63814860Y-84898025D01*
X63732310Y-84863831D01*
X63644676Y-84846400D01*
X63555324Y-84846400D01*
X63467690Y-84863831D01*
X63385140Y-84898025D01*
X63310847Y-84947666D01*
X63247666Y-85010847D01*
X63198025Y-85085140D01*
X63180956Y-85126347D01*
X62005120Y-86302184D01*
X61989133Y-86315304D01*
X61976014Y-86331290D01*
X61936760Y-86379121D01*
X61897844Y-86451928D01*
X61873879Y-86530929D01*
X61865787Y-86613086D01*
X61867815Y-86633676D01*
X61867814Y-92383900D01*
X50486202Y-92383900D01*
X48184600Y-90082299D01*
X48198600Y-90011912D01*
X48198600Y-89888088D01*
X48174444Y-89766644D01*
X48127059Y-89652246D01*
X48058266Y-89549291D01*
X47970709Y-89461734D01*
X47867754Y-89392941D01*
X47753356Y-89345556D01*
X47631912Y-89321400D01*
X47508088Y-89321400D01*
X47386644Y-89345556D01*
X47272246Y-89392941D01*
X47169291Y-89461734D01*
X47081734Y-89549291D01*
X47012941Y-89652246D01*
X46965556Y-89766644D01*
X46941400Y-89888088D01*
X44058085Y-89888088D01*
X44066971Y-87045324D01*
X56706400Y-87045324D01*
X56706400Y-87134676D01*
X56723831Y-87222310D01*
X56758025Y-87304860D01*
X56807666Y-87379153D01*
X56870847Y-87442334D01*
X56945140Y-87491975D01*
X57027690Y-87526169D01*
X57115324Y-87543600D01*
X57204676Y-87543600D01*
X57292310Y-87526169D01*
X57374860Y-87491975D01*
X57449153Y-87442334D01*
X57512334Y-87379153D01*
X57561975Y-87304860D01*
X57596169Y-87222310D01*
X57613600Y-87134676D01*
X57613600Y-87126422D01*
X57619100Y-87070580D01*
X57619100Y-84713517D01*
X57636169Y-84672310D01*
X57653600Y-84584676D01*
X57653600Y-84495324D01*
X57636169Y-84407690D01*
X57601975Y-84325140D01*
X57552334Y-84250847D01*
X57489153Y-84187666D01*
X57414860Y-84138025D01*
X57332310Y-84103831D01*
X57244676Y-84086400D01*
X57155324Y-84086400D01*
X57067690Y-84103831D01*
X56985140Y-84138025D01*
X56910847Y-84187666D01*
X56847666Y-84250847D01*
X56798025Y-84325140D01*
X56763831Y-84407690D01*
X56746400Y-84495324D01*
X56746400Y-84584676D01*
X56763831Y-84672310D01*
X56780900Y-84713518D01*
X56780901Y-86840904D01*
X56758025Y-86875140D01*
X56723831Y-86957690D01*
X56706400Y-87045324D01*
X44066971Y-87045324D01*
X44145949Y-61780448D01*
X44940901Y-62575400D01*
X44940900Y-66123830D01*
X44938873Y-66144410D01*
X44940900Y-66164989D01*
X44946965Y-66226567D01*
X44970929Y-66305567D01*
X45009846Y-66378375D01*
X45062218Y-66442192D01*
X45078211Y-66455317D01*
X48500956Y-69878063D01*
X48518025Y-69919270D01*
X48567666Y-69993563D01*
X48630847Y-70056744D01*
X48705140Y-70106385D01*
X48787690Y-70140579D01*
X48875324Y-70158010D01*
X48964676Y-70158010D01*
X49052310Y-70140579D01*
X49134860Y-70106385D01*
X49209153Y-70056744D01*
X49272334Y-69993563D01*
X49321975Y-69919270D01*
X49356169Y-69836720D01*
X49373600Y-69749086D01*
X49373600Y-69659734D01*
X49356169Y-69572100D01*
X49321975Y-69489550D01*
X49272334Y-69415257D01*
X49209153Y-69352076D01*
X49134860Y-69302435D01*
X49093653Y-69285366D01*
X45779100Y-65970814D01*
X45779100Y-62422381D01*
X45781127Y-62401801D01*
X45773035Y-62319644D01*
X45770247Y-62310454D01*
X45749071Y-62240644D01*
X45710154Y-62167836D01*
X45657782Y-62104020D01*
X45641795Y-62090900D01*
X41269119Y-57718225D01*
X41255994Y-57702232D01*
X41192178Y-57649860D01*
X41119370Y-57610943D01*
X41040370Y-57586979D01*
X40978792Y-57580914D01*
X40958212Y-57578887D01*
X40937632Y-57580914D01*
X40313517Y-57580914D01*
X40272310Y-57563845D01*
X40184676Y-57546414D01*
X40095324Y-57546414D01*
X40007690Y-57563845D01*
X39925140Y-57598039D01*
X39850847Y-57647680D01*
X39787666Y-57710861D01*
X39738025Y-57785154D01*
X39703831Y-57867704D01*
X39686400Y-57955338D01*
X39686400Y-58044690D01*
X39703831Y-58132324D01*
X39738025Y-58214874D01*
X39787666Y-58289167D01*
X39850847Y-58352348D01*
X39925140Y-58401989D01*
X40007690Y-58436183D01*
X40095324Y-58453614D01*
X40184676Y-58453614D01*
X40272310Y-58436183D01*
X40313517Y-58419114D01*
X40784616Y-58419114D01*
X43989301Y-61623800D01*
X38753600Y-61623800D01*
X38753600Y-46455324D01*
X45946400Y-46455324D01*
X45946400Y-46544676D01*
X45963831Y-46632310D01*
X45998025Y-46714860D01*
X46044400Y-46784265D01*
X46044401Y-64682534D01*
X46042681Y-64700000D01*
X46049546Y-64769710D01*
X46069880Y-64836741D01*
X46083812Y-64862805D01*
X46102900Y-64898516D01*
X46120848Y-64920385D01*
X46133174Y-64935404D01*
X46147338Y-64952663D01*
X46160901Y-64963794D01*
X51734400Y-70537295D01*
X51734401Y-79950700D01*
X51698025Y-80005140D01*
X51663831Y-80087690D01*
X51646400Y-80175324D01*
X51646400Y-80264676D01*
X51663831Y-80352310D01*
X51698025Y-80434860D01*
X51747666Y-80509153D01*
X51810847Y-80572334D01*
X51885140Y-80621975D01*
X51967690Y-80656169D01*
X52055324Y-80673600D01*
X52144676Y-80673600D01*
X52232310Y-80656169D01*
X52314860Y-80621975D01*
X52389153Y-80572334D01*
X52452334Y-80509153D01*
X52501975Y-80434860D01*
X52536169Y-80352310D01*
X52553600Y-80264676D01*
X52553600Y-80175324D01*
X52536169Y-80087690D01*
X52501975Y-80005140D01*
X52452334Y-79930847D01*
X52445600Y-79924113D01*
X52445600Y-70407455D01*
X52447319Y-70389999D01*
X52445600Y-70372544D01*
X52445600Y-70372537D01*
X52441133Y-70327187D01*
X52440454Y-70320289D01*
X52420120Y-70253258D01*
X52401190Y-70217843D01*
X52387101Y-70191484D01*
X52379150Y-70181796D01*
X52353795Y-70150900D01*
X52353785Y-70150890D01*
X52342662Y-70137337D01*
X52329110Y-70126215D01*
X46755600Y-64552707D01*
X46755600Y-46784265D01*
X46801975Y-46714860D01*
X46836169Y-46632310D01*
X46853600Y-46544676D01*
X46853600Y-46455324D01*
X46836169Y-46367690D01*
X46801975Y-46285140D01*
X46752334Y-46210847D01*
X46689153Y-46147666D01*
X46614860Y-46098025D01*
X46532310Y-46063831D01*
X46444676Y-46046400D01*
X46355324Y-46046400D01*
X46267690Y-46063831D01*
X46185140Y-46098025D01*
X46110847Y-46147666D01*
X46047666Y-46210847D01*
X45998025Y-46285140D01*
X45963831Y-46367690D01*
X45946400Y-46455324D01*
X38753600Y-46455324D01*
X38753600Y-40012407D01*
X38771400Y-39830870D01*
X38771400Y-40268744D01*
X38876258Y-40795903D01*
X39081946Y-41292477D01*
X39380558Y-41739381D01*
X39760619Y-42119442D01*
X40207523Y-42418054D01*
X40704097Y-42623742D01*
X41231256Y-42728600D01*
X41768744Y-42728600D01*
X42295903Y-42623742D01*
X42792477Y-42418054D01*
X43239381Y-42119442D01*
X43619442Y-41739381D01*
X43918054Y-41292477D01*
X44123742Y-40795903D01*
X44151704Y-40655324D01*
X47346400Y-40655324D01*
X47346400Y-40744676D01*
X47363831Y-40832310D01*
X47398025Y-40914860D01*
X47444400Y-40984265D01*
X47444401Y-64686944D01*
X47442681Y-64704410D01*
X47449546Y-64774120D01*
X47469880Y-64841151D01*
X47478337Y-64856972D01*
X47502900Y-64902926D01*
X47526122Y-64931222D01*
X47535385Y-64942508D01*
X47547338Y-64957073D01*
X47560901Y-64968204D01*
X53060901Y-70468205D01*
X53060906Y-70468209D01*
X55549401Y-72956706D01*
X55549400Y-79950735D01*
X55503025Y-80020140D01*
X55468831Y-80102690D01*
X55451400Y-80190324D01*
X55451400Y-80279676D01*
X55468831Y-80367310D01*
X55503025Y-80449860D01*
X55552666Y-80524153D01*
X55615847Y-80587334D01*
X55690140Y-80636975D01*
X55772690Y-80671169D01*
X55860324Y-80688600D01*
X55949676Y-80688600D01*
X56037310Y-80671169D01*
X56119860Y-80636975D01*
X56194153Y-80587334D01*
X56257334Y-80524153D01*
X56306975Y-80449860D01*
X56341169Y-80367310D01*
X56358600Y-80279676D01*
X56358600Y-80190324D01*
X56341169Y-80102690D01*
X56306975Y-80020140D01*
X56260600Y-79950735D01*
X56260600Y-72826862D01*
X56262319Y-72809409D01*
X56260600Y-72791956D01*
X56260600Y-72791947D01*
X56255454Y-72739700D01*
X56235121Y-72672670D01*
X56202101Y-72610894D01*
X56173589Y-72576152D01*
X56168795Y-72570310D01*
X56168790Y-72570305D01*
X56157663Y-72556747D01*
X56144105Y-72545620D01*
X53563799Y-69965316D01*
X53563795Y-69965311D01*
X48155600Y-64557117D01*
X48155600Y-60285324D01*
X49196400Y-60285324D01*
X49196400Y-60374676D01*
X49213831Y-60462310D01*
X49248025Y-60544860D01*
X49294400Y-60614265D01*
X49294401Y-65232534D01*
X49292681Y-65250000D01*
X49299546Y-65319710D01*
X49319880Y-65386741D01*
X49336390Y-65417628D01*
X49352900Y-65448516D01*
X49369874Y-65469198D01*
X49379495Y-65480921D01*
X49397338Y-65502663D01*
X49410901Y-65513794D01*
X58084400Y-74187295D01*
X58084401Y-79925731D01*
X58038025Y-79995138D01*
X58003831Y-80077688D01*
X57986400Y-80165322D01*
X57986400Y-80254674D01*
X58003831Y-80342308D01*
X58038025Y-80424858D01*
X58087666Y-80499151D01*
X58150847Y-80562332D01*
X58225140Y-80611973D01*
X58307690Y-80646167D01*
X58395324Y-80663598D01*
X58484676Y-80663598D01*
X58572310Y-80646167D01*
X58654860Y-80611973D01*
X58729153Y-80562332D01*
X58792334Y-80499151D01*
X58841975Y-80424858D01*
X58876169Y-80342308D01*
X58893600Y-80254674D01*
X58893600Y-80165322D01*
X58876169Y-80077688D01*
X58841975Y-79995138D01*
X58795600Y-79925733D01*
X58795600Y-74057452D01*
X58797319Y-74039999D01*
X58795600Y-74022546D01*
X58795600Y-74022537D01*
X58790454Y-73970290D01*
X58770121Y-73903260D01*
X58737101Y-73841484D01*
X58730631Y-73833600D01*
X58703795Y-73800900D01*
X58703785Y-73800890D01*
X58692662Y-73787337D01*
X58679110Y-73776215D01*
X53318820Y-68415926D01*
X53367690Y-68436169D01*
X53455324Y-68453600D01*
X53544676Y-68453600D01*
X53632310Y-68436169D01*
X53714860Y-68401975D01*
X53789153Y-68352334D01*
X53852334Y-68289153D01*
X53901975Y-68214860D01*
X53936169Y-68132310D01*
X53953600Y-68044676D01*
X53953600Y-67955324D01*
X53936510Y-67869403D01*
X57544400Y-71477294D01*
X57544401Y-71645736D01*
X57498025Y-71715142D01*
X57463831Y-71797692D01*
X57446400Y-71885326D01*
X57446400Y-71974678D01*
X57463831Y-72062312D01*
X57498025Y-72144862D01*
X57547666Y-72219155D01*
X57610847Y-72282336D01*
X57685140Y-72331977D01*
X57767690Y-72366171D01*
X57855324Y-72383602D01*
X57944676Y-72383602D01*
X58032310Y-72366171D01*
X58114860Y-72331977D01*
X58189153Y-72282336D01*
X58252334Y-72219155D01*
X58301975Y-72144862D01*
X58336169Y-72062312D01*
X58353600Y-71974678D01*
X58353600Y-71885326D01*
X58336169Y-71797692D01*
X58301975Y-71715142D01*
X58255600Y-71645737D01*
X58255600Y-71347455D01*
X58257319Y-71330000D01*
X58255600Y-71312545D01*
X58255600Y-71312537D01*
X58250454Y-71260290D01*
X58230121Y-71193260D01*
X58197101Y-71131484D01*
X58163795Y-71090901D01*
X58163790Y-71090896D01*
X58152662Y-71077337D01*
X58139104Y-71066210D01*
X57844370Y-70771476D01*
X57905324Y-70783600D01*
X57994676Y-70783600D01*
X58082310Y-70766169D01*
X58164860Y-70731975D01*
X58239153Y-70682334D01*
X58302334Y-70619153D01*
X58351975Y-70544860D01*
X58386169Y-70462310D01*
X58403600Y-70374676D01*
X58403600Y-70296297D01*
X59280900Y-71173597D01*
X59280901Y-80016480D01*
X59263831Y-80057690D01*
X59246400Y-80145324D01*
X59246400Y-80234676D01*
X59263831Y-80322310D01*
X59298025Y-80404860D01*
X59347666Y-80479153D01*
X59410847Y-80542334D01*
X59485140Y-80591975D01*
X59567690Y-80626169D01*
X59655324Y-80643600D01*
X59744676Y-80643600D01*
X59832310Y-80626169D01*
X59914860Y-80591975D01*
X59989153Y-80542334D01*
X60052334Y-80479153D01*
X60101975Y-80404860D01*
X60136169Y-80322310D01*
X60153600Y-80234676D01*
X60153600Y-80145324D01*
X60136169Y-80057690D01*
X60119100Y-80016483D01*
X60119100Y-71020580D01*
X60121127Y-71000000D01*
X60113035Y-70917842D01*
X60089071Y-70838843D01*
X60089071Y-70838842D01*
X60050154Y-70766034D01*
X59997782Y-70702218D01*
X59981796Y-70689099D01*
X56819100Y-67526404D01*
X56819100Y-67255324D01*
X56846400Y-67255324D01*
X56846400Y-67344676D01*
X56863831Y-67432310D01*
X56898025Y-67514860D01*
X56947666Y-67589153D01*
X57010847Y-67652334D01*
X57085140Y-67701975D01*
X57167690Y-67736169D01*
X57255324Y-67753600D01*
X57344676Y-67753600D01*
X57432310Y-67736169D01*
X57514860Y-67701975D01*
X57589153Y-67652334D01*
X57652334Y-67589153D01*
X57701975Y-67514860D01*
X57736169Y-67432310D01*
X57753600Y-67344676D01*
X57753600Y-67255324D01*
X57736169Y-67167690D01*
X57719100Y-67126483D01*
X57719100Y-64833596D01*
X59097372Y-63455324D01*
X59546400Y-63455324D01*
X59546400Y-63544676D01*
X59563831Y-63632310D01*
X59598025Y-63714860D01*
X59647666Y-63789153D01*
X59710847Y-63852334D01*
X59785140Y-63901975D01*
X59867690Y-63936169D01*
X59955324Y-63953600D01*
X60044676Y-63953600D01*
X60132310Y-63936169D01*
X60214860Y-63901975D01*
X60289153Y-63852334D01*
X60352334Y-63789153D01*
X60401975Y-63714860D01*
X60419044Y-63673652D01*
X66063598Y-58029098D01*
X77786483Y-58029098D01*
X77827690Y-58046167D01*
X77915324Y-58063598D01*
X78004676Y-58063598D01*
X78092310Y-58046167D01*
X78174860Y-58011973D01*
X78249153Y-57962332D01*
X78312334Y-57899151D01*
X78361975Y-57824858D01*
X78396169Y-57742308D01*
X78413600Y-57654674D01*
X78413600Y-57565322D01*
X78396169Y-57477688D01*
X78361975Y-57395138D01*
X78312334Y-57320845D01*
X78249153Y-57257664D01*
X78174860Y-57208023D01*
X78092310Y-57173829D01*
X78004676Y-57156398D01*
X77915324Y-57156398D01*
X77827690Y-57173829D01*
X77786483Y-57190898D01*
X65910582Y-57190898D01*
X65890002Y-57188871D01*
X65869422Y-57190898D01*
X65807844Y-57196963D01*
X65728844Y-57220927D01*
X65656036Y-57259844D01*
X65592220Y-57312216D01*
X65579095Y-57328209D01*
X59826348Y-63080956D01*
X59785140Y-63098025D01*
X59710847Y-63147666D01*
X59647666Y-63210847D01*
X59598025Y-63285140D01*
X59563831Y-63367690D01*
X59546400Y-63455324D01*
X59097372Y-63455324D01*
X65513597Y-57039100D01*
X78096483Y-57039100D01*
X78137690Y-57056169D01*
X78144909Y-57057605D01*
X79440900Y-58353597D01*
X79440901Y-59879410D01*
X79438873Y-59900000D01*
X79446965Y-59982157D01*
X79470930Y-60061158D01*
X79508521Y-60131485D01*
X79509847Y-60133966D01*
X79562219Y-60197782D01*
X79578206Y-60210902D01*
X80889097Y-61521794D01*
X80902218Y-61537782D01*
X80918202Y-61550900D01*
X77773517Y-61550900D01*
X77732310Y-61533831D01*
X77644676Y-61516400D01*
X77555324Y-61516400D01*
X77467690Y-61533831D01*
X77426483Y-61550900D01*
X75303597Y-61550900D01*
X72060907Y-58308211D01*
X72047782Y-58292218D01*
X71983966Y-58239846D01*
X71911158Y-58200929D01*
X71832158Y-58176965D01*
X71770580Y-58170900D01*
X71750000Y-58168873D01*
X71729420Y-58170900D01*
X66760577Y-58170900D01*
X66739999Y-58168873D01*
X66719422Y-58170900D01*
X66719420Y-58170900D01*
X66657842Y-58176965D01*
X66578842Y-58200929D01*
X66506034Y-58239846D01*
X66442218Y-58292218D01*
X66429098Y-58308205D01*
X58618206Y-66119098D01*
X58602219Y-66132218D01*
X58589100Y-66148204D01*
X58549846Y-66196035D01*
X58510930Y-66268842D01*
X58486965Y-66347843D01*
X58478873Y-66430000D01*
X58480901Y-66450590D01*
X58480900Y-68626482D01*
X58463831Y-68667690D01*
X58446400Y-68755324D01*
X58446400Y-68844676D01*
X58463831Y-68932310D01*
X58498025Y-69014860D01*
X58547666Y-69089153D01*
X58610847Y-69152334D01*
X58685140Y-69201975D01*
X58767690Y-69236169D01*
X58855324Y-69253600D01*
X58944676Y-69253600D01*
X59032310Y-69236169D01*
X59114860Y-69201975D01*
X59189153Y-69152334D01*
X59252334Y-69089153D01*
X59301975Y-69014860D01*
X59336169Y-68932310D01*
X59353600Y-68844676D01*
X59353600Y-68755324D01*
X59336169Y-68667690D01*
X59319100Y-68626483D01*
X59319100Y-66603596D01*
X66913597Y-59009100D01*
X71576404Y-59009100D01*
X74819098Y-62251794D01*
X74832218Y-62267782D01*
X74896034Y-62320154D01*
X74968842Y-62359071D01*
X75041865Y-62381222D01*
X75047842Y-62383035D01*
X75130000Y-62391127D01*
X75150580Y-62389100D01*
X77426483Y-62389100D01*
X77467690Y-62406169D01*
X77555324Y-62423600D01*
X77644676Y-62423600D01*
X77732310Y-62406169D01*
X77773517Y-62389100D01*
X82548635Y-62389100D01*
X82520849Y-62407666D01*
X82477615Y-62450900D01*
X74413597Y-62450900D01*
X71170907Y-59208211D01*
X71157782Y-59192218D01*
X71093966Y-59139846D01*
X71021158Y-59100929D01*
X70942158Y-59076965D01*
X70880580Y-59070900D01*
X70860000Y-59068873D01*
X70839420Y-59070900D01*
X67760580Y-59070900D01*
X67740000Y-59068873D01*
X67719420Y-59070900D01*
X67657842Y-59076965D01*
X67618342Y-59088947D01*
X67578841Y-59100929D01*
X67520759Y-59131975D01*
X67506034Y-59139846D01*
X67442218Y-59192218D01*
X67429098Y-59208205D01*
X59648620Y-66988684D01*
X59632627Y-67001809D01*
X59580255Y-67065626D01*
X59541338Y-67138434D01*
X59525659Y-67190121D01*
X59517374Y-67217434D01*
X59509282Y-67299591D01*
X59511309Y-67320171D01*
X59511310Y-67856890D01*
X59494240Y-67898099D01*
X59476809Y-67985733D01*
X59476809Y-68075085D01*
X59494240Y-68162719D01*
X59528434Y-68245269D01*
X59578075Y-68319562D01*
X59641256Y-68382743D01*
X59715549Y-68432384D01*
X59798099Y-68466578D01*
X59885733Y-68484009D01*
X59975085Y-68484009D01*
X60062719Y-68466578D01*
X60145269Y-68432384D01*
X60219562Y-68382743D01*
X60282743Y-68319562D01*
X60332384Y-68245269D01*
X60366578Y-68162719D01*
X60384009Y-68075085D01*
X60384009Y-67985733D01*
X60377961Y-67955324D01*
X60546400Y-67955324D01*
X60546400Y-68044676D01*
X60563831Y-68132310D01*
X60580900Y-68173517D01*
X60580901Y-80049410D01*
X60578873Y-80070000D01*
X60586965Y-80152157D01*
X60610930Y-80231158D01*
X60649846Y-80303965D01*
X60664901Y-80322310D01*
X60702219Y-80367782D01*
X60718206Y-80380902D01*
X65720900Y-85383596D01*
X65720901Y-86736474D01*
X65703831Y-86777684D01*
X65686400Y-86865318D01*
X65686400Y-86954670D01*
X65703831Y-87042304D01*
X65738025Y-87124854D01*
X65787666Y-87199147D01*
X65850847Y-87262328D01*
X65925140Y-87311969D01*
X66007690Y-87346163D01*
X66095324Y-87363594D01*
X66184676Y-87363594D01*
X66272310Y-87346163D01*
X66354860Y-87311969D01*
X66429153Y-87262328D01*
X66492334Y-87199147D01*
X66541975Y-87124854D01*
X66576169Y-87042304D01*
X66593600Y-86954670D01*
X66593600Y-86865318D01*
X66576169Y-86777684D01*
X66559100Y-86736477D01*
X66559100Y-85230580D01*
X66561127Y-85210000D01*
X66553035Y-85127842D01*
X66547974Y-85111158D01*
X66529071Y-85048842D01*
X66490154Y-84976034D01*
X66437782Y-84912218D01*
X66421790Y-84899094D01*
X63268020Y-81745324D01*
X64816400Y-81745324D01*
X64816400Y-81834676D01*
X64833831Y-81922310D01*
X64868025Y-82004860D01*
X64917666Y-82079153D01*
X64980847Y-82142334D01*
X65055140Y-82191975D01*
X65137690Y-82226169D01*
X65225324Y-82243600D01*
X65314676Y-82243600D01*
X65402310Y-82226169D01*
X65484860Y-82191975D01*
X65559153Y-82142334D01*
X65622334Y-82079153D01*
X65671975Y-82004860D01*
X65706169Y-81922310D01*
X65723600Y-81834676D01*
X65723600Y-81745324D01*
X65706169Y-81657690D01*
X65689100Y-81616483D01*
X65689100Y-69493596D01*
X68183653Y-66999044D01*
X68224860Y-66981975D01*
X68299153Y-66932334D01*
X68362334Y-66869153D01*
X68411975Y-66794860D01*
X68446169Y-66712310D01*
X68463600Y-66624676D01*
X68463600Y-66535324D01*
X68446169Y-66447690D01*
X68411975Y-66365140D01*
X68362334Y-66290847D01*
X68299153Y-66227666D01*
X68224860Y-66178025D01*
X68142310Y-66143831D01*
X68054676Y-66126400D01*
X67965324Y-66126400D01*
X67877690Y-66143831D01*
X67795140Y-66178025D01*
X67720847Y-66227666D01*
X67657666Y-66290847D01*
X67608025Y-66365140D01*
X67590956Y-66406347D01*
X64988206Y-69009098D01*
X64972219Y-69022218D01*
X64959100Y-69038204D01*
X64919846Y-69086035D01*
X64880930Y-69158842D01*
X64856965Y-69237843D01*
X64848873Y-69320000D01*
X64850901Y-69340590D01*
X64850900Y-81616483D01*
X64833831Y-81657690D01*
X64816400Y-81745324D01*
X63268020Y-81745324D01*
X61419100Y-79896404D01*
X61419100Y-68173517D01*
X61436169Y-68132310D01*
X61453600Y-68044676D01*
X61453600Y-67955324D01*
X61436169Y-67867690D01*
X61401975Y-67785140D01*
X61352334Y-67710847D01*
X61289153Y-67647666D01*
X61214860Y-67598025D01*
X61132310Y-67563831D01*
X61044676Y-67546400D01*
X60955324Y-67546400D01*
X60867690Y-67563831D01*
X60785140Y-67598025D01*
X60710847Y-67647666D01*
X60647666Y-67710847D01*
X60598025Y-67785140D01*
X60563831Y-67867690D01*
X60546400Y-67955324D01*
X60377961Y-67955324D01*
X60366578Y-67898099D01*
X60349509Y-67856892D01*
X60349509Y-67473187D01*
X63534608Y-64288088D01*
X64561400Y-64288088D01*
X64561400Y-64411912D01*
X64585556Y-64533356D01*
X64632941Y-64647754D01*
X64701734Y-64750709D01*
X64789291Y-64838266D01*
X64892246Y-64907059D01*
X65006644Y-64954444D01*
X65128088Y-64978600D01*
X65251912Y-64978600D01*
X65373356Y-64954444D01*
X65487754Y-64907059D01*
X65590709Y-64838266D01*
X65649668Y-64779307D01*
X67190395Y-64779307D01*
X67190395Y-64868659D01*
X67207826Y-64956293D01*
X67242020Y-65038843D01*
X67291661Y-65113136D01*
X67354842Y-65176317D01*
X67429135Y-65225958D01*
X67470343Y-65243027D01*
X68690901Y-66463586D01*
X68690900Y-74199418D01*
X68688873Y-74219998D01*
X68690900Y-74240577D01*
X68696965Y-74302155D01*
X68720929Y-74381155D01*
X68759846Y-74453963D01*
X68812218Y-74517780D01*
X68828211Y-74530905D01*
X72805957Y-78508652D01*
X72823026Y-78549859D01*
X72872667Y-78624152D01*
X72935848Y-78687333D01*
X73010141Y-78736974D01*
X73092691Y-78771168D01*
X73180325Y-78788599D01*
X73269677Y-78788599D01*
X73357311Y-78771168D01*
X73439861Y-78736974D01*
X73514154Y-78687333D01*
X73577335Y-78624152D01*
X73626976Y-78549859D01*
X73661170Y-78467309D01*
X73678601Y-78379675D01*
X73678601Y-78290323D01*
X73661170Y-78202689D01*
X73626976Y-78120139D01*
X73577335Y-78045846D01*
X73514154Y-77982665D01*
X73439861Y-77933024D01*
X73398654Y-77915955D01*
X69529100Y-74046402D01*
X69529100Y-66310567D01*
X69531127Y-66289987D01*
X69523035Y-66207830D01*
X69519457Y-66196034D01*
X69499071Y-66128830D01*
X69460154Y-66056022D01*
X69407782Y-65992206D01*
X69391794Y-65979085D01*
X68063039Y-64650331D01*
X68045970Y-64609123D01*
X67996329Y-64534830D01*
X67933148Y-64471649D01*
X67858855Y-64422008D01*
X67776305Y-64387814D01*
X67688671Y-64370383D01*
X67599319Y-64370383D01*
X67511685Y-64387814D01*
X67429135Y-64422008D01*
X67354842Y-64471649D01*
X67291661Y-64534830D01*
X67242020Y-64609123D01*
X67207826Y-64691673D01*
X67190395Y-64779307D01*
X65649668Y-64779307D01*
X65678266Y-64750709D01*
X65747059Y-64647754D01*
X65794444Y-64533356D01*
X65818600Y-64411912D01*
X65818600Y-64288088D01*
X65794444Y-64166644D01*
X65747059Y-64052246D01*
X65736100Y-64035845D01*
X65736100Y-63946201D01*
X66276984Y-63405317D01*
X67146401Y-63405317D01*
X67146401Y-63494669D01*
X67163832Y-63582303D01*
X67198026Y-63664853D01*
X67247667Y-63739146D01*
X67310848Y-63802327D01*
X67385141Y-63851968D01*
X67426349Y-63869037D01*
X69600901Y-66043590D01*
X69600900Y-70279420D01*
X69598873Y-70300000D01*
X69600900Y-70320579D01*
X69606965Y-70382157D01*
X69630929Y-70461157D01*
X69669846Y-70533965D01*
X69722218Y-70597782D01*
X69738211Y-70610907D01*
X85239093Y-86111789D01*
X85252218Y-86127782D01*
X85316034Y-86180154D01*
X85388842Y-86219071D01*
X85461552Y-86241127D01*
X85467842Y-86243035D01*
X85550000Y-86251127D01*
X85570580Y-86249100D01*
X103539420Y-86249100D01*
X103560000Y-86251127D01*
X103580580Y-86249100D01*
X103642158Y-86243035D01*
X103721158Y-86219071D01*
X103793966Y-86180154D01*
X103857782Y-86127782D01*
X103870907Y-86111789D01*
X105651794Y-84330903D01*
X105667782Y-84317782D01*
X105720154Y-84253966D01*
X105740900Y-84215153D01*
X105740900Y-84336403D01*
X103646402Y-86430902D01*
X96963517Y-86430902D01*
X96922310Y-86413833D01*
X96834676Y-86396402D01*
X96745324Y-86396402D01*
X96657690Y-86413833D01*
X96575140Y-86448027D01*
X96500847Y-86497668D01*
X96437666Y-86560849D01*
X96388025Y-86635142D01*
X96353831Y-86717692D01*
X96336400Y-86805326D01*
X96336400Y-86894678D01*
X96353831Y-86982312D01*
X96388025Y-87064862D01*
X96437666Y-87139155D01*
X96500847Y-87202336D01*
X96575140Y-87251977D01*
X96657690Y-87286171D01*
X96745324Y-87303602D01*
X96834676Y-87303602D01*
X96922310Y-87286171D01*
X96963517Y-87269102D01*
X103799418Y-87269102D01*
X103819998Y-87271129D01*
X103840578Y-87269102D01*
X103902156Y-87263037D01*
X103981156Y-87239073D01*
X104053964Y-87200156D01*
X104117780Y-87147784D01*
X104130905Y-87131791D01*
X106441796Y-84820901D01*
X106457782Y-84807782D01*
X106510154Y-84743966D01*
X106549071Y-84671158D01*
X106573035Y-84592158D01*
X106579100Y-84530580D01*
X106579100Y-84530579D01*
X106581127Y-84510000D01*
X106579100Y-84489420D01*
X106579100Y-79693596D01*
X110613597Y-75659100D01*
X117036483Y-75659100D01*
X117077690Y-75676169D01*
X117165324Y-75693600D01*
X117254676Y-75693600D01*
X117342310Y-75676169D01*
X117424860Y-75641975D01*
X117499153Y-75592334D01*
X117562334Y-75529153D01*
X117611975Y-75454860D01*
X117646169Y-75372310D01*
X117663600Y-75284676D01*
X117663600Y-75195324D01*
X117646169Y-75107690D01*
X117611975Y-75025140D01*
X117562334Y-74950847D01*
X117499153Y-74887666D01*
X117424860Y-74838025D01*
X117342310Y-74803831D01*
X117254676Y-74786400D01*
X117165324Y-74786400D01*
X117077690Y-74803831D01*
X117036483Y-74820900D01*
X110460579Y-74820900D01*
X110439999Y-74818873D01*
X110388779Y-74823918D01*
X110493597Y-74719100D01*
X113016483Y-74719100D01*
X113057690Y-74736169D01*
X113145324Y-74753600D01*
X113234676Y-74753600D01*
X113322310Y-74736169D01*
X113404860Y-74701975D01*
X113479153Y-74652334D01*
X113542334Y-74589153D01*
X113591975Y-74514860D01*
X113626169Y-74432310D01*
X113643600Y-74344676D01*
X113643600Y-74255324D01*
X113626169Y-74167690D01*
X113591975Y-74085140D01*
X113542334Y-74010847D01*
X113479153Y-73947666D01*
X113404860Y-73898025D01*
X113322310Y-73863831D01*
X113234676Y-73846400D01*
X113145324Y-73846400D01*
X113057690Y-73863831D01*
X113016483Y-73880900D01*
X110340579Y-73880900D01*
X110319999Y-73878873D01*
X110279872Y-73882825D01*
X110363597Y-73799100D01*
X112436483Y-73799100D01*
X112477690Y-73816169D01*
X112565324Y-73833600D01*
X112654676Y-73833600D01*
X112742310Y-73816169D01*
X112824860Y-73781975D01*
X112899153Y-73732334D01*
X112962334Y-73669153D01*
X113011975Y-73594860D01*
X113046169Y-73512310D01*
X113063600Y-73424676D01*
X113063600Y-73335324D01*
X113046169Y-73247690D01*
X113011975Y-73165140D01*
X112962334Y-73090847D01*
X112899153Y-73027666D01*
X112824860Y-72978025D01*
X112742310Y-72943831D01*
X112654676Y-72926400D01*
X112565324Y-72926400D01*
X112477690Y-72943831D01*
X112436483Y-72960900D01*
X110210577Y-72960900D01*
X110189999Y-72958873D01*
X110169422Y-72960900D01*
X110169420Y-72960900D01*
X110107842Y-72966965D01*
X110104813Y-72967884D01*
X110273597Y-72799100D01*
X116976483Y-72799100D01*
X117017690Y-72816169D01*
X117105324Y-72833600D01*
X117194676Y-72833600D01*
X117282310Y-72816169D01*
X117364860Y-72781975D01*
X117439153Y-72732334D01*
X117502334Y-72669153D01*
X117551975Y-72594860D01*
X117586169Y-72512310D01*
X117603600Y-72424676D01*
X117603600Y-72335324D01*
X117586169Y-72247690D01*
X117551975Y-72165140D01*
X117502334Y-72090847D01*
X117439153Y-72027666D01*
X117364860Y-71978025D01*
X117282310Y-71943831D01*
X117194676Y-71926400D01*
X117105324Y-71926400D01*
X117017690Y-71943831D01*
X116976483Y-71960900D01*
X110120579Y-71960900D01*
X110099999Y-71958873D01*
X110074404Y-71961394D01*
X110017842Y-71966965D01*
X109938842Y-71990929D01*
X109866034Y-72029846D01*
X109802218Y-72082218D01*
X109789098Y-72098205D01*
X103744939Y-78142365D01*
X103664676Y-78126400D01*
X103575324Y-78126400D01*
X103487690Y-78143831D01*
X103405140Y-78178025D01*
X103330847Y-78227666D01*
X103267666Y-78290847D01*
X103218025Y-78365140D01*
X103183831Y-78447690D01*
X103166400Y-78535324D01*
X103166400Y-78624676D01*
X103183831Y-78712310D01*
X103218025Y-78794860D01*
X103267666Y-78869153D01*
X103330847Y-78932334D01*
X103405140Y-78981975D01*
X103487690Y-79016169D01*
X103575324Y-79033600D01*
X103664676Y-79033600D01*
X103752310Y-79016169D01*
X103812253Y-78991339D01*
X103817843Y-78993035D01*
X103900000Y-79001127D01*
X103982157Y-78993035D01*
X104061158Y-78969070D01*
X104133965Y-78930154D01*
X104150341Y-78916715D01*
X104146965Y-78927843D01*
X104138873Y-79010000D01*
X104140900Y-79030580D01*
X104140901Y-83536402D01*
X103146404Y-84530900D01*
X86223597Y-84530900D01*
X71419100Y-69726404D01*
X71419100Y-65480582D01*
X71421127Y-65460002D01*
X71413035Y-65377844D01*
X71404663Y-65350246D01*
X71389071Y-65298844D01*
X71350154Y-65226036D01*
X71297782Y-65162220D01*
X71281794Y-65149099D01*
X68799043Y-62666349D01*
X68781974Y-62625141D01*
X68732333Y-62550848D01*
X68669152Y-62487667D01*
X68594859Y-62438026D01*
X68512309Y-62403832D01*
X68424675Y-62386401D01*
X68335323Y-62386401D01*
X68247689Y-62403832D01*
X68165139Y-62438026D01*
X68090846Y-62487667D01*
X68027665Y-62550848D01*
X67978024Y-62625141D01*
X67943830Y-62707691D01*
X67926399Y-62795325D01*
X67926399Y-62884677D01*
X67943830Y-62972311D01*
X67978024Y-63054861D01*
X68027665Y-63129154D01*
X68090846Y-63192335D01*
X68165139Y-63241976D01*
X68206347Y-63259045D01*
X70580901Y-65633600D01*
X70580900Y-69879420D01*
X70578873Y-69900000D01*
X70583783Y-69949846D01*
X70586965Y-69982157D01*
X70610929Y-70061157D01*
X70649846Y-70133965D01*
X70702218Y-70197782D01*
X70718211Y-70210907D01*
X85739098Y-85231795D01*
X85752218Y-85247782D01*
X85816034Y-85300154D01*
X85888842Y-85339071D01*
X85967842Y-85363035D01*
X86049999Y-85371127D01*
X86070579Y-85369100D01*
X103299420Y-85369100D01*
X103320000Y-85371127D01*
X103340580Y-85369100D01*
X103402158Y-85363035D01*
X103448251Y-85349053D01*
X103386404Y-85410900D01*
X85723596Y-85410900D01*
X70439100Y-70126404D01*
X70439100Y-65890569D01*
X70441127Y-65869991D01*
X70439100Y-65849412D01*
X70433035Y-65787834D01*
X70409071Y-65708834D01*
X70370154Y-65636026D01*
X70317782Y-65572210D01*
X70301794Y-65559089D01*
X68019045Y-63276341D01*
X68001976Y-63235133D01*
X67952335Y-63160840D01*
X67889154Y-63097659D01*
X67814861Y-63048018D01*
X67732311Y-63013824D01*
X67644677Y-62996393D01*
X67555325Y-62996393D01*
X67467691Y-63013824D01*
X67385141Y-63048018D01*
X67310848Y-63097659D01*
X67247667Y-63160840D01*
X67198026Y-63235133D01*
X67163832Y-63317683D01*
X67146401Y-63405317D01*
X66276984Y-63405317D01*
X68126496Y-61555806D01*
X68133354Y-61554442D01*
X68247752Y-61507057D01*
X68264153Y-61496098D01*
X69789343Y-61496098D01*
X73419481Y-65126237D01*
X73423329Y-65145583D01*
X73470714Y-65259981D01*
X73481673Y-65276382D01*
X73481674Y-70730946D01*
X73479032Y-70757773D01*
X73489575Y-70864826D01*
X73520802Y-70967768D01*
X73527031Y-70979421D01*
X73571512Y-71062638D01*
X73639755Y-71145792D01*
X73660589Y-71162890D01*
X86684882Y-84187184D01*
X86701981Y-84208019D01*
X86785135Y-84276262D01*
X86880006Y-84326972D01*
X86952100Y-84348841D01*
X86982946Y-84358198D01*
X87090000Y-84368742D01*
X87116824Y-84366100D01*
X92925845Y-84366100D01*
X92942246Y-84377059D01*
X93056644Y-84424444D01*
X93178088Y-84448600D01*
X93301912Y-84448600D01*
X93423356Y-84424444D01*
X93537754Y-84377059D01*
X93640709Y-84308266D01*
X93728266Y-84220709D01*
X93797059Y-84117754D01*
X93844444Y-84003356D01*
X93868600Y-83881912D01*
X93868600Y-83758088D01*
X93844444Y-83636644D01*
X93797059Y-83522246D01*
X93728266Y-83419291D01*
X93640709Y-83331734D01*
X93537754Y-83262941D01*
X93423356Y-83215556D01*
X93301912Y-83191400D01*
X93178088Y-83191400D01*
X93056644Y-83215556D01*
X92942246Y-83262941D01*
X92925845Y-83273900D01*
X87879554Y-83273900D01*
X87879554Y-78545324D01*
X92556400Y-78545324D01*
X92556400Y-78634676D01*
X92573831Y-78722310D01*
X92608025Y-78804860D01*
X92657666Y-78879153D01*
X92720847Y-78942334D01*
X92795140Y-78991975D01*
X92877690Y-79026169D01*
X92965324Y-79043600D01*
X93054676Y-79043600D01*
X93142310Y-79026169D01*
X93183517Y-79009100D01*
X96676404Y-79009100D01*
X100309096Y-82641792D01*
X100322216Y-82657780D01*
X100386032Y-82710152D01*
X100458840Y-82749069D01*
X100537840Y-82773033D01*
X100599418Y-82779098D01*
X100599420Y-82779098D01*
X100619997Y-82781125D01*
X100640575Y-82779098D01*
X102706483Y-82779098D01*
X102747690Y-82796167D01*
X102835324Y-82813598D01*
X102924676Y-82813598D01*
X103012310Y-82796167D01*
X103094860Y-82761973D01*
X103169153Y-82712332D01*
X103232334Y-82649151D01*
X103281975Y-82574858D01*
X103316169Y-82492308D01*
X103333600Y-82404674D01*
X103333600Y-82315322D01*
X103316169Y-82227688D01*
X103281975Y-82145138D01*
X103232334Y-82070845D01*
X103169153Y-82007664D01*
X103094860Y-81958023D01*
X103012310Y-81923829D01*
X102924676Y-81906398D01*
X102835324Y-81906398D01*
X102747690Y-81923829D01*
X102706483Y-81940898D01*
X100793595Y-81940898D01*
X97160907Y-78308211D01*
X97147782Y-78292218D01*
X97083966Y-78239846D01*
X97011158Y-78200929D01*
X96932158Y-78176965D01*
X96870580Y-78170900D01*
X96850000Y-78168873D01*
X96829420Y-78170900D01*
X93183517Y-78170900D01*
X93142310Y-78153831D01*
X93054676Y-78136400D01*
X92965324Y-78136400D01*
X92877690Y-78153831D01*
X92795140Y-78188025D01*
X92720847Y-78237666D01*
X92657666Y-78300847D01*
X92608025Y-78375140D01*
X92573831Y-78457690D01*
X92556400Y-78545324D01*
X87879554Y-78545324D01*
X87879554Y-77161033D01*
X87881581Y-77140453D01*
X87873489Y-77058296D01*
X87869624Y-77045556D01*
X87849525Y-76979296D01*
X87810608Y-76906488D01*
X87758236Y-76842672D01*
X87742248Y-76829551D01*
X87349044Y-76436348D01*
X87331975Y-76395140D01*
X87282334Y-76320847D01*
X87219153Y-76257666D01*
X87144860Y-76208025D01*
X87062310Y-76173831D01*
X86974676Y-76156400D01*
X86885324Y-76156400D01*
X86797690Y-76173831D01*
X86715140Y-76208025D01*
X86640847Y-76257666D01*
X86577666Y-76320847D01*
X86528025Y-76395140D01*
X86493831Y-76477690D01*
X86476400Y-76565324D01*
X86476400Y-76654676D01*
X86493831Y-76742310D01*
X86528025Y-76824860D01*
X86577666Y-76899153D01*
X86640847Y-76962334D01*
X86715140Y-77011975D01*
X86756348Y-77029044D01*
X87041355Y-77314052D01*
X87041354Y-82999052D01*
X75927626Y-71885324D01*
X76206398Y-71885324D01*
X76206398Y-71974676D01*
X76223829Y-72062310D01*
X76258023Y-72144860D01*
X76307664Y-72219153D01*
X76370845Y-72282334D01*
X76445138Y-72331975D01*
X76527688Y-72366169D01*
X76615322Y-72383600D01*
X76704674Y-72383600D01*
X76792308Y-72366169D01*
X76874858Y-72331975D01*
X76949151Y-72282334D01*
X77012332Y-72219153D01*
X77061973Y-72144860D01*
X77096167Y-72062310D01*
X77113598Y-71974676D01*
X77113598Y-71885324D01*
X77096167Y-71797690D01*
X77079098Y-71756483D01*
X77079098Y-66013598D01*
X78863653Y-64229044D01*
X78904860Y-64211975D01*
X78979153Y-64162334D01*
X79042334Y-64099153D01*
X79091975Y-64024860D01*
X79126169Y-63942310D01*
X79143600Y-63854676D01*
X79143600Y-63765324D01*
X79126169Y-63677690D01*
X79091975Y-63595140D01*
X79042334Y-63520847D01*
X78979153Y-63457666D01*
X78904860Y-63408025D01*
X78822310Y-63373831D01*
X78734676Y-63356400D01*
X78645324Y-63356400D01*
X78557690Y-63373831D01*
X78475140Y-63408025D01*
X78400847Y-63457666D01*
X78337666Y-63520847D01*
X78288025Y-63595140D01*
X78270956Y-63636347D01*
X76378204Y-65529100D01*
X76362217Y-65542220D01*
X76349098Y-65558206D01*
X76309844Y-65606037D01*
X76270928Y-65678844D01*
X76246963Y-65757845D01*
X76238871Y-65840002D01*
X76240899Y-65860592D01*
X76240898Y-71756483D01*
X76223829Y-71797690D01*
X76206398Y-71885324D01*
X75927626Y-71885324D01*
X74573873Y-70531572D01*
X74573873Y-65276382D01*
X74584832Y-65259981D01*
X74632217Y-65145583D01*
X74656373Y-65024139D01*
X74656373Y-64900315D01*
X74632217Y-64778871D01*
X74584832Y-64664473D01*
X74516039Y-64561518D01*
X74428482Y-64473961D01*
X74325527Y-64405168D01*
X74211129Y-64357783D01*
X74191783Y-64353935D01*
X70420666Y-60582819D01*
X70403563Y-60561979D01*
X70320409Y-60493736D01*
X70225538Y-60443026D01*
X70122598Y-60411800D01*
X70042368Y-60403898D01*
X70042361Y-60403898D01*
X70015544Y-60401257D01*
X69988727Y-60403898D01*
X68264153Y-60403898D01*
X68247752Y-60392939D01*
X68133354Y-60345554D01*
X68011910Y-60321398D01*
X67888086Y-60321398D01*
X67766642Y-60345554D01*
X67652244Y-60392939D01*
X67549289Y-60461732D01*
X67461732Y-60549289D01*
X67392939Y-60652244D01*
X67345554Y-60766642D01*
X67339222Y-60798476D01*
X64822816Y-63314883D01*
X64801982Y-63331981D01*
X64784883Y-63352816D01*
X64784882Y-63352817D01*
X64733738Y-63415136D01*
X64683029Y-63510005D01*
X64674187Y-63539153D01*
X64651802Y-63612946D01*
X64643900Y-63693176D01*
X64643900Y-63693183D01*
X64641259Y-63720000D01*
X64643900Y-63746817D01*
X64643900Y-64035845D01*
X64632941Y-64052246D01*
X64585556Y-64166644D01*
X64561400Y-64288088D01*
X63534608Y-64288088D01*
X67913597Y-59909100D01*
X70686404Y-59909100D01*
X73929098Y-63151794D01*
X73942218Y-63167782D01*
X74006034Y-63220154D01*
X74078842Y-63259071D01*
X74135211Y-63276170D01*
X74157842Y-63283035D01*
X74240000Y-63291127D01*
X74260580Y-63289100D01*
X82679422Y-63289100D01*
X82700002Y-63291127D01*
X82720582Y-63289100D01*
X82782160Y-63283035D01*
X82861160Y-63259071D01*
X82933968Y-63220154D01*
X82984475Y-63178704D01*
X83024862Y-63161975D01*
X83099155Y-63112334D01*
X83162336Y-63049153D01*
X83211977Y-62974860D01*
X83246171Y-62892310D01*
X83263602Y-62804676D01*
X83263602Y-62715324D01*
X83246171Y-62627690D01*
X83211977Y-62545140D01*
X83162336Y-62470847D01*
X83099155Y-62407666D01*
X83071369Y-62389100D01*
X84278203Y-62389100D01*
X77343205Y-69324099D01*
X77327212Y-69337224D01*
X77274840Y-69401041D01*
X77235923Y-69473849D01*
X77224675Y-69510930D01*
X77211959Y-69552849D01*
X77203867Y-69635006D01*
X77205894Y-69655586D01*
X77205895Y-72241474D01*
X77188825Y-72282684D01*
X77171394Y-72370318D01*
X77171394Y-72459670D01*
X77188825Y-72547304D01*
X77223019Y-72629854D01*
X77272660Y-72704147D01*
X77335841Y-72767328D01*
X77410134Y-72816969D01*
X77492684Y-72851163D01*
X77580318Y-72868594D01*
X77669670Y-72868594D01*
X77757304Y-72851163D01*
X77839854Y-72816969D01*
X77914147Y-72767328D01*
X77977328Y-72704147D01*
X78026969Y-72629854D01*
X78061163Y-72547304D01*
X78078594Y-72459670D01*
X78078594Y-72370318D01*
X78061163Y-72282684D01*
X78044094Y-72241477D01*
X78044094Y-69808602D01*
X85473657Y-62379040D01*
X85514860Y-62361973D01*
X85589153Y-62312332D01*
X85652334Y-62249151D01*
X85701975Y-62174858D01*
X85736169Y-62092308D01*
X85753600Y-62004674D01*
X85753600Y-61915322D01*
X85736169Y-61827688D01*
X85701975Y-61745138D01*
X85652334Y-61670845D01*
X85589153Y-61607664D01*
X85514860Y-61558023D01*
X85432310Y-61523829D01*
X85344676Y-61506398D01*
X85255324Y-61506398D01*
X85167690Y-61523829D01*
X85102336Y-61550900D01*
X84880587Y-61550900D01*
X84902334Y-61529153D01*
X84951975Y-61454860D01*
X84986169Y-61372310D01*
X85003600Y-61284676D01*
X85003600Y-61195324D01*
X84986169Y-61107690D01*
X84951975Y-61025140D01*
X84902334Y-60950847D01*
X84839153Y-60887666D01*
X84764860Y-60838025D01*
X84682310Y-60803831D01*
X84594676Y-60786400D01*
X84505324Y-60786400D01*
X84417690Y-60803831D01*
X84376483Y-60820900D01*
X81737300Y-60820900D01*
X81714676Y-60816400D01*
X81625324Y-60816400D01*
X81602700Y-60820900D01*
X81373597Y-60820900D01*
X80838021Y-60285324D01*
X81876400Y-60285324D01*
X81876400Y-60374676D01*
X81893831Y-60462310D01*
X81928025Y-60544860D01*
X81977666Y-60619153D01*
X82040847Y-60682334D01*
X82115140Y-60731975D01*
X82197690Y-60766169D01*
X82285324Y-60783600D01*
X82374676Y-60783600D01*
X82462310Y-60766169D01*
X82527659Y-60739100D01*
X84656483Y-60739100D01*
X84697690Y-60756169D01*
X84785324Y-60773600D01*
X84874676Y-60773600D01*
X84962310Y-60756169D01*
X85044860Y-60721975D01*
X85119153Y-60672334D01*
X85182334Y-60609153D01*
X85231975Y-60534860D01*
X85266169Y-60452310D01*
X85283600Y-60364676D01*
X85283600Y-60275324D01*
X85266169Y-60187690D01*
X85231975Y-60105140D01*
X85182334Y-60030847D01*
X85119153Y-59967666D01*
X85044860Y-59918025D01*
X84962310Y-59883831D01*
X84874676Y-59866400D01*
X84785324Y-59866400D01*
X84697690Y-59883831D01*
X84656483Y-59900900D01*
X82479376Y-59900900D01*
X82462310Y-59893831D01*
X82374676Y-59876400D01*
X82285324Y-59876400D01*
X82197690Y-59893831D01*
X82115140Y-59928025D01*
X82040847Y-59977666D01*
X81977666Y-60040847D01*
X81928025Y-60115140D01*
X81893831Y-60197690D01*
X81876400Y-60285324D01*
X80838021Y-60285324D01*
X80279100Y-59726404D01*
X80279100Y-58200579D01*
X80281127Y-58179999D01*
X80273035Y-58097842D01*
X80249071Y-58018842D01*
X80210154Y-57946034D01*
X80157782Y-57882218D01*
X80141796Y-57869099D01*
X78660173Y-56387477D01*
X78622334Y-56330847D01*
X78559153Y-56267666D01*
X78484860Y-56218025D01*
X78402310Y-56183831D01*
X78314676Y-56166400D01*
X78225324Y-56166400D01*
X78137690Y-56183831D01*
X78096483Y-56200900D01*
X65360579Y-56200900D01*
X65339999Y-56198873D01*
X65257842Y-56206965D01*
X65178842Y-56230929D01*
X65106034Y-56269846D01*
X65042218Y-56322218D01*
X65029098Y-56338205D01*
X57018206Y-64349098D01*
X57002219Y-64362218D01*
X56968869Y-64402856D01*
X56949846Y-64426035D01*
X56910930Y-64498842D01*
X56886965Y-64577843D01*
X56878873Y-64660000D01*
X56880901Y-64680590D01*
X56880900Y-67126482D01*
X56863831Y-67167690D01*
X56846400Y-67255324D01*
X56819100Y-67255324D01*
X56819100Y-64273596D01*
X66687372Y-54405324D01*
X84806398Y-54405324D01*
X84806398Y-54494676D01*
X84823829Y-54582310D01*
X84850901Y-54647666D01*
X84850900Y-57086482D01*
X84833831Y-57127690D01*
X84816400Y-57215324D01*
X84816400Y-57304676D01*
X84833831Y-57392310D01*
X84868025Y-57474860D01*
X84917666Y-57549153D01*
X84980847Y-57612334D01*
X85055140Y-57661975D01*
X85137690Y-57696169D01*
X85225324Y-57713600D01*
X85314676Y-57713600D01*
X85402310Y-57696169D01*
X85484860Y-57661975D01*
X85559153Y-57612334D01*
X85622334Y-57549153D01*
X85671975Y-57474860D01*
X85706169Y-57392310D01*
X85723600Y-57304676D01*
X85723600Y-57215324D01*
X85706169Y-57127690D01*
X85689100Y-57086483D01*
X85689100Y-54987542D01*
X99746400Y-54987542D01*
X99746401Y-76012459D01*
X99747511Y-76023734D01*
X99747468Y-76029966D01*
X99747813Y-76033490D01*
X99768214Y-76227587D01*
X99772839Y-76250117D01*
X99777143Y-76272679D01*
X99778166Y-76276069D01*
X99835878Y-76462507D01*
X99844795Y-76483719D01*
X99853396Y-76505007D01*
X99855058Y-76508134D01*
X99947883Y-76679811D01*
X99960726Y-76698851D01*
X99973322Y-76718100D01*
X99975560Y-76720844D01*
X100099964Y-76871222D01*
X100116260Y-76887404D01*
X100132355Y-76903840D01*
X100135083Y-76906097D01*
X100286325Y-77029447D01*
X100305484Y-77042176D01*
X100324435Y-77055152D01*
X100327550Y-77056837D01*
X100499873Y-77148462D01*
X100521138Y-77157227D01*
X100542249Y-77166275D01*
X100545632Y-77167322D01*
X100732468Y-77223731D01*
X100755028Y-77228198D01*
X100777497Y-77232974D01*
X100781019Y-77233345D01*
X100975252Y-77252390D01*
X100975255Y-77252390D01*
X100987541Y-77253600D01*
X104012459Y-77253600D01*
X104023744Y-77252489D01*
X104029966Y-77252532D01*
X104033490Y-77252187D01*
X104227587Y-77231786D01*
X104250117Y-77227161D01*
X104272679Y-77222857D01*
X104276069Y-77221834D01*
X104462507Y-77164122D01*
X104483719Y-77155205D01*
X104505007Y-77146604D01*
X104508134Y-77144942D01*
X104679811Y-77052117D01*
X104698851Y-77039274D01*
X104718100Y-77026678D01*
X104720844Y-77024440D01*
X104871222Y-76900036D01*
X104887404Y-76883740D01*
X104903840Y-76867645D01*
X104906097Y-76864917D01*
X105029447Y-76713675D01*
X105042176Y-76694516D01*
X105055152Y-76675565D01*
X105056837Y-76672450D01*
X105148462Y-76500127D01*
X105157227Y-76478862D01*
X105166275Y-76457751D01*
X105167322Y-76454368D01*
X105223731Y-76267532D01*
X105228198Y-76244972D01*
X105232974Y-76222503D01*
X105233345Y-76218981D01*
X105252390Y-76024748D01*
X105252390Y-76024745D01*
X105253600Y-76012459D01*
X105253600Y-54987541D01*
X105252489Y-54976256D01*
X105252532Y-54970034D01*
X105252187Y-54966510D01*
X105231786Y-54772413D01*
X105227162Y-54749889D01*
X105222857Y-54727321D01*
X105221834Y-54723931D01*
X105164122Y-54537493D01*
X105155205Y-54516281D01*
X105146604Y-54494993D01*
X105144942Y-54491866D01*
X105052117Y-54320189D01*
X105039251Y-54301114D01*
X105026677Y-54281900D01*
X105024440Y-54279156D01*
X104900036Y-54128778D01*
X104883721Y-54112577D01*
X104867645Y-54096161D01*
X104864917Y-54093903D01*
X104713675Y-53970553D01*
X104694532Y-53957835D01*
X104675565Y-53944848D01*
X104672450Y-53943164D01*
X104500128Y-53851538D01*
X104478848Y-53842768D01*
X104457751Y-53833725D01*
X104454369Y-53832678D01*
X104267532Y-53776269D01*
X104244951Y-53771797D01*
X104222502Y-53767026D01*
X104218981Y-53766655D01*
X104024747Y-53747610D01*
X104024745Y-53747610D01*
X104012459Y-53746400D01*
X100987541Y-53746400D01*
X100976256Y-53747511D01*
X100970034Y-53747468D01*
X100966510Y-53747813D01*
X100772413Y-53768214D01*
X100749889Y-53772838D01*
X100727321Y-53777143D01*
X100723931Y-53778166D01*
X100537493Y-53835878D01*
X100516281Y-53844795D01*
X100494993Y-53853396D01*
X100491866Y-53855058D01*
X100320189Y-53947883D01*
X100301114Y-53960749D01*
X100281900Y-53973323D01*
X100279156Y-53975560D01*
X100128778Y-54099964D01*
X100112577Y-54116279D01*
X100096161Y-54132355D01*
X100093903Y-54135083D01*
X99970553Y-54286325D01*
X99957835Y-54305468D01*
X99944848Y-54324435D01*
X99943164Y-54327550D01*
X99851538Y-54499872D01*
X99842768Y-54521152D01*
X99833725Y-54542249D01*
X99832678Y-54545631D01*
X99776269Y-54732468D01*
X99771797Y-54755049D01*
X99767026Y-54777498D01*
X99766655Y-54781019D01*
X99747610Y-54975253D01*
X99746400Y-54987542D01*
X85689100Y-54987542D01*
X85689100Y-54599371D01*
X85696167Y-54582310D01*
X85713598Y-54494676D01*
X85713598Y-54405324D01*
X85696167Y-54317690D01*
X85661973Y-54235140D01*
X85612332Y-54160847D01*
X85549151Y-54097666D01*
X85474858Y-54048025D01*
X85392308Y-54013831D01*
X85304674Y-53996400D01*
X85215322Y-53996400D01*
X85127688Y-54013831D01*
X85045138Y-54048025D01*
X84970845Y-54097666D01*
X84907664Y-54160847D01*
X84858023Y-54235140D01*
X84823829Y-54317690D01*
X84806398Y-54405324D01*
X66687372Y-54405324D01*
X67773597Y-53319100D01*
X101026483Y-53319100D01*
X101067690Y-53336169D01*
X101155324Y-53353600D01*
X101244676Y-53353600D01*
X101332310Y-53336169D01*
X101414860Y-53301975D01*
X101489153Y-53252334D01*
X101552334Y-53189153D01*
X101601975Y-53114860D01*
X101636169Y-53032310D01*
X101653600Y-52944676D01*
X101653600Y-52855324D01*
X101636169Y-52767690D01*
X101601975Y-52685140D01*
X101552334Y-52610847D01*
X101489153Y-52547666D01*
X101414860Y-52498025D01*
X101332310Y-52463831D01*
X101244676Y-52446400D01*
X101155324Y-52446400D01*
X101067690Y-52463831D01*
X101026483Y-52480900D01*
X67620580Y-52480900D01*
X67600000Y-52478873D01*
X67579420Y-52480900D01*
X67517842Y-52486965D01*
X67438842Y-52510929D01*
X67366034Y-52549846D01*
X67302218Y-52602218D01*
X67289098Y-52618205D01*
X56118211Y-63789093D01*
X56102218Y-63802218D01*
X56049846Y-63866035D01*
X56010929Y-63938843D01*
X55991869Y-64001677D01*
X55986965Y-64017843D01*
X55978873Y-64100000D01*
X55980900Y-64120580D01*
X55980901Y-67679410D01*
X55978873Y-67700000D01*
X55986965Y-67782157D01*
X56010930Y-67861158D01*
X56041793Y-67918900D01*
X54835600Y-66712707D01*
X54835600Y-62255324D01*
X55246400Y-62255324D01*
X55246400Y-62344676D01*
X55263831Y-62432310D01*
X55298025Y-62514860D01*
X55347666Y-62589153D01*
X55410847Y-62652334D01*
X55485140Y-62701975D01*
X55567690Y-62736169D01*
X55655324Y-62753600D01*
X55744676Y-62753600D01*
X55832310Y-62736169D01*
X55914860Y-62701975D01*
X55989153Y-62652334D01*
X56052334Y-62589153D01*
X56101975Y-62514860D01*
X56136169Y-62432310D01*
X56153600Y-62344676D01*
X56153600Y-62255324D01*
X56136169Y-62167690D01*
X56101975Y-62085140D01*
X56055600Y-62015735D01*
X56055600Y-54926522D01*
X56114860Y-54901975D01*
X56189153Y-54852334D01*
X56252334Y-54789153D01*
X56301975Y-54714860D01*
X56336169Y-54632310D01*
X56353600Y-54544676D01*
X56353600Y-54455324D01*
X56336169Y-54367690D01*
X56301975Y-54285140D01*
X56252334Y-54210847D01*
X56189153Y-54147666D01*
X56114860Y-54098025D01*
X56032310Y-54063831D01*
X55944676Y-54046400D01*
X55855324Y-54046400D01*
X55767690Y-54063831D01*
X55685140Y-54098025D01*
X55610847Y-54147666D01*
X55547666Y-54210847D01*
X55498025Y-54285140D01*
X55463831Y-54367690D01*
X55448116Y-54446699D01*
X55447338Y-54447337D01*
X55402900Y-54501484D01*
X55396026Y-54514344D01*
X55369880Y-54563259D01*
X55349546Y-54630290D01*
X55342681Y-54700000D01*
X55344401Y-54717466D01*
X55344400Y-62015735D01*
X55298025Y-62085140D01*
X55263831Y-62167690D01*
X55246400Y-62255324D01*
X54835600Y-62255324D01*
X54835600Y-54773293D01*
X60756441Y-48852453D01*
X60838310Y-48836169D01*
X60920860Y-48801975D01*
X60995153Y-48752334D01*
X61058334Y-48689153D01*
X61107975Y-48614860D01*
X61142169Y-48532310D01*
X61159600Y-48444676D01*
X61159600Y-48355324D01*
X61142169Y-48267690D01*
X61107975Y-48185140D01*
X61058334Y-48110847D01*
X60995153Y-48047666D01*
X60920860Y-47998025D01*
X60838310Y-47963831D01*
X60750676Y-47946400D01*
X60661324Y-47946400D01*
X60573690Y-47963831D01*
X60491140Y-47998025D01*
X60416847Y-48047666D01*
X60353666Y-48110847D01*
X60304025Y-48185140D01*
X60269831Y-48267690D01*
X60253547Y-48349559D01*
X54240902Y-54362205D01*
X54227337Y-54373338D01*
X54182899Y-54427485D01*
X54149879Y-54489261D01*
X54146171Y-54501485D01*
X54130376Y-54553556D01*
X54129546Y-54556291D01*
X54124400Y-54608538D01*
X54124400Y-54608545D01*
X54122681Y-54626000D01*
X54124400Y-54643455D01*
X54124401Y-66842534D01*
X54122681Y-66860000D01*
X54129546Y-66929710D01*
X54149880Y-66996741D01*
X54157420Y-67010847D01*
X54182900Y-67058516D01*
X54227338Y-67112663D01*
X54240901Y-67123794D01*
X57497547Y-70380442D01*
X57508524Y-70435630D01*
X53935600Y-66862707D01*
X53935600Y-54241295D01*
X61750443Y-46426453D01*
X61832312Y-46410169D01*
X61914862Y-46375975D01*
X61989155Y-46326334D01*
X62052336Y-46263153D01*
X62101977Y-46188860D01*
X62136171Y-46106310D01*
X62153602Y-46018676D01*
X62153602Y-45990221D01*
X62753901Y-46590520D01*
X62753900Y-54973798D01*
X57882389Y-59845310D01*
X57831245Y-59907629D01*
X57780536Y-60002498D01*
X57749309Y-60105440D01*
X57738766Y-60212493D01*
X57749309Y-60319546D01*
X57780536Y-60422488D01*
X57831245Y-60517357D01*
X57899488Y-60600512D01*
X57982643Y-60668755D01*
X58077512Y-60719464D01*
X58180454Y-60750691D01*
X58287507Y-60761234D01*
X58394560Y-60750691D01*
X58497502Y-60719464D01*
X58592371Y-60668755D01*
X58654690Y-60617611D01*
X63667184Y-55605118D01*
X63688019Y-55588019D01*
X63756262Y-55504865D01*
X63806972Y-55409994D01*
X63838198Y-55307054D01*
X63846100Y-55226824D01*
X63846100Y-55226823D01*
X63848742Y-55200000D01*
X63846100Y-55173176D01*
X63846100Y-50138088D01*
X105921398Y-50138088D01*
X105921398Y-50261912D01*
X105945554Y-50383356D01*
X105992939Y-50497754D01*
X106061732Y-50600709D01*
X106067398Y-50606375D01*
X106067399Y-59029768D01*
X106035556Y-59106644D01*
X106011400Y-59228088D01*
X106011400Y-59351912D01*
X106035556Y-59473356D01*
X106082941Y-59587754D01*
X106151734Y-59690709D01*
X106239291Y-59778266D01*
X106342246Y-59847059D01*
X106456644Y-59894444D01*
X106578088Y-59918600D01*
X106701912Y-59918600D01*
X106823356Y-59894444D01*
X106937754Y-59847059D01*
X107040709Y-59778266D01*
X107128266Y-59690709D01*
X107197059Y-59587754D01*
X107244444Y-59473356D01*
X107268600Y-59351912D01*
X107268600Y-59228088D01*
X107244444Y-59106644D01*
X107197059Y-58992246D01*
X107128266Y-58889291D01*
X107040709Y-58801734D01*
X107032598Y-58796314D01*
X107032598Y-58685324D01*
X107326400Y-58685324D01*
X107326400Y-58774676D01*
X107343831Y-58862310D01*
X107378025Y-58944860D01*
X107427666Y-59019153D01*
X107490847Y-59082334D01*
X107565140Y-59131975D01*
X107647690Y-59166169D01*
X107735324Y-59183600D01*
X107824676Y-59183600D01*
X107912310Y-59166169D01*
X107994860Y-59131975D01*
X108069153Y-59082334D01*
X108132334Y-59019153D01*
X108181975Y-58944860D01*
X108199044Y-58903652D01*
X111471794Y-55630902D01*
X111487782Y-55617782D01*
X111540154Y-55553966D01*
X111579071Y-55481158D01*
X111603035Y-55402158D01*
X111609100Y-55340580D01*
X111611127Y-55320001D01*
X111609100Y-55299421D01*
X111609100Y-52047542D01*
X128476400Y-52047542D01*
X128476401Y-64072459D01*
X128477511Y-64083734D01*
X128477468Y-64089966D01*
X128477813Y-64093490D01*
X128498214Y-64287587D01*
X128502839Y-64310117D01*
X128507143Y-64332679D01*
X128508166Y-64336069D01*
X128565878Y-64522507D01*
X128574795Y-64543719D01*
X128583396Y-64565007D01*
X128585058Y-64568134D01*
X128677883Y-64739811D01*
X128690726Y-64758851D01*
X128703322Y-64778100D01*
X128705560Y-64780844D01*
X128829964Y-64931222D01*
X128846260Y-64947404D01*
X128862355Y-64963840D01*
X128865083Y-64966097D01*
X129016325Y-65089447D01*
X129035484Y-65102176D01*
X129054435Y-65115152D01*
X129057550Y-65116837D01*
X129229873Y-65208462D01*
X129251138Y-65217227D01*
X129272249Y-65226275D01*
X129275632Y-65227322D01*
X129462468Y-65283731D01*
X129485028Y-65288198D01*
X129507497Y-65292974D01*
X129511019Y-65293345D01*
X129705252Y-65312390D01*
X129705255Y-65312390D01*
X129717541Y-65313600D01*
X132742459Y-65313600D01*
X132753744Y-65312489D01*
X132759966Y-65312532D01*
X132763490Y-65312187D01*
X132957587Y-65291786D01*
X132980117Y-65287161D01*
X133002679Y-65282857D01*
X133006069Y-65281834D01*
X133192507Y-65224122D01*
X133213719Y-65215205D01*
X133235007Y-65206604D01*
X133238134Y-65204942D01*
X133409811Y-65112117D01*
X133428851Y-65099274D01*
X133448100Y-65086678D01*
X133450844Y-65084440D01*
X133601222Y-64960036D01*
X133617404Y-64943740D01*
X133633840Y-64927645D01*
X133636097Y-64924917D01*
X133759447Y-64773675D01*
X133772176Y-64754516D01*
X133785152Y-64735565D01*
X133786837Y-64732450D01*
X133878462Y-64560127D01*
X133887227Y-64538862D01*
X133896275Y-64517751D01*
X133897322Y-64514368D01*
X133953731Y-64327532D01*
X133958198Y-64304972D01*
X133962974Y-64282503D01*
X133963345Y-64278981D01*
X133982390Y-64084748D01*
X133982390Y-64084745D01*
X133983600Y-64072459D01*
X133983600Y-52047541D01*
X133982489Y-52036256D01*
X133982532Y-52030034D01*
X133982187Y-52026510D01*
X133961786Y-51832413D01*
X133957162Y-51809889D01*
X133952857Y-51787321D01*
X133951834Y-51783931D01*
X133894122Y-51597493D01*
X133885205Y-51576281D01*
X133876604Y-51554993D01*
X133874942Y-51551866D01*
X133782117Y-51380189D01*
X133769251Y-51361114D01*
X133756677Y-51341900D01*
X133754440Y-51339156D01*
X133630036Y-51188778D01*
X133613721Y-51172577D01*
X133597645Y-51156161D01*
X133594917Y-51153903D01*
X133443675Y-51030553D01*
X133424532Y-51017835D01*
X133405565Y-51004848D01*
X133402450Y-51003164D01*
X133230128Y-50911538D01*
X133208848Y-50902768D01*
X133187751Y-50893725D01*
X133184369Y-50892678D01*
X132997532Y-50836269D01*
X132974951Y-50831797D01*
X132952502Y-50827026D01*
X132948981Y-50826655D01*
X132754747Y-50807610D01*
X132754745Y-50807610D01*
X132742459Y-50806400D01*
X129717541Y-50806400D01*
X129706256Y-50807511D01*
X129700034Y-50807468D01*
X129696510Y-50807813D01*
X129502413Y-50828214D01*
X129479889Y-50832838D01*
X129457321Y-50837143D01*
X129453931Y-50838166D01*
X129267493Y-50895878D01*
X129246281Y-50904795D01*
X129224993Y-50913396D01*
X129221866Y-50915058D01*
X129050189Y-51007883D01*
X129031114Y-51020749D01*
X129011900Y-51033323D01*
X129009156Y-51035560D01*
X128858778Y-51159964D01*
X128842577Y-51176279D01*
X128826161Y-51192355D01*
X128823903Y-51195083D01*
X128700553Y-51346325D01*
X128687835Y-51365468D01*
X128674848Y-51384435D01*
X128673164Y-51387550D01*
X128581538Y-51559872D01*
X128572768Y-51581152D01*
X128563725Y-51602249D01*
X128562678Y-51605631D01*
X128506269Y-51792468D01*
X128501797Y-51815049D01*
X128497026Y-51837498D01*
X128496655Y-51841019D01*
X128477610Y-52035253D01*
X128476400Y-52047542D01*
X111609100Y-52047542D01*
X111609100Y-47843517D01*
X111626169Y-47802310D01*
X111643600Y-47714676D01*
X111643600Y-47625324D01*
X111626169Y-47537690D01*
X111591975Y-47455140D01*
X111542334Y-47380847D01*
X111479153Y-47317666D01*
X111404860Y-47268025D01*
X111322310Y-47233831D01*
X111234676Y-47216400D01*
X111145324Y-47216400D01*
X111057690Y-47233831D01*
X110975140Y-47268025D01*
X110900847Y-47317666D01*
X110837666Y-47380847D01*
X110788025Y-47455140D01*
X110753831Y-47537690D01*
X110736400Y-47625324D01*
X110736400Y-47714676D01*
X110753831Y-47802310D01*
X110770900Y-47843517D01*
X110770901Y-55146402D01*
X107606348Y-58310956D01*
X107565140Y-58328025D01*
X107490847Y-58377666D01*
X107427666Y-58440847D01*
X107378025Y-58515140D01*
X107343831Y-58597690D01*
X107326400Y-58685324D01*
X107032598Y-58685324D01*
X107032598Y-50606375D01*
X107038264Y-50600709D01*
X107107057Y-50497754D01*
X107154442Y-50383356D01*
X107178598Y-50261912D01*
X107178598Y-50138088D01*
X107154442Y-50016644D01*
X107107057Y-49902246D01*
X107038264Y-49799291D01*
X106950707Y-49711734D01*
X106847752Y-49642941D01*
X106733354Y-49595556D01*
X106611910Y-49571400D01*
X106488086Y-49571400D01*
X106366642Y-49595556D01*
X106252244Y-49642941D01*
X106149289Y-49711734D01*
X106061732Y-49799291D01*
X105992939Y-49902246D01*
X105945554Y-50016644D01*
X105921398Y-50138088D01*
X63846100Y-50138088D01*
X63846100Y-46391130D01*
X63848741Y-46364316D01*
X63846100Y-46337502D01*
X63846100Y-46337493D01*
X63838198Y-46257263D01*
X63806972Y-46154323D01*
X63756262Y-46059452D01*
X63688019Y-45976298D01*
X63667184Y-45959199D01*
X55890807Y-38182823D01*
X55873704Y-38161983D01*
X55790550Y-38093740D01*
X55695679Y-38043030D01*
X55592739Y-38011804D01*
X55512509Y-38003902D01*
X55512502Y-38003902D01*
X55485685Y-38001261D01*
X55458868Y-38003902D01*
X55234155Y-38003902D01*
X55217754Y-37992943D01*
X55103356Y-37945558D01*
X54981912Y-37921402D01*
X54858088Y-37921402D01*
X54736644Y-37945558D01*
X54622246Y-37992943D01*
X54519291Y-38061736D01*
X54431734Y-38149293D01*
X54362941Y-38252248D01*
X54315556Y-38366646D01*
X54291400Y-38488090D01*
X54291400Y-38611914D01*
X54315556Y-38733358D01*
X54362941Y-38847756D01*
X54431734Y-38950711D01*
X54519291Y-39038268D01*
X54622246Y-39107061D01*
X54736644Y-39154446D01*
X54858088Y-39178602D01*
X54981912Y-39178602D01*
X55103356Y-39154446D01*
X55217754Y-39107061D01*
X55234155Y-39096102D01*
X55259484Y-39096102D01*
X61683781Y-45520400D01*
X61655326Y-45520400D01*
X61567692Y-45537831D01*
X61485142Y-45572025D01*
X61410849Y-45621666D01*
X61347668Y-45684847D01*
X61298027Y-45759140D01*
X61263833Y-45841690D01*
X61247549Y-45923559D01*
X57367238Y-49803870D01*
X57376169Y-49782310D01*
X57393600Y-49694676D01*
X57393600Y-49605324D01*
X57376169Y-49517690D01*
X57341975Y-49435140D01*
X57292334Y-49360847D01*
X57229153Y-49297666D01*
X57154860Y-49248025D01*
X57072310Y-49213831D01*
X56984676Y-49196400D01*
X56895324Y-49196400D01*
X56807690Y-49213831D01*
X56725140Y-49248025D01*
X56650847Y-49297666D01*
X56587666Y-49360847D01*
X56538025Y-49435140D01*
X56503831Y-49517690D01*
X56487547Y-49599558D01*
X53319560Y-52767546D01*
X53237690Y-52783831D01*
X53155140Y-52818025D01*
X53080847Y-52867666D01*
X53017666Y-52930847D01*
X52968025Y-53005140D01*
X52933831Y-53087690D01*
X52917547Y-53169560D01*
X52260901Y-53826206D01*
X52247338Y-53837337D01*
X52236207Y-53850900D01*
X52236205Y-53850902D01*
X52232794Y-53855059D01*
X52202900Y-53891484D01*
X52186390Y-53922372D01*
X52169880Y-53953259D01*
X52149546Y-54020290D01*
X52142681Y-54090000D01*
X52144401Y-54107466D01*
X52144400Y-62965735D01*
X52098025Y-63035140D01*
X52063831Y-63117690D01*
X52055600Y-63159071D01*
X52055600Y-53707293D01*
X56967295Y-48795600D01*
X57145735Y-48795600D01*
X57215140Y-48841975D01*
X57297690Y-48876169D01*
X57385324Y-48893600D01*
X57474676Y-48893600D01*
X57562310Y-48876169D01*
X57644860Y-48841975D01*
X57719153Y-48792334D01*
X57782334Y-48729153D01*
X57831975Y-48654860D01*
X57866169Y-48572310D01*
X57883600Y-48484676D01*
X57883600Y-48395324D01*
X57866169Y-48307690D01*
X57831975Y-48225140D01*
X57782334Y-48150847D01*
X57719153Y-48087666D01*
X57644860Y-48038025D01*
X57562310Y-48003831D01*
X57474676Y-47986400D01*
X57385324Y-47986400D01*
X57297690Y-48003831D01*
X57215140Y-48038025D01*
X57145735Y-48084400D01*
X56837452Y-48084400D01*
X56819999Y-48082681D01*
X56802546Y-48084400D01*
X56802537Y-48084400D01*
X56750290Y-48089546D01*
X56683260Y-48109879D01*
X56621484Y-48142899D01*
X56621482Y-48142900D01*
X56621483Y-48142900D01*
X56580900Y-48176205D01*
X56580895Y-48176210D01*
X56567337Y-48187337D01*
X56556210Y-48200895D01*
X51460901Y-53296206D01*
X51447338Y-53307337D01*
X51402900Y-53361484D01*
X51386390Y-53392372D01*
X51369880Y-53423259D01*
X51349546Y-53490290D01*
X51342681Y-53560000D01*
X51344401Y-53577466D01*
X51344400Y-60180970D01*
X51341975Y-60175114D01*
X51292334Y-60100821D01*
X51229153Y-60037640D01*
X51154860Y-59987999D01*
X51072310Y-59953805D01*
X50984676Y-59936374D01*
X50895324Y-59936374D01*
X50807690Y-59953805D01*
X50725140Y-59987999D01*
X50650847Y-60037640D01*
X50587666Y-60100821D01*
X50538025Y-60175114D01*
X50503831Y-60257664D01*
X50486400Y-60345298D01*
X50486400Y-60434650D01*
X50503831Y-60522284D01*
X50538025Y-60604834D01*
X50587666Y-60679127D01*
X50594401Y-60685862D01*
X50594400Y-63105735D01*
X50548025Y-63175140D01*
X50513831Y-63257690D01*
X50496400Y-63345324D01*
X50496400Y-63434676D01*
X50513831Y-63522310D01*
X50548025Y-63604860D01*
X50597666Y-63679153D01*
X50660847Y-63742334D01*
X50735140Y-63791975D01*
X50817690Y-63826169D01*
X50905324Y-63843600D01*
X50994676Y-63843600D01*
X51082310Y-63826169D01*
X51164860Y-63791975D01*
X51239153Y-63742334D01*
X51302334Y-63679153D01*
X51344400Y-63616196D01*
X51344400Y-66182545D01*
X51342681Y-66200000D01*
X51344400Y-66217455D01*
X51344400Y-66217462D01*
X51345544Y-66229072D01*
X51349546Y-66269710D01*
X51358400Y-66298897D01*
X51369879Y-66336739D01*
X51402899Y-66398515D01*
X51447337Y-66452662D01*
X51460901Y-66463795D01*
X53047547Y-68050442D01*
X53063831Y-68132310D01*
X53084074Y-68181180D01*
X50005600Y-65102707D01*
X50005600Y-60614265D01*
X50051975Y-60544860D01*
X50086169Y-60462310D01*
X50103600Y-60374676D01*
X50103600Y-60285324D01*
X50086169Y-60197690D01*
X50051975Y-60115140D01*
X50002334Y-60040847D01*
X49939153Y-59977666D01*
X49864860Y-59928025D01*
X49782310Y-59893831D01*
X49694676Y-59876400D01*
X49605324Y-59876400D01*
X49517690Y-59893831D01*
X49435140Y-59928025D01*
X49360847Y-59977666D01*
X49297666Y-60040847D01*
X49248025Y-60115140D01*
X49213831Y-60197690D01*
X49196400Y-60285324D01*
X48155600Y-60285324D01*
X48155600Y-40984265D01*
X48201975Y-40914860D01*
X48236169Y-40832310D01*
X48253600Y-40744676D01*
X48253600Y-40655324D01*
X48236169Y-40567690D01*
X48201975Y-40485140D01*
X48152334Y-40410847D01*
X48089153Y-40347666D01*
X48014860Y-40298025D01*
X47932310Y-40263831D01*
X47844676Y-40246400D01*
X47755324Y-40246400D01*
X47667690Y-40263831D01*
X47585140Y-40298025D01*
X47510847Y-40347666D01*
X47447666Y-40410847D01*
X47398025Y-40485140D01*
X47363831Y-40567690D01*
X47346400Y-40655324D01*
X44151704Y-40655324D01*
X44228600Y-40268744D01*
X44228600Y-39731256D01*
X44123742Y-39204097D01*
X43918054Y-38707523D01*
X43619442Y-38260619D01*
X43239381Y-37880558D01*
X42792477Y-37581946D01*
X42320334Y-37386378D01*
X134671632Y-37389705D01*
%TD*%
M02*
