M48
INCH,TZ
T1C0.0118
T2C0.0157
T3C0.0197
T4C0.0984
%
G90
G05
T1
X15803Y-22835
X18268Y-18307
X18819Y-16024
X19260Y-27443
X19547Y-23752
X20055Y-23776
X20059Y-24957
X20512Y-31583
X20669Y-24902
X21012Y-20953
X21063Y-26772
X21929Y-24528
X22008Y-21457
X22010Y-31589
X22417Y-19547
X22504Y-34287
X22520Y-33283
X22559Y-26496
X22610Y-19071
X22795Y-28319
X22815Y-27689
X22948Y-23706
X23008Y-31579
X23189Y-27087
X23504Y-31571
X23595Y-26784
X23622Y-25000
X23900Y-19055
X24016Y-26772
X24291Y-18100
X25039Y-33583
X25276Y-25866
X25276Y-26142
X25512Y-25866
X25512Y-26142
X25697Y-32201
X26039Y-34217
X26614Y-24980
X26631Y-25521
X26776Y-26213
X26921Y-24740
X28829Y-30841
X30128Y-30825
X30181Y-28319
X30551Y-24398
X30561Y-28510
X30693Y-22681
X30815Y-22291
X30980Y-25122
X32154Y-24122
X32413Y-23752
X32602Y-24709
X33287Y-24110
X33398Y-23748
X33567Y-21437
X33571Y-22543
X33583Y-24394
X34224Y-30161
X35720Y-34681
X35724Y-35020
X36618Y-30941
X38106Y-34193
X39236Y-35031
X39843Y-20827
X39909Y-34677
X40504Y-32425
X40795Y-30937
X41886Y-36012
X42433Y-23122
X42591Y-31091
X42902Y-31079
X43201Y-30524
X43201Y-30795
X43205Y-31087
X43776Y-18768
X44228Y-31142
X44335Y-28890
X44563Y-29252
X46122Y-28496
X46146Y-29622
X46197Y-31933
X47945Y-32992
X47996Y-31181
X47996Y-30587
X48311Y-34047
X48732Y-33787
X49193Y-28386
X49996Y-31098
T2
X17665Y-20343
X17665Y-20736
X17665Y-21130
X18728Y-35413
X21622Y-15177
X25665Y-25335
X26220Y-28961
X26220Y-29394
X26220Y-29827
X26654Y-28961
X26654Y-29394
X26654Y-29827
X26752Y-23996
X29145Y-25576
X36665Y-17953
X36665Y-18346
X36665Y-18740
X36705Y-36583
X36709Y-33000
X37059Y-17953
X37059Y-18346
X37059Y-18740
X37799Y-25354
X37799Y-25748
X37799Y-26142
X38193Y-25354
X38193Y-25748
X38193Y-26142
X40858Y-35130
X40858Y-35524
X40858Y-35917
X41252Y-35130
X41252Y-35524
X41252Y-35917
X41949Y-19764
X41984Y-23343
X44646Y-25843
X44646Y-26236
X44646Y-26630
X45039Y-25843
X45039Y-26236
X45039Y-26630
X47087Y-30571
X48173Y-17197
X48173Y-17591
X48173Y-17984
X48567Y-17197
X48567Y-17591
X48567Y-17984
X48677Y-30276
X49988Y-33217
X50071Y-29622
T3
X52608Y-15748
X52824Y-15226
X52824Y-16270
X53346Y-15010
X53346Y-16486
X53868Y-15226
X53868Y-16270
X54085Y-15748
X15600Y-15748
X15817Y-15226
X15817Y-16270
X16339Y-15010
X16339Y-16486
X16861Y-15226
X16861Y-16270
X17077Y-15748
X52608Y-35827
X52824Y-35305
X52824Y-36349
X53346Y-35089
X53346Y-36565
X53868Y-35305
X53868Y-36349
X54085Y-35827
X15600Y-35827
X15817Y-35305
X15817Y-36349
X16339Y-35089
X16339Y-36565
X16861Y-35305
X16861Y-36349
X17077Y-35827
T4
X53346Y-15748
X16339Y-15748
X53346Y-35827
X16339Y-35827
T0
M30
