M48
INCH,TZ
T1C0.0118
T2C0.0157
T3C0.0197
T4C0.0236
T5C0.0984
%
G90
G05
T1
X15803Y-22835
X18327Y-22697
X18681Y-14921
X18780Y-19331
X19179Y-33234
X19331Y-35354
X19390Y-23661
X19449Y-27795
X19606Y-20591
X19685Y-18858
X20000Y-20591
X20335Y-20413
X20492Y-22264
X20512Y-31583
X20531Y-24980
X20827Y-26791
X20906Y-27224
X21142Y-18839
X21417Y-27520
X21752Y-19823
X21870Y-26437
X21950Y-23760
X22010Y-31589
X22146Y-18839
X22504Y-34287
X22520Y-33283
X22559Y-26496
X22579Y-31122
X22776Y-23287
X22795Y-28319
X22948Y-23706
X23169Y-18819
X23179Y-28061
X23189Y-27087
X23504Y-31571
X23595Y-26784
X23622Y-16890
X23917Y-33406
X24016Y-26772
X25276Y-25866
X25276Y-26142
X25512Y-25866
X25512Y-26142
X25787Y-20669
X25787Y-22185
X26039Y-34217
X27047Y-26142
X27618Y-26142
X28248Y-26122
X28484Y-30118
X29941Y-28642
X29994Y-28031
X30531Y-27461
X31122Y-25413
X31260Y-23740
X32602Y-24709
X33209Y-24094
X33398Y-23748
X33583Y-24394
X34134Y-31339
X34819Y-24906
X35724Y-35020
X36142Y-34685
X37441Y-30945
X38106Y-34193
X39236Y-35031
X39606Y-34685
X39843Y-20827
X40433Y-30945
X40504Y-32425
X41886Y-36012
X42433Y-23122
X42591Y-31091
X42902Y-31079
X43201Y-30524
X43201Y-30795
X43205Y-31087
X43776Y-18768
X44228Y-31142
X44335Y-28890
X44563Y-29252
X46122Y-28496
X46146Y-29622
X46197Y-31933
X47945Y-32992
X48311Y-34047
X48732Y-33787
X49370Y-27874
X50035Y-31319
X50079Y-27130
X50535Y-31791
X50551Y-28661
X50591Y-30413
X50630Y-31201
X50632Y-30817
X50650Y-28996
X50906Y-30291
X50984Y-30591
X50984Y-31003
X50984Y-33268
X53701Y-34567
T2
X17717Y-18898
X17717Y-19685
X17717Y-20472
X17717Y-21260
X17717Y-22047
X17717Y-22835
X18110Y-33701
X18524Y-35335
X19724Y-29134
X19724Y-30748
X20630Y-15000
X21220Y-31220
X25665Y-25335
X26378Y-28346
X26378Y-29134
X26378Y-29921
X32520Y-27972
X35118Y-17205
X35118Y-17992
X36063Y-17205
X36705Y-36583
X36709Y-33000
X37795Y-23622
X37795Y-24409
X37795Y-25197
X37795Y-25984
X37795Y-26772
X37795Y-27559
X38681Y-18839
X39350Y-18169
X40937Y-35169
X40937Y-35563
X40937Y-35957
X41331Y-35169
X41331Y-35563
X41331Y-35957
X41949Y-19764
X41984Y-23343
X42913Y-26378
X43701Y-26378
X44488Y-26378
X45276Y-26378
X45669Y-19685
X46063Y-26378
X46457Y-19685
X46850Y-26378
X47087Y-30571
X47244Y-19685
X48031Y-19685
X48677Y-30276
X48819Y-19685
X49606Y-19685
X49921Y-29622
X49988Y-33217
X50907Y-32337
X50984Y-29331
T3
X15600Y-15748
X15817Y-15226
X15817Y-16270
X16339Y-15010
X16339Y-16486
X16861Y-15226
X16861Y-16270
X17077Y-15748
X52608Y-35827
X52824Y-35305
X52824Y-36349
X53346Y-35089
X53346Y-36565
X53868Y-35305
X53868Y-36349
X54085Y-35827
X15600Y-35827
X15817Y-35305
X15817Y-36349
X16339Y-35089
X16339Y-36565
X16861Y-35305
X16861Y-36349
X17077Y-35827
X52608Y-15748
X52824Y-15226
X52824Y-16270
X53346Y-15010
X53346Y-16486
X53868Y-15226
X53868Y-16270
X54085Y-15748
T5
X16339Y-35827
X53346Y-15748
X16339Y-15748
X53346Y-35827
T4
G00X51553Y-29205
M15
G01X51986Y-29205
M16
G05
G00X51553Y-32606
M15
G01X51986Y-32606
M16
G05
G00X53297Y-29205
M15
G01X53533Y-29205
M16
G05
G00X53297Y-32606
M15
G01X53533Y-32606
M16
G05
T0
M30
