G04 #@! TF.GenerationSoftware,KiCad,Pcbnew,(5.1.6-0)*
G04 #@! TF.CreationDate,2022-04-06T12:43:26+02:00*
G04 #@! TF.ProjectId,ESP32_TFT_bridgedpads,45535033-325f-4544-9654-5f6272696467,rev?*
G04 #@! TF.SameCoordinates,Original*
G04 #@! TF.FileFunction,Other,Fab,Top*
%FSLAX46Y46*%
G04 Gerber Fmt 4.6, Leading zero omitted, Abs format (unit mm)*
G04 Created by KiCad (PCBNEW (5.1.6-0)) date 2022-04-06 12:43:26*
%MOMM*%
%LPD*%
G01*
G04 APERTURE LIST*
%ADD10C,0.250000*%
%ADD11C,0.150000*%
%ADD12C,0.100000*%
%ADD13C,0.060000*%
%ADD14C,0.080000*%
%ADD15C,0.075000*%
%ADD16C,0.120000*%
G04 APERTURE END LIST*
D10*
X45341421Y-83300000D02*
G75*
G03*
X45341421Y-83300000I-141421J0D01*
G01*
X78841421Y-72500000D02*
G75*
G03*
X78841421Y-72500000I-141421J0D01*
G01*
X97941421Y-82700000D02*
G75*
G03*
X97941421Y-82700000I-141421J0D01*
G01*
X101641421Y-82800000D02*
G75*
G03*
X101641421Y-82800000I-141421J0D01*
G01*
X118441421Y-88300000D02*
G75*
G03*
X118441421Y-88300000I-141421J0D01*
G01*
X118541421Y-76100000D02*
G75*
G03*
X118541421Y-76100000I-141421J0D01*
G01*
X108341421Y-79900000D02*
G75*
G03*
X108341421Y-79900000I-141421J0D01*
G01*
X113241421Y-81000000D02*
G75*
G03*
X113241421Y-81000000I-141421J0D01*
G01*
D11*
X131200000Y-94400000D02*
X131950000Y-94400000D01*
X131200000Y-93900000D02*
X130450000Y-94400000D01*
X131200000Y-93900000D02*
X131200000Y-94900000D01*
X130450000Y-94400000D02*
X131200000Y-94900000D01*
X130450000Y-94400000D02*
X129700000Y-94400000D01*
X130450000Y-93900000D02*
X130450000Y-94900000D01*
X110400000Y-94350000D02*
X109650000Y-94350000D01*
X111150000Y-94350000D02*
X111900000Y-94350000D01*
X110400000Y-93850000D02*
X110400000Y-94850000D01*
X110400000Y-94350000D02*
X111150000Y-94850000D01*
X111150000Y-93850000D02*
X110400000Y-94350000D01*
X111150000Y-93850000D02*
X111150000Y-94850000D01*
X131619047Y-93571428D02*
X132380952Y-93571428D01*
X132000000Y-93952380D02*
X132000000Y-93190476D01*
X111619047Y-93571428D02*
X112380952Y-93571428D01*
X112000000Y-93952380D02*
X112000000Y-93190476D01*
X115319047Y-82771428D02*
X116080952Y-82771428D01*
X115700000Y-83152380D02*
X115700000Y-82390476D01*
X111619047Y-76171428D02*
X112380952Y-76171428D01*
X112000000Y-76552380D02*
X112000000Y-75790476D01*
D12*
X121330000Y-93380000D02*
X121330000Y-93380000D01*
X121330000Y-95380000D02*
X121330000Y-93380000D01*
X122830000Y-95380000D02*
X121330000Y-95380000D01*
X122830000Y-93380000D02*
X122830000Y-95380000D01*
X126130000Y-93380000D02*
X126130000Y-93380000D01*
X126130000Y-93680000D02*
X126130000Y-93380000D01*
X125530000Y-93680000D02*
X126130000Y-93680000D01*
X125530000Y-93380000D02*
X125530000Y-93680000D01*
X120530000Y-93380000D02*
X120530000Y-93380000D01*
X120530000Y-93680000D02*
X120530000Y-93380000D01*
X121130000Y-93680000D02*
X120530000Y-93680000D01*
X121130000Y-93380000D02*
X121130000Y-93680000D01*
X123030000Y-93380000D02*
X123030000Y-93380000D01*
X123030000Y-93680000D02*
X123030000Y-93380000D01*
X123630000Y-93680000D02*
X123030000Y-93680000D01*
X123630000Y-93380000D02*
X123630000Y-93680000D01*
X121830000Y-93380000D02*
X121830000Y-93380000D01*
X118830000Y-93380000D02*
X118830000Y-93380000D01*
X118830000Y-89780000D02*
X118830000Y-93380000D01*
X118830000Y-93380000D02*
X118830000Y-93380000D01*
X118930000Y-93380000D02*
X118830000Y-93380000D01*
X127830000Y-93380000D02*
X118930000Y-93380000D01*
X127830000Y-89780000D02*
X127830000Y-93380000D01*
X118830000Y-89780000D02*
X127830000Y-89780000D01*
X130925000Y-82970000D02*
X138275000Y-82970000D01*
X138275000Y-82970000D02*
X138275000Y-74030000D01*
X138275000Y-74030000D02*
X130925000Y-74030000D01*
X130925000Y-82970000D02*
X130925000Y-74030000D01*
X109250000Y-50740000D02*
X109250000Y-49940000D01*
X109250000Y-49940000D02*
X110850000Y-49940000D01*
X110850000Y-49940000D02*
X110850000Y-50740000D01*
X110850000Y-50740000D02*
X109250000Y-50740000D01*
X130200000Y-69900000D02*
X131000000Y-69900000D01*
X131000000Y-69900000D02*
X131000000Y-71500000D01*
X131000000Y-71500000D02*
X130200000Y-71500000D01*
X130200000Y-71500000D02*
X130200000Y-69900000D01*
X128500000Y-69900000D02*
X129300000Y-69900000D01*
X129300000Y-69900000D02*
X129300000Y-71500000D01*
X129300000Y-71500000D02*
X128500000Y-71500000D01*
X128500000Y-71500000D02*
X128500000Y-69900000D01*
X128580000Y-86590000D02*
X128580000Y-85390000D01*
X128580000Y-85390000D02*
X130580000Y-85390000D01*
X130580000Y-85390000D02*
X130580000Y-86590000D01*
X130580000Y-86590000D02*
X128580000Y-86590000D01*
X128790000Y-88320000D02*
X128790000Y-87520000D01*
X128790000Y-87520000D02*
X130390000Y-87520000D01*
X130390000Y-87520000D02*
X130390000Y-88320000D01*
X130390000Y-88320000D02*
X128790000Y-88320000D01*
X60000000Y-61600000D02*
X60000000Y-62400000D01*
X60000000Y-62400000D02*
X58400000Y-62400000D01*
X58400000Y-62400000D02*
X58400000Y-61600000D01*
X58400000Y-61600000D02*
X60000000Y-61600000D01*
X129850000Y-91700000D02*
X129850000Y-90900000D01*
X129850000Y-90900000D02*
X131450000Y-90900000D01*
X131450000Y-90900000D02*
X131450000Y-91700000D01*
X131450000Y-91700000D02*
X129850000Y-91700000D01*
X82550000Y-75850000D02*
X82550000Y-75050000D01*
X82550000Y-75050000D02*
X84150000Y-75050000D01*
X84150000Y-75050000D02*
X84150000Y-75850000D01*
X84150000Y-75850000D02*
X82550000Y-75850000D01*
X82550000Y-74350000D02*
X82550000Y-73550000D01*
X82550000Y-73550000D02*
X84150000Y-73550000D01*
X84150000Y-73550000D02*
X84150000Y-74350000D01*
X84150000Y-74350000D02*
X82550000Y-74350000D01*
X82550000Y-72850000D02*
X82550000Y-72050000D01*
X82550000Y-72050000D02*
X84150000Y-72050000D01*
X84150000Y-72050000D02*
X84150000Y-72850000D01*
X84150000Y-72850000D02*
X82550000Y-72850000D01*
X80550000Y-70700000D02*
X80550000Y-71500000D01*
X80550000Y-71500000D02*
X78950000Y-71500000D01*
X78950000Y-71500000D02*
X78950000Y-70700000D01*
X78950000Y-70700000D02*
X80550000Y-70700000D01*
X47000000Y-62450000D02*
X47000000Y-61650000D01*
X47000000Y-61650000D02*
X48600000Y-61650000D01*
X48600000Y-61650000D02*
X48600000Y-62450000D01*
X48600000Y-62450000D02*
X47000000Y-62450000D01*
X55000000Y-61600000D02*
X55000000Y-62400000D01*
X55000000Y-62400000D02*
X53400000Y-62400000D01*
X53400000Y-62400000D02*
X53400000Y-61600000D01*
X53400000Y-61600000D02*
X55000000Y-61600000D01*
X79100000Y-73000000D02*
X79100000Y-75450000D01*
X79650000Y-72430000D02*
X80500000Y-72430000D01*
X79100000Y-73000000D02*
X79650000Y-72430000D01*
X80500000Y-72430000D02*
X80500000Y-75470000D01*
X79100000Y-75470000D02*
X80500000Y-75470000D01*
X63890000Y-40460000D02*
X63890000Y-45540000D01*
X46110000Y-44590000D02*
X46110000Y-40460000D01*
X63890000Y-45540000D02*
X47060000Y-45540000D01*
X47060000Y-45540000D02*
X46110000Y-44590000D01*
X46110000Y-40460000D02*
X63890000Y-40460000D01*
X47060000Y-45540000D02*
X47060000Y-46600000D01*
X47060000Y-46600000D02*
X47700000Y-46600000D01*
X47700000Y-46600000D02*
X47700000Y-45540000D01*
X47060000Y-40460000D02*
X47060000Y-39400000D01*
X47060000Y-39400000D02*
X47700000Y-39400000D01*
X47700000Y-39400000D02*
X47700000Y-40460000D01*
X49600000Y-45540000D02*
X49600000Y-46600000D01*
X49600000Y-46600000D02*
X50240000Y-46600000D01*
X50240000Y-46600000D02*
X50240000Y-45540000D01*
X49600000Y-40460000D02*
X49600000Y-39400000D01*
X49600000Y-39400000D02*
X50240000Y-39400000D01*
X50240000Y-39400000D02*
X50240000Y-40460000D01*
X52140000Y-45540000D02*
X52140000Y-46600000D01*
X52140000Y-46600000D02*
X52780000Y-46600000D01*
X52780000Y-46600000D02*
X52780000Y-45540000D01*
X52140000Y-40460000D02*
X52140000Y-39400000D01*
X52140000Y-39400000D02*
X52780000Y-39400000D01*
X52780000Y-39400000D02*
X52780000Y-40460000D01*
X54680000Y-45540000D02*
X54680000Y-46600000D01*
X54680000Y-46600000D02*
X55320000Y-46600000D01*
X55320000Y-46600000D02*
X55320000Y-45540000D01*
X54680000Y-40460000D02*
X54680000Y-39400000D01*
X54680000Y-39400000D02*
X55320000Y-39400000D01*
X55320000Y-39400000D02*
X55320000Y-40460000D01*
X57220000Y-45540000D02*
X57220000Y-46600000D01*
X57220000Y-46600000D02*
X57860000Y-46600000D01*
X57860000Y-46600000D02*
X57860000Y-45540000D01*
X57220000Y-40460000D02*
X57220000Y-39400000D01*
X57220000Y-39400000D02*
X57860000Y-39400000D01*
X57860000Y-39400000D02*
X57860000Y-40460000D01*
X59760000Y-45540000D02*
X59760000Y-46600000D01*
X59760000Y-46600000D02*
X60400000Y-46600000D01*
X60400000Y-46600000D02*
X60400000Y-45540000D01*
X59760000Y-40460000D02*
X59760000Y-39400000D01*
X59760000Y-39400000D02*
X60400000Y-39400000D01*
X60400000Y-39400000D02*
X60400000Y-40460000D01*
X62300000Y-45540000D02*
X62300000Y-46600000D01*
X62300000Y-46600000D02*
X62940000Y-46600000D01*
X62940000Y-46600000D02*
X62940000Y-45540000D01*
X62300000Y-40460000D02*
X62300000Y-39400000D01*
X62300000Y-39400000D02*
X62940000Y-39400000D01*
X62940000Y-39400000D02*
X62940000Y-40460000D01*
X131500000Y-92600000D02*
X130200000Y-92600000D01*
X130200000Y-92600000D02*
X129900000Y-92900000D01*
X129900000Y-92900000D02*
X129900000Y-93400000D01*
X129900000Y-93400000D02*
X131500000Y-93400000D01*
X131500000Y-93400000D02*
X131500000Y-92600000D01*
X114455000Y-86420000D02*
X106505000Y-86420000D01*
X114455000Y-91420000D02*
X106505000Y-91420000D01*
X114455000Y-86420000D02*
X114455000Y-91420000D01*
X106505000Y-86420000D02*
X106505000Y-91420000D01*
X111730000Y-89920000D02*
X111730000Y-89420000D01*
X111730000Y-89420000D02*
X111230000Y-89420000D01*
X111230000Y-89420000D02*
X111230000Y-89920000D01*
X111230000Y-89920000D02*
X111730000Y-89920000D01*
X109730000Y-89920000D02*
X109730000Y-89420000D01*
X109730000Y-89420000D02*
X109230000Y-89420000D01*
X109230000Y-89420000D02*
X109230000Y-89920000D01*
X109230000Y-89920000D02*
X109730000Y-89920000D01*
X111980000Y-86420000D02*
X111480000Y-87127107D01*
X111480000Y-87127107D02*
X110980000Y-86420000D01*
X120230000Y-78510000D02*
X120230000Y-79310000D01*
X120230000Y-79310000D02*
X118630000Y-79310000D01*
X118630000Y-79310000D02*
X118630000Y-78510000D01*
X118630000Y-78510000D02*
X120230000Y-78510000D01*
X93200000Y-54060000D02*
X93200000Y-65510000D01*
X92500000Y-54060000D02*
X93200000Y-54060000D01*
X92500000Y-54560000D02*
X92500000Y-54060000D01*
X92200000Y-54560000D02*
X92500000Y-54560000D01*
X92200000Y-53960000D02*
X92200000Y-54560000D01*
X87600000Y-53960000D02*
X92200000Y-53960000D01*
X87600000Y-65510000D02*
X87600000Y-53960000D01*
X93200000Y-76960000D02*
X93200000Y-65510000D01*
X92500000Y-76960000D02*
X93200000Y-76960000D01*
X92500000Y-76460000D02*
X92500000Y-76960000D01*
X92200000Y-76460000D02*
X92500000Y-76460000D01*
X92200000Y-77060000D02*
X92200000Y-76460000D01*
X87600000Y-77060000D02*
X92200000Y-77060000D01*
X87600000Y-65510000D02*
X87600000Y-77060000D01*
X64190000Y-64930000D02*
X38685000Y-64930000D01*
X64190000Y-82930000D02*
X64190000Y-64930000D01*
X38685000Y-82930000D02*
X44410000Y-82930000D01*
X38685000Y-82930000D02*
X38685000Y-64930000D01*
X45410000Y-82930000D02*
X64190000Y-82930000D01*
X44910000Y-82430000D02*
X44410000Y-82930000D01*
X45410000Y-82930000D02*
X44910000Y-82430000D01*
X125100000Y-75400000D02*
X125900000Y-75400000D01*
X125900000Y-75400000D02*
X125900000Y-77000000D01*
X125900000Y-77000000D02*
X125100000Y-77000000D01*
X125100000Y-77000000D02*
X125100000Y-75400000D01*
X119330000Y-84480000D02*
X119330000Y-82880000D01*
X116130000Y-84480000D02*
X119330000Y-84480000D01*
X116130000Y-83280000D02*
X116130000Y-84480000D01*
X116530000Y-82880000D02*
X116130000Y-83280000D01*
X119330000Y-82880000D02*
X116530000Y-82880000D01*
X108290000Y-76370000D02*
X111090000Y-76370000D01*
X111090000Y-76370000D02*
X111490000Y-75970000D01*
X111490000Y-75970000D02*
X111490000Y-74770000D01*
X111490000Y-74770000D02*
X108290000Y-74770000D01*
X108290000Y-74770000D02*
X108290000Y-76370000D01*
X46900000Y-85600000D02*
X47700000Y-85600000D01*
X47700000Y-85600000D02*
X47700000Y-87200000D01*
X47700000Y-87200000D02*
X46900000Y-87200000D01*
X46900000Y-87200000D02*
X46900000Y-85600000D01*
X110760000Y-73110000D02*
X110760000Y-73910000D01*
X110760000Y-73910000D02*
X109160000Y-73910000D01*
X109160000Y-73910000D02*
X109160000Y-73110000D01*
X109160000Y-73110000D02*
X110760000Y-73110000D01*
X50400000Y-85600000D02*
X51200000Y-85600000D01*
X51200000Y-85600000D02*
X51200000Y-87200000D01*
X51200000Y-87200000D02*
X50400000Y-87200000D01*
X50400000Y-87200000D02*
X50400000Y-85600000D01*
X109000000Y-81520000D02*
X110600000Y-81520000D01*
X109000000Y-82320000D02*
X109000000Y-81520000D01*
X110600000Y-82320000D02*
X109000000Y-82320000D01*
X110600000Y-81520000D02*
X110600000Y-82320000D01*
X126150000Y-83130000D02*
X121550000Y-83130000D01*
X121550000Y-83130000D02*
X121550000Y-80130000D01*
X126150000Y-80130000D02*
X126150000Y-83130000D01*
X126150000Y-80130000D02*
X121550000Y-80130000D01*
X123200560Y-81631020D02*
X122298860Y-81631020D01*
X124351180Y-81631020D02*
X125349400Y-81631020D01*
X123200560Y-80830920D02*
X123200560Y-82431120D01*
X124351180Y-82380320D02*
X124351180Y-80830920D01*
X123200560Y-81631020D02*
X124351180Y-82380320D01*
X123200560Y-81631020D02*
X124351180Y-80830920D01*
X111470000Y-92560000D02*
X110170000Y-92560000D01*
X110170000Y-92560000D02*
X109870000Y-92860000D01*
X109870000Y-92860000D02*
X109870000Y-93360000D01*
X109870000Y-93360000D02*
X111470000Y-93360000D01*
X111470000Y-93360000D02*
X111470000Y-92560000D01*
X109980000Y-58070000D02*
X109980000Y-61120000D01*
X109980000Y-61120000D02*
X114580000Y-61120000D01*
X114580000Y-61120000D02*
X114580000Y-60520000D01*
X114580000Y-60520000D02*
X114880000Y-60520000D01*
X114880000Y-60520000D02*
X114880000Y-61020000D01*
X114880000Y-61020000D02*
X115580000Y-61020000D01*
X115580000Y-61020000D02*
X115580000Y-58070000D01*
X109980000Y-58070000D02*
X109980000Y-55020000D01*
X109980000Y-55020000D02*
X114580000Y-55020000D01*
X114580000Y-55020000D02*
X114580000Y-55620000D01*
X114580000Y-55620000D02*
X114880000Y-55620000D01*
X114880000Y-55620000D02*
X114880000Y-55120000D01*
X114880000Y-55120000D02*
X115580000Y-55120000D01*
X115580000Y-55120000D02*
X115580000Y-58070000D01*
X109980000Y-59820000D02*
X110687107Y-59320000D01*
X110687107Y-59320000D02*
X109980000Y-58820000D01*
X101300000Y-79880000D02*
X99900000Y-79880000D01*
X99900000Y-82920000D02*
X99900000Y-79880000D01*
X101300000Y-82350000D02*
X100750000Y-82920000D01*
X100750000Y-82920000D02*
X99900000Y-82920000D01*
X101300000Y-82350000D02*
X101300000Y-79900000D01*
X97500000Y-82350000D02*
X97500000Y-79900000D01*
X96950000Y-82920000D02*
X96100000Y-82920000D01*
X97500000Y-82350000D02*
X96950000Y-82920000D01*
X96100000Y-82920000D02*
X96100000Y-79880000D01*
X97500000Y-79880000D02*
X96100000Y-79880000D01*
X118230000Y-87770000D02*
X118230000Y-85320000D01*
X117680000Y-88340000D02*
X116830000Y-88340000D01*
X118230000Y-87770000D02*
X117680000Y-88340000D01*
X116830000Y-88340000D02*
X116830000Y-85300000D01*
X118230000Y-85300000D02*
X116830000Y-85300000D01*
X125100000Y-72000000D02*
X125900000Y-72000000D01*
X125900000Y-72000000D02*
X125900000Y-73600000D01*
X125900000Y-73600000D02*
X125100000Y-73600000D01*
X125100000Y-73600000D02*
X125100000Y-72000000D01*
X127600000Y-72000000D02*
X127600000Y-73600000D01*
X126800000Y-72000000D02*
X127600000Y-72000000D01*
X126800000Y-73600000D02*
X126800000Y-72000000D01*
X127600000Y-73600000D02*
X126800000Y-73600000D01*
X115970000Y-73010000D02*
X114370000Y-73010000D01*
X115970000Y-72210000D02*
X115970000Y-73010000D01*
X114370000Y-72210000D02*
X115970000Y-72210000D01*
X114370000Y-73010000D02*
X114370000Y-72210000D01*
X114370000Y-74710000D02*
X114370000Y-73910000D01*
X114370000Y-73910000D02*
X115970000Y-73910000D01*
X115970000Y-73910000D02*
X115970000Y-74710000D01*
X115970000Y-74710000D02*
X114370000Y-74710000D01*
X96187500Y-79000000D02*
X96187500Y-78200000D01*
X96187500Y-78200000D02*
X97787500Y-78200000D01*
X97787500Y-78200000D02*
X97787500Y-79000000D01*
X97787500Y-79000000D02*
X96187500Y-79000000D01*
X101600000Y-79000000D02*
X100000000Y-79000000D01*
X101600000Y-78200000D02*
X101600000Y-79000000D01*
X100000000Y-78200000D02*
X101600000Y-78200000D01*
X100000000Y-79000000D02*
X100000000Y-78200000D01*
X49450000Y-87200000D02*
X48650000Y-87200000D01*
X48650000Y-87200000D02*
X48650000Y-85600000D01*
X48650000Y-85600000D02*
X49450000Y-85600000D01*
X49450000Y-85600000D02*
X49450000Y-87200000D01*
X125080000Y-84540000D02*
X125880000Y-84540000D01*
X125880000Y-84540000D02*
X125880000Y-86140000D01*
X125880000Y-86140000D02*
X125080000Y-86140000D01*
X125080000Y-86140000D02*
X125080000Y-84540000D01*
X62650000Y-61600000D02*
X64250000Y-61600000D01*
X62650000Y-62400000D02*
X62650000Y-61600000D01*
X64250000Y-62400000D02*
X62650000Y-62400000D01*
X64250000Y-61600000D02*
X64250000Y-62400000D01*
X66400000Y-68287500D02*
X66400000Y-66687500D01*
X67200000Y-68287500D02*
X66400000Y-68287500D01*
X67200000Y-66687500D02*
X67200000Y-68287500D01*
X66400000Y-66687500D02*
X67200000Y-66687500D01*
X102600000Y-88300000D02*
X101800000Y-88300000D01*
X101800000Y-88300000D02*
X101800000Y-86700000D01*
X101800000Y-86700000D02*
X102600000Y-86700000D01*
X102600000Y-86700000D02*
X102600000Y-88300000D01*
X54650000Y-87200000D02*
X53850000Y-87200000D01*
X53850000Y-87200000D02*
X53850000Y-85600000D01*
X53850000Y-85600000D02*
X54650000Y-85600000D01*
X54650000Y-85600000D02*
X54650000Y-87200000D01*
X52150000Y-87200000D02*
X52150000Y-85600000D01*
X52950000Y-87200000D02*
X52150000Y-87200000D01*
X52950000Y-85600000D02*
X52950000Y-87200000D01*
X52150000Y-85600000D02*
X52950000Y-85600000D01*
X106470000Y-79810000D02*
X106470000Y-78210000D01*
X107270000Y-79810000D02*
X106470000Y-79810000D01*
X107270000Y-78210000D02*
X107270000Y-79810000D01*
X106470000Y-78210000D02*
X107270000Y-78210000D01*
X118270000Y-75230000D02*
X118270000Y-71230000D01*
X118270000Y-71230000D02*
X123270000Y-71230000D01*
X123270000Y-71230000D02*
X123270000Y-76230000D01*
X123270000Y-76230000D02*
X119270000Y-76230000D01*
X119270000Y-76230000D02*
X118270000Y-75230000D01*
X113110000Y-79170000D02*
X116210000Y-79170000D01*
X116210000Y-79170000D02*
X116210000Y-80970000D01*
X113760000Y-80970000D02*
X116210000Y-80970000D01*
X113110000Y-79170000D02*
X113110000Y-80320000D01*
X113760000Y-80970000D02*
X113110000Y-80320000D01*
X108840000Y-79830000D02*
X108190000Y-79180000D01*
X108190000Y-78030000D02*
X108190000Y-79180000D01*
X108840000Y-79830000D02*
X111290000Y-79830000D01*
X111290000Y-78030000D02*
X111290000Y-79830000D01*
X108190000Y-78030000D02*
X111290000Y-78030000D01*
X110870000Y-52270000D02*
X109270000Y-52270000D01*
X110870000Y-51470000D02*
X110870000Y-52270000D01*
X109270000Y-51470000D02*
X110870000Y-51470000D01*
X109270000Y-52270000D02*
X109270000Y-51470000D01*
X116150000Y-45200000D02*
X115350000Y-45200000D01*
X115350000Y-45200000D02*
X115350000Y-43600000D01*
X115350000Y-43600000D02*
X105050000Y-43600000D01*
X105050000Y-43600000D02*
X105050000Y-45200000D01*
X105050000Y-45200000D02*
X104250000Y-45200000D01*
X116150000Y-37600000D02*
X104250000Y-37600000D01*
X116150000Y-45200000D02*
X116150000Y-37600000D01*
X104250000Y-45200000D02*
X104250000Y-37600000D01*
X113700000Y-43600000D02*
X113200000Y-42892893D01*
X113200000Y-42892893D02*
X112700000Y-43600000D01*
D11*
X134766666Y-85452380D02*
X134766666Y-86166666D01*
X134719047Y-86309523D01*
X134623809Y-86404761D01*
X134480952Y-86452380D01*
X134385714Y-86452380D01*
X135242857Y-86452380D02*
X135242857Y-85452380D01*
X135623809Y-85452380D01*
X135719047Y-85500000D01*
X135766666Y-85547619D01*
X135814285Y-85642857D01*
X135814285Y-85785714D01*
X135766666Y-85880952D01*
X135719047Y-85928571D01*
X135623809Y-85976190D01*
X135242857Y-85976190D01*
X136195238Y-85547619D02*
X136242857Y-85500000D01*
X136338095Y-85452380D01*
X136576190Y-85452380D01*
X136671428Y-85500000D01*
X136719047Y-85547619D01*
X136766666Y-85642857D01*
X136766666Y-85738095D01*
X136719047Y-85880952D01*
X136147619Y-86452380D01*
X136766666Y-86452380D01*
X101452380Y-91933333D02*
X102166666Y-91933333D01*
X102309523Y-91980952D01*
X102404761Y-92076190D01*
X102452380Y-92219047D01*
X102452380Y-92314285D01*
X102452380Y-91457142D02*
X101452380Y-91457142D01*
X101452380Y-91076190D01*
X101500000Y-90980952D01*
X101547619Y-90933333D01*
X101642857Y-90885714D01*
X101785714Y-90885714D01*
X101880952Y-90933333D01*
X101928571Y-90980952D01*
X101976190Y-91076190D01*
X101976190Y-91457142D01*
X101452380Y-90552380D02*
X101452380Y-89933333D01*
X101833333Y-90266666D01*
X101833333Y-90123809D01*
X101880952Y-90028571D01*
X101928571Y-89980952D01*
X102023809Y-89933333D01*
X102261904Y-89933333D01*
X102357142Y-89980952D01*
X102404761Y-90028571D01*
X102452380Y-90123809D01*
X102452380Y-90409523D01*
X102404761Y-90504761D01*
X102357142Y-90552380D01*
X80466666Y-68152380D02*
X80466666Y-68866666D01*
X80419047Y-69009523D01*
X80323809Y-69104761D01*
X80180952Y-69152380D01*
X80085714Y-69152380D01*
X80942857Y-69152380D02*
X80942857Y-68152380D01*
X81323809Y-68152380D01*
X81419047Y-68200000D01*
X81466666Y-68247619D01*
X81514285Y-68342857D01*
X81514285Y-68485714D01*
X81466666Y-68580952D01*
X81419047Y-68628571D01*
X81323809Y-68676190D01*
X80942857Y-68676190D01*
X82466666Y-69152380D02*
X81895238Y-69152380D01*
X82180952Y-69152380D02*
X82180952Y-68152380D01*
X82085714Y-68295238D01*
X81990476Y-68390476D01*
X81895238Y-68438095D01*
X121996666Y-91984761D02*
X122139523Y-92032380D01*
X122377619Y-92032380D01*
X122472857Y-91984761D01*
X122520476Y-91937142D01*
X122568095Y-91841904D01*
X122568095Y-91746666D01*
X122520476Y-91651428D01*
X122472857Y-91603809D01*
X122377619Y-91556190D01*
X122187142Y-91508571D01*
X122091904Y-91460952D01*
X122044285Y-91413333D01*
X121996666Y-91318095D01*
X121996666Y-91222857D01*
X122044285Y-91127619D01*
X122091904Y-91080000D01*
X122187142Y-91032380D01*
X122425238Y-91032380D01*
X122568095Y-91080000D01*
X122901428Y-91032380D02*
X123139523Y-92032380D01*
X123330000Y-91318095D01*
X123520476Y-92032380D01*
X123758571Y-91032380D01*
X124044285Y-91032380D02*
X124663333Y-91032380D01*
X124330000Y-91413333D01*
X124472857Y-91413333D01*
X124568095Y-91460952D01*
X124615714Y-91508571D01*
X124663333Y-91603809D01*
X124663333Y-91841904D01*
X124615714Y-91937142D01*
X124568095Y-91984761D01*
X124472857Y-92032380D01*
X124187142Y-92032380D01*
X124091904Y-91984761D01*
X124044285Y-91937142D01*
X134052380Y-78833333D02*
X134766666Y-78833333D01*
X134909523Y-78880952D01*
X135004761Y-78976190D01*
X135052380Y-79119047D01*
X135052380Y-79214285D01*
X134052380Y-77880952D02*
X134052380Y-78357142D01*
X134528571Y-78404761D01*
X134480952Y-78357142D01*
X134433333Y-78261904D01*
X134433333Y-78023809D01*
X134480952Y-77928571D01*
X134528571Y-77880952D01*
X134623809Y-77833333D01*
X134861904Y-77833333D01*
X134957142Y-77880952D01*
X135004761Y-77928571D01*
X135052380Y-78023809D01*
X135052380Y-78261904D01*
X135004761Y-78357142D01*
X134957142Y-78404761D01*
D13*
X109535714Y-50520952D02*
X109535714Y-50120952D01*
X109630952Y-50120952D01*
X109688095Y-50140000D01*
X109726190Y-50178095D01*
X109745238Y-50216190D01*
X109764285Y-50292380D01*
X109764285Y-50349523D01*
X109745238Y-50425714D01*
X109726190Y-50463809D01*
X109688095Y-50501904D01*
X109630952Y-50520952D01*
X109535714Y-50520952D01*
X109935714Y-50520952D02*
X109935714Y-50120952D01*
X110164285Y-50520952D01*
X110164285Y-50120952D01*
X110354761Y-50520952D02*
X110354761Y-50120952D01*
X110507142Y-50120952D01*
X110545238Y-50140000D01*
X110564285Y-50159047D01*
X110583333Y-50197142D01*
X110583333Y-50254285D01*
X110564285Y-50292380D01*
X110545238Y-50311428D01*
X110507142Y-50330476D01*
X110354761Y-50330476D01*
X130780952Y-70957142D02*
X130590476Y-71090476D01*
X130780952Y-71185714D02*
X130380952Y-71185714D01*
X130380952Y-71033333D01*
X130400000Y-70995238D01*
X130419047Y-70976190D01*
X130457142Y-70957142D01*
X130514285Y-70957142D01*
X130552380Y-70976190D01*
X130571428Y-70995238D01*
X130590476Y-71033333D01*
X130590476Y-71185714D01*
X130419047Y-70804761D02*
X130400000Y-70785714D01*
X130380952Y-70747619D01*
X130380952Y-70652380D01*
X130400000Y-70614285D01*
X130419047Y-70595238D01*
X130457142Y-70576190D01*
X130495238Y-70576190D01*
X130552380Y-70595238D01*
X130780952Y-70823809D01*
X130780952Y-70576190D01*
X130380952Y-70214285D02*
X130380952Y-70404761D01*
X130571428Y-70423809D01*
X130552380Y-70404761D01*
X130533333Y-70366666D01*
X130533333Y-70271428D01*
X130552380Y-70233333D01*
X130571428Y-70214285D01*
X130609523Y-70195238D01*
X130704761Y-70195238D01*
X130742857Y-70214285D01*
X130761904Y-70233333D01*
X130780952Y-70271428D01*
X130780952Y-70366666D01*
X130761904Y-70404761D01*
X130742857Y-70423809D01*
X129080952Y-70957142D02*
X128890476Y-71090476D01*
X129080952Y-71185714D02*
X128680952Y-71185714D01*
X128680952Y-71033333D01*
X128700000Y-70995238D01*
X128719047Y-70976190D01*
X128757142Y-70957142D01*
X128814285Y-70957142D01*
X128852380Y-70976190D01*
X128871428Y-70995238D01*
X128890476Y-71033333D01*
X128890476Y-71185714D01*
X128719047Y-70804761D02*
X128700000Y-70785714D01*
X128680952Y-70747619D01*
X128680952Y-70652380D01*
X128700000Y-70614285D01*
X128719047Y-70595238D01*
X128757142Y-70576190D01*
X128795238Y-70576190D01*
X128852380Y-70595238D01*
X129080952Y-70823809D01*
X129080952Y-70576190D01*
X128814285Y-70233333D02*
X129080952Y-70233333D01*
X128661904Y-70328571D02*
X128947619Y-70423809D01*
X128947619Y-70176190D01*
D14*
X129413333Y-85954285D02*
X129246666Y-85954285D01*
X129246666Y-86216190D02*
X129246666Y-85716190D01*
X129484761Y-85716190D01*
X129937142Y-86216190D02*
X129651428Y-86216190D01*
X129794285Y-86216190D02*
X129794285Y-85716190D01*
X129746666Y-85787619D01*
X129699047Y-85835238D01*
X129651428Y-85859047D01*
D13*
X129523333Y-88062857D02*
X129504285Y-88081904D01*
X129447142Y-88100952D01*
X129409047Y-88100952D01*
X129351904Y-88081904D01*
X129313809Y-88043809D01*
X129294761Y-88005714D01*
X129275714Y-87929523D01*
X129275714Y-87872380D01*
X129294761Y-87796190D01*
X129313809Y-87758095D01*
X129351904Y-87720000D01*
X129409047Y-87700952D01*
X129447142Y-87700952D01*
X129504285Y-87720000D01*
X129523333Y-87739047D01*
X129675714Y-87739047D02*
X129694761Y-87720000D01*
X129732857Y-87700952D01*
X129828095Y-87700952D01*
X129866190Y-87720000D01*
X129885238Y-87739047D01*
X129904285Y-87777142D01*
X129904285Y-87815238D01*
X129885238Y-87872380D01*
X129656666Y-88100952D01*
X129904285Y-88100952D01*
D11*
X76692857Y-45197619D02*
X77169047Y-45197619D01*
X77169047Y-46197619D01*
X76407142Y-45245238D02*
X76264285Y-45197619D01*
X76026190Y-45197619D01*
X75930952Y-45245238D01*
X75883333Y-45292857D01*
X75835714Y-45388095D01*
X75835714Y-45483333D01*
X75883333Y-45578571D01*
X75930952Y-45626190D01*
X76026190Y-45673809D01*
X76216666Y-45721428D01*
X76311904Y-45769047D01*
X76359523Y-45816666D01*
X76407142Y-45911904D01*
X76407142Y-46007142D01*
X76359523Y-46102380D01*
X76311904Y-46150000D01*
X76216666Y-46197619D01*
X75978571Y-46197619D01*
X75835714Y-46150000D01*
X74883333Y-45197619D02*
X75454761Y-45197619D01*
X75169047Y-45197619D02*
X75169047Y-46197619D01*
X75264285Y-46054761D01*
X75359523Y-45959523D01*
X75454761Y-45911904D01*
D13*
X58942857Y-62180952D02*
X58809523Y-61990476D01*
X58714285Y-62180952D02*
X58714285Y-61780952D01*
X58866666Y-61780952D01*
X58904761Y-61800000D01*
X58923809Y-61819047D01*
X58942857Y-61857142D01*
X58942857Y-61914285D01*
X58923809Y-61952380D01*
X58904761Y-61971428D01*
X58866666Y-61990476D01*
X58714285Y-61990476D01*
X59095238Y-61819047D02*
X59114285Y-61800000D01*
X59152380Y-61780952D01*
X59247619Y-61780952D01*
X59285714Y-61800000D01*
X59304761Y-61819047D01*
X59323809Y-61857142D01*
X59323809Y-61895238D01*
X59304761Y-61952380D01*
X59076190Y-62180952D01*
X59323809Y-62180952D01*
X59457142Y-61780952D02*
X59704761Y-61780952D01*
X59571428Y-61933333D01*
X59628571Y-61933333D01*
X59666666Y-61952380D01*
X59685714Y-61971428D01*
X59704761Y-62009523D01*
X59704761Y-62104761D01*
X59685714Y-62142857D01*
X59666666Y-62161904D01*
X59628571Y-62180952D01*
X59514285Y-62180952D01*
X59476190Y-62161904D01*
X59457142Y-62142857D01*
X130392857Y-91480952D02*
X130259523Y-91290476D01*
X130164285Y-91480952D02*
X130164285Y-91080952D01*
X130316666Y-91080952D01*
X130354761Y-91100000D01*
X130373809Y-91119047D01*
X130392857Y-91157142D01*
X130392857Y-91214285D01*
X130373809Y-91252380D01*
X130354761Y-91271428D01*
X130316666Y-91290476D01*
X130164285Y-91290476D01*
X130545238Y-91119047D02*
X130564285Y-91100000D01*
X130602380Y-91080952D01*
X130697619Y-91080952D01*
X130735714Y-91100000D01*
X130754761Y-91119047D01*
X130773809Y-91157142D01*
X130773809Y-91195238D01*
X130754761Y-91252380D01*
X130526190Y-91480952D01*
X130773809Y-91480952D01*
X130926190Y-91119047D02*
X130945238Y-91100000D01*
X130983333Y-91080952D01*
X131078571Y-91080952D01*
X131116666Y-91100000D01*
X131135714Y-91119047D01*
X131154761Y-91157142D01*
X131154761Y-91195238D01*
X131135714Y-91252380D01*
X130907142Y-91480952D01*
X131154761Y-91480952D01*
X83092857Y-75630952D02*
X82959523Y-75440476D01*
X82864285Y-75630952D02*
X82864285Y-75230952D01*
X83016666Y-75230952D01*
X83054761Y-75250000D01*
X83073809Y-75269047D01*
X83092857Y-75307142D01*
X83092857Y-75364285D01*
X83073809Y-75402380D01*
X83054761Y-75421428D01*
X83016666Y-75440476D01*
X82864285Y-75440476D01*
X83245238Y-75269047D02*
X83264285Y-75250000D01*
X83302380Y-75230952D01*
X83397619Y-75230952D01*
X83435714Y-75250000D01*
X83454761Y-75269047D01*
X83473809Y-75307142D01*
X83473809Y-75345238D01*
X83454761Y-75402380D01*
X83226190Y-75630952D01*
X83473809Y-75630952D01*
X83854761Y-75630952D02*
X83626190Y-75630952D01*
X83740476Y-75630952D02*
X83740476Y-75230952D01*
X83702380Y-75288095D01*
X83664285Y-75326190D01*
X83626190Y-75345238D01*
X83092857Y-74130952D02*
X82959523Y-73940476D01*
X82864285Y-74130952D02*
X82864285Y-73730952D01*
X83016666Y-73730952D01*
X83054761Y-73750000D01*
X83073809Y-73769047D01*
X83092857Y-73807142D01*
X83092857Y-73864285D01*
X83073809Y-73902380D01*
X83054761Y-73921428D01*
X83016666Y-73940476D01*
X82864285Y-73940476D01*
X83245238Y-73769047D02*
X83264285Y-73750000D01*
X83302380Y-73730952D01*
X83397619Y-73730952D01*
X83435714Y-73750000D01*
X83454761Y-73769047D01*
X83473809Y-73807142D01*
X83473809Y-73845238D01*
X83454761Y-73902380D01*
X83226190Y-74130952D01*
X83473809Y-74130952D01*
X83721428Y-73730952D02*
X83759523Y-73730952D01*
X83797619Y-73750000D01*
X83816666Y-73769047D01*
X83835714Y-73807142D01*
X83854761Y-73883333D01*
X83854761Y-73978571D01*
X83835714Y-74054761D01*
X83816666Y-74092857D01*
X83797619Y-74111904D01*
X83759523Y-74130952D01*
X83721428Y-74130952D01*
X83683333Y-74111904D01*
X83664285Y-74092857D01*
X83645238Y-74054761D01*
X83626190Y-73978571D01*
X83626190Y-73883333D01*
X83645238Y-73807142D01*
X83664285Y-73769047D01*
X83683333Y-73750000D01*
X83721428Y-73730952D01*
X83092857Y-72630952D02*
X82959523Y-72440476D01*
X82864285Y-72630952D02*
X82864285Y-72230952D01*
X83016666Y-72230952D01*
X83054761Y-72250000D01*
X83073809Y-72269047D01*
X83092857Y-72307142D01*
X83092857Y-72364285D01*
X83073809Y-72402380D01*
X83054761Y-72421428D01*
X83016666Y-72440476D01*
X82864285Y-72440476D01*
X83473809Y-72630952D02*
X83245238Y-72630952D01*
X83359523Y-72630952D02*
X83359523Y-72230952D01*
X83321428Y-72288095D01*
X83283333Y-72326190D01*
X83245238Y-72345238D01*
X83664285Y-72630952D02*
X83740476Y-72630952D01*
X83778571Y-72611904D01*
X83797619Y-72592857D01*
X83835714Y-72535714D01*
X83854761Y-72459523D01*
X83854761Y-72307142D01*
X83835714Y-72269047D01*
X83816666Y-72250000D01*
X83778571Y-72230952D01*
X83702380Y-72230952D01*
X83664285Y-72250000D01*
X83645238Y-72269047D01*
X83626190Y-72307142D01*
X83626190Y-72402380D01*
X83645238Y-72440476D01*
X83664285Y-72459523D01*
X83702380Y-72478571D01*
X83778571Y-72478571D01*
X83816666Y-72459523D01*
X83835714Y-72440476D01*
X83854761Y-72402380D01*
X79492857Y-71280952D02*
X79359523Y-71090476D01*
X79264285Y-71280952D02*
X79264285Y-70880952D01*
X79416666Y-70880952D01*
X79454761Y-70900000D01*
X79473809Y-70919047D01*
X79492857Y-70957142D01*
X79492857Y-71014285D01*
X79473809Y-71052380D01*
X79454761Y-71071428D01*
X79416666Y-71090476D01*
X79264285Y-71090476D01*
X79873809Y-71280952D02*
X79645238Y-71280952D01*
X79759523Y-71280952D02*
X79759523Y-70880952D01*
X79721428Y-70938095D01*
X79683333Y-70976190D01*
X79645238Y-70995238D01*
X80102380Y-71052380D02*
X80064285Y-71033333D01*
X80045238Y-71014285D01*
X80026190Y-70976190D01*
X80026190Y-70957142D01*
X80045238Y-70919047D01*
X80064285Y-70900000D01*
X80102380Y-70880952D01*
X80178571Y-70880952D01*
X80216666Y-70900000D01*
X80235714Y-70919047D01*
X80254761Y-70957142D01*
X80254761Y-70976190D01*
X80235714Y-71014285D01*
X80216666Y-71033333D01*
X80178571Y-71052380D01*
X80102380Y-71052380D01*
X80064285Y-71071428D01*
X80045238Y-71090476D01*
X80026190Y-71128571D01*
X80026190Y-71204761D01*
X80045238Y-71242857D01*
X80064285Y-71261904D01*
X80102380Y-71280952D01*
X80178571Y-71280952D01*
X80216666Y-71261904D01*
X80235714Y-71242857D01*
X80254761Y-71204761D01*
X80254761Y-71128571D01*
X80235714Y-71090476D01*
X80216666Y-71071428D01*
X80178571Y-71052380D01*
X47542857Y-62230952D02*
X47409523Y-62040476D01*
X47314285Y-62230952D02*
X47314285Y-61830952D01*
X47466666Y-61830952D01*
X47504761Y-61850000D01*
X47523809Y-61869047D01*
X47542857Y-61907142D01*
X47542857Y-61964285D01*
X47523809Y-62002380D01*
X47504761Y-62021428D01*
X47466666Y-62040476D01*
X47314285Y-62040476D01*
X47923809Y-62230952D02*
X47695238Y-62230952D01*
X47809523Y-62230952D02*
X47809523Y-61830952D01*
X47771428Y-61888095D01*
X47733333Y-61926190D01*
X47695238Y-61945238D01*
X48304761Y-62230952D02*
X48076190Y-62230952D01*
X48190476Y-62230952D02*
X48190476Y-61830952D01*
X48152380Y-61888095D01*
X48114285Y-61926190D01*
X48076190Y-61945238D01*
X54133333Y-62180952D02*
X54000000Y-61990476D01*
X53904761Y-62180952D02*
X53904761Y-61780952D01*
X54057142Y-61780952D01*
X54095238Y-61800000D01*
X54114285Y-61819047D01*
X54133333Y-61857142D01*
X54133333Y-61914285D01*
X54114285Y-61952380D01*
X54095238Y-61971428D01*
X54057142Y-61990476D01*
X53904761Y-61990476D01*
X54266666Y-61780952D02*
X54533333Y-61780952D01*
X54361904Y-62180952D01*
D15*
X80073809Y-73997619D02*
X80050000Y-74045238D01*
X80002380Y-74092857D01*
X79930952Y-74164285D01*
X79907142Y-74211904D01*
X79907142Y-74259523D01*
X80026190Y-74235714D02*
X80002380Y-74283333D01*
X79954761Y-74330952D01*
X79859523Y-74354761D01*
X79692857Y-74354761D01*
X79597619Y-74330952D01*
X79550000Y-74283333D01*
X79526190Y-74235714D01*
X79526190Y-74140476D01*
X79550000Y-74092857D01*
X79597619Y-74045238D01*
X79692857Y-74021428D01*
X79859523Y-74021428D01*
X79954761Y-74045238D01*
X80002380Y-74092857D01*
X80026190Y-74140476D01*
X80026190Y-74235714D01*
X79692857Y-73592857D02*
X80026190Y-73592857D01*
X79502380Y-73711904D02*
X79859523Y-73830952D01*
X79859523Y-73521428D01*
D11*
X54666666Y-42452380D02*
X54666666Y-43166666D01*
X54619047Y-43309523D01*
X54523809Y-43404761D01*
X54380952Y-43452380D01*
X54285714Y-43452380D01*
X55095238Y-42547619D02*
X55142857Y-42500000D01*
X55238095Y-42452380D01*
X55476190Y-42452380D01*
X55571428Y-42500000D01*
X55619047Y-42547619D01*
X55666666Y-42642857D01*
X55666666Y-42738095D01*
X55619047Y-42880952D01*
X55047619Y-43452380D01*
X55666666Y-43452380D01*
D13*
X130404761Y-93180952D02*
X130404761Y-92780952D01*
X130500000Y-92780952D01*
X130557142Y-92800000D01*
X130595238Y-92838095D01*
X130614285Y-92876190D01*
X130633333Y-92952380D01*
X130633333Y-93009523D01*
X130614285Y-93085714D01*
X130595238Y-93123809D01*
X130557142Y-93161904D01*
X130500000Y-93180952D01*
X130404761Y-93180952D01*
X130766666Y-92780952D02*
X131014285Y-92780952D01*
X130880952Y-92933333D01*
X130938095Y-92933333D01*
X130976190Y-92952380D01*
X130995238Y-92971428D01*
X131014285Y-93009523D01*
X131014285Y-93104761D01*
X130995238Y-93142857D01*
X130976190Y-93161904D01*
X130938095Y-93180952D01*
X130823809Y-93180952D01*
X130785714Y-93161904D01*
X130766666Y-93142857D01*
D11*
X110146666Y-87622380D02*
X110146666Y-88336666D01*
X110099047Y-88479523D01*
X110003809Y-88574761D01*
X109860952Y-88622380D01*
X109765714Y-88622380D01*
X110527619Y-87622380D02*
X111146666Y-87622380D01*
X110813333Y-88003333D01*
X110956190Y-88003333D01*
X111051428Y-88050952D01*
X111099047Y-88098571D01*
X111146666Y-88193809D01*
X111146666Y-88431904D01*
X111099047Y-88527142D01*
X111051428Y-88574761D01*
X110956190Y-88622380D01*
X110670476Y-88622380D01*
X110575238Y-88574761D01*
X110527619Y-88527142D01*
D13*
X119172857Y-79052857D02*
X119153809Y-79071904D01*
X119096666Y-79090952D01*
X119058571Y-79090952D01*
X119001428Y-79071904D01*
X118963333Y-79033809D01*
X118944285Y-78995714D01*
X118925238Y-78919523D01*
X118925238Y-78862380D01*
X118944285Y-78786190D01*
X118963333Y-78748095D01*
X119001428Y-78710000D01*
X119058571Y-78690952D01*
X119096666Y-78690952D01*
X119153809Y-78710000D01*
X119172857Y-78729047D01*
X119553809Y-79090952D02*
X119325238Y-79090952D01*
X119439523Y-79090952D02*
X119439523Y-78690952D01*
X119401428Y-78748095D01*
X119363333Y-78786190D01*
X119325238Y-78805238D01*
X119801428Y-78690952D02*
X119839523Y-78690952D01*
X119877619Y-78710000D01*
X119896666Y-78729047D01*
X119915714Y-78767142D01*
X119934761Y-78843333D01*
X119934761Y-78938571D01*
X119915714Y-79014761D01*
X119896666Y-79052857D01*
X119877619Y-79071904D01*
X119839523Y-79090952D01*
X119801428Y-79090952D01*
X119763333Y-79071904D01*
X119744285Y-79052857D01*
X119725238Y-79014761D01*
X119706190Y-78938571D01*
X119706190Y-78843333D01*
X119725238Y-78767142D01*
X119744285Y-78729047D01*
X119763333Y-78710000D01*
X119801428Y-78690952D01*
D11*
X90728571Y-66843333D02*
X90728571Y-67176666D01*
X91252380Y-67176666D02*
X90252380Y-67176666D01*
X90252380Y-66700476D01*
X91252380Y-66319523D02*
X90252380Y-66319523D01*
X90252380Y-65938571D01*
X90300000Y-65843333D01*
X90347619Y-65795714D01*
X90442857Y-65748095D01*
X90585714Y-65748095D01*
X90680952Y-65795714D01*
X90728571Y-65843333D01*
X90776190Y-65938571D01*
X90776190Y-66319523D01*
X91157142Y-64748095D02*
X91204761Y-64795714D01*
X91252380Y-64938571D01*
X91252380Y-65033809D01*
X91204761Y-65176666D01*
X91109523Y-65271904D01*
X91014285Y-65319523D01*
X90823809Y-65367142D01*
X90680952Y-65367142D01*
X90490476Y-65319523D01*
X90395238Y-65271904D01*
X90300000Y-65176666D01*
X90252380Y-65033809D01*
X90252380Y-64938571D01*
X90300000Y-64795714D01*
X90347619Y-64748095D01*
X91252380Y-63795714D02*
X91252380Y-64367142D01*
X91252380Y-64081428D02*
X90252380Y-64081428D01*
X90395238Y-64176666D01*
X90490476Y-64271904D01*
X90538095Y-64367142D01*
X42404761Y-56733333D02*
X42452380Y-56590476D01*
X42452380Y-56352380D01*
X42404761Y-56257142D01*
X42357142Y-56209523D01*
X42261904Y-56161904D01*
X42166666Y-56161904D01*
X42071428Y-56209523D01*
X42023809Y-56257142D01*
X41976190Y-56352380D01*
X41928571Y-56542857D01*
X41880952Y-56638095D01*
X41833333Y-56685714D01*
X41738095Y-56733333D01*
X41642857Y-56733333D01*
X41547619Y-56685714D01*
X41500000Y-56638095D01*
X41452380Y-56542857D01*
X41452380Y-56304761D01*
X41500000Y-56161904D01*
X41452380Y-55828571D02*
X42452380Y-55590476D01*
X41738095Y-55400000D01*
X42452380Y-55209523D01*
X41452380Y-54971428D01*
X42452380Y-54066666D02*
X42452380Y-54638095D01*
X42452380Y-54352380D02*
X41452380Y-54352380D01*
X41595238Y-54447619D01*
X41690476Y-54542857D01*
X41738095Y-54638095D01*
X42304761Y-48133333D02*
X42352380Y-47990476D01*
X42352380Y-47752380D01*
X42304761Y-47657142D01*
X42257142Y-47609523D01*
X42161904Y-47561904D01*
X42066666Y-47561904D01*
X41971428Y-47609523D01*
X41923809Y-47657142D01*
X41876190Y-47752380D01*
X41828571Y-47942857D01*
X41780952Y-48038095D01*
X41733333Y-48085714D01*
X41638095Y-48133333D01*
X41542857Y-48133333D01*
X41447619Y-48085714D01*
X41400000Y-48038095D01*
X41352380Y-47942857D01*
X41352380Y-47704761D01*
X41400000Y-47561904D01*
X41352380Y-47228571D02*
X42352380Y-46990476D01*
X41638095Y-46800000D01*
X42352380Y-46609523D01*
X41352380Y-46371428D01*
X41447619Y-46038095D02*
X41400000Y-45990476D01*
X41352380Y-45895238D01*
X41352380Y-45657142D01*
X41400000Y-45561904D01*
X41447619Y-45514285D01*
X41542857Y-45466666D01*
X41638095Y-45466666D01*
X41780952Y-45514285D01*
X42352380Y-46085714D01*
X42352380Y-45466666D01*
X53352380Y-75661904D02*
X54161904Y-75661904D01*
X54257142Y-75614285D01*
X54304761Y-75566666D01*
X54352380Y-75471428D01*
X54352380Y-75280952D01*
X54304761Y-75185714D01*
X54257142Y-75138095D01*
X54161904Y-75090476D01*
X53352380Y-75090476D01*
X53685714Y-74185714D02*
X54352380Y-74185714D01*
X53304761Y-74423809D02*
X54019047Y-74661904D01*
X54019047Y-74042857D01*
D13*
X125642857Y-76266666D02*
X125661904Y-76285714D01*
X125680952Y-76342857D01*
X125680952Y-76380952D01*
X125661904Y-76438095D01*
X125623809Y-76476190D01*
X125585714Y-76495238D01*
X125509523Y-76514285D01*
X125452380Y-76514285D01*
X125376190Y-76495238D01*
X125338095Y-76476190D01*
X125300000Y-76438095D01*
X125280952Y-76380952D01*
X125280952Y-76342857D01*
X125300000Y-76285714D01*
X125319047Y-76266666D01*
X125680952Y-75885714D02*
X125680952Y-76114285D01*
X125680952Y-76000000D02*
X125280952Y-76000000D01*
X125338095Y-76038095D01*
X125376190Y-76076190D01*
X125395238Y-76114285D01*
D16*
X117596666Y-83965714D02*
X117558571Y-84003809D01*
X117444285Y-84041904D01*
X117368095Y-84041904D01*
X117253809Y-84003809D01*
X117177619Y-83927619D01*
X117139523Y-83851428D01*
X117101428Y-83699047D01*
X117101428Y-83584761D01*
X117139523Y-83432380D01*
X117177619Y-83356190D01*
X117253809Y-83280000D01*
X117368095Y-83241904D01*
X117444285Y-83241904D01*
X117558571Y-83280000D01*
X117596666Y-83318095D01*
X118282380Y-83508571D02*
X118282380Y-84041904D01*
X118091904Y-83203809D02*
X117901428Y-83775238D01*
X118396666Y-83775238D01*
X109756666Y-75855714D02*
X109718571Y-75893809D01*
X109604285Y-75931904D01*
X109528095Y-75931904D01*
X109413809Y-75893809D01*
X109337619Y-75817619D01*
X109299523Y-75741428D01*
X109261428Y-75589047D01*
X109261428Y-75474761D01*
X109299523Y-75322380D01*
X109337619Y-75246190D01*
X109413809Y-75170000D01*
X109528095Y-75131904D01*
X109604285Y-75131904D01*
X109718571Y-75170000D01*
X109756666Y-75208095D01*
X110480476Y-75131904D02*
X110099523Y-75131904D01*
X110061428Y-75512857D01*
X110099523Y-75474761D01*
X110175714Y-75436666D01*
X110366190Y-75436666D01*
X110442380Y-75474761D01*
X110480476Y-75512857D01*
X110518571Y-75589047D01*
X110518571Y-75779523D01*
X110480476Y-75855714D01*
X110442380Y-75893809D01*
X110366190Y-75931904D01*
X110175714Y-75931904D01*
X110099523Y-75893809D01*
X110061428Y-75855714D01*
D13*
X47442857Y-86466666D02*
X47461904Y-86485714D01*
X47480952Y-86542857D01*
X47480952Y-86580952D01*
X47461904Y-86638095D01*
X47423809Y-86676190D01*
X47385714Y-86695238D01*
X47309523Y-86714285D01*
X47252380Y-86714285D01*
X47176190Y-86695238D01*
X47138095Y-86676190D01*
X47100000Y-86638095D01*
X47080952Y-86580952D01*
X47080952Y-86542857D01*
X47100000Y-86485714D01*
X47119047Y-86466666D01*
X47080952Y-86123809D02*
X47080952Y-86200000D01*
X47100000Y-86238095D01*
X47119047Y-86257142D01*
X47176190Y-86295238D01*
X47252380Y-86314285D01*
X47404761Y-86314285D01*
X47442857Y-86295238D01*
X47461904Y-86276190D01*
X47480952Y-86238095D01*
X47480952Y-86161904D01*
X47461904Y-86123809D01*
X47442857Y-86104761D01*
X47404761Y-86085714D01*
X47309523Y-86085714D01*
X47271428Y-86104761D01*
X47252380Y-86123809D01*
X47233333Y-86161904D01*
X47233333Y-86238095D01*
X47252380Y-86276190D01*
X47271428Y-86295238D01*
X47309523Y-86314285D01*
X109893333Y-73652857D02*
X109874285Y-73671904D01*
X109817142Y-73690952D01*
X109779047Y-73690952D01*
X109721904Y-73671904D01*
X109683809Y-73633809D01*
X109664761Y-73595714D01*
X109645714Y-73519523D01*
X109645714Y-73462380D01*
X109664761Y-73386190D01*
X109683809Y-73348095D01*
X109721904Y-73310000D01*
X109779047Y-73290952D01*
X109817142Y-73290952D01*
X109874285Y-73310000D01*
X109893333Y-73329047D01*
X110026666Y-73290952D02*
X110293333Y-73290952D01*
X110121904Y-73690952D01*
X50942857Y-86466666D02*
X50961904Y-86485714D01*
X50980952Y-86542857D01*
X50980952Y-86580952D01*
X50961904Y-86638095D01*
X50923809Y-86676190D01*
X50885714Y-86695238D01*
X50809523Y-86714285D01*
X50752380Y-86714285D01*
X50676190Y-86695238D01*
X50638095Y-86676190D01*
X50600000Y-86638095D01*
X50580952Y-86580952D01*
X50580952Y-86542857D01*
X50600000Y-86485714D01*
X50619047Y-86466666D01*
X50752380Y-86238095D02*
X50733333Y-86276190D01*
X50714285Y-86295238D01*
X50676190Y-86314285D01*
X50657142Y-86314285D01*
X50619047Y-86295238D01*
X50600000Y-86276190D01*
X50580952Y-86238095D01*
X50580952Y-86161904D01*
X50600000Y-86123809D01*
X50619047Y-86104761D01*
X50657142Y-86085714D01*
X50676190Y-86085714D01*
X50714285Y-86104761D01*
X50733333Y-86123809D01*
X50752380Y-86161904D01*
X50752380Y-86238095D01*
X50771428Y-86276190D01*
X50790476Y-86295238D01*
X50828571Y-86314285D01*
X50904761Y-86314285D01*
X50942857Y-86295238D01*
X50961904Y-86276190D01*
X50980952Y-86238095D01*
X50980952Y-86161904D01*
X50961904Y-86123809D01*
X50942857Y-86104761D01*
X50904761Y-86085714D01*
X50828571Y-86085714D01*
X50790476Y-86104761D01*
X50771428Y-86123809D01*
X50752380Y-86161904D01*
X109733333Y-82062857D02*
X109714285Y-82081904D01*
X109657142Y-82100952D01*
X109619047Y-82100952D01*
X109561904Y-82081904D01*
X109523809Y-82043809D01*
X109504761Y-82005714D01*
X109485714Y-81929523D01*
X109485714Y-81872380D01*
X109504761Y-81796190D01*
X109523809Y-81758095D01*
X109561904Y-81720000D01*
X109619047Y-81700952D01*
X109657142Y-81700952D01*
X109714285Y-81720000D01*
X109733333Y-81739047D01*
X109923809Y-82100952D02*
X110000000Y-82100952D01*
X110038095Y-82081904D01*
X110057142Y-82062857D01*
X110095238Y-82005714D01*
X110114285Y-81929523D01*
X110114285Y-81777142D01*
X110095238Y-81739047D01*
X110076190Y-81720000D01*
X110038095Y-81700952D01*
X109961904Y-81700952D01*
X109923809Y-81720000D01*
X109904761Y-81739047D01*
X109885714Y-81777142D01*
X109885714Y-81872380D01*
X109904761Y-81910476D01*
X109923809Y-81929523D01*
X109961904Y-81948571D01*
X110038095Y-81948571D01*
X110076190Y-81929523D01*
X110095238Y-81910476D01*
X110114285Y-81872380D01*
D11*
X123161904Y-80052380D02*
X123161904Y-79052380D01*
X123400000Y-79052380D01*
X123542857Y-79100000D01*
X123638095Y-79195238D01*
X123685714Y-79290476D01*
X123733333Y-79480952D01*
X123733333Y-79623809D01*
X123685714Y-79814285D01*
X123638095Y-79909523D01*
X123542857Y-80004761D01*
X123400000Y-80052380D01*
X123161904Y-80052380D01*
X124685714Y-80052380D02*
X124114285Y-80052380D01*
X124400000Y-80052380D02*
X124400000Y-79052380D01*
X124304761Y-79195238D01*
X124209523Y-79290476D01*
X124114285Y-79338095D01*
D13*
X110374761Y-93140952D02*
X110374761Y-92740952D01*
X110470000Y-92740952D01*
X110527142Y-92760000D01*
X110565238Y-92798095D01*
X110584285Y-92836190D01*
X110603333Y-92912380D01*
X110603333Y-92969523D01*
X110584285Y-93045714D01*
X110565238Y-93083809D01*
X110527142Y-93121904D01*
X110470000Y-93140952D01*
X110374761Y-93140952D01*
X110755714Y-92779047D02*
X110774761Y-92760000D01*
X110812857Y-92740952D01*
X110908095Y-92740952D01*
X110946190Y-92760000D01*
X110965238Y-92779047D01*
X110984285Y-92817142D01*
X110984285Y-92855238D01*
X110965238Y-92912380D01*
X110736666Y-93140952D01*
X110984285Y-93140952D01*
D11*
X112528571Y-59403333D02*
X112528571Y-59736666D01*
X113052380Y-59736666D02*
X112052380Y-59736666D01*
X112052380Y-59260476D01*
X113052380Y-58879523D02*
X112052380Y-58879523D01*
X112052380Y-58498571D01*
X112100000Y-58403333D01*
X112147619Y-58355714D01*
X112242857Y-58308095D01*
X112385714Y-58308095D01*
X112480952Y-58355714D01*
X112528571Y-58403333D01*
X112576190Y-58498571D01*
X112576190Y-58879523D01*
X112957142Y-57308095D02*
X113004761Y-57355714D01*
X113052380Y-57498571D01*
X113052380Y-57593809D01*
X113004761Y-57736666D01*
X112909523Y-57831904D01*
X112814285Y-57879523D01*
X112623809Y-57927142D01*
X112480952Y-57927142D01*
X112290476Y-57879523D01*
X112195238Y-57831904D01*
X112100000Y-57736666D01*
X112052380Y-57593809D01*
X112052380Y-57498571D01*
X112100000Y-57355714D01*
X112147619Y-57308095D01*
X112147619Y-56927142D02*
X112100000Y-56879523D01*
X112052380Y-56784285D01*
X112052380Y-56546190D01*
X112100000Y-56450952D01*
X112147619Y-56403333D01*
X112242857Y-56355714D01*
X112338095Y-56355714D01*
X112480952Y-56403333D01*
X113052380Y-56974761D01*
X113052380Y-56355714D01*
D15*
X100873809Y-81447619D02*
X100850000Y-81495238D01*
X100802380Y-81542857D01*
X100730952Y-81614285D01*
X100707142Y-81661904D01*
X100707142Y-81709523D01*
X100826190Y-81685714D02*
X100802380Y-81733333D01*
X100754761Y-81780952D01*
X100659523Y-81804761D01*
X100492857Y-81804761D01*
X100397619Y-81780952D01*
X100350000Y-81733333D01*
X100326190Y-81685714D01*
X100326190Y-81590476D01*
X100350000Y-81542857D01*
X100397619Y-81495238D01*
X100492857Y-81471428D01*
X100659523Y-81471428D01*
X100754761Y-81495238D01*
X100802380Y-81542857D01*
X100826190Y-81590476D01*
X100826190Y-81685714D01*
X100826190Y-80995238D02*
X100826190Y-81280952D01*
X100826190Y-81138095D02*
X100326190Y-81138095D01*
X100397619Y-81185714D01*
X100445238Y-81233333D01*
X100469047Y-81280952D01*
X97073809Y-81447619D02*
X97050000Y-81495238D01*
X97002380Y-81542857D01*
X96930952Y-81614285D01*
X96907142Y-81661904D01*
X96907142Y-81709523D01*
X97026190Y-81685714D02*
X97002380Y-81733333D01*
X96954761Y-81780952D01*
X96859523Y-81804761D01*
X96692857Y-81804761D01*
X96597619Y-81780952D01*
X96550000Y-81733333D01*
X96526190Y-81685714D01*
X96526190Y-81590476D01*
X96550000Y-81542857D01*
X96597619Y-81495238D01*
X96692857Y-81471428D01*
X96859523Y-81471428D01*
X96954761Y-81495238D01*
X97002380Y-81542857D01*
X97026190Y-81590476D01*
X97026190Y-81685714D01*
X96573809Y-81280952D02*
X96550000Y-81257142D01*
X96526190Y-81209523D01*
X96526190Y-81090476D01*
X96550000Y-81042857D01*
X96573809Y-81019047D01*
X96621428Y-80995238D01*
X96669047Y-80995238D01*
X96740476Y-81019047D01*
X97026190Y-81304761D01*
X97026190Y-80995238D01*
X117803809Y-86867619D02*
X117780000Y-86915238D01*
X117732380Y-86962857D01*
X117660952Y-87034285D01*
X117637142Y-87081904D01*
X117637142Y-87129523D01*
X117756190Y-87105714D02*
X117732380Y-87153333D01*
X117684761Y-87200952D01*
X117589523Y-87224761D01*
X117422857Y-87224761D01*
X117327619Y-87200952D01*
X117280000Y-87153333D01*
X117256190Y-87105714D01*
X117256190Y-87010476D01*
X117280000Y-86962857D01*
X117327619Y-86915238D01*
X117422857Y-86891428D01*
X117589523Y-86891428D01*
X117684761Y-86915238D01*
X117732380Y-86962857D01*
X117756190Y-87010476D01*
X117756190Y-87105714D01*
X117256190Y-86724761D02*
X117256190Y-86415238D01*
X117446666Y-86581904D01*
X117446666Y-86510476D01*
X117470476Y-86462857D01*
X117494285Y-86439047D01*
X117541904Y-86415238D01*
X117660952Y-86415238D01*
X117708571Y-86439047D01*
X117732380Y-86462857D01*
X117756190Y-86510476D01*
X117756190Y-86653333D01*
X117732380Y-86700952D01*
X117708571Y-86724761D01*
D13*
X125680952Y-72866666D02*
X125490476Y-73000000D01*
X125680952Y-73095238D02*
X125280952Y-73095238D01*
X125280952Y-72942857D01*
X125300000Y-72904761D01*
X125319047Y-72885714D01*
X125357142Y-72866666D01*
X125414285Y-72866666D01*
X125452380Y-72885714D01*
X125471428Y-72904761D01*
X125490476Y-72942857D01*
X125490476Y-73095238D01*
X125680952Y-72485714D02*
X125680952Y-72714285D01*
X125680952Y-72600000D02*
X125280952Y-72600000D01*
X125338095Y-72638095D01*
X125376190Y-72676190D01*
X125395238Y-72714285D01*
X127380952Y-72866666D02*
X127190476Y-73000000D01*
X127380952Y-73095238D02*
X126980952Y-73095238D01*
X126980952Y-72942857D01*
X127000000Y-72904761D01*
X127019047Y-72885714D01*
X127057142Y-72866666D01*
X127114285Y-72866666D01*
X127152380Y-72885714D01*
X127171428Y-72904761D01*
X127190476Y-72942857D01*
X127190476Y-73095238D01*
X127019047Y-72714285D02*
X127000000Y-72695238D01*
X126980952Y-72657142D01*
X126980952Y-72561904D01*
X127000000Y-72523809D01*
X127019047Y-72504761D01*
X127057142Y-72485714D01*
X127095238Y-72485714D01*
X127152380Y-72504761D01*
X127380952Y-72733333D01*
X127380952Y-72485714D01*
X115103333Y-72790952D02*
X114970000Y-72600476D01*
X114874761Y-72790952D02*
X114874761Y-72390952D01*
X115027142Y-72390952D01*
X115065238Y-72410000D01*
X115084285Y-72429047D01*
X115103333Y-72467142D01*
X115103333Y-72524285D01*
X115084285Y-72562380D01*
X115065238Y-72581428D01*
X115027142Y-72600476D01*
X114874761Y-72600476D01*
X115236666Y-72390952D02*
X115484285Y-72390952D01*
X115350952Y-72543333D01*
X115408095Y-72543333D01*
X115446190Y-72562380D01*
X115465238Y-72581428D01*
X115484285Y-72619523D01*
X115484285Y-72714761D01*
X115465238Y-72752857D01*
X115446190Y-72771904D01*
X115408095Y-72790952D01*
X115293809Y-72790952D01*
X115255714Y-72771904D01*
X115236666Y-72752857D01*
X115103333Y-74490952D02*
X114970000Y-74300476D01*
X114874761Y-74490952D02*
X114874761Y-74090952D01*
X115027142Y-74090952D01*
X115065238Y-74110000D01*
X115084285Y-74129047D01*
X115103333Y-74167142D01*
X115103333Y-74224285D01*
X115084285Y-74262380D01*
X115065238Y-74281428D01*
X115027142Y-74300476D01*
X114874761Y-74300476D01*
X115446190Y-74224285D02*
X115446190Y-74490952D01*
X115350952Y-74071904D02*
X115255714Y-74357619D01*
X115503333Y-74357619D01*
X96920833Y-78780952D02*
X96787500Y-78590476D01*
X96692261Y-78780952D02*
X96692261Y-78380952D01*
X96844642Y-78380952D01*
X96882738Y-78400000D01*
X96901785Y-78419047D01*
X96920833Y-78457142D01*
X96920833Y-78514285D01*
X96901785Y-78552380D01*
X96882738Y-78571428D01*
X96844642Y-78590476D01*
X96692261Y-78590476D01*
X97282738Y-78380952D02*
X97092261Y-78380952D01*
X97073214Y-78571428D01*
X97092261Y-78552380D01*
X97130357Y-78533333D01*
X97225595Y-78533333D01*
X97263690Y-78552380D01*
X97282738Y-78571428D01*
X97301785Y-78609523D01*
X97301785Y-78704761D01*
X97282738Y-78742857D01*
X97263690Y-78761904D01*
X97225595Y-78780952D01*
X97130357Y-78780952D01*
X97092261Y-78761904D01*
X97073214Y-78742857D01*
X100733333Y-78780952D02*
X100600000Y-78590476D01*
X100504761Y-78780952D02*
X100504761Y-78380952D01*
X100657142Y-78380952D01*
X100695238Y-78400000D01*
X100714285Y-78419047D01*
X100733333Y-78457142D01*
X100733333Y-78514285D01*
X100714285Y-78552380D01*
X100695238Y-78571428D01*
X100657142Y-78590476D01*
X100504761Y-78590476D01*
X101076190Y-78380952D02*
X101000000Y-78380952D01*
X100961904Y-78400000D01*
X100942857Y-78419047D01*
X100904761Y-78476190D01*
X100885714Y-78552380D01*
X100885714Y-78704761D01*
X100904761Y-78742857D01*
X100923809Y-78761904D01*
X100961904Y-78780952D01*
X101038095Y-78780952D01*
X101076190Y-78761904D01*
X101095238Y-78742857D01*
X101114285Y-78704761D01*
X101114285Y-78609523D01*
X101095238Y-78571428D01*
X101076190Y-78552380D01*
X101038095Y-78533333D01*
X100961904Y-78533333D01*
X100923809Y-78552380D01*
X100904761Y-78571428D01*
X100885714Y-78609523D01*
X49230952Y-86466666D02*
X49040476Y-86600000D01*
X49230952Y-86695238D02*
X48830952Y-86695238D01*
X48830952Y-86542857D01*
X48850000Y-86504761D01*
X48869047Y-86485714D01*
X48907142Y-86466666D01*
X48964285Y-86466666D01*
X49002380Y-86485714D01*
X49021428Y-86504761D01*
X49040476Y-86542857D01*
X49040476Y-86695238D01*
X49002380Y-86238095D02*
X48983333Y-86276190D01*
X48964285Y-86295238D01*
X48926190Y-86314285D01*
X48907142Y-86314285D01*
X48869047Y-86295238D01*
X48850000Y-86276190D01*
X48830952Y-86238095D01*
X48830952Y-86161904D01*
X48850000Y-86123809D01*
X48869047Y-86104761D01*
X48907142Y-86085714D01*
X48926190Y-86085714D01*
X48964285Y-86104761D01*
X48983333Y-86123809D01*
X49002380Y-86161904D01*
X49002380Y-86238095D01*
X49021428Y-86276190D01*
X49040476Y-86295238D01*
X49078571Y-86314285D01*
X49154761Y-86314285D01*
X49192857Y-86295238D01*
X49211904Y-86276190D01*
X49230952Y-86238095D01*
X49230952Y-86161904D01*
X49211904Y-86123809D01*
X49192857Y-86104761D01*
X49154761Y-86085714D01*
X49078571Y-86085714D01*
X49040476Y-86104761D01*
X49021428Y-86123809D01*
X49002380Y-86161904D01*
X125660952Y-85406666D02*
X125470476Y-85540000D01*
X125660952Y-85635238D02*
X125260952Y-85635238D01*
X125260952Y-85482857D01*
X125280000Y-85444761D01*
X125299047Y-85425714D01*
X125337142Y-85406666D01*
X125394285Y-85406666D01*
X125432380Y-85425714D01*
X125451428Y-85444761D01*
X125470476Y-85482857D01*
X125470476Y-85635238D01*
X125660952Y-85216190D02*
X125660952Y-85140000D01*
X125641904Y-85101904D01*
X125622857Y-85082857D01*
X125565714Y-85044761D01*
X125489523Y-85025714D01*
X125337142Y-85025714D01*
X125299047Y-85044761D01*
X125280000Y-85063809D01*
X125260952Y-85101904D01*
X125260952Y-85178095D01*
X125280000Y-85216190D01*
X125299047Y-85235238D01*
X125337142Y-85254285D01*
X125432380Y-85254285D01*
X125470476Y-85235238D01*
X125489523Y-85216190D01*
X125508571Y-85178095D01*
X125508571Y-85101904D01*
X125489523Y-85063809D01*
X125470476Y-85044761D01*
X125432380Y-85025714D01*
X63192857Y-62180952D02*
X63059523Y-61990476D01*
X62964285Y-62180952D02*
X62964285Y-61780952D01*
X63116666Y-61780952D01*
X63154761Y-61800000D01*
X63173809Y-61819047D01*
X63192857Y-61857142D01*
X63192857Y-61914285D01*
X63173809Y-61952380D01*
X63154761Y-61971428D01*
X63116666Y-61990476D01*
X62964285Y-61990476D01*
X63573809Y-62180952D02*
X63345238Y-62180952D01*
X63459523Y-62180952D02*
X63459523Y-61780952D01*
X63421428Y-61838095D01*
X63383333Y-61876190D01*
X63345238Y-61895238D01*
X63821428Y-61780952D02*
X63859523Y-61780952D01*
X63897619Y-61800000D01*
X63916666Y-61819047D01*
X63935714Y-61857142D01*
X63954761Y-61933333D01*
X63954761Y-62028571D01*
X63935714Y-62104761D01*
X63916666Y-62142857D01*
X63897619Y-62161904D01*
X63859523Y-62180952D01*
X63821428Y-62180952D01*
X63783333Y-62161904D01*
X63764285Y-62142857D01*
X63745238Y-62104761D01*
X63726190Y-62028571D01*
X63726190Y-61933333D01*
X63745238Y-61857142D01*
X63764285Y-61819047D01*
X63783333Y-61800000D01*
X63821428Y-61780952D01*
X66980952Y-67744642D02*
X66790476Y-67877976D01*
X66980952Y-67973214D02*
X66580952Y-67973214D01*
X66580952Y-67820833D01*
X66600000Y-67782738D01*
X66619047Y-67763690D01*
X66657142Y-67744642D01*
X66714285Y-67744642D01*
X66752380Y-67763690D01*
X66771428Y-67782738D01*
X66790476Y-67820833D01*
X66790476Y-67973214D01*
X66980952Y-67363690D02*
X66980952Y-67592261D01*
X66980952Y-67477976D02*
X66580952Y-67477976D01*
X66638095Y-67516071D01*
X66676190Y-67554166D01*
X66695238Y-67592261D01*
X66619047Y-67211309D02*
X66600000Y-67192261D01*
X66580952Y-67154166D01*
X66580952Y-67058928D01*
X66600000Y-67020833D01*
X66619047Y-67001785D01*
X66657142Y-66982738D01*
X66695238Y-66982738D01*
X66752380Y-67001785D01*
X66980952Y-67230357D01*
X66980952Y-66982738D01*
X102380952Y-87757142D02*
X102190476Y-87890476D01*
X102380952Y-87985714D02*
X101980952Y-87985714D01*
X101980952Y-87833333D01*
X102000000Y-87795238D01*
X102019047Y-87776190D01*
X102057142Y-87757142D01*
X102114285Y-87757142D01*
X102152380Y-87776190D01*
X102171428Y-87795238D01*
X102190476Y-87833333D01*
X102190476Y-87985714D01*
X102380952Y-87376190D02*
X102380952Y-87604761D01*
X102380952Y-87490476D02*
X101980952Y-87490476D01*
X102038095Y-87528571D01*
X102076190Y-87566666D01*
X102095238Y-87604761D01*
X101980952Y-87242857D02*
X101980952Y-86995238D01*
X102133333Y-87128571D01*
X102133333Y-87071428D01*
X102152380Y-87033333D01*
X102171428Y-87014285D01*
X102209523Y-86995238D01*
X102304761Y-86995238D01*
X102342857Y-87014285D01*
X102361904Y-87033333D01*
X102380952Y-87071428D01*
X102380952Y-87185714D01*
X102361904Y-87223809D01*
X102342857Y-87242857D01*
X54430952Y-86657142D02*
X54240476Y-86790476D01*
X54430952Y-86885714D02*
X54030952Y-86885714D01*
X54030952Y-86733333D01*
X54050000Y-86695238D01*
X54069047Y-86676190D01*
X54107142Y-86657142D01*
X54164285Y-86657142D01*
X54202380Y-86676190D01*
X54221428Y-86695238D01*
X54240476Y-86733333D01*
X54240476Y-86885714D01*
X54430952Y-86276190D02*
X54430952Y-86504761D01*
X54430952Y-86390476D02*
X54030952Y-86390476D01*
X54088095Y-86428571D01*
X54126190Y-86466666D01*
X54145238Y-86504761D01*
X54164285Y-85933333D02*
X54430952Y-85933333D01*
X54011904Y-86028571D02*
X54297619Y-86123809D01*
X54297619Y-85876190D01*
X52730952Y-86657142D02*
X52540476Y-86790476D01*
X52730952Y-86885714D02*
X52330952Y-86885714D01*
X52330952Y-86733333D01*
X52350000Y-86695238D01*
X52369047Y-86676190D01*
X52407142Y-86657142D01*
X52464285Y-86657142D01*
X52502380Y-86676190D01*
X52521428Y-86695238D01*
X52540476Y-86733333D01*
X52540476Y-86885714D01*
X52730952Y-86276190D02*
X52730952Y-86504761D01*
X52730952Y-86390476D02*
X52330952Y-86390476D01*
X52388095Y-86428571D01*
X52426190Y-86466666D01*
X52445238Y-86504761D01*
X52330952Y-85914285D02*
X52330952Y-86104761D01*
X52521428Y-86123809D01*
X52502380Y-86104761D01*
X52483333Y-86066666D01*
X52483333Y-85971428D01*
X52502380Y-85933333D01*
X52521428Y-85914285D01*
X52559523Y-85895238D01*
X52654761Y-85895238D01*
X52692857Y-85914285D01*
X52711904Y-85933333D01*
X52730952Y-85971428D01*
X52730952Y-86066666D01*
X52711904Y-86104761D01*
X52692857Y-86123809D01*
X107050952Y-79743333D02*
X106860476Y-79876666D01*
X107050952Y-79971904D02*
X106650952Y-79971904D01*
X106650952Y-79819523D01*
X106670000Y-79781428D01*
X106689047Y-79762380D01*
X106727142Y-79743333D01*
X106784285Y-79743333D01*
X106822380Y-79762380D01*
X106841428Y-79781428D01*
X106860476Y-79819523D01*
X106860476Y-79971904D01*
X106784285Y-79571904D02*
X107184285Y-79571904D01*
X106803333Y-79571904D02*
X106784285Y-79533809D01*
X106784285Y-79457619D01*
X106803333Y-79419523D01*
X106822380Y-79400476D01*
X106860476Y-79381428D01*
X106974761Y-79381428D01*
X107012857Y-79400476D01*
X107031904Y-79419523D01*
X107050952Y-79457619D01*
X107050952Y-79533809D01*
X107031904Y-79571904D01*
X107050952Y-79210000D02*
X106784285Y-79210000D01*
X106860476Y-79210000D02*
X106822380Y-79190952D01*
X106803333Y-79171904D01*
X106784285Y-79133809D01*
X106784285Y-79095714D01*
X107050952Y-78905238D02*
X107031904Y-78943333D01*
X107012857Y-78962380D01*
X106974761Y-78981428D01*
X106860476Y-78981428D01*
X106822380Y-78962380D01*
X106803333Y-78943333D01*
X106784285Y-78905238D01*
X106784285Y-78848095D01*
X106803333Y-78810000D01*
X106822380Y-78790952D01*
X106860476Y-78771904D01*
X106974761Y-78771904D01*
X107012857Y-78790952D01*
X107031904Y-78810000D01*
X107050952Y-78848095D01*
X107050952Y-78905238D01*
X106784285Y-78429047D02*
X107108095Y-78429047D01*
X107146190Y-78448095D01*
X107165238Y-78467142D01*
X107184285Y-78505238D01*
X107184285Y-78562380D01*
X107165238Y-78600476D01*
X107031904Y-78429047D02*
X107050952Y-78467142D01*
X107050952Y-78543333D01*
X107031904Y-78581428D01*
X107012857Y-78600476D01*
X106974761Y-78619523D01*
X106860476Y-78619523D01*
X106822380Y-78600476D01*
X106803333Y-78581428D01*
X106784285Y-78543333D01*
X106784285Y-78467142D01*
X106803333Y-78429047D01*
X107050952Y-78029047D02*
X107050952Y-78257619D01*
X107050952Y-78143333D02*
X106650952Y-78143333D01*
X106708095Y-78181428D01*
X106746190Y-78219523D01*
X106765238Y-78257619D01*
D11*
X120222380Y-74491904D02*
X121031904Y-74491904D01*
X121127142Y-74444285D01*
X121174761Y-74396666D01*
X121222380Y-74301428D01*
X121222380Y-74110952D01*
X121174761Y-74015714D01*
X121127142Y-73968095D01*
X121031904Y-73920476D01*
X120222380Y-73920476D01*
X121222380Y-72920476D02*
X121222380Y-73491904D01*
X121222380Y-73206190D02*
X120222380Y-73206190D01*
X120365238Y-73301428D01*
X120460476Y-73396666D01*
X120508095Y-73491904D01*
D15*
X114279047Y-79796190D02*
X114279047Y-80200952D01*
X114302857Y-80248571D01*
X114326666Y-80272380D01*
X114374285Y-80296190D01*
X114469523Y-80296190D01*
X114517142Y-80272380D01*
X114540952Y-80248571D01*
X114564761Y-80200952D01*
X114564761Y-79796190D01*
X114755238Y-79796190D02*
X115064761Y-79796190D01*
X114898095Y-79986666D01*
X114969523Y-79986666D01*
X115017142Y-80010476D01*
X115040952Y-80034285D01*
X115064761Y-80081904D01*
X115064761Y-80200952D01*
X115040952Y-80248571D01*
X115017142Y-80272380D01*
X114969523Y-80296190D01*
X114826666Y-80296190D01*
X114779047Y-80272380D01*
X114755238Y-80248571D01*
X109359047Y-78656190D02*
X109359047Y-79060952D01*
X109382857Y-79108571D01*
X109406666Y-79132380D01*
X109454285Y-79156190D01*
X109549523Y-79156190D01*
X109597142Y-79132380D01*
X109620952Y-79108571D01*
X109644761Y-79060952D01*
X109644761Y-78656190D01*
X110120952Y-78656190D02*
X109882857Y-78656190D01*
X109859047Y-78894285D01*
X109882857Y-78870476D01*
X109930476Y-78846666D01*
X110049523Y-78846666D01*
X110097142Y-78870476D01*
X110120952Y-78894285D01*
X110144761Y-78941904D01*
X110144761Y-79060952D01*
X110120952Y-79108571D01*
X110097142Y-79132380D01*
X110049523Y-79156190D01*
X109930476Y-79156190D01*
X109882857Y-79132380D01*
X109859047Y-79108571D01*
D13*
X109555714Y-52050952D02*
X109555714Y-51650952D01*
X109650952Y-51650952D01*
X109708095Y-51670000D01*
X109746190Y-51708095D01*
X109765238Y-51746190D01*
X109784285Y-51822380D01*
X109784285Y-51879523D01*
X109765238Y-51955714D01*
X109746190Y-51993809D01*
X109708095Y-52031904D01*
X109650952Y-52050952D01*
X109555714Y-52050952D01*
X109955714Y-52050952D02*
X109955714Y-51650952D01*
X110184285Y-52050952D01*
X110184285Y-51650952D01*
X110374761Y-52050952D02*
X110374761Y-51650952D01*
X110527142Y-51650952D01*
X110565238Y-51670000D01*
X110584285Y-51689047D01*
X110603333Y-51727142D01*
X110603333Y-51784285D01*
X110584285Y-51822380D01*
X110565238Y-51841428D01*
X110527142Y-51860476D01*
X110374761Y-51860476D01*
D11*
X109866666Y-39952380D02*
X109866666Y-40666666D01*
X109819047Y-40809523D01*
X109723809Y-40904761D01*
X109580952Y-40952380D01*
X109485714Y-40952380D01*
X110771428Y-40285714D02*
X110771428Y-40952380D01*
X110533333Y-39904761D02*
X110295238Y-40619047D01*
X110914285Y-40619047D01*
X124838095Y-67152380D02*
X125409523Y-67152380D01*
X125123809Y-68152380D02*
X125123809Y-67152380D01*
X125742857Y-68152380D02*
X125742857Y-67152380D01*
X126123809Y-67152380D01*
X126219047Y-67200000D01*
X126266666Y-67247619D01*
X126314285Y-67342857D01*
X126314285Y-67485714D01*
X126266666Y-67580952D01*
X126219047Y-67628571D01*
X126123809Y-67676190D01*
X125742857Y-67676190D01*
X127266666Y-68152380D02*
X126695238Y-68152380D01*
X126980952Y-68152380D02*
X126980952Y-67152380D01*
X126885714Y-67295238D01*
X126790476Y-67390476D01*
X126695238Y-67438095D01*
X103288095Y-48252380D02*
X103859523Y-48252380D01*
X103573809Y-49252380D02*
X103573809Y-48252380D01*
X104192857Y-49252380D02*
X104192857Y-48252380D01*
X104573809Y-48252380D01*
X104669047Y-48300000D01*
X104716666Y-48347619D01*
X104764285Y-48442857D01*
X104764285Y-48585714D01*
X104716666Y-48680952D01*
X104669047Y-48728571D01*
X104573809Y-48776190D01*
X104192857Y-48776190D01*
X105145238Y-48347619D02*
X105192857Y-48300000D01*
X105288095Y-48252380D01*
X105526190Y-48252380D01*
X105621428Y-48300000D01*
X105669047Y-48347619D01*
X105716666Y-48442857D01*
X105716666Y-48538095D01*
X105669047Y-48680952D01*
X105097619Y-49252380D01*
X105716666Y-49252380D01*
X103338095Y-83152380D02*
X103909523Y-83152380D01*
X103623809Y-84152380D02*
X103623809Y-83152380D01*
X104242857Y-84152380D02*
X104242857Y-83152380D01*
X104623809Y-83152380D01*
X104719047Y-83200000D01*
X104766666Y-83247619D01*
X104814285Y-83342857D01*
X104814285Y-83485714D01*
X104766666Y-83580952D01*
X104719047Y-83628571D01*
X104623809Y-83676190D01*
X104242857Y-83676190D01*
X105147619Y-83152380D02*
X105766666Y-83152380D01*
X105433333Y-83533333D01*
X105576190Y-83533333D01*
X105671428Y-83580952D01*
X105719047Y-83628571D01*
X105766666Y-83723809D01*
X105766666Y-83961904D01*
X105719047Y-84057142D01*
X105671428Y-84104761D01*
X105576190Y-84152380D01*
X105290476Y-84152380D01*
X105195238Y-84104761D01*
X105147619Y-84057142D01*
X75388095Y-87154761D02*
X75530952Y-87202380D01*
X75769047Y-87202380D01*
X75864285Y-87154761D01*
X75911904Y-87107142D01*
X75959523Y-87011904D01*
X75959523Y-86916666D01*
X75911904Y-86821428D01*
X75864285Y-86773809D01*
X75769047Y-86726190D01*
X75578571Y-86678571D01*
X75483333Y-86630952D01*
X75435714Y-86583333D01*
X75388095Y-86488095D01*
X75388095Y-86392857D01*
X75435714Y-86297619D01*
X75483333Y-86250000D01*
X75578571Y-86202380D01*
X75816666Y-86202380D01*
X75959523Y-86250000D01*
X76388095Y-87202380D02*
X76388095Y-86202380D01*
X76626190Y-86202380D01*
X76769047Y-86250000D01*
X76864285Y-86345238D01*
X76911904Y-86440476D01*
X76959523Y-86630952D01*
X76959523Y-86773809D01*
X76911904Y-86964285D01*
X76864285Y-87059523D01*
X76769047Y-87154761D01*
X76626190Y-87202380D01*
X76388095Y-87202380D01*
X77911904Y-87202380D02*
X77340476Y-87202380D01*
X77626190Y-87202380D02*
X77626190Y-86202380D01*
X77530952Y-86345238D01*
X77435714Y-86440476D01*
X77340476Y-86488095D01*
M02*
